<?xml version="1.0" encoding="UTF-8"?>
<svg width="100px" height="100px" viewBox="0 0 100 100" version="1.1" xmlns="http://www.w3.org/2000/svg" xmlns:xlink="http://www.w3.org/1999/xlink">
    <title>账单</title>
    <g id="页面-1" stroke="none" stroke-width="1" fill="none" fill-rule="evenodd">
        <g id="首页/已申请" transform="translate(-450.000000, -640.000000)">
            <g id="账单" transform="translate(450.000000, 640.000000)">
                <circle id="椭圆形备份-4" fill="#F5F5F5" cx="50" cy="50" r="50"></circle>
                <g id="zhangdan-2" transform="translate(28.000000, 28.000000)" fill="#000000" fill-rule="nonzero">
                    <path d="M39.368421,0 L4.63157896,0 C2.07362853,0 0,2.07362853 0,4.63157896 L0,39.368421 C0,41.9263715 2.07362853,44 4.63157896,44 L21.9536842,44 C34.1242372,43.9872359 43.9872359,34.1242372 44,21.9536842 L44,4.63157896 C44,2.07362853 41.9263715,0 39.368421,0 Z M29.1094737,38.9052632 C26.8450412,39.8602227 24.411233,40.3485596 21.9536842,40.3411379 L5.97473684,40.3411379 C4.69576163,40.3411379 3.65894736,39.3042384 3.65894736,38.0252632 L3.65894736,5.95157896 C3.65894736,4.67260375 4.69576163,3.63578948 5.97473684,3.63578948 L38.048421,3.63578948 C39.3273963,3.63578948 40.3642105,4.67260375 40.3642105,5.95157896 L40.3642105,21.9536842 C40.33304,29.3375632 35.9201115,35.9979007 29.1326316,38.9052632 L29.1094737,38.9052632 Z" id="形状"></path>
                    <path d="M27.0021053,11.44 L16.9978947,11.44 C16.0729147,11.5445654 15.3739269,12.3270232 15.3739269,13.2578947 C15.3739269,14.1887663 16.0729147,14.9712241 16.9978947,15.0757895 L26.9789474,15.0757895 C27.9039274,14.9712241 28.6029152,14.1887663 28.6029152,13.2578947 C28.6029152,12.3270232 27.9039274,11.5445654 26.9789474,11.44 L27.0021053,11.44 Z" id="路径"></path>
                </g>
            </g>
        </g>
    </g>
</svg>