<?xml version="1.0" encoding="UTF-8"?>
<svg width="140px" height="140px" viewBox="0 0 140 140" version="1.1" xmlns="http://www.w3.org/2000/svg" xmlns:xlink="http://www.w3.org/1999/xlink">
    <title>chenggong</title>
    <g id="页面-1" stroke="none" stroke-width="1" fill="none" fill-rule="evenodd">
        <g id="审核成功" transform="translate(-305.000000, -560.000000)">
            <g id="chenggong" transform="translate(305.000000, 560.000000)">
                <path d="M69.7852761,0.0429447853 C31.0490798,0.0429447853 0.0429447853,31.1349693 0.0429447853,69.7852761 C0.0429447853,108.521472 31.1349693,139.527607 69.7852761,139.527607 C108.521472,139.527607 139.527607,108.435583 139.527607,69.7852761 C139.527607,31.0490798 108.521472,0.0429447853 69.7852761,0.0429447853 Z" id="形状" fill="#FAFAFA" fill-rule="nonzero"></path>
                <path d="M97.2538181,60.4950632 L65.7928652,91.9560161 C64.2884953,93.460386 61.8030146,93.460386 60.2986448,91.9560161 L42.2462061,73.9035775 C40.2839845,71.9413559 40.2839845,68.8672087 42.2462061,66.9703945 C44.2084277,65.0081729 47.2825748,65.0081729 49.179389,66.9703945 L62.4570885,80.248094 L89.7319687,52.9732138 C91.8250051,50.8801774 95.1607818,50.8801774 97.2538181,52.9732138 C99.2814471,55.0662501 99.2814471,58.4020269 97.2538181,60.4950632 Z" id="路径" fill="#4047D6"></path>
            </g>
        </g>
    </g>
</svg>