<?xml version="1.0" encoding="UTF-8"?>
<svg width="42px" height="41px" viewBox="0 0 42 41" version="1.1" xmlns="http://www.w3.org/2000/svg" xmlns:xlink="http://www.w3.org/1999/xlink">
    <title>编组 4</title>
    <defs>
        <polygon id="path-1" points="0.00350569676 0.00969909436 28.5616126 0.00969909436 28.5616126 28.5713117 0.00350569676 28.5713117"></polygon>
    </defs>
    <g id="页面-1" stroke="none" stroke-width="1" fill="none" fill-rule="evenodd">
        <g id="申请卡片/支付费用" transform="translate(-625.000000, -1096.000000)">
            <g id="编组-3" transform="translate(83.500000, 1096.000000)">
                <g id="编组-4" transform="translate(542.500000, 0.500000)">
                    <g id="编组" transform="translate(5.500000, 5.500000)">
                        <mask id="mask-2" fill="white">
                            <use xlink:href="#path-1"></use>
                        </mask>
                        <g id="Clip-2"></g>
                        <path d="M28.5616126,22.6210342 L26.1815951,22.6210342 L26.1815951,5.96003506 C26.1815951,4.05609115 24.5154543,2.39000876 22.6112767,2.39000876 L5.95033596,2.39000876 L5.95033596,0.00969909436 L22.6112767,0.00969909436 C25.9434999,0.00969909436 28.5616126,2.62781186 28.5616126,5.96003506 L28.5616126,22.6210342 Z" id="Fill-1" fill="#000000" mask="url(#mask-2)"></path>
                        <path d="M20.2312591,28.5713117 L3.57026001,28.5713117 C1.66614081,28.5713117 0,26.905463 0,25.0012854 L0,8.34034473 C0,6.4361671 1.66614081,4.77002629 3.57026001,4.77002629 L20.2312591,4.77002629 C22.135203,4.77002629 23.8012854,6.4361671 23.8012854,8.34034473 L23.8012854,25.0012854 C23.8012854,26.9052293 22.135203,28.5713117 20.2312591,28.5713117 Z M3.57026001,7.15027753 C2.85614958,7.15027753 2.38001753,7.62640958 2.38001753,8.34034473 L2.38001753,25.0012854 C2.38001753,25.7154543 2.85614958,26.1912942 3.57026001,26.1912942 L20.2312591,26.1912942 C20.9451943,26.1912942 21.4212679,25.7154543 21.4212679,25.0012854 L21.4212679,8.34034473 C21.4212679,7.62617587 20.9451943,7.15027753 20.2312591,7.15027753 L3.57026001,7.15027753 Z" id="Fill-3" fill="#000000" mask="url(#mask-2)"></path>
                    </g>
                    <circle id="椭圆形" cx="20" cy="20" r="20"></circle>
                </g>
            </g>
        </g>
    </g>
</svg>