<?xml version="1.0" encoding="UTF-8"?>
<svg width="100px" height="100px" viewBox="0 0 100 100" version="1.1" xmlns="http://www.w3.org/2000/svg" xmlns:xlink="http://www.w3.org/1999/xlink">
    <title>接收</title>
    <g id="页面-1" stroke="none" stroke-width="1" fill="none" fill-rule="evenodd">
        <g id="首页/已申请" transform="translate(-200.000000, -640.000000)">
            <g id="接收" transform="translate(200.000000, 640.000000)">
                <circle id="椭圆形" fill="#F5F5F5" cx="50" cy="50" r="50"></circle>
                <g id="编组-6" transform="translate(29.000000, 29.000000)" fill="#000000" stroke="#000000">
                    <path d="M20.960561,-6.53699317e-13 L20.960883,0.0116646503 C21.2018939,0.0105321352 21.4431281,0.072297769 21.6590415,0.196961552 C22.0870317,0.444044479 22.3505049,0.900820088 22.3505049,1.39478106 C22.3505049,1.88899814 22.0870317,2.34577375 21.6590415,2.59285667 C21.3996298,2.7425113 21.103667,2.80144702 20.8154554,2.76966383 C10.8032679,2.81544813 2.66475021,11.044538 2.76943902,21.0905274 C2.86988049,30.9208323 10.8591512,38.9207055 20.6895073,39.037742 C30.7443073,39.1553933 38.987678,31.0190713 39.0402805,21.0026859 L39.04,21.0259266 L39.0396659,21.0142616 C39.0396659,20.5695123 39.2532866,20.1552151 39.6079783,19.8966797 L39.7313341,19.816442 C40.1592732,19.5693079 40.6864756,19.5693079 41.1144659,19.816442 C41.5424049,20.063525 41.8061341,20.5200957 41.8061341,21.0142616 L41.805,21.0019266 C41.9043442,32.5191708 32.7384338,41.7704805 21.2550345,41.9562007 L20.9027854,41.9590469 C9.37557805,41.9590469 -3.55271368e-15,32.5834689 -3.55271368e-15,20.9028591 C-3.55271368e-15,9.35685423 9.40759024,-0.0303506433 20.960561,-6.53699317e-13 L20.960561,-6.53699317e-13 Z" id="形状结合"></path>
                    <g id="编组" transform="translate(18.695122, 3.134708)">
                        <path d="M19.6620951,0.392495122 C19.423822,0.154017073 19.1002683,0.0199756098 18.7631415,0.0199756098 C18.4258098,0.0199756098 18.1025122,0.154017073 17.8639829,0.392495122 L2.58059268,15.6743488 L2.58059268,8.48256585 C2.58059268,7.77312439 2.00555122,7.19808293 1.29631463,7.19808293 C0.586821951,7.19808293 0.0117804878,7.77312439 0.0117804878,8.48256585 L0.0117804878,19.2423 C0.0117804878,19.4539902 0.0958317073,19.6572293 0.2457,19.8068927 C0.395363415,19.9565561 0.59844878,20.0408122 0.810292683,20.0408122 L11.5722293,20.0408122 C12.2809024,20.0408122 12.8554829,19.4661805 12.8554829,18.7575073 C12.8556878,18.417 12.7204683,18.0904756 12.4797366,17.849539 C12.2390561,17.6088585 11.9125317,17.4734341 11.5722293,17.4734341 L4.37506829,17.4734341 L19.6620951,2.19060732 C19.900778,1.95228293 20.0346146,1.62878049 20.0346146,1.29165366 C20.0346146,0.954321951 19.900778,0.63102439 19.6620951,0.392495122 Z" id="Fill-6"></path>
                    </g>
                </g>
            </g>
        </g>
    </g>
</svg>