<?xml version="1.0" encoding="UTF-8"?>
<svg width="40px" height="40px" viewBox="0 0 40 40" version="1.1" xmlns="http://www.w3.org/2000/svg" xmlns:xlink="http://www.w3.org/1999/xlink">
    <title>编组</title>
    <g id="后台机构" stroke="none" stroke-width="1" fill="none" fill-rule="evenodd">
        <g id="h5-登录" transform="translate(-355.000000, -130.000000)">
            <g id="编组" transform="translate(355.000000, 130.000000)">
                <polygon id="Fill-11" fill="#7280EB" points="30.5253333 -0.000166666667 30.5253333 -0.000166666667 30.5253333 8.9465 30.5253333 24.1448333 30.5253333 29.1998333 30.5036667 29.1831667 30.5036667 39.4731667 30.5253333 39.4731667 39.472 39.4731667 39.472 35.4765 39.472 35.4631667 39.472 30.4098333 39.472 8.9465 39.472 -0.000166666667"></polygon>
                <path d="M8.948,25.012 L8.948,39.472 L-0.000333333334,39.472 L-0.000333333334,0.000333333333 L16.578,0.000333333333 C21.5196667,0.000333333333 25.5246667,4.00533333 25.5246667,8.947 L25.5246667,8.947 L25.5246667,20.6436667 L25.4196667,20.5703333 L16.578,14.3803333 L16.578,10.8853333 C16.578,9.81366667 15.7113333,8.947 14.6413333,8.947 L14.6413333,8.947 L8.948,8.947 L8.948,14.0886667 L16.578,19.432 L20.018,21.8403333 L25.4196667,25.6233333 L30.503,29.1833333 L30.503,39.4733333 L29.5996667,39.4733333 L25.4196667,36.5466667 L25.4196667,36.5453333 L8.948,25.012 Z" id="形状结合" fill="#2B1CBD"></path>
            </g>
        </g>
    </g>
</svg>