<?xml version="1.0" standalone="no"?><!DOCTYPE svg PUBLIC "-//W3C//DTD SVG 1.1//EN" "http://www.w3.org/Graphics/SVG/1.1/DTD/svg11.dtd"><svg class="icon" width="200px" height="200.00px" viewBox="0 0 1024 1024" version="1.1" xmlns="http://www.w3.org/2000/svg"><path d="M864 896H160c-52.8 0-96-43.2-96-96V224c0-52.8 43.2-96 96-96h704c52.8 0 96 43.2 96 96v576c0 52.8-43.2 96-96 96zM160 192c-17.6 0-32 14.4-32 32v576c0 17.6 14.4 32 32 32h704c17.6 0 32-14.4 32-32V224c0-17.6-14.4-32-32-32H160z" fill="#ffffff" /><path d="M512 617.6c-22.4 0-46.4-8-64-24L203.2 376c-12.8-11.2-14.4-32-3.2-44.8 11.2-12.8 32-14.4 44.8-3.2l244.8 217.6c12.8 11.2 30.4 11.2 43.2 0l244.8-217.6c12.8-11.2 33.6-11.2 44.8 3.2s11.2 33.6-3.2 44.8L576 593.6c-19.2 16-41.6 24-64 24z" fill="#ffffff" /></svg>