<?xml version="1.0" encoding="UTF-8"?>
<svg width="140px" height="140px" viewBox="0 0 140 140" version="1.1" xmlns="http://www.w3.org/2000/svg" xmlns:xlink="http://www.w3.org/1999/xlink">
    <title>shenhezhong</title>
    <g id="页面-1" stroke="none" stroke-width="1" fill="none" fill-rule="evenodd">
        <g id="审核中" transform="translate(-305.000000, -560.000000)">
            <g id="shenhezhong" transform="translate(305.000000, 560.000000)">
                <path d="M70,140 C31.339,140 0,108.661 0,70 C0,31.339 31.339,0 70,0 C108.661,0 140,31.339 140,70 C140,108.661 108.661,140 70,140 Z" id="形状" fill="#FAFAFA" fill-rule="nonzero"></path>
                <path d="M46,77.5 C50.1421356,77.5 53.5,74.1421356 53.5,70 C53.5,65.8578644 50.1421356,62.5 46,62.5 C41.8578644,62.5 38.5,65.8578644 38.5,70 C38.5,74.1421356 41.8578644,77.5 46,77.5 Z" id="路径" fill="#4047D6"></path>
                <path d="M70,77.5 C74.1421356,77.5 77.5,74.1421356 77.5,70 C77.5,65.8578644 74.1421356,62.5 70,62.5 C65.8578644,62.5 62.5,65.8578644 62.5,70 C62.5,74.1421356 65.8578644,77.5 70,77.5 Z" id="路径" fill="#4047D6"></path>
                <path d="M94,77.5 C98.1421356,77.5 101.5,74.1421356 101.5,70 C101.5,65.8578644 98.1421356,62.5 94,62.5 C89.8578644,62.5 86.5,65.8578644 86.5,70 C86.5,74.1421356 89.8578644,77.5 94,77.5 Z" id="路径" fill="#4047D6"></path>
            </g>
        </g>
    </g>
</svg>