<?xml version="1.0" encoding="UTF-8"?>
<svg width="140px" height="140px" viewBox="0 0 140 140" version="1.1" xmlns="http://www.w3.org/2000/svg" xmlns:xlink="http://www.w3.org/1999/xlink">
    <title>shibai</title>
    <g id="页面-1" stroke="none" stroke-width="1" fill="none" fill-rule="evenodd">
        <g id="审核失败" transform="translate(-305.000000, -560.000000)">
            <g id="shibai" transform="translate(305.000000, 560.000000)">
                <path d="M70.0034911,0.0791530308 C31.3944993,0.0791530308 0.0958082888,31.3778441 0.0958082888,69.9868359 C0.0958082888,108.595987 31.3944993,139.894519 70.0034911,139.894519 C108.612642,139.894519 139.911174,108.595987 139.911174,69.9868359 C139.911174,31.3778442 108.612642,0.0791530308 70.0034911,0.0791530308 Z" id="形状" fill="#FAFAFA" fill-rule="nonzero"></path>
                <path d="M90.0042764,84.9968729 C91.3818908,86.3754069 91.3818908,88.6102087 90.0042764,89.9867887 C88.6247081,91.3653227 86.3909407,91.3653227 85.0113723,89.9867887 L70.0376022,75.0130186 L55.0626828,89.9867887 C53.6841488,91.3653227 51.4503814,91.3653227 50.0706982,89.9867887 C48.6930838,88.6102088 48.6930838,86.3754069 50.0706982,84.9968729 L65.046537,70.0189652 L50.0706983,55.0450803 C48.6930839,53.6685003 48.6930839,51.4317446 50.0706983,50.0532106 C51.4502666,48.6766306 53.684034,48.6766306 55.0626829,50.0532106 L70.0376023,65.0290495 L85.0113724,50.0532106 C86.3909407,48.6766306 88.6247081,48.6766306 90.0042765,50.0532106 C91.381891,51.4317446 91.381891,53.6686152 90.0042765,55.0450803 L75.0284376,70.0189653 L90.0042764,84.9968729 Z" id="路径" fill="#4047D6"></path>
            </g>
        </g>
    </g>
</svg>