<?xml version="1.0" standalone="no"?><!DOCTYPE svg PUBLIC "-//W3C//DTD SVG 1.1//EN" "http://www.w3.org/Graphics/SVG/1.1/DTD/svg11.dtd"><svg class="icon" width="200px" height="200.00px" viewBox="0 0 1024 1024" version="1.1" xmlns="http://www.w3.org/2000/svg"><path d="M512 725.344A213.44 213.44 0 0 0 725.344 512a207.04 207.04 0 0 0-15.36-78.08l124.576-124.576A504.192 504.192 0 0 1 980.896 512c-73.792 187.296-256 320-469.312 320-59.744 0-116.928-10.656-169.824-29.856l92.16-92.16a207.04 207.04 0 0 0 78.08 15.36z m-426.656 116.48l97.28-97.28 19.616-19.648A503.648 503.648 0 0 1 42.656 512C116.48 324.704 298.656 192 512 192c66.144 0 129.28 12.8 186.88 35.84l17.92-17.92 125.024-124.576L896 139.52 139.52 896l-54.176-54.176z m235.936-235.968l66.144-66.112A120.384 120.384 0 0 1 384 512c0-70.816 57.184-128 128-128 9.376 0 18.784 1.28 27.744 3.424l66.112-66.144A211.488 211.488 0 0 0 512 298.656 213.44 213.44 0 0 0 298.656 512c0 33.696 8.544 65.28 22.624 93.856z m183.904 33.28l134.4-134.4 0.832 6.848c0 70.816-57.152 128-128 128l-7.232-0.448z" fill="#000000" /></svg>