<?xml version="1.0" standalone="no"?><!DOCTYPE svg PUBLIC "-//W3C//DTD SVG 1.1//EN" "http://www.w3.org/Graphics/SVG/1.1/DTD/svg11.dtd"><svg class="icon" width="200px" height="200.00px" viewBox="0 0 1024 1024" version="1.1" xmlns="http://www.w3.org/2000/svg"><path d="M512 192C298.656 192 116.48 324.704 42.656 512c73.824 187.296 256 320 469.344 320s395.52-132.704 469.344-320C907.52 324.704 725.344 192 512 192z m0 533.344A213.44 213.44 0 0 1 298.656 512 213.44 213.44 0 0 1 512 298.656 213.44 213.44 0 0 1 725.344 512 213.44 213.44 0 0 1 512 725.344zM512 384c-70.816 0-128 57.184-128 128s57.184 128 128 128 128-57.184 128-128-57.184-128-128-128z" fill="#000000" /></svg>