<?xml version="1.0" standalone="no"?>
<!DOCTYPE svg PUBLIC "-//W3C//DTD SVG 1.1//EN" "http://www.w3.org/Graphics/SVG/1.1/DTD/svg11.dtd" >
<svg xmlns="http://www.w3.org/2000/svg" xmlns:xlink="http://www.w3.org/1999/xlink" version="1.1">
<metadata>
Created by FontForge 20170924 at Mon Sep 10 09:56:21 2018
 By www-data
Copyright (c) 2018 by atipo. All rights reserved.
</metadata>
<defs>
<font id="Silka-Bold" horiz-adv-x="1236" >
  <font-face 
    font-family="Silka Bold"
    font-weight="700"
    font-stretch="normal"
    units-per-em="2048"
    panose-1="0 0 8 0 0 0 0 0 0 0"
    ascent="1638"
    descent="-410"
    x-height="1081"
    cap-height="1434"
    bbox="-360 -498 2279 1937"
    underline-thickness="102"
    underline-position="-612"
    unicode-range="U+000D-25FC"
  />
<missing-glyph horiz-adv-x="1163" 
d="M70 0v1434h1024v-1434h-1024zM172 195l348 522l-348 522v-1044zM233 102h697l-348 523zM233 1331l349 -522l348 522h-697zM643 717l348 -522v1044z" />
    <glyph glyph-name="ellipsis" unicode="&#x2e;&#x2e;&#x2e;" horiz-adv-x="1619" 
d="M106 143q0 72 51.5 121t123.5 49q77 0 125.5 -48.5t48.5 -121.5q0 -75 -48 -122.5t-126 -47.5q-73 0 -124 48t-51 122zM637 143q0 72 50 121t122 49q77 0 126.5 -48.5t49.5 -121.5q0 -75 -49 -122.5t-127 -47.5q-73 0 -122.5 48t-49.5 122zM1165 143q0 72 51 121t123 49
q76 0 125 -48.5t49 -121.5q0 -75 -48.5 -122.5t-125.5 -47.5q-73 0 -123.5 48t-50.5 122z" />
    <glyph glyph-name="degree.alt" unicode="&#xb0;C" horiz-adv-x="2002" 
d="M109 1157q0 128 85.5 215.5t221.5 87.5q135 0 220 -87t85 -214q0 -129 -85 -216t-220 -87q-138 0 -222.5 86.5t-84.5 214.5zM301 1157q0 -51 31 -84t84 -33q51 0 81.5 33.5t30.5 85.5q0 51 -30.5 84t-81.5 33q-52 0 -83.5 -33.5t-31.5 -85.5zM858 451v532q0 111 42.5 203
t113.5 150.5t160.5 91t185.5 32.5q223 0 362.5 -136.5t139.5 -360.5h-320q0 89 -49 140.5t-133 51.5q-80 0 -130 -51.5t-50 -140.5v-492q0 -89 50 -140.5t130 -51.5q79 0 130.5 52t51.5 138h320q0 -223 -141 -359.5t-361 -136.5q-96 0 -185.5 32.5t-160.5 91.5t-113.5 151
t-42.5 203z" />
    <glyph glyph-name=".notdef" horiz-adv-x="1163" 
d="M70 0v1434h1024v-1434h-1024zM172 195l348 522l-348 522v-1044zM233 102h697l-348 523zM233 1331l349 -522l348 522h-697zM643 717l348 -522v1044z" />
    <glyph glyph-name=".null" horiz-adv-x="0" 
 />
    <glyph glyph-name="nonmarkingreturn" horiz-adv-x="682" 
 />
    <glyph glyph-name="CR" unicode="&#xd;" horiz-adv-x="0" 
 />
    <glyph glyph-name="space" unicode=" " horiz-adv-x="528" 
 />
    <glyph glyph-name="exclam" unicode="!" horiz-adv-x="614" 
d="M133 143q0 72 51 121t123 49q77 0 125.5 -48.5t48.5 -121.5q0 -75 -48 -122.5t-126 -47.5q-73 0 -123.5 48t-50.5 122zM147 897v537h324v-537l-70 -469h-184z" />
    <glyph glyph-name="quotedbl" unicode="&#x22;" horiz-adv-x="950" 
d="M129 1434h285l-27 -486h-233zM539 1434h284l-24 -486h-236z" />
    <glyph glyph-name="numbersign" unicode="#" horiz-adv-x="1226" 
d="M94 377v233h174l33 211h-145v234h180l57 379h246l-57 -379h166l57 379h246l-58 -379h140v-234h-175l-32 -211h145v-233h-180l-57 -377h-246l57 377h-166l-57 -377h-246l57 377h-139zM514 610h166l33 211h-166z" />
    <glyph glyph-name="dollar" unicode="$" horiz-adv-x="1245" 
d="M57 467h310q3 -67 44.5 -115.5t116.5 -68.5v303q-52 11 -89.5 21.5t-85.5 29t-82.5 40t-70 55.5t-57 74.5t-35.5 98t-14 125.5q0 169 115 287t319 139v113h172v-113q196 -23 316 -138.5t127 -313.5h-324q-2 56 -32 96t-87 59v-278q50 -10 83.5 -18t82.5 -22t82 -30.5
t72.5 -40.5t65.5 -55.5t49 -71.5t34 -92.5t11 -114.5q0 -188 -127 -313t-353 -146v-151h-172v151q-220 23 -346.5 155.5t-124.5 334.5zM418 1038q0 -44 28 -71t82 -45v239q-54 -13 -82 -46t-28 -77zM700 276q68 12 105 47t37 89q0 52 -36 82t-106 51v-269z" />
    <glyph glyph-name="percent" unicode="%" horiz-adv-x="1712" 
d="M129 932v258q0 120 81.5 195t207.5 75t207.5 -75t81.5 -195v-258q0 -120 -81.5 -195t-207.5 -75t-207.5 75t-81.5 195zM332 936q0 -38 23 -64t63 -26t64 26t24 64v250q0 38 -24 63t-64 25t-63 -25t-23 -63v-250zM342 180l852 1215l176 -127l-852 -1215zM1006 244v258
q0 120 81 195t207 75t207.5 -75t81.5 -195v-258q0 -120 -81.5 -195.5t-207.5 -75.5t-207 75.5t-81 195.5zM1208 248q0 -38 23 -64t63 -26q39 0 62.5 26t23.5 64v250q0 38 -23.5 63t-62.5 25q-40 0 -63 -25t-23 -63v-250z" />
    <glyph glyph-name="ampersand" unicode="&#x26;" horiz-adv-x="1431" 
d="M74 410q0 228 239 370q-127 157 -127 305q0 161 113 268t299 107q174 0 292 -107t120 -266q1 -126 -62.5 -210t-185.5 -150l-21 -10l220 -244q87 151 49 336h276q30 -147 -4.5 -290t-124.5 -261l234 -258h-379l-66 72q-172 -99 -366 -99q-101 0 -190 27t-160.5 79
t-113.5 137.5t-42 193.5zM381 410q0 -71 57.5 -117.5t145.5 -46.5q86 0 172 39l-262 295q-58 -33 -85.5 -73t-27.5 -97zM477 1077q0 -43 20 -78t66 -86l37 21q66 34 91.5 66t25.5 79q0 48 -31.5 81.5t-87.5 33.5q-53 0 -87 -34.5t-34 -82.5z" />
    <glyph glyph-name="quotesingle" unicode="'" horiz-adv-x="540" 
d="M129 1434h285l-27 -486h-233z" />
    <glyph glyph-name="parenleft" unicode="(" horiz-adv-x="1034" 
d="M78 635q0 162 45 312.5t125 270t183 214t224 159.5l224 -166q-81 -47 -150.5 -102.5t-133 -129.5t-108.5 -156.5t-71.5 -186t-26.5 -215.5q0 -139 39.5 -263.5t109.5 -221.5t154.5 -172t186.5 -134l-224 -166q-121 65 -224 159.5t-183 214.5t-125 270t-45 313z" />
    <glyph glyph-name="parenright" unicode=")" horiz-adv-x="1034" 
d="M156 -156q102 59 186 134t154.5 172t109.5 221.5t39 263.5q0 112 -26.5 215.5t-71 186t-108 156.5t-133 129.5t-150.5 102.5l223 166q121 -65 224 -159.5t183 -214t125 -270t45 -312.5q0 -163 -45 -313t-125 -270t-183 -214.5t-224 -159.5z" />
    <glyph glyph-name="asterisk" unicode="*" horiz-adv-x="952" 
d="M119 1001v150l225 -27l2 13l-176 139l106 106l140 -180l10 6l-25 226h150l-25 -226l11 -6l139 180l106 -106l-176 -139l2 -13l226 27v-150l-228 23l-2 -14l178 -136l-106 -106l-141 176l-11 -6l27 -221h-150l27 221l-10 6l-142 -176l-106 106l178 136l-4 14z" />
    <glyph glyph-name="plus" unicode="+" horiz-adv-x="1026" 
d="M10 514v246h375v385h258v-385h373v-246h-373v-385h-258v385h-375z" />
    <glyph glyph-name="comma" unicode="," horiz-adv-x="559" 
d="M102 -268l39 536h310l-121 -536h-228z" />
    <glyph glyph-name="hyphen" unicode="-" horiz-adv-x="786" 
d="M100 492v268h586v-268h-586z" />
    <glyph glyph-name="period" unicode="." horiz-adv-x="561" 
d="M106 143q0 72 51.5 121t123.5 49q77 0 125.5 -48.5t48.5 -121.5q0 -75 -48 -122.5t-126 -47.5q-73 0 -124 48t-51 122z" />
    <glyph glyph-name="slash" unicode="/" horiz-adv-x="1071" 
d="M70 -221l624 1757h307l-626 -1757h-305z" />
    <glyph glyph-name="zero" unicode="0" horiz-adv-x="1253" 
d="M125 451v532q0 111 42.5 203t113 150.5t159.5 91t185 32.5q97 0 187 -32.5t160.5 -91t113 -150.5t42.5 -203v-532q0 -111 -42.5 -203t-113 -151t-160.5 -91.5t-187 -32.5q-96 0 -185 32.5t-159.5 91.5t-113 151t-42.5 203zM444 471q0 -87 51.5 -139.5t129.5 -52.5
q81 0 131.5 52t50.5 140v492q0 88 -50.5 140t-131.5 52q-78 0 -129.5 -52.5t-51.5 -139.5v-492z" />
    <glyph glyph-name="one" unicode="1" horiz-adv-x="950" 
d="M127 975v239q200 0 279 53t79 167h297v-1434h-321v975h-334z" />
    <glyph glyph-name="two" unicode="2" horiz-adv-x="1202" 
d="M121 993q0 91 31.5 174.5t90 149t151 104.5t206.5 39q226 0 362 -124.5t136 -311.5q0 -142 -67 -240.5t-202 -179.5l-286 -168q-53 -33 -76 -66t-23 -73v-16h652v-281h-973v252q0 141 64 240t208 188l267 164q57 36 84.5 74.5t27.5 93.5q0 65 -47 108t-129 43
q-80 0 -129 -50.5t-49 -119.5h-299z" />
    <glyph glyph-name="three" unicode="3" horiz-adv-x="1230" 
d="M137 442h297q3 -70 51.5 -115.5t128.5 -45.5q86 0 137.5 49.5t51.5 124.5q0 71 -52 122.5t-141 51.5h-202v243l288 261v14h-534v289h928v-281l-299 -268v-13q148 -28 241.5 -143.5t93.5 -275.5q0 -96 -34.5 -182.5t-98 -153t-161 -105.5t-214.5 -39q-115 0 -208.5 39.5
t-151.5 105.5t-89.5 149t-31.5 173z" />
    <glyph glyph-name="four" unicode="4" horiz-adv-x="1314" 
d="M113 252v270l356 912h330l-338 -883v-12h276v295h320v-295h145v-287h-145v-252h-320v252h-624z" />
    <glyph glyph-name="five" unicode="5" horiz-adv-x="1210" 
d="M133 436h299q6 -69 55 -113t129 -44q85 0 137 52t52 128q0 77 -52 129.5t-141 52.5q-57 0 -95.5 -22.5t-57.5 -51.5h-307l59 869h831v-289h-555l-20 -291h10q92 64 205 64q128 0 231 -64.5t158 -169.5t55 -227q0 -100 -36 -188.5t-100.5 -154t-160 -103.5t-208.5 -38
q-219 0 -351 132t-137 329z" />
    <glyph glyph-name="six" unicode="6" horiz-adv-x="1257" 
d="M115 467q0 148 73 278l381 689h375l-311 -506l8 -8q27 10 66 10q56 0 114.5 -16.5t116.5 -53t103.5 -89t73.5 -131.5t28 -173q0 -142 -73 -256.5t-190.5 -176t-252.5 -61.5q-136 0 -252 60.5t-188 175t-72 258.5zM438 467q0 -80 54 -134t135 -54q82 0 136 54.5t54 133.5
q0 81 -54 136.5t-136 55.5q-81 0 -135 -56t-54 -136z" />
    <glyph glyph-name="seven" unicode="7" horiz-adv-x="1146" 
d="M98 1147v289h955v-277l-490 -1159h-354l491 1133v14h-602z" />
    <glyph glyph-name="eight" unicode="8" horiz-adv-x="1259" 
d="M106 408q0 231 207 350v16q-68 47 -111.5 123t-43.5 176q0 173 133 280t338 107q209 0 341 -107t132 -280q0 -100 -44 -176t-114 -123v-16q209 -120 209 -350q0 -194 -145 -313.5t-379 -119.5t-378.5 119t-144.5 314zM430 432q0 -73 54 -122.5t145 -49.5t144.5 49.5
t53.5 122.5q0 81 -55.5 129.5t-142.5 48.5t-143 -48.5t-56 -129.5zM467 1030q0 -64 46 -107.5t116 -43.5t116 43.5t46 107.5t-45.5 108t-116.5 44q-72 0 -117 -44t-45 -108z" />
    <glyph glyph-name="nine" unicode="9" horiz-adv-x="1257" 
d="M115 967q0 142 73 256.5t190.5 175.5t252.5 61q101 0 194 -36t163.5 -99t112.5 -156.5t42 -201.5q0 -147 -74 -279l-381 -688h-375l312 506l-9 8q-27 -10 -65 -10q-56 0 -114.5 16.5t-116.5 53t-103.5 89t-73.5 131.5t-28 173zM440 967q0 -81 54.5 -137t136.5 -56
q81 0 134.5 56t53.5 137q0 80 -53.5 134t-134.5 54q-82 0 -136.5 -54.5t-54.5 -133.5z" />
    <glyph glyph-name="colon" unicode=":" horiz-adv-x="561" 
d="M106 143q0 72 51.5 121t123.5 49q77 0 125.5 -48.5t48.5 -121.5q0 -75 -48 -122.5t-126 -47.5q-73 0 -124 48t-51 122zM106 842q0 72 51.5 121t123.5 49q77 0 125.5 -48.5t48.5 -121.5q0 -76 -48.5 -124t-125.5 -48q-73 0 -124 49t-51 123z" />
    <glyph glyph-name="semicolon" unicode=";" horiz-adv-x="567" 
d="M102 -268l39 536h310l-121 -536h-228zM106 842q0 72 51.5 121t123.5 49q77 0 125.5 -48.5t48.5 -121.5q0 -76 -48.5 -124t-125.5 -48q-73 0 -124 49t-51 123z" />
    <glyph glyph-name="less" unicode="&#x3c;" horiz-adv-x="1089" 
d="M111 492v294l868 328v-266l-584 -203v-12l584 -203v-266z" />
    <glyph glyph-name="equal" unicode="=" horiz-adv-x="1026" 
d="M10 301v248h1006v-248h-1006zM10 705v245h1006v-245h-1006z" />
    <glyph glyph-name="greater" unicode="&#x3e;" horiz-adv-x="1089" 
d="M111 164v266l583 203v12l-583 203v266l868 -328v-294z" />
    <glyph glyph-name="question" unicode="?" horiz-adv-x="1144" 
d="M109 1022q0 122 50.5 220t155.5 158t250 60q221 0 347 -118t126 -306q0 -211 -223 -358l-104 -72q-68 -50 -68 -125v-53h-285v86q0 99 40 166.5t122 124.5l113 80q46 35 68 69.5t22 81.5q0 63 -42.5 103.5t-119.5 40.5q-78 0 -120 -44.5t-44 -113.5h-288zM326 143
q0 72 51 121t123 49q77 0 125.5 -48.5t48.5 -121.5q0 -75 -48 -122.5t-126 -47.5q-73 0 -123.5 48t-50.5 122z" />
    <glyph glyph-name="at" unicode="@" horiz-adv-x="1830" 
d="M82 539q0 177 63 333.5t173 269t267 177.5t337 65t336.5 -61.5t263.5 -165.5t168 -244.5t61 -296.5q0 -242 -94 -365.5t-264 -123.5q-96 0 -158 40t-90 107h-12q-32 -62 -101.5 -105.5t-173.5 -43.5q-158 0 -261 109.5t-103 289.5q0 183 99 298.5t253 113.5
q79 -1 132.5 -31t80.5 -69h12v82h234v-476q0 -50 25.5 -78t74.5 -28q129 0 129 278q0 166 -81 294.5t-220.5 197t-312.5 68.5q-129 0 -242 -46t-194.5 -127.5t-128 -200.5t-46.5 -259q0 -194 81.5 -336.5t225.5 -215.5t332 -73h369v-213h-369q-184 0 -345 63t-275.5 173
t-180 265.5t-65.5 334.5zM731 528q0 -84 48 -135t124 -51q77 0 124.5 50t47.5 138q0 84 -47.5 136t-124.5 51q-76 0 -124 -52.5t-48 -136.5z" />
    <glyph glyph-name="A" unicode="A" horiz-adv-x="1447" 
d="M27 0l487 1434h414l493 -1434h-344l-86 254h-549l-84 -254h-331zM530 543h373l-176 534h-18z" />
    <glyph glyph-name="B" unicode="B" horiz-adv-x="1259" 
d="M141 0v1434h561q207 0 326 -107t119 -274q0 -95 -43.5 -170.5t-118.5 -120.5v-12q85 -39 147 -122t62 -208q0 -128 -63.5 -225.5t-164.5 -146t-221 -48.5h-604zM451 272h208q88 0 139.5 46t51.5 135q0 83 -56 127.5t-139 44.5h-204v-353zM451 858h208q78 0 124 45t46 117
q0 66 -46 107.5t-121 41.5h-211v-311z" />
    <glyph glyph-name="C" unicode="C" horiz-adv-x="1642" 
d="M82 717q0 209 94.5 378.5t267.5 267t392 97.5q189 0 342 -74.5t246 -200t124 -284.5h-352q-30 109 -127.5 178.5t-232.5 69.5q-184 0 -301 -123t-117 -309q0 -189 116.5 -310.5t301.5 -121.5q134 0 232.5 67t139.5 174h355q-47 -241 -245.5 -397t-481.5 -156
q-220 0 -393 97.5t-267 266.5t-94 380z" />
    <glyph glyph-name="D" unicode="D" horiz-adv-x="1468" 
d="M141 0v1434h510q169 0 308.5 -52.5t233.5 -146t145 -225t51 -287.5q0 -334 -197.5 -528.5t-540.5 -194.5h-510zM465 281h172q65 0 123.5 14.5t112.5 47.5t93 83t62 126t23 171q0 112 -34.5 197t-94 134.5t-131.5 74t-154 24.5h-172v-872z" />
    <glyph glyph-name="E" unicode="E" horiz-adv-x="1150" 
d="M141 0v1434h908v-277h-584v-297h498v-276h-498v-305h606v-279h-930z" />
    <glyph glyph-name="F" unicode="F" horiz-adv-x="1130" 
d="M141 0v1434h908v-277h-584v-330h526v-276h-526v-551h-324z" />
    <glyph glyph-name="G" unicode="G" horiz-adv-x="1656" 
d="M82 717q0 157 56 294t154.5 236t240 156t305.5 57q275 0 465.5 -148t244.5 -378h-358q-37 96 -130 155.5t-222 59.5q-188 0 -304 -122.5t-116 -309.5q0 -192 116 -316.5t304 -124.5q148 0 251.5 69t124.5 171h-391v266h752q1 -22 1 -44q0 -342 -191 -547
q-203 -218 -547 -218q-165 0 -307 57t-240 156t-153.5 236.5t-55.5 294.5z" />
    <glyph glyph-name="H" unicode="H" horiz-adv-x="1501" 
d="M141 0v1434h324v-555h571v555h326v-1434h-326v567h-571v-567h-324z" />
    <glyph glyph-name="I" unicode="I" horiz-adv-x="606" 
d="M141 0v1434h324v-1434h-324z" />
    <glyph glyph-name="J" unicode="J" horiz-adv-x="1218" 
d="M61 461h308q0 -86 51.5 -138.5t146.5 -52.5q102 0 150.5 64.5t48.5 157.5v661h-455v281h781v-957q0 -231 -140.5 -366.5t-382.5 -135.5q-241 0 -374.5 132t-133.5 354z" />
    <glyph glyph-name="K" unicode="K" horiz-adv-x="1357" 
d="M141 0v1434h324v-547h12l432 547h400l-478 -564l486 -870h-375l-334 608l-143 -170v-438h-324z" />
    <glyph glyph-name="L" unicode="L" horiz-adv-x="1099" 
d="M141 0v1434h324v-1145h561v-289h-885z" />
    <glyph glyph-name="M" unicode="M" horiz-adv-x="1820" 
d="M141 0v1434h400l387 -973h12l340 973h401v-1434h-313v811h-12l-299 -811h-260l-332 844h-12v-844h-312z" />
    <glyph glyph-name="N" unicode="N" horiz-adv-x="1515" 
d="M141 0v1434h359l549 -902h12v902h313v-1434h-360l-547 901h-12v-901h-314z" />
    <glyph glyph-name="O" unicode="O" horiz-adv-x="1685" 
d="M82 717q0 156 58 293.5t158.5 236.5t242 156t303.5 57q161 0 303 -57.5t242.5 -156.5t158.5 -236.5t58 -292.5q0 -207 -99 -377.5t-273.5 -268.5t-389.5 -98q-162 0 -304 57t-242.5 155.5t-158 236.5t-57.5 295zM418 717q0 -187 119.5 -309.5t306.5 -122.5
q185 0 304.5 122.5t119.5 309.5q0 185 -119.5 308.5t-304.5 123.5q-186 0 -306 -123.5t-120 -308.5z" />
    <glyph glyph-name="P" unicode="P" horiz-adv-x="1249" 
d="M141 0v1434h555q215 0 357.5 -134.5t142.5 -345.5q0 -138 -67.5 -249t-181.5 -172.5t-251 -61.5h-231v-471h-324zM465 745h199q88 0 145 58t57 151q0 92 -56.5 147.5t-145.5 55.5h-199v-412z" />
    <glyph glyph-name="Q" unicode="Q" horiz-adv-x="1689" 
d="M82 717q0 156 58 293.5t158.5 236.5t242 156t303.5 57q161 0 303 -57.5t242.5 -156.5t158.5 -236.5t58 -292.5q0 -286 -185 -494l181 -223h-338l-52 63q-172 -90 -368 -90q-162 0 -304 57t-242.5 155.5t-158 236.5t-57.5 295zM412 717q0 -192 120.5 -319.5t311.5 -127.5
q94 0 170 39l-291 359h340l149 -185q62 105 62 234q0 188 -120.5 313t-309.5 125q-191 0 -311.5 -125t-120.5 -313z" />
    <glyph glyph-name="R" unicode="R" horiz-adv-x="1325" 
d="M141 0v1434h561q221 0 364.5 -132t143.5 -341q0 -140 -70.5 -250t-183.5 -168l306 -543h-361l-244 479h-192v-479h-324zM465 756h209q91 0 148 54t57 151q0 89 -57 142.5t-152 53.5h-205v-401z" />
    <glyph glyph-name="S" unicode="S" horiz-adv-x="1245" 
d="M57 467h310q5 -88 73 -142.5t187 -54.5q101 0 158 37.5t57 104.5q0 42 -25.5 71.5t-69 46t-99.5 29.5t-118 26.5t-124 31.5t-118 50t-99.5 77t-69 118.5t-25.5 167.5q0 186 138 308t378 122q232 0 378 -117.5t155 -338.5h-324q-2 75 -56.5 121t-152.5 46q-92 0 -142 -37
t-50 -96q0 -40 26 -68t70 -44t101.5 -28t120.5 -25t126 -30.5t120.5 -49.5t101.5 -76t70 -116t26 -165q0 -205 -150 -334t-414 -129q-259 -1 -410 135q-149 134 -149 353v6z" />
    <glyph glyph-name="T" unicode="T" 
d="M55 1153v281h1127v-281h-402v-1153h-325v1153h-400z" />
    <glyph glyph-name="U" unicode="U" horiz-adv-x="1421" 
d="M127 545v889h326v-887q0 -126 66 -197t192 -71t192 71t66 199v885h325v-887q0 -257 -160.5 -415.5t-422.5 -158.5q-263 0 -423.5 158t-160.5 414z" />
    <glyph glyph-name="V" unicode="V" horiz-adv-x="1447" 
d="M27 1434h360l330 -996h16l332 996h356l-532 -1434h-334z" />
    <glyph glyph-name="W" unicode="W" horiz-adv-x="2039" 
d="M27 1434h354l209 -932h16l213 932h400l215 -932h16l209 932h354l-373 -1434h-383l-229 969h-16l-232 -969h-381z" />
    <glyph glyph-name="X" unicode="X" horiz-adv-x="1355" 
d="M20 0l439 735l-416 699h365l251 -439h13l252 439h366l-420 -699l441 -735h-373l-266 481h-13l-268 -481h-371z" />
    <glyph glyph-name="Y" unicode="Y" horiz-adv-x="1368" 
d="M27 1434h354l293 -551h18l291 551h358l-491 -877v-557h-326v555z" />
    <glyph glyph-name="Z" unicode="Z" horiz-adv-x="1280" 
d="M88 0v283l684 858v16h-659v277h1075v-281l-688 -858v-16h692v-279h-1104z" />
    <glyph glyph-name="bracketleft" unicode="[" horiz-adv-x="864" 
d="M137 -305v1868h525v-252h-222v-1362h222v-254h-525z" />
    <glyph glyph-name="backslash" unicode="\" horiz-adv-x="1071" 
d="M70 1536h307l624 -1757h-305z" />
    <glyph glyph-name="bracketright" unicode="]" horiz-adv-x="864" 
d="M154 -51h221v1362h-221v252h524v-1868h-524v254z" />
    <glyph glyph-name="asciicircum" unicode="^" horiz-adv-x="1216" 
d="M104 610l371 824h266l371 -824h-266l-232 539h-12l-231 -539h-267z" />
    <glyph glyph-name="underscore" unicode="_" horiz-adv-x="1337" 
d="M113 -59h1112v-256h-1112v256z" />
    <glyph glyph-name="grave" unicode="`" horiz-adv-x="579" 
d="M88 1546h305l99 -311h-213z" />
    <glyph glyph-name="a" unicode="a" horiz-adv-x="1302" 
d="M74 535q0 255 136.5 414t354.5 159q113 0 190.5 -46.5t114.5 -103.5h17v123h317v-1081h-315v123h-17q-14 -23 -36 -45t-57.5 -47.5t-89 -41.5t-116.5 -16q-224 0 -361.5 154t-137.5 408zM395 541q0 -126 69 -203.5t181 -77.5t180 79.5t68 201.5q0 127 -70 203.5
t-180 76.5t-179 -78t-69 -202z" />
    <glyph glyph-name="b" unicode="b" horiz-adv-x="1337" 
d="M135 0v1536h318v-578h16q37 57 113.5 103.5t191.5 46.5q218 0 354 -159t136 -414q0 -254 -138 -408t-360 -154q-63 0 -117.5 16t-90 41.5t-57.5 47.5t-36 45h-16v-123h-314zM446 541q0 -122 68 -201.5t180 -79.5q110 0 179 77.5t69 203.5q0 124 -69 202t-179 78t-179 -76
t-69 -204z" />
    <glyph glyph-name="c" unicode="c" horiz-adv-x="1267" 
d="M74 541q0 159 69.5 287.5t200.5 204t301 75.5q224 0 374 -123.5t173 -322.5h-322q-22 71 -81.5 115t-141.5 44q-114 0 -183 -80t-69 -200q0 -121 70 -201t184 -80q78 0 137 41t80 107h324q-27 -194 -174.5 -314.5t-368.5 -120.5q-170 0 -302 76t-201.5 205t-69.5 287z
" />
    <glyph glyph-name="d" unicode="d" horiz-adv-x="1302" 
d="M74 535q0 255 136.5 414t354.5 159q113 0 190.5 -46.5t114.5 -103.5h17v578h317v-1536h-315v123h-17q-14 -23 -36 -45t-57.5 -47.5t-89 -41.5t-116.5 -16q-224 0 -361.5 154t-137.5 408zM395 541q0 -126 69 -203.5t181 -77.5t180 79.5t68 201.5q0 127 -70 203.5
t-180 76.5t-179 -78t-69 -202z" />
    <glyph glyph-name="e" unicode="e" horiz-adv-x="1245" 
d="M74 535q0 254 154 413.5t401 159.5q130 0 234.5 -45.5t170.5 -123.5t101.5 -179t35.5 -215v-92h-796q8 -104 78.5 -170t181.5 -66q89 0 151.5 37t87.5 92h287q-37 -172 -179 -272.5t-359 -100.5q-155 0 -280.5 72t-197 201t-71.5 289zM381 664h496q-9 88 -76.5 145
t-171.5 57q-98 0 -167.5 -59.5t-80.5 -142.5z" />
    <glyph glyph-name="f" unicode="f" horiz-adv-x="901" 
d="M55 834v247h185v70q0 177 113.5 281t299.5 104h156v-262h-119q-72 0 -108.5 -37t-36.5 -100v-56h272v-247h-268v-834h-318v834h-176z" />
    <glyph glyph-name="g" unicode="g" horiz-adv-x="1316" 
d="M74 547q0 255 138 408t349 153q117 0 196 -48t113 -102h17v123h317v-1069q0 -108 -34.5 -199.5t-102 -161.5t-177.5 -109.5t-251 -39.5q-122 0 -220 33t-160 89.5t-96 127.5t-38 150h291q11 -65 67 -104.5t156 -39.5q250 0 250 254v125h-17q-17 -24 -40 -46.5
t-59.5 -47.5t-89.5 -40t-114 -15q-141 0 -252.5 66.5t-177 194.5t-65.5 298zM395 547q0 -125 68.5 -199t181.5 -74t180.5 76t67.5 197q0 127 -69.5 200.5t-180.5 73.5t-179.5 -75t-68.5 -199z" />
    <glyph glyph-name="h" unicode="h" 
d="M135 0v1536h316v-573h16q36 62 109.5 103.5t175.5 41.5q177 0 281 -107.5t104 -279.5v-721h-318v623q0 84 -48.5 137t-129.5 53q-82 0 -135 -58.5t-53 -144.5v-610h-318z" />
    <glyph glyph-name="i" unicode="i" horiz-adv-x="550" 
d="M106 1374q0 78 52 125t135 47t134.5 -46.5t51.5 -125.5t-51.5 -125.5t-134.5 -46.5t-135 47t-52 125zM135 0v1081h318v-1081h-318z" />
    <glyph glyph-name="j" unicode="j" horiz-adv-x="655" 
d="M4 -190h74q70 0 109.5 39t39.5 108v1124h318v-1126q0 -197 -112 -311.5t-294 -114.5h-135v281zM201 1374q0 79 51.5 125.5t134.5 46.5q84 0 136 -46.5t52 -125.5t-52 -125.5t-136 -46.5q-83 0 -134.5 46.5t-51.5 125.5z" />
    <glyph glyph-name="k" unicode="k" horiz-adv-x="1216" 
d="M135 0v1536h318v-823h12l307 368h391l-348 -389l375 -692h-356l-238 449l-143 -160v-289h-318z" />
    <glyph glyph-name="l" unicode="l" horiz-adv-x="661" 
d="M135 340v1196h318v-1159q0 -98 90 -98h39v-279h-109q-161 0 -249.5 90t-88.5 250z" />
    <glyph glyph-name="m" unicode="m" horiz-adv-x="1867" 
d="M135 0v1081h299v-116h17q38 61 110 102t172 41q209 0 314 -147h14q112 147 313 147q176 0 284.5 -106t108.5 -275v-727h-317v616q0 92 -41.5 144.5t-122.5 52.5q-78 0 -126 -58t-48 -149v-606h-317v625q0 85 -44 136.5t-124 51.5q-77 0 -125.5 -58t-48.5 -147v-608h-318z
" />
    <glyph glyph-name="n" unicode="n" horiz-adv-x="1228" 
d="M135 0v1081h299v-118h17q35 61 111.5 103t178.5 42q177 0 282 -108t105 -279v-721h-317v623q0 85 -47 137.5t-127 52.5q-82 0 -133 -59.5t-51 -147.5v-606h-318z" />
    <glyph glyph-name="o" unicode="o" horiz-adv-x="1312" 
d="M74 541q0 119 42.5 223t117.5 180t184.5 120t238.5 44q256 0 419 -162.5t163 -404.5q0 -119 -42.5 -223.5t-118.5 -180.5t-185.5 -120t-237.5 -44q-169 0 -302.5 75.5t-206 204.5t-72.5 288zM395 541q0 -124 73.5 -202.5t186.5 -78.5q114 0 188.5 79t74.5 202
t-74.5 201.5t-188.5 78.5q-113 0 -186.5 -78.5t-73.5 -201.5z" />
    <glyph glyph-name="p" unicode="p" horiz-adv-x="1337" 
d="M135 -471v1552h314v-120h16q14 22 36 44t57.5 47t90 40.5t117.5 15.5q222 0 360 -153.5t138 -407.5q0 -255 -136 -414.5t-354 -159.5q-82 0 -149 26.5t-101 57.5t-55 66h-16v-594h-318zM446 541q0 -128 69 -204.5t179 -76.5t179 78t69 203q0 127 -68.5 203.5t-179.5 76.5
q-113 0 -180.5 -78.5t-67.5 -201.5z" />
    <glyph glyph-name="q" unicode="q" horiz-adv-x="1316" 
d="M74 547q0 254 137.5 407.5t361.5 153.5q63 0 116.5 -15.5t89 -40.5t57.5 -47t36 -44h17v120h315v-1552h-317v594h-17q-38 -56 -115 -103t-190 -47q-218 0 -354.5 159.5t-136.5 414.5zM395 541q0 -125 69 -203t179 -78t180 77t70 204q0 123 -67.5 201.5t-180.5 78.5
t-181.5 -76.5t-68.5 -203.5z" />
    <glyph glyph-name="r" unicode="r" horiz-adv-x="907" 
d="M135 0v1081h299v-163h17q32 69 105 120.5t173 51.5h105v-299h-125q-118 0 -187 -80t-69 -219v-492h-318z" />
    <glyph glyph-name="s" unicode="s" horiz-adv-x="1087" 
d="M74 332h288q6 -56 52 -85.5t125 -29.5t122.5 27t43.5 73q0 35 -26.5 56.5t-69 30t-97.5 18t-112.5 17.5t-112.5 30.5t-97.5 55.5t-69 94.5t-26.5 144.5q0 145 118.5 244.5t326.5 99.5q192 0 313 -89.5t131 -254.5h-274q-8 51 -51 80.5t-119 29.5q-72 0 -115 -26.5
t-43 -69.5q0 -28 21.5 -45.5t58 -26.5t84 -14.5t99.5 -13.5t104.5 -19.5t100 -36t84 -59.5t58 -93.5t21.5 -135.5q0 -161 -125 -261t-350 -100q-227 0 -342.5 95t-120.5 264z" />
    <glyph glyph-name="t" unicode="t" horiz-adv-x="909" 
d="M76 834v245h102q42 0 65 26.5t23 70.5v198h301v-293h283v-247h-283v-443q0 -61 35.5 -95t104.5 -34h139v-262h-219q-178 0 -277.5 98.5t-99.5 276.5v459h-174z" />
    <glyph glyph-name="u" unicode="u" 
d="M129 360v721h317v-622q0 -86 47 -138.5t128 -52.5q82 0 133 59.5t51 147.5v606h317v-1081h-301v119h-16q-34 -60 -110.5 -103t-178.5 -43q-177 0 -282 108t-105 279z" />
    <glyph glyph-name="v" unicode="v" horiz-adv-x="1196" 
d="M33 1081h329l226 -704h16l225 704h334l-381 -1081h-366z" />
    <glyph glyph-name="w" unicode="w" horiz-adv-x="1792" 
d="M47 1081h330l143 -694h17l204 694h310l204 -694h17l143 694h330l-287 -1081h-348l-207 659h-12l-209 -659h-348z" />
    <glyph glyph-name="x" unicode="x" horiz-adv-x="1179" 
d="M31 0l362 561l-334 520h342l183 -307h12l182 307h342l-334 -522l363 -559h-346l-207 330h-14l-207 -330h-344z" />
    <glyph glyph-name="y" unicode="y" horiz-adv-x="1212" 
d="M33 1081h332l237 -686h16l226 686h336l-459 -1237q-58 -156 -159 -235.5t-265 -79.5h-143v281h125q115 0 163 118l19 52z" />
    <glyph glyph-name="z" unicode="z" horiz-adv-x="1077" 
d="M94 0v281l467 522v16h-450v262h862v-262l-467 -532v-17h477v-270h-889z" />
    <glyph glyph-name="braceleft" unicode="{" horiz-adv-x="1021" 
d="M137 508v244h68q41 0 65.5 25t24.5 65v389q0 165 101.5 248.5t269.5 83.5h153v-254h-100q-64 0 -92.5 -29.5t-28.5 -93.5v-389q0 -140 -104 -160v-16q104 -20 104 -160v-387q0 -66 28.5 -95.5t92.5 -29.5h100v-254h-153q-168 0 -269.5 84t-101.5 250v389q0 40 -24.5 65
t-65.5 25h-68z" />
    <glyph glyph-name="bar" unicode="|" horiz-adv-x="681" 
d="M188 -422v2026h306v-2026h-306z" />
    <glyph glyph-name="braceright" unicode="}" horiz-adv-x="1021" 
d="M203 -51h100q64 0 92.5 29.5t28.5 95.5v387q0 139 102 160v16q-102 21 -102 160v389q0 64 -28.5 93.5t-92.5 29.5h-100v254h153q167 0 269 -83.5t102 -248.5v-389q0 -40 23.5 -65t64.5 -25h68v-244h-68q-41 0 -64.5 -25t-23.5 -65v-389q0 -166 -102 -250t-269 -84h-153
v254z" />
    <glyph glyph-name="asciitilde" unicode="~" horiz-adv-x="1087" 
d="M66 446q0 163 68 256t208 93q47 0 101 -16.5t95 -37t88.5 -37t82.5 -16.5q49 0 77.5 29.5t30.5 75.5h207q0 -164 -69 -257.5t-207 -93.5q-49 0 -102.5 18.5t-93 40t-87 40t-84.5 18.5q-51 0 -79 -32.5t-30 -80.5h-206z" />
    <glyph glyph-name="uni00A0" unicode="&#xa0;" horiz-adv-x="528" 
 />
    <glyph glyph-name="exclamdown" unicode="&#xa1;" horiz-adv-x="614" 
d="M133 977q0 74 50.5 122t123.5 48q77 0 125.5 -47.5t48.5 -122.5q0 -73 -49 -121.5t-125 -48.5q-72 0 -123 49t-51 121zM147 223l70 469h184l70 -469v-536h-324v536z" />
    <glyph glyph-name="cent" unicode="&#xa2;" horiz-adv-x="1267" 
d="M74 713q0 213 122.5 366t327.5 189v172h248v-172q175 -34 287.5 -150.5t132.5 -283.5h-322q-22 71 -81.5 115t-141.5 44q-114 0 -183 -80t-69 -200q0 -122 70 -201.5t184 -79.5q78 0 137 41t80 105h324q-23 -164 -134.5 -277t-283.5 -145v-156h-248v156
q-205 38 -327.5 191.5t-122.5 365.5z" />
    <glyph glyph-name="sterling" unicode="&#xa3;" horiz-adv-x="1337" 
d="M115 0v309h125v258h-105v262h105v166q0 141 69.5 249t179.5 162t240 54q216 0 348.5 -130.5t134.5 -330.5h-319q-1 70 -46.5 113t-117.5 43q-75 0 -121.5 -48t-46.5 -132v-146h342v-262h-342v-258h651v-309h-1097z" />
    <glyph glyph-name="yen" unicode="&#xa5;" horiz-adv-x="1368" 
d="M27 1434h354l293 -551h18l291 551h358l-380 -680h198v-215h-309v-113h309v-213h-309v-213h-326v213h-313v213h313v113h-313v215h201z" />
    <glyph glyph-name="section" unicode="&#xa7;" horiz-adv-x="1095" 
d="M76 563q0 85 44.5 155.5t117.5 110.5v17q-123 120 -123 287q0 169 126 268.5t320 99.5q88 0 165.5 -23.5t140.5 -70t100 -124t37 -177.5h-299q0 51 -35.5 90t-108.5 39q-62 0 -98.5 -32t-36.5 -83q0 -77 102 -137l273 -156q107 -60 162 -138t55 -189q0 -86 -44 -157
t-118 -112v-16q125 -119 125 -285q0 -170 -125.5 -269t-320.5 -99q-88 0 -166 23.5t-141 70t-99.5 124t-36.5 177.5h297q2 -54 36.5 -91.5t109.5 -37.5q60 0 96.5 32.5t36.5 80.5q0 78 -101 137l-293 170q-97 56 -147.5 130.5t-50.5 184.5zM369 578q0 -70 73 -111l170 -94
q47 0 80 31t33 77q0 76 -90 125l-154 82q-47 0 -79.5 -32t-32.5 -78z" />
    <glyph glyph-name="dieresis" unicode="&#xa8;" horiz-adv-x="845" 
d="M70 1386q0 63 43 107.5t106 44.5q68 0 110 -44t42 -108q0 -67 -42 -109t-110 -42q-63 0 -106 42.5t-43 108.5zM475 1386q0 67 42 109.5t110 42.5q63 0 106 -44.5t43 -107.5q0 -66 -43 -108.5t-106 -42.5q-68 0 -110 42t-42 109z" />
    <glyph glyph-name="copyright" unicode="&#xa9;" horiz-adv-x="1687" 
d="M82 713q0 155 58 293.5t158 238t240.5 157.5t299.5 58q164 0 307 -57.5t244 -157t159 -238t58 -294.5t-57.5 -293.5t-157.5 -236t-242.5 -155.5t-306.5 -57q-216 0 -390 97t-272 267t-98 378zM276 713q0 -243 159.5 -400t406.5 -157q252 0 410.5 156.5t158.5 402.5
q0 244 -159.5 401.5t-413.5 157.5q-158 0 -286.5 -72.5t-202 -201t-73.5 -287.5zM446 713q0 169 112.5 282t287.5 113q150 0 251.5 -84t123.5 -215h-199q-14 52 -60.5 85.5t-115.5 33.5q-95 0 -151 -60.5t-56 -154.5q0 -95 57 -155t152 -60q68 0 115.5 32t68.5 84h197
q-25 -132 -129.5 -214.5t-253.5 -82.5q-177 0 -288.5 112.5t-111.5 283.5z" />
    <glyph glyph-name="ordfeminine" unicode="&#xaa;" horiz-adv-x="1079" 
d="M102 1030q0 192 101.5 311t265.5 119q85 0 141.5 -34.5t85.5 -77.5h13v92h241v-811h-239v92h-15q-24 -42 -78.5 -76.5t-142.5 -34.5q-167 0 -270 115t-103 305zM344 1034q0 -90 52 -146.5t134 -56.5t132.5 57.5t50.5 145.5q0 92 -52 147.5t-133 55.5q-82 0 -133 -56
t-51 -147z" />
    <glyph glyph-name="guillemotleft" unicode="&#xab;" horiz-adv-x="1161" 
d="M133 528v140l434 350v-275l-176 -139v-12l176 -139v-275zM594 528v140l434 350v-275l-176 -139v-12l176 -139v-275z" />
    <glyph glyph-name="uni00AD" unicode="&#xad;" horiz-adv-x="786" 
d="M100 492v268h586v-268h-586z" />
    <glyph glyph-name="registered" unicode="&#xae;" horiz-adv-x="1112" 
d="M88 1087q0 197 128.5 330t334.5 133q214 0 343.5 -131t129.5 -329q0 -196 -129 -329.5t-340 -133.5q-209 0 -338 131t-129 329zM227 1087q0 -143 89 -236t239 -93q152 0 240 92t88 240q0 147 -89 237t-243 90q-148 0 -236 -92.5t-88 -237.5zM385 858v459h211
q73 0 117.5 -47t44.5 -109q0 -49 -21.5 -86.5t-52.5 -50.5l84 -166h-139l-60 143h-57v-143h-127zM512 1110h61q23 0 35.5 14.5t12.5 34.5t-13 34.5t-35 14.5h-61v-98z" />
    <glyph glyph-name="macron" unicode="&#xaf;" horiz-adv-x="749" 
d="M88 1270v223h574v-223h-574z" />
    <glyph glyph-name="degree" unicode="&#xb0;" horiz-adv-x="829" 
d="M109 1157q0 128 85.5 215.5t221.5 87.5q135 0 220 -87t85 -214q0 -129 -85 -216t-220 -87q-138 0 -222.5 86.5t-84.5 214.5zM301 1157q0 -51 31 -84t84 -33q51 0 81.5 33.5t30.5 85.5q0 51 -30.5 84t-81.5 33q-52 0 -83.5 -33.5t-31.5 -85.5z" />
    <glyph glyph-name="uni00B2" unicode="&#xb2;" horiz-adv-x="765" 
d="M94 1178q0 112 75.5 192t205.5 80q134 0 213.5 -76.5t79.5 -185.5q0 -84 -38 -140.5t-116 -97.5l-170 -92q-47 -27 -47 -70v-10h373v-176h-574v170q0 84 35.5 137t122.5 101l152 84q61 40 61 94q0 33 -25 55.5t-69 22.5t-69 -26.5t-25 -61.5h-185z" />
    <glyph glyph-name="uni00B3" unicode="&#xb3;" horiz-adv-x="770" 
d="M94 858h185q3 -39 28 -63.5t68 -24.5q45 0 72.5 26.5t27.5 65.5q0 36 -27 62t-75 26h-121v154l162 143v8h-299v179h542v-170l-172 -152v-10q82 -15 136.5 -83t54.5 -157q0 -118 -81.5 -197t-217.5 -79q-132 0 -207.5 80t-75.5 192z" />
    <glyph glyph-name="acute" unicode="&#xb4;" horiz-adv-x="579" 
d="M88 1235l100 311h304l-189 -311h-215z" />
    <glyph glyph-name="paragraph" unicode="&#xb6;" horiz-adv-x="1247" 
d="M119 961q0 95 36.5 182t98.5 151t150 102t186 38h536v-1526h-213v1298h-102v-1298h-213v577q-135 1 -245.5 67t-172 174.5t-61.5 234.5z" />
    <glyph glyph-name="periodcentered" unicode="&#xb7;" horiz-adv-x="561" 
d="M106 645q0 72 51.5 121t123.5 49q76 0 125 -48.5t49 -121.5q0 -75 -49 -123.5t-125 -48.5q-73 0 -124 49t-51 123z" />
    <glyph glyph-name="cedilla" unicode="&#xb8;" horiz-adv-x="536" 
d="M66 -260h151q2 -16 15.5 -27.5t33.5 -11.5q26 0 39.5 15t13.5 40q0 24 -14.5 39t-38.5 15q-13 0 -25.5 -8t-17.5 -19l-147 2l45 256h143l-37 -137h13q22 18 65 18q71 0 119.5 -46t48.5 -122q0 -77 -57 -125.5t-150 -48.5q-86 0 -142.5 44.5t-57.5 115.5z" />
    <glyph glyph-name="uni00B9" unicode="&#xb9;" horiz-adv-x="587" 
d="M94 1157v146q126 0 170.5 30.5t44.5 100.5h185v-832h-201v555h-199z" />
    <glyph glyph-name="ordmasculine" unicode="&#xba;" horiz-adv-x="1075" 
d="M102 1034q0 183 121.5 304.5t315.5 121.5q193 0 314.5 -122t121.5 -304t-122 -303t-314 -121q-193 0 -315 121t-122 303zM344 1034q0 -88 55 -145.5t140 -57.5q83 0 137.5 57.5t54.5 145.5t-54.5 145.5t-137.5 57.5q-85 0 -140 -57.5t-55 -145.5z" />
    <glyph glyph-name="guillemotright" unicode="&#xbb;" horiz-adv-x="1167" 
d="M133 178v275l176 139v12l-176 139v275l434 -350v-140zM594 178v275l176 139v12l-176 139v275l434 -350v-140z" />
    <glyph glyph-name="onequarter" unicode="&#xbc;" horiz-adv-x="1775" 
d="M94 1157v146q126 0 170.5 30.5t44.5 100.5h185v-832h-201v555h-199zM330 -84l803 1602h245l-805 -1602h-243zM1028 135v166l205 530h201l-193 -512v-6h158v179h198v-179h84v-178h-84v-135h-198v135h-371z" />
    <glyph glyph-name="onehalf" unicode="&#xbd;" horiz-adv-x="1804" 
d="M94 1157v146q126 0 170.5 30.5t44.5 100.5h185v-832h-201v555h-199zM330 -84l803 1602h245l-805 -1602h-243zM1133 575q0 113 75 193t205 80q134 0 213.5 -77t79.5 -185q0 -84 -38 -140.5t-116 -97.5l-170 -94q-47 -24 -47 -68v-10h373v-178h-573v170q0 86 35 139.5
t122 100.5l152 84q61 37 61 94q0 33 -25 55.5t-69 22.5t-69 -27t-25 -62h-184z" />
    <glyph glyph-name="threequarters" unicode="&#xbe;" horiz-adv-x="1839" 
d="M94 858h185q3 -39 28 -63.5t68 -24.5q45 0 72.5 26.5t27.5 65.5q0 36 -27 62t-75 26h-121v154l162 143v8h-299v179h542v-170l-172 -152v-10q82 -15 136.5 -83t54.5 -157q0 -118 -81.5 -197t-217.5 -79q-132 0 -207.5 80t-75.5 192zM414 -84l803 1602h245l-803 -1602h-245
zM1092 135v166l204 530h203l-194 -512v-6h157v179h199v-179h84v-178h-84v-135h-199v135h-370z" />
    <glyph glyph-name="questiondown" unicode="&#xbf;" horiz-adv-x="1144" 
d="M109 84q0 211 223 358l102 72q70 49 70 125v53h282v-86q0 -99 -39 -167t-120 -124l-113 -79q-46 -35 -69 -70t-23 -82q0 -63 42.5 -103t119.5 -40q80 0 122 44.5t42 112.5h290q0 -122 -51 -220t-156 -158t-249 -60q-221 0 -347 118t-126 306zM471 977q0 75 48.5 122.5
t125.5 47.5q73 0 123.5 -48t50.5 -122q0 -72 -51 -121t-123 -49q-76 0 -125 48.5t-49 121.5z" />
    <glyph glyph-name="Agrave" unicode="&#xc0;" horiz-adv-x="1447" 
d="M27 0l487 1434h414l493 -1434h-344l-86 254h-549l-84 -254h-331zM455 1909h305l98 -312h-213zM530 543h373l-176 534h-18z" />
    <glyph glyph-name="Aacute" unicode="&#xc1;" horiz-adv-x="1447" 
d="M27 0l487 1434h414l493 -1434h-344l-86 254h-549l-84 -254h-331zM530 543h373l-176 534h-18zM598 1597l100 312h303l-188 -312h-215z" />
    <glyph glyph-name="Acircumflex" unicode="&#xc2;" horiz-adv-x="1447" 
d="M27 0l487 1434h414l493 -1434h-344l-86 254h-549l-84 -254h-331zM379 1597l215 310h266l215 -310h-211l-129 107h-16l-127 -107h-213zM530 543h373l-176 534h-18z" />
    <glyph glyph-name="Atilde" unicode="&#xc3;" horiz-adv-x="1447" 
d="M27 0l487 1434h414l493 -1434h-344l-86 254h-549l-84 -254h-331zM348 1589q0 150 64.5 224.5t169.5 74.5q52 0 97.5 -21.5t81 -43t62.5 -21.5q66 0 72 86h190q0 -145 -64 -223t-167 -78q-50 0 -94 21.5t-81 43t-69 21.5q-65 0 -71 -84h-191zM530 543h373l-176 534h-18z
" />
    <glyph glyph-name="Adieresis" unicode="&#xc4;" horiz-adv-x="1447" 
d="M27 0l487 1434h414l493 -1434h-344l-86 254h-549l-84 -254h-331zM369 1749q0 63 43 107.5t106 44.5q68 0 110 -44t42 -108q0 -67 -42 -109.5t-110 -42.5q-63 0 -106 43t-43 109zM530 543h373l-176 534h-18zM774 1749q0 67 42 109.5t110 42.5q63 0 106 -44.5t43 -107.5
q0 -66 -43 -109t-106 -43q-68 0 -110 42.5t-42 109.5z" />
    <glyph glyph-name="Aring" unicode="&#xc5;" horiz-adv-x="1447" 
d="M27 0l487 1434h414l493 -1434h-344l-86 254h-549l-84 -254h-331zM510 1733q0 89 60.5 146.5t154.5 57.5q96 0 156.5 -57t60.5 -145q0 -89 -60.5 -148t-154.5 -59q-95 0 -156 58.5t-61 146.5zM530 543h373l-176 534h-18zM655 1733q0 -33 19.5 -52.5t52.5 -19.5q32 0 52 20
t20 54q0 31 -20.5 51t-53.5 20q-32 0 -51 -20t-19 -53z" />
    <glyph glyph-name="AE" unicode="&#xc6;" horiz-adv-x="1902" 
d="M27 0l696 1434h1079v-277h-585v-297h491v-276h-491v-305h606v-279h-930v254h-412l-121 -254h-333zM614 543h279v547h-19z" />
    <glyph glyph-name="Ccedilla" unicode="&#xc7;" horiz-adv-x="1642" 
d="M82 717q0 209 94.5 378.5t267.5 267t392 97.5q189 0 342 -74.5t246 -200t124 -284.5h-352q-30 109 -127.5 178.5t-232.5 69.5q-184 0 -301 -123t-117 -309q0 -189 116.5 -310.5t301.5 -121.5q134 0 232.5 67t139.5 174h355q-47 -242 -244.5 -397.5t-480.5 -155.5l-19 -69
h12q22 18 66 18q71 0 119.5 -46t48.5 -122q0 -77 -56.5 -125.5t-148.5 -48.5q-86 0 -144 44.5t-59 115.5h152q2 -15 16.5 -27t32.5 -12q26 0 39.5 15t13.5 40q0 24 -14 39t-37 15q-15 0 -27.5 -8t-17.5 -19l-147 2l34 199q-280 41 -450 243.5t-170 489.5z" />
    <glyph glyph-name="Egrave" unicode="&#xc8;" horiz-adv-x="1150" 
d="M141 0v1434h908v-277h-584v-297h498v-276h-498v-305h606v-279h-930zM344 1909h305l99 -312h-213z" />
    <glyph glyph-name="Eacute" unicode="&#xc9;" horiz-adv-x="1150" 
d="M141 0v1434h908v-277h-584v-297h498v-276h-498v-305h606v-279h-930zM489 1597l101 312h303l-188 -312h-216z" />
    <glyph glyph-name="Ecircumflex" unicode="&#xca;" horiz-adv-x="1150" 
d="M141 0v1434h908v-277h-584v-297h498v-276h-498v-305h606v-279h-930zM270 1597l215 310h267l215 -310h-211l-129 107h-17l-127 -107h-213z" />
    <glyph glyph-name="Edieresis" unicode="&#xcb;" horiz-adv-x="1150" 
d="M141 0v1434h908v-277h-584v-297h498v-276h-498v-305h606v-279h-930zM260 1749q0 63 43.5 107.5t106.5 44.5q68 0 109.5 -43.5t41.5 -108.5q0 -67 -41.5 -109.5t-109.5 -42.5q-64 0 -107 43.5t-43 108.5zM666 1749q0 67 41.5 109.5t109.5 42.5q63 0 106.5 -44.5
t43.5 -107.5q0 -65 -43.5 -108.5t-106.5 -43.5q-68 0 -109.5 42.5t-41.5 109.5z" />
    <glyph glyph-name="Igrave" unicode="&#xcc;" horiz-adv-x="606" 
d="M27 1909h305l98 -312h-213zM141 0v1434h324v-1434h-324z" />
    <glyph glyph-name="Iacute" unicode="&#xcd;" horiz-adv-x="606" 
d="M141 0v1434h324v-1434h-324zM170 1597l100 312h303l-188 -312h-215z" />
    <glyph glyph-name="Icircumflex" unicode="&#xce;" horiz-adv-x="606" 
d="M-49 1597l215 310h266l215 -310h-211l-129 107h-16l-127 -107h-213zM141 0v1434h324v-1434h-324z" />
    <glyph glyph-name="Idieresis" unicode="&#xcf;" horiz-adv-x="606" 
d="M-57 1749q0 63 43 107.5t106 44.5q68 0 110 -44t42 -108q0 -67 -42 -109.5t-110 -42.5q-63 0 -106 43t-43 109zM141 0v1434h324v-1434h-324zM348 1749q0 67 42 109.5t110 42.5q63 0 106 -44.5t43 -107.5q0 -66 -43 -109t-106 -43q-68 0 -110 42.5t-42 109.5z" />
    <glyph glyph-name="Eth" unicode="&#xd0;" horiz-adv-x="1492" 
d="M47 598v229h129v607h502q339 0 536 -196.5t197 -514.5q0 -335 -195 -529t-538 -194h-502v598h-129zM502 281h162q65 0 123 14.5t111.5 47.5t92 83t61.5 126t23 171q0 112 -34 197t-93 134.5t-130.5 74t-153.5 24.5h-162v-326h250v-229h-250v-317z" />
    <glyph glyph-name="Ntilde" unicode="&#xd1;" horiz-adv-x="1515" 
d="M141 0v1434h359l549 -902h12v902h313v-1434h-360l-547 901h-12v-901h-314zM395 1589q0 150 64.5 224.5t169.5 74.5q52 0 97.5 -21.5t81 -43t62.5 -21.5q66 0 72 86h191q0 -145 -64.5 -223t-167.5 -78q-50 0 -94 21.5t-81 43t-69 21.5q-65 0 -71 -84h-191z" />
    <glyph glyph-name="Ograve" unicode="&#xd2;" horiz-adv-x="1685" 
d="M82 717q0 156 58 293.5t158.5 236.5t242 156t303.5 57q161 0 303 -57.5t242.5 -156.5t158.5 -236.5t58 -292.5q0 -207 -99 -377.5t-273.5 -268.5t-389.5 -98q-162 0 -304 57t-242.5 155.5t-158 236.5t-57.5 295zM418 717q0 -187 119.5 -309.5t306.5 -122.5
q185 0 304.5 122.5t119.5 309.5q0 185 -119.5 308.5t-304.5 123.5q-186 0 -306 -123.5t-120 -308.5zM571 1909h306l98 -312h-213z" />
    <glyph glyph-name="Oacute" unicode="&#xd3;" horiz-adv-x="1685" 
d="M82 717q0 156 58 293.5t158.5 236.5t242 156t303.5 57q161 0 303 -57.5t242.5 -156.5t158.5 -236.5t58 -292.5q0 -207 -99 -377.5t-273.5 -268.5t-389.5 -98q-162 0 -304 57t-242.5 155.5t-158 236.5t-57.5 295zM418 717q0 -187 119.5 -309.5t306.5 -122.5
q185 0 304.5 122.5t119.5 309.5q0 185 -119.5 308.5t-304.5 123.5q-186 0 -306 -123.5t-120 -308.5zM715 1597l100 312h303l-188 -312h-215z" />
    <glyph glyph-name="Ocircumflex" unicode="&#xd4;" horiz-adv-x="1685" 
d="M82 717q0 156 58 293.5t158.5 236.5t242 156t303.5 57q161 0 303 -57.5t242.5 -156.5t158.5 -236.5t58 -292.5q0 -207 -99 -377.5t-273.5 -268.5t-389.5 -98q-162 0 -304 57t-242.5 155.5t-158 236.5t-57.5 295zM418 717q0 -187 119.5 -309.5t306.5 -122.5
q185 0 304.5 122.5t119.5 309.5q0 185 -119.5 308.5t-304.5 123.5q-186 0 -306 -123.5t-120 -308.5zM496 1597l215 310h266l215 -310h-211l-129 107h-16l-127 -107h-213z" />
    <glyph glyph-name="Otilde" unicode="&#xd5;" horiz-adv-x="1685" 
d="M82 717q0 156 58 293.5t158.5 236.5t242 156t303.5 57q161 0 303 -57.5t242.5 -156.5t158.5 -236.5t58 -292.5q0 -207 -99 -377.5t-273.5 -268.5t-389.5 -98q-162 0 -304 57t-242.5 155.5t-158 236.5t-57.5 295zM418 717q0 -187 119.5 -309.5t306.5 -122.5
q185 0 304.5 122.5t119.5 309.5q0 185 -119.5 308.5t-304.5 123.5q-186 0 -306 -123.5t-120 -308.5zM465 1589q0 150 64.5 224.5t168.5 74.5q52 0 98 -21.5t81.5 -43t62.5 -21.5q66 0 72 86h190q0 -145 -64 -223t-167 -78q-50 0 -94 21.5t-81 43t-69 21.5q-66 0 -72 -84
h-190z" />
    <glyph glyph-name="Odieresis" unicode="&#xd6;" horiz-adv-x="1685" 
d="M82 717q0 156 58 293.5t158.5 236.5t242 156t303.5 57q161 0 303 -57.5t242.5 -156.5t158.5 -236.5t58 -292.5q0 -207 -99 -377.5t-273.5 -268.5t-389.5 -98q-162 0 -304 57t-242.5 155.5t-158 236.5t-57.5 295zM418 717q0 -187 119.5 -309.5t306.5 -122.5
q185 0 304.5 122.5t119.5 309.5q0 185 -119.5 308.5t-304.5 123.5q-186 0 -306 -123.5t-120 -308.5zM485 1749q0 63 43.5 107.5t106.5 44.5q68 0 109.5 -43.5t41.5 -108.5q0 -67 -41.5 -109.5t-109.5 -42.5q-63 0 -106.5 43.5t-43.5 108.5zM891 1749q0 67 41.5 109.5
t109.5 42.5q63 0 106.5 -44.5t43.5 -107.5q0 -65 -43 -108.5t-107 -43.5q-68 0 -109.5 42.5t-41.5 109.5z" />
    <glyph glyph-name="multiply" unicode="&#xd7;" horiz-adv-x="1001" 
d="M10 297l316 336l-316 336l180 180l312 -330l307 330l180 -180l-315 -336l317 -336l-182 -178l-309 330l-310 -330z" />
    <glyph glyph-name="Oslash" unicode="&#xd8;" horiz-adv-x="1671" 
d="M82 717q0 158 58.5 296.5t160 236t242.5 154t301 56.5q169 0 317 -63l76 116h268l-153 -233q120 -103 187 -249t67 -314q0 -207 -99 -377.5t-273.5 -268.5t-389.5 -98q-169 0 -318 62l-92 -137h-268l168 254q-120 103 -186 248.5t-66 316.5zM418 717q0 -168 100 -289
l463 700q-75 21 -137 21q-186 0 -306 -123.5t-120 -308.5zM705 305q72 -20 139 -20q185 0 304.5 122.5t119.5 309.5q0 165 -101 287z" />
    <glyph glyph-name="Ugrave" unicode="&#xd9;" horiz-adv-x="1421" 
d="M127 545v889h326v-887q0 -126 66 -197t192 -71t192 71t66 199v885h325v-887q0 -257 -160.5 -415.5t-422.5 -158.5q-263 0 -423.5 158t-160.5 414zM426 1909h305l98 -312h-213z" />
    <glyph glyph-name="Uacute" unicode="&#xda;" horiz-adv-x="1421" 
d="M127 545v889h326v-887q0 -126 66 -197t192 -71t192 71t66 199v885h325v-887q0 -257 -160.5 -415.5t-422.5 -158.5q-263 0 -423.5 158t-160.5 414zM569 1597l101 312h303l-189 -312h-215z" />
    <glyph glyph-name="Ucircumflex" unicode="&#xdb;" horiz-adv-x="1421" 
d="M127 545v889h326v-887q0 -126 66 -197t192 -71t192 71t66 199v885h325v-887q0 -257 -160.5 -415.5t-422.5 -158.5q-263 0 -423.5 158t-160.5 414zM350 1597l215 310h266l216 -310h-211l-129 107h-17l-127 -107h-213z" />
    <glyph glyph-name="Udieresis" unicode="&#xdc;" horiz-adv-x="1421" 
d="M127 545v889h326v-887q0 -126 66 -197t192 -71t192 71t66 199v885h325v-887q0 -257 -160.5 -415.5t-422.5 -158.5q-263 0 -423.5 158t-160.5 414zM340 1749q0 63 43 107.5t106 44.5q68 0 110 -44t42 -108q0 -67 -42 -109.5t-110 -42.5q-63 0 -106 43t-43 109zM745 1749
q0 67 42 109.5t110 42.5q63 0 106.5 -44.5t43.5 -107.5q0 -65 -43.5 -108.5t-106.5 -43.5q-68 0 -110 42.5t-42 109.5z" />
    <glyph glyph-name="Yacute" unicode="&#xdd;" horiz-adv-x="1368" 
d="M27 1434h354l293 -551h18l291 551h358l-491 -877v-557h-326v555zM561 1597l101 312h303l-189 -312h-215z" />
    <glyph glyph-name="Thorn" unicode="&#xde;" 
d="M141 0v1434h324v-211h219q216 0 358 -134t142 -346q0 -138 -67.5 -249t-181.5 -172.5t-251 -61.5h-219v-260h-324zM465 537h186q89 0 146 56.5t57 149.5q0 92 -57 147.5t-146 55.5h-186v-409z" />
    <glyph glyph-name="germandbls" unicode="&#xdf;" horiz-adv-x="1300" 
d="M135 0v1053q0 225 136 354t358 129q148 0 264.5 -55.5t178.5 -148t61 -202.5q0 -200 -168 -286v-13q121 -43 191.5 -143t70.5 -233q0 -224 -128.5 -353t-377.5 -129q-76 0 -174 27v291q67 -23 135 -23q93 0 151 50.5t58 140.5q0 86 -63.5 133t-163.5 47h-76v289h12
q85 0 133.5 46t48.5 120q0 68 -43.5 111.5t-120.5 43.5q-79 0 -122 -50t-43 -140v-1059h-318z" />
    <glyph glyph-name="agrave" unicode="&#xe0;" horiz-adv-x="1302" 
d="M74 535q0 255 136.5 414t354.5 159q113 0 190.5 -46.5t114.5 -103.5h17v123h317v-1081h-315v123h-17q-14 -23 -36 -45t-57.5 -47.5t-89 -41.5t-116.5 -16q-224 0 -361.5 154t-137.5 408zM395 541q0 -126 69 -203.5t181 -77.5t180 79.5t68 201.5q0 127 -70 203.5
t-180 76.5t-179 -78t-69 -202zM399 1546h306l98 -311h-213z" />
    <glyph glyph-name="aacute" unicode="&#xe1;" horiz-adv-x="1302" 
d="M74 535q0 255 136.5 414t354.5 159q113 0 190.5 -46.5t114.5 -103.5h17v123h317v-1081h-315v123h-17q-14 -23 -36 -45t-57.5 -47.5t-89 -41.5t-116.5 -16q-224 0 -361.5 154t-137.5 408zM395 541q0 -126 69 -203.5t181 -77.5t180 79.5t68 201.5q0 127 -70 203.5
t-180 76.5t-179 -78t-69 -202zM543 1235l100 311h303l-188 -311h-215z" />
    <glyph glyph-name="acircumflex" unicode="&#xe2;" horiz-adv-x="1302" 
d="M74 535q0 255 136.5 414t354.5 159q113 0 190.5 -46.5t114.5 -103.5h17v123h317v-1081h-315v123h-17q-14 -23 -36 -45t-57.5 -47.5t-89 -41.5t-116.5 -16q-224 0 -361.5 154t-137.5 408zM324 1235l215 309h266l215 -309h-211l-129 106h-16l-127 -106h-213zM395 541
q0 -126 69 -203.5t181 -77.5t180 79.5t68 201.5q0 127 -70 203.5t-180 76.5t-179 -78t-69 -202z" />
    <glyph glyph-name="atilde" unicode="&#xe3;" horiz-adv-x="1302" 
d="M74 535q0 255 136.5 414t354.5 159q113 0 190.5 -46.5t114.5 -103.5h17v123h317v-1081h-315v123h-17q-14 -23 -36 -45t-57.5 -47.5t-89 -41.5t-116.5 -16q-224 0 -361.5 154t-137.5 408zM293 1227q0 150 64.5 224.5t168.5 74.5q52 0 98 -21.5t81.5 -43t62.5 -21.5
q66 0 72 86h190q0 -145 -64 -223t-167 -78q-50 0 -94 21.5t-81 43t-69 21.5q-66 0 -72 -84h-190zM395 541q0 -126 69 -203.5t181 -77.5t180 79.5t68 201.5q0 127 -70 203.5t-180 76.5t-179 -78t-69 -202z" />
    <glyph glyph-name="adieresis" unicode="&#xe4;" horiz-adv-x="1302" 
d="M74 535q0 255 136.5 414t354.5 159q113 0 190.5 -46.5t114.5 -103.5h17v123h317v-1081h-315v123h-17q-14 -23 -36 -45t-57.5 -47.5t-89 -41.5t-116.5 -16q-224 0 -361.5 154t-137.5 408zM313 1386q0 63 43.5 107.5t106.5 44.5q68 0 109.5 -43.5t41.5 -108.5
q0 -67 -41.5 -109t-109.5 -42q-64 0 -107 43t-43 108zM395 541q0 -126 69 -203.5t181 -77.5t180 79.5t68 201.5q0 127 -70 203.5t-180 76.5t-179 -78t-69 -202zM719 1386q0 67 41.5 109.5t109.5 42.5q63 0 106.5 -44.5t43.5 -107.5q0 -65 -43 -108t-107 -43q-68 0 -109.5 42
t-41.5 109z" />
    <glyph glyph-name="aring" unicode="&#xe5;" horiz-adv-x="1302" 
d="M74 535q0 255 136.5 414t354.5 159q113 0 190.5 -46.5t114.5 -103.5h17v123h317v-1081h-315v123h-17q-14 -23 -36 -45t-57.5 -47.5t-89 -41.5t-116.5 -16q-224 0 -361.5 154t-137.5 408zM395 541q0 -126 69 -203.5t181 -77.5t180 79.5t68 201.5q0 127 -70 203.5
t-180 76.5t-179 -78t-69 -202zM455 1370q0 89 60.5 147t154.5 58q96 0 156.5 -57.5t60.5 -145.5q0 -89 -60.5 -148t-154.5 -59q-95 0 -156 58.5t-61 146.5zM600 1370q0 -33 19.5 -52.5t52.5 -19.5q32 0 51.5 20t19.5 54q0 31 -20 51.5t-53 20.5q-32 0 -51 -20.5t-19 -53.5z
" />
    <glyph glyph-name="ae" unicode="&#xe6;" horiz-adv-x="1992" 
d="M74 330q0 152 109.5 240t295.5 94h340v36q0 74 -63 119t-176 45q-95 0 -152.5 -40.5t-62.5 -92.5h-254q3 163 132.5 270t323.5 107q137 0 243.5 -44t164.5 -122h14q138 166 387 166q130 0 235 -45t171.5 -123t101.5 -179t35 -216v-90h-795q5 -107 76.5 -174.5
t188.5 -67.5q89 0 148 37.5t83 95.5h287q-37 -172 -178 -272.5t-357 -100.5q-130 0 -239 51t-181 142h-16q-58 -87 -162 -140t-260 -53q-195 0 -317.5 98.5t-122.5 258.5zM348 330q0 -56 54.5 -90.5t140.5 -34.5q124 0 200 62.5t76 156.5v25h-327q-66 0 -105 -31t-39 -88z
M1126 664h502q-9 89 -80 146.5t-176 57.5q-97 0 -166 -59.5t-80 -144.5z" />
    <glyph glyph-name="ccedilla" unicode="&#xe7;" horiz-adv-x="1267" 
d="M74 541q0 159 69.5 287.5t200.5 204t301 75.5q224 0 374 -123.5t173 -322.5h-322q-22 71 -81.5 115t-141.5 44q-114 0 -183 -80t-69 -200q0 -121 70 -201t184 -80q78 0 137 41t80 107h324q-25 -185 -161 -304t-341 -129l-18 -71h12q22 18 63 18q71 0 120.5 -46t49.5 -122
q0 -77 -57 -125.5t-149 -48.5q-86 0 -143 44.5t-58 115.5h149q2 -15 16.5 -27t33.5 -12q26 0 40.5 15t14.5 40q0 23 -15 38.5t-38 15.5q-30 0 -45 -27l-146 2l35 195q-218 30 -348.5 186.5t-130.5 374.5z" />
    <glyph glyph-name="egrave" unicode="&#xe8;" horiz-adv-x="1245" 
d="M74 535q0 254 154 413.5t401 159.5q130 0 234.5 -45.5t170.5 -123.5t101.5 -179t35.5 -215v-92h-796q8 -104 78.5 -170t181.5 -66q89 0 151.5 37t87.5 92h287q-37 -172 -179 -272.5t-359 -100.5q-155 0 -280.5 72t-197 201t-71.5 289zM354 1546h305l99 -311h-213z
M381 664h496q-9 88 -76.5 145t-171.5 57q-98 0 -167.5 -59.5t-80.5 -142.5z" />
    <glyph glyph-name="eacute" unicode="&#xe9;" horiz-adv-x="1245" 
d="M74 535q0 254 154 413.5t401 159.5q130 0 234.5 -45.5t170.5 -123.5t101.5 -179t35.5 -215v-92h-796q8 -104 78.5 -170t181.5 -66q89 0 151.5 37t87.5 92h287q-37 -172 -179 -272.5t-359 -100.5q-155 0 -280.5 72t-197 201t-71.5 289zM381 664h496q-9 88 -76.5 145
t-171.5 57q-98 0 -167.5 -59.5t-80.5 -142.5zM498 1235l100 311h303l-188 -311h-215z" />
    <glyph glyph-name="ecircumflex" unicode="&#xea;" horiz-adv-x="1245" 
d="M74 535q0 254 154 413.5t401 159.5q130 0 234.5 -45.5t170.5 -123.5t101.5 -179t35.5 -215v-92h-796q8 -104 78.5 -170t181.5 -66q89 0 151.5 37t87.5 92h287q-37 -172 -179 -272.5t-359 -100.5q-155 0 -280.5 72t-197 201t-71.5 289zM279 1235l215 309h266l215 -309
h-211l-129 106h-17l-126 -106h-213zM381 664h496q-9 88 -76.5 145t-171.5 57q-98 0 -167.5 -59.5t-80.5 -142.5z" />
    <glyph glyph-name="edieresis" unicode="&#xeb;" horiz-adv-x="1245" 
d="M74 535q0 254 154 413.5t401 159.5q130 0 234.5 -45.5t170.5 -123.5t101.5 -179t35.5 -215v-92h-796q8 -104 78.5 -170t181.5 -66q89 0 151.5 37t87.5 92h287q-37 -172 -179 -272.5t-359 -100.5q-155 0 -280.5 72t-197 201t-71.5 289zM268 1386q0 63 43.5 107.5
t106.5 44.5q68 0 109.5 -43.5t41.5 -108.5q0 -67 -41.5 -109t-109.5 -42q-64 0 -107 43t-43 108zM381 664h496q-9 88 -76.5 145t-171.5 57q-98 0 -167.5 -59.5t-80.5 -142.5zM674 1386q0 67 41.5 109.5t109.5 42.5q63 0 106.5 -44.5t43.5 -107.5q0 -65 -43 -108t-107 -43
q-68 0 -109.5 42t-41.5 109z" />
    <glyph glyph-name="igrave" unicode="&#xec;" horiz-adv-x="550" 
d="M20 1546h306l98 -311h-213zM135 0v1081h318v-1081h-318z" />
    <glyph glyph-name="iacute" unicode="&#xed;" horiz-adv-x="550" 
d="M135 0v1081h318v-1081h-318zM166 1235l100 311h303l-188 -311h-215z" />
    <glyph glyph-name="icircumflex" unicode="&#xee;" horiz-adv-x="550" 
d="M-53 1235l215 309h266l215 -309h-211l-129 106h-16l-127 -106h-213zM135 0v1081h318v-1081h-318z" />
    <glyph glyph-name="idieresis" unicode="&#xef;" horiz-adv-x="550" 
d="M-63 1386q0 63 43 107.5t106 44.5q68 0 110 -44t42 -108q0 -67 -42 -109t-110 -42q-64 0 -106.5 42.5t-42.5 108.5zM135 0v1081h318v-1081h-318zM342 1386q0 67 42 109.5t110 42.5q63 0 106 -44.5t43 -107.5q0 -66 -42.5 -108.5t-106.5 -42.5q-68 0 -110 42t-42 109z" />
    <glyph glyph-name="eth" unicode="&#xf0;" horiz-adv-x="1265" 
d="M74 510q0 153 67.5 271t179.5 179.5t248 61.5q68 0 124 -18.5t87 -42.5h13q-63 115 -195 227l-330 -123v168l189 72q-121 81 -211 125l178 100q138 -52 272 -139l303 114v-170l-155 -59q167 -149 257.5 -337t90.5 -402q0 -165 -67.5 -292.5t-195.5 -199t-298 -72.5
q-124 1 -228.5 41.5t-176.5 111t-112 169.5t-40 215zM395 510q0 -108 67 -175t169 -67q106 0 172.5 69t66.5 181q0 104 -67.5 169t-167.5 65q-105 0 -172.5 -66.5t-67.5 -175.5z" />
    <glyph glyph-name="ntilde" unicode="&#xf1;" horiz-adv-x="1228" 
d="M135 0v1081h299v-118h17q35 61 111.5 103t178.5 42q177 0 282 -108t105 -279v-721h-317v623q0 85 -47 137.5t-127 52.5q-82 0 -133 -59.5t-51 -147.5v-606h-318zM276 1227q0 150 64.5 224.5t169.5 74.5q52 0 98 -21.5t81.5 -43t62.5 -21.5q65 0 71 86h191
q0 -145 -64.5 -223t-167.5 -78q-50 0 -93.5 21.5t-80.5 43t-69 21.5q-66 0 -72 -84h-191z" />
    <glyph glyph-name="ograve" unicode="&#xf2;" horiz-adv-x="1312" 
d="M74 541q0 119 42.5 223t117.5 180t184.5 120t238.5 44q256 0 419 -162.5t163 -404.5q0 -119 -42.5 -223.5t-118.5 -180.5t-185.5 -120t-237.5 -44q-169 0 -302.5 75.5t-206 204.5t-72.5 288zM385 1546h305l98 -311h-213zM395 541q0 -124 73.5 -202.5t186.5 -78.5
q114 0 188.5 79t74.5 202t-74.5 201.5t-188.5 78.5q-113 0 -186.5 -78.5t-73.5 -201.5z" />
    <glyph glyph-name="oacute" unicode="&#xf3;" horiz-adv-x="1312" 
d="M74 541q0 119 42.5 223t117.5 180t184.5 120t238.5 44q256 0 419 -162.5t163 -404.5q0 -119 -42.5 -223.5t-118.5 -180.5t-185.5 -120t-237.5 -44q-169 0 -302.5 75.5t-206 204.5t-72.5 288zM395 541q0 -124 73.5 -202.5t186.5 -78.5q114 0 188.5 79t74.5 202
t-74.5 201.5t-188.5 78.5q-113 0 -186.5 -78.5t-73.5 -201.5zM530 1235l101 311h303l-189 -311h-215z" />
    <glyph glyph-name="ocircumflex" unicode="&#xf4;" horiz-adv-x="1312" 
d="M74 541q0 119 42.5 223t117.5 180t184.5 120t238.5 44q256 0 419 -162.5t163 -404.5q0 -119 -42.5 -223.5t-118.5 -180.5t-185.5 -120t-237.5 -44q-169 0 -302.5 75.5t-206 204.5t-72.5 288zM309 1235l215 309h267l215 -309h-211l-129 106h-17l-127 -106h-213zM395 541
q0 -124 73.5 -202.5t186.5 -78.5q114 0 188.5 79t74.5 202t-74.5 201.5t-188.5 78.5q-113 0 -186.5 -78.5t-73.5 -201.5z" />
    <glyph glyph-name="otilde" unicode="&#xf5;" horiz-adv-x="1312" 
d="M74 541q0 119 42.5 223t117.5 180t184.5 120t238.5 44q256 0 419 -162.5t163 -404.5q0 -119 -42.5 -223.5t-118.5 -180.5t-185.5 -120t-237.5 -44q-169 0 -302.5 75.5t-206 204.5t-72.5 288zM279 1227q0 150 64.5 224.5t168.5 74.5q52 0 98 -21.5t81.5 -43t62.5 -21.5
q65 0 71 86h191q0 -145 -64.5 -223t-167.5 -78q-50 0 -93.5 21.5t-80.5 43t-69 21.5q-66 0 -72 -84h-190zM395 541q0 -124 73.5 -202.5t186.5 -78.5q114 0 188.5 79t74.5 202t-74.5 201.5t-188.5 78.5q-113 0 -186.5 -78.5t-73.5 -201.5z" />
    <glyph glyph-name="odieresis" unicode="&#xf6;" horiz-adv-x="1312" 
d="M74 541q0 119 42.5 223t117.5 180t184.5 120t238.5 44q256 0 419 -162.5t163 -404.5q0 -119 -42.5 -223.5t-118.5 -180.5t-185.5 -120t-237.5 -44q-169 0 -302.5 75.5t-206 204.5t-72.5 288zM301 1386q0 63 43.5 107.5t106.5 44.5q68 0 109.5 -43.5t41.5 -108.5
q0 -67 -41.5 -109t-109.5 -42q-64 0 -107 43t-43 108zM395 541q0 -124 73.5 -202.5t186.5 -78.5q114 0 188.5 79t74.5 202t-74.5 201.5t-188.5 78.5q-113 0 -186.5 -78.5t-73.5 -201.5zM707 1386q0 67 41.5 109.5t109.5 42.5q63 0 106.5 -44.5t43.5 -107.5q0 -65 -43 -108
t-107 -43q-68 0 -109.5 42t-41.5 109z" />
    <glyph glyph-name="divide" unicode="&#xf7;" horiz-adv-x="1026" 
d="M10 514v246h1006v-246h-1006zM373 274q0 57 40.5 98.5t98.5 41.5q59 0 99 -41t40 -99q0 -59 -39.5 -99t-99.5 -40q-58 0 -98.5 40.5t-40.5 98.5zM373 1012q0 58 40.5 98.5t98.5 40.5q60 0 99.5 -40t39.5 -99t-39.5 -98.5t-99.5 -39.5q-59 0 -99 40t-40 98z" />
    <glyph glyph-name="oslash" unicode="&#xf8;" horiz-adv-x="1312" 
d="M74 541q0 119 42.5 223t117.5 180t184.5 120t238.5 44q115 0 215 -35l56 94h217l-111 -184q98 -79 151.5 -193.5t53.5 -248.5q0 -119 -42.5 -223.5t-118.5 -180.5t-185.5 -120t-237.5 -44q-105 0 -200 31l-68 -115h-215l119 201q-103 77 -160 194.5t-57 256.5zM395 541
q0 -106 56 -181l268 453q-27 8 -64 8q-113 0 -186.5 -78.5t-73.5 -201.5zM608 264q32 -4 47 -4q114 0 188.5 79t74.5 202q0 95 -46 166z" />
    <glyph glyph-name="ugrave" unicode="&#xf9;" 
d="M129 360v721h317v-622q0 -86 47 -138.5t128 -52.5q82 0 133 59.5t51 147.5v606h317v-1081h-301v119h-16q-34 -60 -110.5 -103t-178.5 -43q-177 0 -282 108t-105 279zM354 1546h305l99 -311h-213z" />
    <glyph glyph-name="uacute" unicode="&#xfa;" 
d="M129 360v721h317v-622q0 -86 47 -138.5t128 -52.5q82 0 133 59.5t51 147.5v606h317v-1081h-301v119h-16q-34 -60 -110.5 -103t-178.5 -43q-177 0 -282 108t-105 279zM500 1235l100 311h303l-188 -311h-215z" />
    <glyph glyph-name="ucircumflex" unicode="&#xfb;" 
d="M129 360v721h317v-622q0 -86 47 -138.5t128 -52.5q82 0 133 59.5t51 147.5v606h317v-1081h-301v119h-16q-34 -60 -110.5 -103t-178.5 -43q-177 0 -282 108t-105 279zM281 1235l215 309h266l215 -309h-211l-129 106h-16l-127 -106h-213z" />
    <glyph glyph-name="udieresis" unicode="&#xfc;" 
d="M129 360v721h317v-622q0 -86 47 -138.5t128 -52.5q82 0 133 59.5t51 147.5v606h317v-1081h-301v119h-16q-34 -60 -110.5 -103t-178.5 -43q-177 0 -282 108t-105 279zM270 1386q0 63 43.5 107.5t106.5 44.5q68 0 109.5 -43.5t41.5 -108.5q0 -67 -41.5 -109t-109.5 -42
q-64 0 -107 43t-43 108zM676 1386q0 67 41.5 109.5t109.5 42.5q63 0 106.5 -44.5t43.5 -107.5q0 -65 -43 -108t-107 -43q-68 0 -109.5 42t-41.5 109z" />
    <glyph glyph-name="yacute" unicode="&#xfd;" horiz-adv-x="1212" 
d="M33 1081h332l237 -686h16l226 686h336l-459 -1237q-58 -156 -159 -235.5t-265 -79.5h-143v281h125q115 0 163 118l19 52zM479 1235l101 311h303l-189 -311h-215z" />
    <glyph glyph-name="thorn" unicode="&#xfe;" horiz-adv-x="1339" 
d="M135 -455v1989h316l2 -573h16q14 23 35.5 44.5t57 46.5t88.5 40.5t116 15.5q224 0 362 -153.5t138 -407.5q0 -255 -137 -414.5t-355 -159.5q-113 0 -190 47t-115 103h-16v-578h-318zM446 541q0 -127 70 -204t180 -77t179 78t69 203q0 127 -68.5 203.5t-181.5 76.5
t-180.5 -78.5t-67.5 -201.5z" />
    <glyph glyph-name="ydieresis" unicode="&#xff;" horiz-adv-x="1212" 
d="M33 1081h332l237 -686h16l226 686h336l-459 -1237q-58 -156 -159 -235.5t-265 -79.5h-143v281h125q115 0 163 118l19 52zM250 1386q0 63 43 107.5t106 44.5q68 0 110 -44t42 -108q0 -67 -42 -109t-110 -42q-63 0 -106 42.5t-43 108.5zM655 1386q0 67 42 109.5t110 42.5
q63 0 106 -44.5t43 -107.5q0 -66 -43 -108.5t-106 -42.5q-68 0 -110 42t-42 109z" />
    <glyph glyph-name="Amacron" unicode="&#x100;" horiz-adv-x="1447" 
d="M27 0l487 1434h414l493 -1434h-344l-86 254h-549l-84 -254h-331zM451 1632v223h573v-223h-573zM530 543h373l-176 534h-18z" />
    <glyph glyph-name="amacron" unicode="&#x101;" horiz-adv-x="1302" 
d="M74 535q0 255 136.5 414t354.5 159q113 0 190.5 -46.5t114.5 -103.5h17v123h317v-1081h-315v123h-17q-14 -23 -36 -45t-57.5 -47.5t-89 -41.5t-116.5 -16q-224 0 -361.5 154t-137.5 408zM395 541q0 -126 69 -203.5t181 -77.5t180 79.5t68 201.5q0 127 -70 203.5
t-180 76.5t-179 -78t-69 -202zM395 1270v223h574v-223h-574z" />
    <glyph glyph-name="Abreve" unicode="&#x102;" horiz-adv-x="1447" 
d="M27 0l487 1434h414l493 -1434h-344l-86 254h-549l-84 -254h-331zM424 1894h188q0 -51 28.5 -80.5t82.5 -29.5q51 0 79.5 31t28.5 79h189q0 -143 -78 -222t-219 -79q-142 0 -220.5 79t-78.5 222zM530 543h373l-176 534h-18z" />
    <glyph glyph-name="abreve" unicode="&#x103;" horiz-adv-x="1302" 
d="M74 535q0 255 136.5 414t354.5 159q113 0 190.5 -46.5t114.5 -103.5h17v123h317v-1081h-315v123h-17q-14 -23 -36 -45t-57.5 -47.5t-89 -41.5t-116.5 -16q-224 0 -361.5 154t-137.5 408zM369 1532h188q0 -51 28.5 -81t82.5 -30q51 0 79.5 31.5t28.5 79.5h189
q0 -143 -78 -222t-219 -79q-142 0 -220.5 79t-78.5 222zM395 541q0 -126 69 -203.5t181 -77.5t180 79.5t68 201.5q0 127 -70 203.5t-180 76.5t-179 -78t-69 -202z" />
    <glyph glyph-name="Aogonek" unicode="&#x104;" horiz-adv-x="1447" 
d="M27 0l487 1434h414l493 -1434l-80 -100q-32 -40 -32 -68q0 -25 16.5 -38t44.5 -13h51v-184h-166q-81 0 -135.5 43.5t-54.5 121.5q0 81 72 166l57 72h-117l-86 254h-549l-84 -254h-331zM530 543h373l-176 534h-18z" />
    <glyph glyph-name="aogonek" unicode="&#x105;" horiz-adv-x="1302" 
d="M74 535q0 255 136.5 414t354.5 159q113 0 190.5 -46.5t114.5 -103.5h17v123h317v-1081l-80 -100q-34 -43 -34 -68t16.5 -38t44.5 -13h53v-184h-166q-82 0 -136 43t-54 122t70 166l59 72h-88v123h-17q-14 -23 -36 -45t-57.5 -47.5t-89 -41.5t-116.5 -16q-224 0 -361.5 154
t-137.5 408zM395 541q0 -126 69 -203.5t181 -77.5t180 79.5t68 201.5q0 127 -70 203.5t-180 76.5t-179 -78t-69 -202z" />
    <glyph glyph-name="Cacute" unicode="&#x106;" horiz-adv-x="1642" 
d="M82 717q0 209 94.5 378.5t267.5 267t392 97.5q189 0 342 -74.5t246 -200t124 -284.5h-352q-30 109 -127.5 178.5t-232.5 69.5q-184 0 -301 -123t-117 -309q0 -189 116.5 -310.5t301.5 -121.5q134 0 232.5 67t139.5 174h355q-47 -241 -245.5 -397t-481.5 -156
q-220 0 -393 97.5t-267 266.5t-94 380zM698 1597l101 312h303l-189 -312h-215z" />
    <glyph glyph-name="cacute" unicode="&#x107;" horiz-adv-x="1267" 
d="M74 541q0 159 69.5 287.5t200.5 204t301 75.5q224 0 374 -123.5t173 -322.5h-322q-22 71 -81.5 115t-141.5 44q-114 0 -183 -80t-69 -200q0 -121 70 -201t184 -80q78 0 137 41t80 107h324q-27 -194 -174.5 -314.5t-368.5 -120.5q-170 0 -302 76t-201.5 205t-69.5 287z
M518 1237l100 311h304l-189 -311h-215z" />
    <glyph glyph-name="Cdotaccent" unicode="&#x10a;" horiz-adv-x="1642" 
d="M82 717q0 209 94.5 378.5t267.5 267t392 97.5q189 0 342 -74.5t246 -200t124 -284.5h-352q-30 109 -127.5 178.5t-232.5 69.5q-184 0 -301 -123t-117 -309q0 -189 116.5 -310.5t301.5 -121.5q134 0 232.5 67t139.5 174h355q-47 -241 -245.5 -397t-481.5 -156
q-220 0 -393 97.5t-267 266.5t-94 380zM651 1737q0 75 49 123.5t129 48.5q82 0 131.5 -48.5t49.5 -123.5q0 -76 -49.5 -124t-131.5 -48q-81 0 -129.5 48t-48.5 124z" />
    <glyph glyph-name="cdotaccent" unicode="&#x10b;" horiz-adv-x="1267" 
d="M74 541q0 159 69.5 287.5t200.5 204t301 75.5q224 0 374 -123.5t173 -322.5h-322q-22 71 -81.5 115t-141.5 44q-114 0 -183 -80t-69 -200q0 -121 70 -201t184 -80q78 0 137 41t80 107h324q-27 -194 -174.5 -314.5t-368.5 -120.5q-170 0 -302 76t-201.5 205t-69.5 287z
M469 1376q0 75 49 123.5t129 48.5q82 0 131 -48.5t49 -123.5q0 -76 -49 -124t-131 -48q-81 0 -129.5 48t-48.5 124z" />
    <glyph glyph-name="Ccaron" unicode="&#x10c;" horiz-adv-x="1642" 
d="M82 717q0 209 94.5 378.5t267.5 267t392 97.5q189 0 342 -74.5t246 -200t124 -284.5h-352q-30 109 -127.5 178.5t-232.5 69.5q-184 0 -301 -123t-117 -309q0 -189 116.5 -310.5t301.5 -121.5q134 0 232.5 67t139.5 174h355q-47 -241 -245.5 -397t-481.5 -156
q-220 0 -393 97.5t-267 266.5t-94 380zM479 1907h213l127 -107h17l129 107h211l-215 -310h-267z" />
    <glyph glyph-name="ccaron" unicode="&#x10d;" horiz-adv-x="1267" 
d="M74 541q0 159 69.5 287.5t200.5 204t301 75.5q224 0 374 -123.5t173 -322.5h-322q-22 71 -81.5 115t-141.5 44q-114 0 -183 -80t-69 -200q0 -121 70 -201t184 -80q78 0 137 41t80 107h324q-27 -194 -174.5 -314.5t-368.5 -120.5q-170 0 -302 76t-201.5 205t-69.5 287z
M297 1546h213l127 -106h16l129 106h211l-215 -309h-266z" />
    <glyph glyph-name="Dcaron" unicode="&#x10e;" horiz-adv-x="1468" 
d="M141 0v1434h510q169 0 308.5 -52.5t233.5 -146t145 -225t51 -287.5q0 -334 -197.5 -528.5t-540.5 -194.5h-510zM285 1909h213l127 -107h16l129 107h211l-215 -310h-266zM465 281h172q65 0 123.5 14.5t112.5 47.5t93 83t62 126t23 171q0 112 -34.5 197t-94 134.5
t-131.5 74t-154 24.5h-172v-872z" />
    <glyph glyph-name="dcaron" unicode="&#x10f;" horiz-adv-x="1550" 
d="M74 535q0 255 136.5 414t354.5 159q113 0 190.5 -46.5t114.5 -103.5h17v578h317v-1536h-315v123h-17q-14 -23 -36 -45t-57.5 -47.5t-89 -41.5t-116.5 -16q-224 0 -361.5 154t-137.5 408zM395 541q0 -126 69 -203.5t181 -77.5t180 79.5t68 201.5q0 127 -70 203.5
t-180 76.5t-179 -78t-69 -202zM1325 1120v416h268l-49 -416h-219z" />
    <glyph glyph-name="Dcroat" unicode="&#x110;" horiz-adv-x="1492" 
d="M47 598v229h129v607h502q339 0 536 -196.5t197 -514.5q0 -335 -195 -529t-538 -194h-502v598h-129zM502 281h162q65 0 123 14.5t111.5 47.5t92 83t61.5 126t23 171q0 112 -34 197t-93 134.5t-130.5 74t-153.5 24.5h-162v-326h250v-229h-250v-317z" />
    <glyph glyph-name="dcroat" unicode="&#x111;" horiz-adv-x="1304" 
d="M74 535q0 255 136.5 414t354.5 159q113 0 190.5 -46.5t114.5 -103.5h17v226h-271v221h271v131h317v-131h113v-221h-113v-1184h-315v123h-17q-14 -23 -36 -45t-57.5 -47.5t-89 -41.5t-116.5 -16q-224 0 -361.5 154t-137.5 408zM395 541q0 -126 69 -203.5t181 -77.5
t180 79.5t68 201.5q0 127 -70 203.5t-180 76.5t-179 -78t-69 -202z" />
    <glyph glyph-name="Emacron" unicode="&#x112;" horiz-adv-x="1150" 
d="M141 0v1434h908v-277h-584v-297h498v-276h-498v-305h606v-279h-930zM342 1632v223h573v-223h-573z" />
    <glyph glyph-name="emacron" unicode="&#x113;" horiz-adv-x="1245" 
d="M74 535q0 254 154 413.5t401 159.5q130 0 234.5 -45.5t170.5 -123.5t101.5 -179t35.5 -215v-92h-796q8 -104 78.5 -170t181.5 -66q89 0 151.5 37t87.5 92h287q-37 -172 -179 -272.5t-359 -100.5q-155 0 -280.5 72t-197 201t-71.5 289zM352 1270v223h574v-223h-574z
M381 664h496q-9 88 -76.5 145t-171.5 57q-98 0 -167.5 -59.5t-80.5 -142.5z" />
    <glyph glyph-name="Edotaccent" unicode="&#x116;" horiz-adv-x="1150" 
d="M141 0v1434h908v-277h-584v-297h498v-276h-498v-305h606v-279h-930zM440 1737q0 75 49 123.5t129 48.5q82 0 131.5 -48.5t49.5 -123.5q0 -76 -49.5 -124t-131.5 -48q-81 0 -129.5 48t-48.5 124z" />
    <glyph glyph-name="edotaccent" unicode="&#x117;" horiz-adv-x="1245" 
d="M74 535q0 254 154 413.5t401 159.5q130 0 234.5 -45.5t170.5 -123.5t101.5 -179t35.5 -215v-92h-796q8 -104 78.5 -170t181.5 -66q89 0 151.5 37t87.5 92h287q-37 -172 -179 -272.5t-359 -100.5q-155 0 -280.5 72t-197 201t-71.5 289zM381 664h496q-9 88 -76.5 145
t-171.5 57q-98 0 -167.5 -59.5t-80.5 -142.5zM451 1374q0 75 49 123.5t129 48.5q82 0 131 -48.5t49 -123.5q0 -76 -49 -124t-131 -48q-81 0 -129.5 48t-48.5 124z" />
    <glyph glyph-name="Eogonek" unicode="&#x118;" horiz-adv-x="1150" 
d="M141 0v1434h908v-277h-584v-297h498v-276h-498v-305h606v-279h-2l-80 -100q-33 -42 -33 -68q0 -25 17 -38t45 -13h51v-184h-166q-81 0 -135.5 43.5t-54.5 121.5q0 82 71 166l58 72h-701z" />
    <glyph glyph-name="eogonek" unicode="&#x119;" horiz-adv-x="1245" 
d="M74 535q0 254 154 413.5t401 159.5q130 0 234.5 -45.5t170.5 -123.5t101.5 -179t35.5 -215v-92h-796q8 -104 78.5 -170t181.5 -66q89 0 151.5 37t87.5 92h287q-31 -140 -132 -233.5t-257 -124.5l-70 -88q-32 -40 -32 -68q0 -25 16.5 -38t44.5 -13h51v-184h-166
q-81 0 -135.5 43.5t-54.5 121.5q0 81 72 166l41 52q-204 28 -334.5 181.5t-130.5 373.5zM381 664h496q-9 88 -76.5 145t-171.5 57q-98 0 -167.5 -59.5t-80.5 -142.5z" />
    <glyph glyph-name="Ecaron" unicode="&#x11a;" horiz-adv-x="1150" 
d="M141 0v1434h908v-277h-584v-297h498v-276h-498v-305h606v-279h-930zM268 1907h213l127 -107h17l129 107h211l-215 -310h-267z" />
    <glyph glyph-name="ecaron" unicode="&#x11b;" horiz-adv-x="1245" 
d="M74 535q0 254 154 413.5t401 159.5q130 0 234.5 -45.5t170.5 -123.5t101.5 -179t35.5 -215v-92h-796q8 -104 78.5 -170t181.5 -66q89 0 151.5 37t87.5 92h287q-37 -172 -179 -272.5t-359 -100.5q-155 0 -280.5 72t-197 201t-71.5 289zM279 1544h213l126 -106h17l129 106
h211l-215 -309h-266zM381 664h496q-9 88 -76.5 145t-171.5 57q-98 0 -167.5 -59.5t-80.5 -142.5z" />
    <glyph glyph-name="Gbreve" unicode="&#x11e;" horiz-adv-x="1656" 
d="M82 717q0 157 56 294t154.5 236t240 156t305.5 57q275 0 465.5 -148t244.5 -378h-358q-37 96 -130 155.5t-222 59.5q-188 0 -304 -122.5t-116 -309.5q0 -192 116 -316.5t304 -124.5q148 0 251.5 69t124.5 171h-391v266h752q13 -373 -190 -591t-547 -218q-165 0 -307 57
t-240 156t-153.5 236.5t-55.5 294.5zM543 1894h188q0 -51 28.5 -80.5t82.5 -29.5q51 0 79.5 31t28.5 79h189q0 -143 -78 -222t-219 -79q-142 0 -220.5 79t-78.5 222z" />
    <glyph glyph-name="gbreve" unicode="&#x11f;" horiz-adv-x="1316" 
d="M74 547q0 255 138 408t349 153q117 0 196 -48t113 -102h17v123h317v-1069q0 -108 -34.5 -199.5t-102 -161.5t-177.5 -109.5t-251 -39.5q-122 0 -220 33t-160 89.5t-96 127.5t-38 150h291q11 -65 67 -104.5t156 -39.5q250 0 250 254v125h-17q-17 -24 -40 -46.5
t-59.5 -47.5t-89.5 -40t-114 -15q-141 0 -252.5 66.5t-177 194.5t-65.5 298zM346 1532h189q0 -51 28 -81t82 -30q51 0 80 31.5t29 79.5h188q0 -143 -78 -222t-219 -79q-142 0 -220.5 79t-78.5 222zM395 547q0 -125 68.5 -199t181.5 -74t180.5 76t67.5 197q0 127 -69.5 200.5
t-180.5 73.5t-179.5 -75t-68.5 -199z" />
    <glyph glyph-name="Gdotaccent" unicode="&#x120;" horiz-adv-x="1656" 
d="M82 717q0 157 56 294t154.5 236t240 156t305.5 57q275 0 465.5 -148t244.5 -378h-358q-37 96 -130 155.5t-222 59.5q-188 0 -304 -122.5t-116 -309.5q0 -192 116 -316.5t304 -124.5q148 0 251.5 69t124.5 171h-391v266h752q13 -373 -190 -591t-547 -218q-165 0 -307 57
t-240 156t-153.5 236.5t-55.5 294.5zM670 1737q0 75 49 123.5t129 48.5q82 0 131 -48.5t49 -123.5q0 -76 -49 -124t-131 -48q-81 0 -129.5 48t-48.5 124z" />
    <glyph glyph-name="gdotaccent" unicode="&#x121;" horiz-adv-x="1316" 
d="M74 547q0 255 138 408t349 153q117 0 196 -48t113 -102h17v123h317v-1069q0 -108 -34.5 -199.5t-102 -161.5t-177.5 -109.5t-251 -39.5q-122 0 -220 33t-160 89.5t-96 127.5t-38 150h291q11 -65 67 -104.5t156 -39.5q250 0 250 254v125h-17q-17 -24 -40 -46.5
t-59.5 -47.5t-89.5 -40t-114 -15q-141 0 -252.5 66.5t-177 194.5t-65.5 298zM395 547q0 -125 68.5 -199t181.5 -74t180.5 76t67.5 197q0 127 -69.5 200.5t-180.5 73.5t-179.5 -75t-68.5 -199zM473 1374q0 75 49 123.5t129 48.5q82 0 131 -48.5t49 -123.5q0 -76 -49 -124
t-131 -48q-81 0 -129.5 48t-48.5 124z" />
    <glyph glyph-name="uni0122" unicode="&#x122;" horiz-adv-x="1656" 
d="M82 717q0 157 56 294t154.5 236t240 156t305.5 57q275 0 465.5 -148t244.5 -378h-358q-37 96 -130 155.5t-222 59.5q-188 0 -304 -122.5t-116 -309.5q0 -192 116 -316.5t304 -124.5q148 0 251.5 69t124.5 171h-391v266h752q13 -373 -190 -591t-547 -218q-165 0 -307 57
t-240 156t-153.5 236.5t-55.5 294.5zM682 -469l31 360h254l-93 -360h-192z" />
    <glyph glyph-name="uni0123" unicode="&#x123;" horiz-adv-x="1316" 
d="M74 547q0 255 138 408t349 153q117 0 196 -48t113 -102h17v123h317v-1069q0 -108 -34.5 -199.5t-102 -161.5t-177.5 -109.5t-251 -39.5q-122 0 -220 33t-160 89.5t-96 127.5t-38 150h291q11 -65 67 -104.5t156 -39.5q250 0 250 254v125h-17q-17 -24 -40 -46.5
t-59.5 -47.5t-89.5 -40t-114 -15q-141 0 -252.5 66.5t-177 194.5t-65.5 298zM395 547q0 -125 68.5 -199t181.5 -74t180.5 76t67.5 197q0 127 -69.5 200.5t-180.5 73.5t-179.5 -75t-68.5 -199zM498 1237l94 360h192l-30 -360h-256z" />
    <glyph glyph-name="Hcircumflex" unicode="&#x124;" horiz-adv-x="1501" 
d="M141 0v1434h324v-555h571v555h326v-1434h-326v567h-571v-567h-324zM406 1597l215 310h266l215 -310h-211l-129 107h-17l-127 -107h-212z" />
    <glyph glyph-name="hcircumflex" unicode="&#x125;" 
d="M-72 1612l215 309h267l215 -309h-211l-129 106h-17l-127 -106h-213zM135 0v1536h316v-573h16q36 62 109.5 103.5t175.5 41.5q177 0 281 -107.5t104 -279.5v-721h-318v623q0 84 -48.5 137t-129.5 53q-82 0 -135 -58.5t-53 -144.5v-610h-318z" />
    <glyph glyph-name="Hbar" unicode="&#x126;" horiz-adv-x="1718" 
d="M141 1042v232h109v160h325v-160h572v160h323v-160h109v-232h-109v-1042h-323v567h-572v-567h-325v1042h-109zM575 879h572v163h-572v-163z" />
    <glyph glyph-name="hbar" unicode="&#x127;" 
d="M10 1184v221h125v131h316v-131h258v-221h-258v-221h16q36 62 109.5 103.5t175.5 41.5q177 0 281 -107.5t104 -279.5v-721h-318v623q0 84 -48.5 137t-129.5 53q-82 0 -135 -58.5t-53 -144.5v-610h-318v1184h-125z" />
    <glyph glyph-name="Imacron" unicode="&#x12a;" horiz-adv-x="606" 
d="M25 1632v223h573v-223h-573zM141 0v1434h324v-1434h-324z" />
    <glyph glyph-name="imacron" unicode="&#x12b;" horiz-adv-x="550" 
d="M18 1270v223h574v-223h-574zM135 0v1081h318v-1081h-318z" />
    <glyph glyph-name="Iogonek" unicode="&#x12e;" horiz-adv-x="606" 
d="M109 -238q0 82 71 166l58 72h-97v1434h324v-1434l-80 -100q-33 -42 -33 -68q0 -51 62 -51h51v-184h-166q-81 0 -135.5 43.5t-54.5 121.5z" />
    <glyph glyph-name="iogonek" unicode="&#x12f;" horiz-adv-x="536" 
d="M86 -238q0 79 70 166l59 72h-90v1081h317v-1081l-80 -100q-34 -43 -34 -68t16.5 -38t44.5 -13h53v-184h-166q-82 0 -136 43t-54 122zM106 1374q0 75 49 123.5t130 48.5q82 0 131 -48.5t49 -123.5q0 -76 -49 -124t-131 -48q-81 0 -130 48t-49 124z" />
    <glyph glyph-name="Idotaccent" unicode="&#x130;" horiz-adv-x="606" 
d="M123 1737q0 75 49 123.5t129 48.5q82 0 131 -48.5t49 -123.5q0 -76 -49 -124t-131 -48q-81 0 -129.5 48t-48.5 124zM141 0v1434h324v-1434h-324z" />
    <glyph glyph-name="dotlessi" unicode="&#x131;" horiz-adv-x="550" 
d="M135 0v1081h318v-1081h-318z" />
    <glyph glyph-name="Jcircumflex" unicode="&#x134;" horiz-adv-x="1218" 
d="M61 461h308q0 -86 51.5 -138.5t146.5 -52.5q102 0 150.5 64.5t48.5 157.5v661h-455v281h781v-957q0 -231 -140.5 -366.5t-382.5 -135.5q-241 0 -374.5 132t-133.5 354zM352 1597l215 310h267l215 -310h-211l-129 107h-17l-127 -107h-213z" />
    <glyph glyph-name="jcircumflex" unicode="&#x135;" horiz-adv-x="645" 
d="M4 -190h74q70 0 109.5 39t39.5 108v1124h318v-1126q0 -197 -112 -311.5t-294 -114.5h-135v281zM25 1235l215 309h266l215 -309h-211l-129 106h-16l-127 -106h-213z" />
    <glyph glyph-name="uni0136" unicode="&#x136;" horiz-adv-x="1357" 
d="M141 0v1434h324v-547h12l432 547h400l-478 -564l486 -870h-375l-334 608l-143 -170v-438h-324zM510 -469l31 360h254l-93 -360h-192z" />
    <glyph glyph-name="uni0137" unicode="&#x137;" horiz-adv-x="1216" 
d="M135 0v1536h318v-823h12l307 368h391l-348 -389l375 -692h-356l-238 449l-143 -160v-289h-318zM467 -469l31 360h254l-93 -360h-192z" />
    <glyph glyph-name="kgreenlandic" unicode="&#x138;" horiz-adv-x="1216" 
d="M135 0v1081h318v-368h12l315 368h389l-354 -389l375 -692h-356l-238 446l-143 -157v-289h-318z" />
    <glyph glyph-name="Lacute" unicode="&#x139;" horiz-adv-x="1099" 
d="M141 0v1434h324v-1145h561v-289h-885zM168 1597l100 312h303l-188 -312h-215z" />
    <glyph glyph-name="lacute" unicode="&#x13a;" horiz-adv-x="661" 
d="M135 340v1196h318v-1159q0 -98 90 -98h39v-279h-109q-161 0 -249.5 90t-88.5 250zM166 1612l100 311h303l-188 -311h-215z" />
    <glyph glyph-name="uni013B" unicode="&#x13b;" horiz-adv-x="1099" 
d="M141 0v1434h324v-1145h561v-289h-885zM424 -469l31 360h254l-93 -360h-192z" />
    <glyph glyph-name="uni013C" unicode="&#x13c;" horiz-adv-x="661" 
d="M135 340v1196h318v-1159q0 -98 90 -98h39v-279h-109q-161 0 -249.5 90t-88.5 250zM236 -469l30 360h254l-92 -360h-192z" />
    <glyph glyph-name="Lcaron" unicode="&#x13d;" horiz-adv-x="1091" 
d="M141 0v1434h324v-1145h561v-289h-885zM686 1018v416h268l-49 -416h-219z" />
    <glyph glyph-name="lcaron" unicode="&#x13e;" horiz-adv-x="745" 
d="M135 340v1196h318v-1159q0 -98 90 -98h39v-279h-109q-161 0 -249.5 90t-88.5 250zM588 1120v416h268l-49 -416h-219z" />
    <glyph glyph-name="Ldot" unicode="&#x13f;" horiz-adv-x="1228" 
d="M141 0v1434h324v-1145h561v-289h-885zM590 788q0 72 51 121t123 49q77 0 126.5 -48.5t49.5 -121.5q0 -75 -49 -123.5t-127 -48.5q-73 0 -123.5 49t-50.5 123z" />
    <glyph glyph-name="ldot" unicode="&#x140;" horiz-adv-x="907" 
d="M135 340v1196h318v-1159q0 -98 90 -98h39v-279h-109q-161 0 -249.5 90t-88.5 250zM553 797q0 72 50 121t122 49q77 0 126.5 -48.5t49.5 -121.5q0 -75 -49 -123.5t-127 -48.5q-73 0 -122.5 49t-49.5 123z" />
    <glyph glyph-name="Lslash" unicode="&#x141;" horiz-adv-x="1165" 
d="M74 406v262l141 69v697h324v-539l303 147v-262l-303 -147v-344h561v-289h-885v475z" />
    <glyph glyph-name="lslash" unicode="&#x142;" horiz-adv-x="804" 
d="M63 522v262l136 66v686h317v-535l168 82v-262l-168 -82v-362q0 -49 24 -73.5t68 -24.5h39v-279h-110q-160 0 -249 90.5t-89 249.5v248z" />
    <glyph glyph-name="Nacute" unicode="&#x143;" horiz-adv-x="1515" 
d="M141 0v1434h359l549 -902h12v902h313v-1434h-360l-547 901h-12v-901h-314zM645 1597l100 312h304l-189 -312h-215z" />
    <glyph glyph-name="nacute" unicode="&#x144;" horiz-adv-x="1228" 
d="M135 0v1081h299v-118h17q35 61 111.5 103t178.5 42q177 0 282 -108t105 -279v-721h-317v623q0 85 -47 137.5t-127 52.5q-82 0 -133 -59.5t-51 -147.5v-606h-318zM526 1235l101 311h303l-189 -311h-215z" />
    <glyph glyph-name="uni0145" unicode="&#x145;" horiz-adv-x="1515" 
d="M141 0v1434h359l549 -902h12v902h313v-1434h-360l-547 901h-12v-901h-314zM575 -469l31 360h254l-92 -360h-193z" />
    <glyph glyph-name="uni0146" unicode="&#x146;" horiz-adv-x="1228" 
d="M135 0v1081h299v-118h17q35 61 111.5 103t178.5 42q177 0 282 -108t105 -279v-721h-317v623q0 85 -47 137.5t-127 52.5q-82 0 -133 -59.5t-51 -147.5v-606h-318zM477 -469l31 360h254l-92 -360h-193z" />
    <glyph glyph-name="Ncaron" unicode="&#x147;" horiz-adv-x="1515" 
d="M141 0v1434h359l549 -902h12v902h313v-1434h-360l-547 901h-12v-901h-314zM426 1907h213l127 -107h16l129 107h211l-215 -310h-266z" />
    <glyph glyph-name="ncaron" unicode="&#x148;" horiz-adv-x="1228" 
d="M135 0v1081h299v-118h17q35 61 111.5 103t178.5 42q177 0 282 -108t105 -279v-721h-317v623q0 85 -47 137.5t-127 52.5q-82 0 -133 -59.5t-51 -147.5v-606h-318zM307 1544h213l127 -106h17l129 106h211l-216 -309h-266z" />
    <glyph glyph-name="Eng" unicode="&#x14a;" horiz-adv-x="1515" 
d="M141 0v1434h326l582 -834h12v834h313v-1426q0 -150 -65 -259.5t-176.5 -164.5t-255.5 -55l2 293q89 0 130.5 54t41.5 134v64l-584 829h-12v-903h-314z" />
    <glyph glyph-name="eng" unicode="&#x14b;" horiz-adv-x="1228" 
d="M135 0v1081h299v-118h17q35 61 111.5 103t178.5 42q177 0 282 -108t105 -279v-766q0 -197 -111.5 -311.5t-293.5 -114.5h-135v281h74q72 0 110.5 39t38.5 108v666q0 85 -47 137.5t-127 52.5q-82 0 -133 -59.5t-51 -147.5v-606h-318z" />
    <glyph glyph-name="Omacron" unicode="&#x14c;" horiz-adv-x="1685" 
d="M82 717q0 156 58 293.5t158.5 236.5t242 156t303.5 57q161 0 303 -57.5t242.5 -156.5t158.5 -236.5t58 -292.5q0 -207 -99 -377.5t-273.5 -268.5t-389.5 -98q-162 0 -304 57t-242.5 155.5t-158 236.5t-57.5 295zM418 717q0 -187 119.5 -309.5t306.5 -122.5
q185 0 304.5 122.5t119.5 309.5q0 185 -119.5 308.5t-304.5 123.5q-186 0 -306 -123.5t-120 -308.5zM567 1632v223h574v-223h-574z" />
    <glyph glyph-name="omacron" unicode="&#x14d;" horiz-adv-x="1312" 
d="M74 541q0 119 42.5 223t117.5 180t184.5 120t238.5 44q256 0 419 -162.5t163 -404.5q0 -119 -42.5 -223.5t-118.5 -180.5t-185.5 -120t-237.5 -44q-169 0 -302.5 75.5t-206 204.5t-72.5 288zM383 1270v223h573v-223h-573zM395 541q0 -124 73.5 -202.5t186.5 -78.5
q114 0 188.5 79t74.5 202t-74.5 201.5t-188.5 78.5q-113 0 -186.5 -78.5t-73.5 -201.5z" />
    <glyph glyph-name="Ohungarumlaut" unicode="&#x150;" horiz-adv-x="1685" 
d="M82 717q0 156 58 293.5t158.5 236.5t242 156t303.5 57q161 0 303 -57.5t242.5 -156.5t158.5 -236.5t58 -292.5q0 -207 -99 -377.5t-273.5 -268.5t-389.5 -98q-162 0 -304 57t-242.5 155.5t-158 236.5t-57.5 295zM418 717q0 -187 119.5 -309.5t306.5 -122.5
q185 0 304.5 122.5t119.5 309.5q0 185 -119.5 308.5t-304.5 123.5q-186 0 -306 -123.5t-120 -308.5zM553 1597l82 318h297l-172 -318h-207zM934 1597l82 318h297l-172 -318h-207z" />
    <glyph glyph-name="ohungarumlaut" unicode="&#x151;" horiz-adv-x="1312" 
d="M74 541q0 119 42.5 223t117.5 180t184.5 120t238.5 44q256 0 419 -162.5t163 -404.5q0 -119 -42.5 -223.5t-118.5 -180.5t-185.5 -120t-237.5 -44q-169 0 -302.5 75.5t-206 204.5t-72.5 288zM369 1235l82 317h297l-173 -317h-206zM395 541q0 -124 73.5 -202.5
t186.5 -78.5q114 0 188.5 79t74.5 202t-74.5 201.5t-188.5 78.5q-113 0 -186.5 -78.5t-73.5 -201.5zM750 1235l81 317h297l-172 -317h-206z" />
    <glyph glyph-name="OE" unicode="&#x152;" horiz-adv-x="2269" 
d="M82 717q0 156 58 293.5t158.5 236.5t242 156t303.5 57q102 0 209 -26h1114v-277h-713q106 -128 133 -297h500v-276h-498q-24 -175 -135 -305h733v-279h-1134q-115 -27 -209 -27q-162 0 -304 57t-242.5 155.5t-158 236.5t-57.5 295zM418 717q0 -187 119.5 -309.5
t306.5 -122.5q182 0 301 122.5t119 309.5q0 184 -119 308t-301 124q-186 0 -306 -123.5t-120 -308.5z" />
    <glyph glyph-name="oe" unicode="&#x153;" horiz-adv-x="2103" 
d="M74 541q0 119 42.5 223t117.5 180t184.5 120t238.5 44q128 0 237 -44t187 -122q73 79 177.5 122.5t228.5 43.5q130 0 234.5 -45.5t171 -123.5t102 -179t35.5 -215v-92h-795q6 -105 75.5 -171.5t180.5 -66.5q92 0 154.5 37t87.5 94h284q-37 -172 -178.5 -272.5
t-357.5 -100.5q-120 0 -222.5 43.5t-177.5 122.5q-78 -78 -187.5 -122t-238.5 -44q-169 0 -302.5 75.5t-206 204.5t-72.5 288zM395 541q0 -124 73.5 -202.5t186.5 -78.5q114 0 188.5 79t74.5 202t-74.5 201.5t-188.5 78.5q-113 0 -186.5 -78.5t-73.5 -201.5zM1237 664h498
q-9 88 -78.5 145t-173.5 57q-96 0 -164.5 -59.5t-81.5 -142.5z" />
    <glyph glyph-name="Racute" unicode="&#x154;" horiz-adv-x="1325" 
d="M141 0v1434h561q221 0 364.5 -132t143.5 -341q0 -140 -70.5 -250t-183.5 -168l306 -543h-361l-244 479h-192v-479h-324zM465 756h209q91 0 148 54t57 151q0 89 -57 142.5t-152 53.5h-205v-401zM485 1597l101 312h303l-189 -312h-215z" />
    <glyph glyph-name="racute" unicode="&#x155;" horiz-adv-x="907" 
d="M135 0v1081h299v-163h17q32 69 105 120.5t173 51.5h105v-299h-125q-118 0 -187 -80t-69 -219v-492h-318zM395 1235l101 311h303l-189 -311h-215z" />
    <glyph glyph-name="uni0156" unicode="&#x156;" horiz-adv-x="1325" 
d="M141 0v1434h561q221 0 364.5 -132t143.5 -341q0 -140 -70.5 -250t-183.5 -168l306 -543h-361l-244 479h-192v-479h-324zM465 756h209q91 0 148 54t57 151q0 89 -57 142.5t-152 53.5h-205v-401zM500 -469l30 360h254l-92 -360h-192z" />
    <glyph glyph-name="uni0157" unicode="&#x157;" horiz-adv-x="907" 
d="M135 0v1081h299v-163h17q32 69 105 120.5t173 51.5h105v-299h-125q-118 0 -187 -80t-69 -219v-492h-318zM291 -469l31 360h253l-92 -360h-192z" />
    <glyph glyph-name="Rcaron" unicode="&#x158;" horiz-adv-x="1325" 
d="M141 0v1434h561q221 0 364.5 -132t143.5 -341q0 -140 -70.5 -250t-183.5 -168l306 -543h-361l-244 479h-192v-479h-324zM264 1907h213l127 -107h17l129 107h211l-216 -310h-266zM465 756h209q91 0 148 54t57 151q0 89 -57 142.5t-152 53.5h-205v-401z" />
    <glyph glyph-name="rcaron" unicode="&#x159;" horiz-adv-x="907" 
d="M135 0v1081h299v-163h17q32 69 105 120.5t173 51.5h105v-299h-125q-118 0 -187 -80t-69 -219v-492h-318zM174 1544h213l127 -106h16l129 106h211l-215 -309h-266z" />
    <glyph glyph-name="Sacute" unicode="&#x15a;" horiz-adv-x="1245" 
d="M57 467h310q5 -88 73 -142.5t187 -54.5q101 0 158 37.5t57 104.5q0 42 -25.5 71.5t-69 46t-99.5 29.5t-118 26.5t-124 31.5t-118 50t-99.5 77t-69 118.5t-25.5 167.5q0 186 138 308t378 122q232 0 378 -117.5t155 -338.5h-324q-2 75 -56.5 121t-152.5 46q-92 0 -142 -37
t-50 -96q0 -40 26 -68t70 -44t101.5 -28t120.5 -25t126 -30.5t120.5 -49.5t101.5 -76t70 -116t26 -165q0 -205 -150 -334t-414 -129q-259 0 -410 135.5t-149 358.5zM483 1597l101 312h303l-189 -312h-215z" />
    <glyph glyph-name="sacute" unicode="&#x15b;" horiz-adv-x="1087" 
d="M74 332h288q6 -56 52 -85.5t125 -29.5t122.5 27t43.5 73q0 35 -26.5 56.5t-69 30t-97.5 18t-112.5 17.5t-112.5 30.5t-97.5 55.5t-69 94.5t-26.5 144.5q0 145 118.5 244.5t326.5 99.5q192 0 313 -89.5t131 -254.5h-274q-8 51 -51 80.5t-119 29.5q-72 0 -115 -26.5
t-43 -69.5q0 -28 21.5 -45.5t58 -26.5t84 -14.5t99.5 -13.5t104.5 -19.5t100 -36t84 -59.5t58 -93.5t21.5 -135.5q0 -161 -125 -261t-350 -100q-227 0 -342.5 95t-120.5 264zM401 1235l101 311h303l-189 -311h-215z" />
    <glyph glyph-name="Scedilla" unicode="&#x15e;" horiz-adv-x="1245" 
d="M57 467h310q5 -88 73 -142.5t187 -54.5q101 0 158 37.5t57 104.5q0 42 -25.5 71.5t-69 46t-99.5 29.5t-118 26.5t-124 31.5t-118 50t-99.5 77t-69 118.5t-25.5 167.5q0 186 138 308t378 122q232 0 378 -117.5t155 -338.5h-324q-2 75 -56.5 121t-152.5 46q-92 0 -142 -37
t-50 -96q0 -40 26 -68t70 -44t101.5 -28t120.5 -25t126 -30.5t120.5 -49.5t101.5 -76t70 -116t26 -165q0 -200 -144 -328.5t-399 -134.5l-19 -69h13q22 18 63 18q71 0 120.5 -46t49.5 -122q0 -77 -57.5 -125.5t-149.5 -48.5q-86 0 -142.5 44.5t-57.5 115.5h149
q2 -15 16.5 -27t32.5 -12q26 0 41 15t15 40q0 23 -15.5 38.5t-38.5 15.5q-30 0 -45 -27l-145 2l35 197q-210 29 -328.5 159t-116.5 326z" />
    <glyph glyph-name="scedilla" unicode="&#x15f;" horiz-adv-x="1087" 
d="M74 332h288q6 -56 52 -85.5t125 -29.5t122.5 27t43.5 73q0 35 -26.5 56.5t-69 30t-97.5 18t-112.5 17.5t-112.5 30.5t-97.5 55.5t-69 94.5t-26.5 144.5q0 145 118.5 244.5t326.5 99.5q192 0 313 -89.5t131 -254.5h-274q-8 51 -51 80.5t-119 29.5q-72 0 -115 -26.5
t-43 -69.5q0 -28 21.5 -45.5t58 -26.5t84 -14.5t99.5 -13.5t104.5 -19.5t100 -36t84 -59.5t58 -93.5t21.5 -135.5q0 -156 -119 -255.5t-334 -105.5l-18 -69h12q22 18 65 18q71 0 119.5 -46t48.5 -122q0 -77 -57 -125.5t-149 -48.5q-86 0 -143 44.5t-58 115.5h149
q3 -16 17.5 -27.5t34.5 -11.5q25 0 39 15t14 40q0 23 -15 38.5t-38 15.5q-30 0 -45 -27l-146 2l35 195q-171 23 -258 114.5t-92 237.5z" />
    <glyph glyph-name="Scaron" unicode="&#x160;" horiz-adv-x="1245" 
d="M57 467h310q5 -88 73 -142.5t187 -54.5q101 0 158 37.5t57 104.5q0 42 -25.5 71.5t-69 46t-99.5 29.5t-118 26.5t-124 31.5t-118 50t-99.5 77t-69 118.5t-25.5 167.5q0 186 138 308t378 122q232 0 378 -117.5t155 -338.5h-324q-2 75 -56.5 121t-152.5 46q-92 0 -142 -37
t-50 -96q0 -40 26 -68t70 -44t101.5 -28t120.5 -25t126 -30.5t120.5 -49.5t101.5 -76t70 -116t26 -165q0 -205 -150 -334t-414 -129q-259 0 -410 135.5t-149 358.5zM262 1907h213l127 -107h16l130 107h210l-215 -310h-266z" />
    <glyph glyph-name="scaron" unicode="&#x161;" horiz-adv-x="1087" 
d="M74 332h288q6 -56 52 -85.5t125 -29.5t122.5 27t43.5 73q0 35 -26.5 56.5t-69 30t-97.5 18t-112.5 17.5t-112.5 30.5t-97.5 55.5t-69 94.5t-26.5 144.5q0 145 118.5 244.5t326.5 99.5q192 0 313 -89.5t131 -254.5h-274q-8 51 -51 80.5t-119 29.5q-72 0 -115 -26.5
t-43 -69.5q0 -28 21.5 -45.5t58 -26.5t84 -14.5t99.5 -13.5t104.5 -19.5t100 -36t84 -59.5t58 -93.5t21.5 -135.5q0 -161 -125 -261t-350 -100q-227 0 -342.5 95t-120.5 264zM182 1544h213l127 -106h17l129 106h211l-215 -309h-267z" />
    <glyph glyph-name="uni0162" unicode="&#x162;" 
d="M55 1153v281h1127v-281h-402v-1153h-104l-27 -96h13q22 18 65 18q71 0 119.5 -46t48.5 -122q0 -77 -57.5 -125.5t-149.5 -48.5q-86 0 -143 44.5t-58 115.5h150q3 -16 17.5 -27.5t33.5 -11.5q25 0 39 15t14 40q0 24 -14.5 39t-38.5 15q-13 0 -26 -8t-19 -19l-145 2l37 215
h-80v1153h-400z" />
    <glyph glyph-name="uni0163" unicode="&#x163;" horiz-adv-x="909" 
d="M76 834v245h102q42 0 65 26.5t23 70.5v198h301v-293h283v-247h-283v-443q0 -61 35.5 -95t104.5 -34h139v-262h-213l-27 -96h12q22 18 66 18q71 0 119.5 -46t48.5 -122q0 -77 -57 -125.5t-150 -48.5q-86 0 -143 44.5t-58 115.5h152q2 -16 15.5 -27.5t33.5 -11.5
q26 0 39.5 15t13.5 40q0 24 -14.5 39t-38.5 15q-13 0 -25.5 -8t-17.5 -19l-147 2l41 231q-118 32 -182 125.5t-64 233.5v459h-174z" />
    <glyph glyph-name="Tcaron" unicode="&#x164;" 
d="M55 1153v281h1127v-281h-402v-1153h-325v1153h-400zM283 1907h213l127 -107h16l129 107h211l-215 -310h-266z" />
    <glyph glyph-name="tcaron" unicode="&#x165;" horiz-adv-x="892" 
d="M76 834v245h102q42 0 65 26.5t23 70.5v198h301v-293h283v-247h-283v-443q0 -61 35.5 -95t104.5 -34h139v-262h-219q-178 0 -277.5 98.5t-99.5 276.5v459h-174zM702 1163v416h269l-49 -416h-220z" />
    <glyph glyph-name="Tbar" unicode="&#x166;" horiz-adv-x="1153" 
d="M55 1153v281h1127v-281h-402v-309h221v-230h-221v-614h-325v614h-305v230h305v309h-400z" />
    <glyph glyph-name="tbar" unicode="&#x167;" horiz-adv-x="892" 
d="M76 834v245h102q42 0 65 26.5t23 70.5v198h301v-293h283v-247h-283v-136h254v-221h-254v-86q0 -61 35.5 -95t104.5 -34h139v-262h-219q-178 0 -277.5 98.5t-99.5 276.5v102h-164v221h164v136h-174z" />
    <glyph glyph-name="Umacron" unicode="&#x16a;" horiz-adv-x="1421" 
d="M127 545v889h326v-887q0 -126 66 -197t192 -71t192 71t66 199v885h325v-887q0 -257 -160.5 -415.5t-422.5 -158.5q-263 0 -423.5 158t-160.5 414zM422 1632v223h573v-223h-573z" />
    <glyph glyph-name="umacron" unicode="&#x16b;" 
d="M129 360v721h317v-622q0 -86 47 -138.5t128 -52.5q82 0 133 59.5t51 147.5v606h317v-1081h-301v119h-16q-34 -60 -110.5 -103t-178.5 -43q-177 0 -282 108t-105 279zM352 1270v223h574v-223h-574z" />
    <glyph glyph-name="Uring" unicode="&#x16e;" horiz-adv-x="1421" 
d="M127 545v889h326v-887q0 -126 66 -197t192 -71t192 71t66 199v885h325v-887q0 -257 -160.5 -415.5t-422.5 -158.5q-263 0 -423.5 158t-160.5 414zM481 1733q0 89 60.5 146.5t154.5 57.5q96 0 156.5 -57t60.5 -145q0 -89 -60.5 -148t-154.5 -59q-95 0 -156 58.5t-61 146.5
zM627 1733q0 -33 19 -52.5t52 -19.5q32 0 52 20t20 54q0 31 -20.5 51t-53.5 20q-32 0 -50.5 -20t-18.5 -53z" />
    <glyph glyph-name="uring" unicode="&#x16f;" 
d="M129 360v721h317v-622q0 -86 47 -138.5t128 -52.5q82 0 133 59.5t51 147.5v606h317v-1081h-301v119h-16q-34 -60 -110.5 -103t-178.5 -43q-177 0 -282 108t-105 279zM412 1370q0 89 60.5 147t154.5 58q96 0 156.5 -57.5t60.5 -145.5q0 -89 -60.5 -148t-154.5 -59
q-95 0 -156 58.5t-61 146.5zM557 1370q0 -33 19.5 -52.5t52.5 -19.5q32 0 51.5 20t19.5 54q0 31 -20 51.5t-53 20.5q-32 0 -51 -20.5t-19 -53.5z" />
    <glyph glyph-name="Uhungarumlaut" unicode="&#x170;" horiz-adv-x="1421" 
d="M127 545v889h326v-887q0 -126 66 -197t192 -71t192 71t66 199v885h325v-887q0 -257 -160.5 -415.5t-422.5 -158.5q-263 0 -423.5 158t-160.5 414zM408 1597l81 318h297l-172 -318h-206zM788 1597l82 318h297l-172 -318h-207z" />
    <glyph glyph-name="uhungarumlaut" unicode="&#x171;" 
d="M129 360v721h317v-622q0 -86 47 -138.5t128 -52.5q82 0 133 59.5t51 147.5v606h317v-1081h-301v119h-16q-34 -60 -110.5 -103t-178.5 -43q-177 0 -282 108t-105 279zM338 1235l82 317h297l-172 -317h-207zM719 1235l82 317h297l-172 -317h-207z" />
    <glyph glyph-name="Uogonek" unicode="&#x172;" horiz-adv-x="1421" 
d="M127 545v889h326v-887q0 -126 66 -197t192 -71t192 71t66 199v885h325v-887q0 -213 -112 -361t-305 -194l-74 -92q-33 -42 -33 -68q0 -51 61 -51h52v-184h-166q-81 0 -136 43.5t-55 121.5q0 81 72 166l39 49q-233 22 -371.5 176.5t-138.5 391.5z" />
    <glyph glyph-name="uogonek" unicode="&#x173;" 
d="M129 360v721h317v-622q0 -86 47 -138.5t128 -52.5q82 0 133 59.5t51 147.5v606h317v-1081l-80 -100q-32 -40 -32 -68q0 -51 61 -51h51v-184h-166q-81 0 -135.5 43.5t-54.5 121.5q0 81 72 166l57 72h-74v119h-16q-34 -60 -110.5 -103t-178.5 -43q-177 0 -282 108t-105 279
z" />
    <glyph glyph-name="Wcircumflex" unicode="&#x174;" horiz-adv-x="2039" 
d="M27 1434h354l209 -932h16l213 932h400l215 -932h16l209 932h354l-373 -1434h-383l-229 969h-16l-232 -969h-381zM680 1597l215 310h266l215 -310h-211l-129 107h-16l-127 -107h-213z" />
    <glyph glyph-name="wcircumflex" unicode="&#x175;" horiz-adv-x="1792" 
d="M47 1081h330l143 -694h17l204 694h310l204 -694h17l143 694h330l-287 -1081h-348l-207 659h-12l-209 -659h-348zM549 1235l215 309h266l215 -309h-211l-129 106h-16l-127 -106h-213z" />
    <glyph glyph-name="Ycircumflex" unicode="&#x176;" horiz-adv-x="1368" 
d="M27 1434h354l293 -551h18l291 551h358l-491 -877v-557h-326v555zM340 1597l215 310h266l215 -310h-211l-129 107h-16l-127 -107h-213z" />
    <glyph glyph-name="ycircumflex" unicode="&#x177;" horiz-adv-x="1212" 
d="M33 1081h332l237 -686h16l226 686h336l-459 -1237q-58 -156 -159 -235.5t-265 -79.5h-143v281h125q115 0 163 118l19 52zM260 1235l215 309h266l215 -309h-211l-129 106h-16l-127 -106h-213z" />
    <glyph glyph-name="Ydieresis" unicode="&#x178;" horiz-adv-x="1368" 
d="M27 1434h354l293 -551h18l291 551h358l-491 -877v-557h-326v555zM332 1749q0 63 43 107.5t106 44.5q68 0 110 -44t42 -108q0 -67 -42 -109.5t-110 -42.5q-63 0 -106 43t-43 109zM737 1749q0 67 42 109.5t110 42.5q63 0 106 -44.5t43 -107.5q0 -66 -43 -109t-106 -43
q-68 0 -110 42.5t-42 109.5z" />
    <glyph glyph-name="Zacute" unicode="&#x179;" horiz-adv-x="1280" 
d="M88 0v283l684 858v16h-659v277h1075v-281l-688 -858v-16h692v-279h-1104zM502 1597l100 312h303l-188 -312h-215z" />
    <glyph glyph-name="zacute" unicode="&#x17a;" horiz-adv-x="1077" 
d="M94 0v281l467 522v16h-450v262h862v-262l-467 -532v-17h477v-270h-889zM422 1235l100 311h303l-188 -311h-215z" />
    <glyph glyph-name="Zdotaccent" unicode="&#x17b;" horiz-adv-x="1280" 
d="M88 0v283l684 858v16h-659v277h1075v-281l-688 -858v-16h692v-279h-1104zM455 1737q0 75 49 123.5t129 48.5q82 0 131 -48.5t49 -123.5q0 -76 -49 -124t-131 -48q-81 0 -129.5 48t-48.5 124z" />
    <glyph glyph-name="zdotaccent" unicode="&#x17c;" horiz-adv-x="1077" 
d="M94 0v281l467 522v16h-450v262h862v-262l-467 -532v-17h477v-270h-889zM375 1374q0 75 49 123.5t129 48.5q82 0 131 -48.5t49 -123.5q0 -76 -49 -124t-131 -48q-81 0 -129.5 48t-48.5 124z" />
    <glyph glyph-name="Zcaron" unicode="&#x17d;" horiz-adv-x="1280" 
d="M88 0v283l684 858v16h-659v277h1075v-281l-688 -858v-16h692v-279h-1104zM283 1907h213l127 -107h16l129 107h211l-215 -310h-266z" />
    <glyph glyph-name="zcaron" unicode="&#x17e;" horiz-adv-x="1077" 
d="M94 0v281l467 522v16h-450v262h862v-262l-467 -532v-17h477v-270h-889zM203 1544h213l127 -106h16l129 106h211l-215 -309h-266z" />
    <glyph glyph-name="florin" unicode="&#x192;" horiz-adv-x="1101" 
d="M109 666v249h249l52 273q30 168 148 258t292 90h172l-33 -266h-106q-146 0 -172 -146l-39 -209h250v-249h-297l-199 -1061h-307l194 1061h-204z" />
    <glyph glyph-name="uni0218" unicode="&#x218;" horiz-adv-x="1245" 
d="M57 467h310q5 -88 73 -142.5t187 -54.5q101 0 158 37.5t57 104.5q0 42 -25.5 71.5t-69 46t-99.5 29.5t-118 26.5t-124 31.5t-118 50t-99.5 77t-69 118.5t-25.5 167.5q0 186 138 308t378 122q232 0 378 -117.5t155 -338.5h-324q-2 75 -56.5 121t-152.5 46q-92 0 -142 -37
t-50 -96q0 -40 26 -68t70 -44t101.5 -28t120.5 -25t126 -30.5t120.5 -49.5t101.5 -76t70 -116t26 -165q0 -205 -150 -334t-414 -129q-259 0 -410 135.5t-149 358.5zM471 -469l31 360h254l-92 -360h-193z" />
    <glyph glyph-name="uni0219" unicode="&#x219;" horiz-adv-x="1087" 
d="M74 332h288q6 -56 52 -85.5t125 -29.5t122.5 27t43.5 73q0 35 -26.5 56.5t-69 30t-97.5 18t-112.5 17.5t-112.5 30.5t-97.5 55.5t-69 94.5t-26.5 144.5q0 145 118.5 244.5t326.5 99.5q192 0 313 -89.5t131 -254.5h-274q-8 51 -51 80.5t-119 29.5q-72 0 -115 -26.5
t-43 -69.5q0 -28 21.5 -45.5t58 -26.5t84 -14.5t99.5 -13.5t104.5 -19.5t100 -36t84 -59.5t58 -93.5t21.5 -135.5q0 -161 -125 -261t-350 -100q-227 0 -342.5 95t-120.5 264zM393 -469l31 360h254l-92 -360h-193z" />
    <glyph glyph-name="uni021A" unicode="&#x21a;" 
d="M55 1153v281h1127v-281h-402v-1153h-325v1153h-400zM457 -469l30 360h254l-92 -360h-192z" />
    <glyph glyph-name="uni021B" unicode="&#x21b;" horiz-adv-x="909" 
d="M76 834v245h102q42 0 65 26.5t23 70.5v198h301v-293h283v-247h-283v-443q0 -61 35.5 -95t104.5 -34h139v-262h-219q-178 0 -277.5 98.5t-99.5 276.5v459h-174zM414 -469l30 360h254l-92 -360h-192z" />
    <glyph glyph-name="uni0237" unicode="&#x237;" horiz-adv-x="645" 
d="M4 -190h74q70 0 109.5 39t39.5 108v1124h318v-1126q0 -197 -112 -311.5t-294 -114.5h-135v281z" />
    <glyph glyph-name="circumflex" unicode="&#x2c6;" horiz-adv-x="843" 
d="M74 1235l215 309h266l215 -309h-211l-129 106h-16l-127 -106h-213z" />
    <glyph glyph-name="caron" unicode="&#x2c7;" horiz-adv-x="843" 
d="M74 1544h213l127 -106h16l129 106h211l-215 -309h-266z" />
    <glyph glyph-name="breve" unicode="&#x2d8;" horiz-adv-x="772" 
d="M88 1532h188q0 -51 28.5 -81t82.5 -30q51 0 80 31.5t29 79.5h188q0 -143 -78 -222t-219 -79q-142 0 -220.5 79t-78.5 222z" />
    <glyph glyph-name="dotaccent" unicode="&#x2d9;" horiz-adv-x="550" 
d="M96 1374q0 75 49 123.5t129 48.5q82 0 131.5 -48.5t49.5 -123.5q0 -76 -49.5 -124t-131.5 -48q-81 0 -129.5 48t-48.5 124z" />
    <glyph glyph-name="ring" unicode="&#x2da;" horiz-adv-x="604" 
d="M86 1370q0 89 60.5 147t154.5 58q96 0 156.5 -57.5t60.5 -145.5q0 -89 -60.5 -148t-154.5 -59q-95 0 -156 58.5t-61 146.5zM231 1370q0 -33 19.5 -52.5t52.5 -19.5q32 0 52 20t20 54q0 31 -20.5 51.5t-53.5 20.5q-32 0 -51 -20.5t-19 -53.5z" />
    <glyph glyph-name="ogonek" unicode="&#x2db;" horiz-adv-x="532" 
d="M88 -238q0 81 72 166l57 72h227l-79 -100q-33 -42 -33 -68q0 -25 16.5 -38t44.5 -13h51v-184h-165q-81 0 -136 43.5t-55 121.5z" />
    <glyph glyph-name="tilde" unicode="&#x2dc;" horiz-adv-x="901" 
d="M82 1227q0 150 64.5 224.5t168.5 74.5q52 0 98 -21.5t81.5 -43t62.5 -21.5q66 0 72 86h190q0 -145 -64 -223t-167 -78q-50 0 -94 21.5t-81 43t-69 21.5q-66 0 -72 -84h-190z" />
    <glyph glyph-name="hungarumlaut" unicode="&#x2dd;" horiz-adv-x="940" 
d="M92 1235l82 317h297l-172 -317h-207zM473 1235l82 317h297l-172 -317h-207z" />
    <glyph glyph-name="uni0326" unicode="&#x326;" horiz-adv-x="0" 
d="M-360 -469l30 360h254l-92 -360h-192z" />
    <glyph glyph-name="Wgrave" unicode="&#x1e80;" horiz-adv-x="2039" 
d="M27 1434h354l209 -932h16l213 932h400l215 -932h16l209 932h354l-373 -1434h-383l-229 969h-16l-232 -969h-381zM756 1909h305l98 -312h-213z" />
    <glyph glyph-name="wgrave" unicode="&#x1e81;" horiz-adv-x="1792" 
d="M47 1081h330l143 -694h17l204 694h310l204 -694h17l143 694h330l-287 -1081h-348l-207 659h-12l-209 -659h-348zM625 1546h305l98 -311h-213z" />
    <glyph glyph-name="Wacute" unicode="&#x1e82;" horiz-adv-x="2039" 
d="M27 1434h354l209 -932h16l213 932h400l215 -932h16l209 932h354l-373 -1434h-383l-229 969h-16l-232 -969h-381zM899 1597l100 312h304l-189 -312h-215z" />
    <glyph glyph-name="wacute" unicode="&#x1e83;" horiz-adv-x="1792" 
d="M47 1081h330l143 -694h17l204 694h310l204 -694h17l143 694h330l-287 -1081h-348l-207 659h-12l-209 -659h-348zM770 1235l100 311h304l-189 -311h-215z" />
    <glyph glyph-name="Wdieresis" unicode="&#x1e84;" horiz-adv-x="2039" 
d="M27 1434h354l209 -932h16l213 932h400l215 -932h16l209 932h354l-373 -1434h-383l-229 969h-16l-232 -969h-381zM670 1749q0 63 43 107.5t106 44.5q68 0 110 -44t42 -108q0 -67 -42 -109.5t-110 -42.5q-63 0 -106 43t-43 109zM1075 1749q0 67 42 109.5t110 42.5
q63 0 106 -44.5t43 -107.5q0 -66 -43 -109t-106 -43q-68 0 -110 42.5t-42 109.5z" />
    <glyph glyph-name="wdieresis" unicode="&#x1e85;" horiz-adv-x="1792" 
d="M47 1081h330l143 -694h17l204 694h310l204 -694h17l143 694h330l-287 -1081h-348l-207 659h-12l-209 -659h-348zM541 1386q0 63 43 107.5t106 44.5q68 0 110 -44t42 -108q0 -67 -42 -109t-110 -42q-64 0 -106.5 42.5t-42.5 108.5zM946 1386q0 67 42 109.5t110 42.5
q63 0 106 -44.5t43 -107.5q0 -66 -42.5 -108.5t-106.5 -42.5q-68 0 -110 42t-42 109z" />
    <glyph glyph-name="uni1E9E" unicode="&#x1e9e;" horiz-adv-x="1429" 
d="M141 0v991q0 90 32.5 169.5t92.5 141t154.5 97t210.5 35.5h598v-297l-258 -277v-20l28 -2q150 -11 256.5 -123t106.5 -289q0 -110 -54.5 -207.5t-155 -158t-222.5 -60.5h-361v281h305q64 0 108 42.5t44 104.5q0 63 -44 106.5t-108 43.5h-262v296l236 263v20h-176
q-98 0 -152.5 -56t-54.5 -143v-958h-324z" />
    <glyph glyph-name="Ygrave" unicode="&#x1ef2;" horiz-adv-x="1368" 
d="M27 1434h354l293 -551h18l291 551h358l-491 -877v-557h-326v555zM416 1909h305l98 -312h-213z" />
    <glyph glyph-name="ygrave" unicode="&#x1ef3;" horiz-adv-x="1212" 
d="M33 1081h332l237 -686h16l226 686h336l-459 -1237q-58 -156 -159 -235.5t-265 -79.5h-143v281h125q115 0 163 118l19 52zM336 1546h305l98 -311h-213z" />
    <glyph glyph-name="uni2000" unicode="&#x2000;" horiz-adv-x="968" 
 />
    <glyph glyph-name="uni2001" unicode="&#x2001;" horiz-adv-x="1937" 
 />
    <glyph glyph-name="uni2002" unicode="&#x2002;" horiz-adv-x="968" 
 />
    <glyph glyph-name="uni2003" unicode="&#x2003;" horiz-adv-x="1937" 
 />
    <glyph glyph-name="uni2004" unicode="&#x2004;" horiz-adv-x="645" 
 />
    <glyph glyph-name="uni2005" unicode="&#x2005;" horiz-adv-x="484" 
 />
    <glyph glyph-name="uni2006" unicode="&#x2006;" horiz-adv-x="322" 
 />
    <glyph glyph-name="uni2007" unicode="&#x2007;" horiz-adv-x="322" 
 />
    <glyph glyph-name="uni2008" unicode="&#x2008;" horiz-adv-x="242" 
 />
    <glyph glyph-name="uni2009" unicode="&#x2009;" horiz-adv-x="387" 
 />
    <glyph glyph-name="uni200A" unicode="&#x200a;" horiz-adv-x="107" 
 />
    <glyph glyph-name="uni2010" unicode="&#x2010;" horiz-adv-x="786" 
d="M100 492v268h586v-268h-586z" />
    <glyph glyph-name="uni2011" unicode="&#x2011;" horiz-adv-x="786" 
d="M100 492v268h586v-268h-586z" />
    <glyph glyph-name="figuredash" unicode="&#x2012;" horiz-adv-x="786" 
d="M100 492v268h586v-268h-586z" />
    <glyph glyph-name="endash" unicode="&#x2013;" horiz-adv-x="1329" 
d="M100 494v266h1129v-266h-1129z" />
    <glyph glyph-name="emdash" unicode="&#x2014;" horiz-adv-x="1845" 
d="M100 494v264h1645v-264h-1645z" />
    <glyph glyph-name="quoteleft" unicode="&#x2018;" horiz-adv-x="563" 
d="M109 897l120 537h228l-39 -537h-309z" />
    <glyph glyph-name="quoteright" unicode="&#x2019;" horiz-adv-x="563" 
d="M109 897l36 537h310l-119 -537h-227z" />
    <glyph glyph-name="quotesinglbase" unicode="&#x201a;" horiz-adv-x="559" 
d="M94 -268l37 536h309l-118 -536h-228z" />
    <glyph glyph-name="quotedblleft" unicode="&#x201c;" horiz-adv-x="995" 
d="M109 897l120 537h213l-24 -537h-309zM541 897l121 537h227l-39 -537h-309z" />
    <glyph glyph-name="quotedblright" unicode="&#x201d;" horiz-adv-x="995" 
d="M109 897l36 537h310l-119 -537h-227zM553 897l25 537h309l-121 -537h-213z" />
    <glyph glyph-name="quotedblbase" unicode="&#x201e;" horiz-adv-x="1007" 
d="M109 -268l36 536h310l-119 -536h-227zM553 -268l25 536h309l-121 -536h-213z" />
    <glyph glyph-name="dagger" unicode="&#x2020;" horiz-adv-x="954" 
d="M80 819v256h252v359h284v-359h258v-256h-258v-819h-284v819h-252z" />
    <glyph glyph-name="daggerdbl" unicode="&#x2021;" horiz-adv-x="954" 
d="M80 307v256h252v307h-252v256h252v308h284v-308h258v-256h-258v-307h258v-256h-258v-307h-284v307h-252z" />
    <glyph glyph-name="bullet" unicode="&#x2022;" horiz-adv-x="950" 
d="M123 635q0 148 100.5 250t251.5 102t251.5 -102t100.5 -250t-100.5 -250t-251.5 -102t-251.5 102t-100.5 250z" />
    <glyph glyph-name="uni202F" unicode="&#x202f;" horiz-adv-x="387" 
 />
    <glyph glyph-name="perthousand" unicode="&#x2030;" horiz-adv-x="2402" 
d="M129 932v258q0 120 81.5 195t207.5 75t207.5 -75t81.5 -195v-258q0 -120 -81.5 -195t-207.5 -75t-207.5 75t-81.5 195zM332 936q0 -38 23 -64t63 -26t64 26t24 64v250q0 38 -24 63t-64 25t-63 -25t-23 -63v-250zM342 180l852 1215l176 -127l-852 -1215zM1006 244v258
q0 120 81 195t207 75t207.5 -75t81.5 -195v-258q0 -120 -81.5 -195.5t-207.5 -75.5t-207 75.5t-81 195.5zM1208 248q0 -38 23 -64t63 -26q39 0 62.5 26t23.5 64v250q0 38 -23.5 63t-62.5 25q-40 0 -63 -25t-23 -63v-250zM1696 244v258q0 120 81.5 195t207.5 75t207 -75
t81 -195v-258q0 -120 -81 -195.5t-207 -75.5t-207.5 75.5t-81.5 195.5zM1898 248q0 -38 23.5 -64t63.5 -26q39 0 62.5 26t23.5 64v250q0 38 -23.5 63t-62.5 25q-40 0 -63.5 -25t-23.5 -63v-250z" />
    <glyph glyph-name="guilsinglleft" unicode="&#x2039;" horiz-adv-x="671" 
d="M119 528v140l434 350v-275l-176 -139v-12l176 -139v-275z" />
    <glyph glyph-name="guilsinglright" unicode="&#x203a;" horiz-adv-x="671" 
d="M119 178v275l176 139v12l-176 139v275l434 -350v-140z" />
    <glyph glyph-name="fraction" unicode="&#x2044;" horiz-adv-x="1054" 
d="M-8 -84l805 1602h266l-805 -1602h-266z" />
    <glyph glyph-name="uni205F" unicode="&#x205f;" horiz-adv-x="484" 
 />
    <glyph glyph-name="Euro" unicode="&#x20ac;" horiz-adv-x="1277" 
d="M41 496v174h92v88h-92v174h92v51q0 111 42.5 203t113.5 150.5t160.5 91t185.5 32.5q224 0 363 -136t139 -361h-322q0 89 -49 140.5t-131 51.5q-80 0 -130 -51.5t-50 -140.5v-31h252v-174h-252v-88h252v-174h-252v-25q0 -89 50 -140.5t130 -51.5q79 0 129.5 52t50.5 138
h322q0 -223 -142 -359.5t-360 -136.5q-96 0 -185.5 32.5t-160.5 91.5t-113.5 151t-42.5 203v45h-92z" />
    <glyph glyph-name="uni2116" unicode="&#x2116;" horiz-adv-x="2396" 
d="M141 0v1434h357l551 -889h12v889h313v-1434h-356l-551 893h-12v-893h-314zM1526 1092q0 155 106 261.5t271 106.5q163 0 269.5 -106.5t106.5 -261.5q0 -153 -106 -258t-270 -105q-165 0 -271 105t-106 258zM1554 373v260h695v-260h-695zM1765 1092q0 -55 38.5 -94.5
t99.5 -39.5t99 39.5t38 94.5q0 57 -38 97t-99 40t-99.5 -40t-38.5 -97z" />
    <glyph glyph-name="trademark" unicode="&#x2122;" horiz-adv-x="1773" 
d="M102 1241v193h588v-193h-182v-545h-223v545h-183zM803 696v738h239l189 -404h12l191 404h239v-738h-217v344h-10l-160 -344h-98l-160 344h-10v-344h-215z" />
    <glyph glyph-name="arrowleft" unicode="&#x2190;" horiz-adv-x="1667" 
d="M51 612v213l621 621l198 -197l-346 -346v-12h1041v-340h-1041v-12l346 -346l-198 -199z" />
    <glyph glyph-name="arrowup" unicode="&#x2191;" horiz-adv-x="1595" 
d="M72 893l622 620h213l619 -620l-201 -199l-344 346h-12v-1040h-342v1040h-13l-344 -346z" />
    <glyph glyph-name="arrowright" unicode="&#x2192;" horiz-adv-x="1667" 
d="M102 551v340h1041v12l-346 346l198 197l621 -621v-213l-621 -618l-198 199l346 346v12h-1041z" />
    <glyph glyph-name="arrowdown" unicode="&#x2193;" horiz-adv-x="1595" 
d="M72 541l198 198l344 -346h13v1041h342v-1041h12l344 346l201 -198l-619 -621h-213z" />
    <glyph glyph-name="uni2196" unicode="&#x2196;" horiz-adv-x="1374" 
d="M35 1321l151 149h879l2 -280l-489 2l-11 -8l736 -735l-240 -242l-735 735l-9 -8v-490h-280z" />
    <glyph glyph-name="uni2197" unicode="&#x2197;" horiz-adv-x="1374" 
d="M72 449l735 735l-10 8l-490 -2l2 280h879l151 -149l-4 -877h-280v490l-8 8l-736 -735z" />
    <glyph glyph-name="uni2198" unicode="&#x2198;" horiz-adv-x="1372" 
d="M47 950l240 242l735 -735l8 8v489h281v-880l-152 -150l-874 2v283l487 -2l10 8z" />
    <glyph glyph-name="uni2199" unicode="&#x2199;" horiz-adv-x="1372" 
d="M61 74v880h281v-489l8 -8l735 735l242 -242l-735 -735l8 -8l490 2v-283l-877 -2z" />
    <glyph glyph-name="minus" unicode="&#x2212;" horiz-adv-x="1026" 
d="M10 514v246h1006v-246h-1006z" />
    <glyph glyph-name="uni25FC" unicode="&#x25fc;" horiz-adv-x="1085" 
d="M0 0v1085h1085v-1085h-1085z" />
    <glyph glyph-name="i.loclTRK" horiz-adv-x="550" 
d="M113 1374q0 75 49.5 123.5t130.5 48.5t130.5 -48.5t49.5 -123.5q0 -76 -49.5 -124t-130.5 -48t-130.5 48t-49.5 124zM135 0v1081h318v-1081h-318z" />
    <glyph glyph-name="zero.tf" horiz-adv-x="1243" 
d="M121 451v532q0 111 42.5 203t113 150.5t159.5 91t185 32.5q97 0 187 -32.5t160.5 -91t113 -150.5t42.5 -203v-532q0 -111 -42.5 -203t-113 -151t-160.5 -91.5t-187 -32.5q-96 0 -185 32.5t-159.5 91.5t-113 151t-42.5 203zM440 471q0 -88 51 -140t130 -52q81 0 131.5 52
t50.5 140v492q0 88 -50.5 140t-131.5 52q-78 0 -129.5 -52.5t-51.5 -139.5v-492z" />
    <glyph glyph-name="one.tf" horiz-adv-x="1243" 
d="M326 975v239q200 0 279 53t79 167h297v-1434h-322v975h-333z" />
    <glyph glyph-name="two.tf" horiz-adv-x="1243" 
d="M131 993q0 91 31.5 174.5t90 149t151 104.5t206.5 39q226 0 362 -124.5t136 -311.5q0 -142 -67 -240.5t-201 -179.5l-287 -168q-53 -33 -75.5 -65.5t-22.5 -73.5v-16h651v-281h-973v252q0 141 64.5 240t208.5 188l266 164q57 36 84.5 74.5t27.5 93.5q0 65 -47 108
t-129 43q-80 0 -129 -50.5t-49 -119.5h-299z" />
    <glyph glyph-name="three.tf" horiz-adv-x="1243" 
d="M129 442h297q3 -70 51.5 -115.5t128.5 -45.5q86 0 137.5 49.5t51.5 124.5q0 71 -52 122.5t-141 51.5h-203v243l289 261v14h-534v289h925v-281l-297 -268v-13q147 -28 240.5 -143.5t93.5 -275.5q0 -96 -35 -182.5t-98 -153t-160 -105.5t-213 -39q-115 0 -208.5 39.5
t-151.5 105.5t-89.5 149t-31.5 173z" />
    <glyph glyph-name="four.tf" horiz-adv-x="1243" 
d="M76 252v270l356 912h332l-338 -883v-12h274v295h322v-295h145v-287h-145v-252h-322v252h-624z" />
    <glyph glyph-name="five.tf" horiz-adv-x="1243" 
d="M125 436h297q6 -69 56 -113t130 -44q84 0 136.5 52t52.5 128q0 77 -52.5 129.5t-142.5 52.5q-98 0 -153 -74h-306l58 869h831v-289h-555l-18 -291h8q92 64 205 64q128 0 231.5 -64.5t159 -169.5t55.5 -227q0 -100 -36.5 -188.5t-101 -154t-160 -103.5t-208.5 -38
q-111 0 -203 36.5t-153 99t-95 146.5t-36 179z" />
    <glyph glyph-name="six.tf" horiz-adv-x="1243" 
d="M106 467q0 140 74 278l383 689h373l-309 -506l8 -8q23 10 63 10q57 0 116 -16.5t117.5 -53t103.5 -89t73.5 -131.5t28.5 -173q0 -142 -73 -256.5t-190.5 -176t-252.5 -61.5q-101 0 -194.5 36t-164.5 99t-113.5 157t-42.5 202zM430 467q0 -80 54 -134t137 -54
q82 0 136 54.5t54 133.5q0 81 -54 136.5t-136 55.5t-136.5 -56t-54.5 -136z" />
    <glyph glyph-name="seven.tf" horiz-adv-x="1243" 
d="M145 1147v289h955v-277l-490 -1159h-354l492 1133v14h-603z" />
    <glyph glyph-name="eight.tf" horiz-adv-x="1243" 
d="M100 408q0 234 207 350v16q-69 47 -113 123t-44 176q0 173 133.5 280t339.5 107q209 0 341 -107t132 -280q0 -100 -45 -175.5t-115 -123.5v-16q209 -117 209 -350q0 -195 -144 -314t-378 -119t-378.5 119t-144.5 314zM422 432q0 -73 55 -122.5t146 -49.5q90 0 144 49.5
t54 122.5q0 81 -55.5 129.5t-142.5 48.5q-89 0 -145 -48.5t-56 -129.5zM459 1030q0 -63 47 -107t117 -44q69 0 115 44t46 107q0 64 -45 108t-116 44q-72 0 -118 -44t-46 -108z" />
    <glyph glyph-name="nine.tf" horiz-adv-x="1243" 
d="M106 967q0 142 73.5 256.5t192 175.5t253.5 61q101 0 194 -36t163.5 -99t112.5 -156.5t42 -201.5q0 -147 -74 -279l-381 -688h-375l311 506l-8 8q-27 -10 -65 -10q-57 0 -116 16.5t-117.5 53t-103.5 89t-73.5 131.5t-28.5 173zM432 967q0 -81 54.5 -137t138.5 -56
q81 0 134.5 56t53.5 137q0 80 -53.5 134t-134.5 54q-84 0 -138.5 -54.5t-54.5 -133.5z" />
    <glyph glyph-name="caron.Slovak" horiz-adv-x="473" 
d="M102 1018v416h269l-49 -416h-220z" />
    <glyph glyph-name="NULL" horiz-adv-x="0" 
 />
    </font>
</defs>
</svg>
