<?xml version="1.0" standalone="no"?>
<!DOCTYPE svg PUBLIC "-//W3C//DTD SVG 1.1//EN" "http://www.w3.org/Graphics/SVG/1.1/DTD/svg11.dtd" >
<svg xmlns="http://www.w3.org/2000/svg" xmlns:xlink="http://www.w3.org/1999/xlink" version="1.1">
<metadata>
Created by FontForge 20170924 at Mon Sep 10 09:56:24 2018
 By www-data
Copyright (c) 2018 by atipo. All rights reserved.
</metadata>
<defs>
<font id="Silka-Medium" horiz-adv-x="1265" >
  <font-face 
    font-family="Silka Medium"
    font-weight="500"
    font-stretch="normal"
    units-per-em="2048"
    panose-1="0 0 6 0 0 0 0 0 0 0"
    ascent="1638"
    descent="-410"
    x-height="1071"
    cap-height="1434"
    bbox="-319 -498 2253 1933"
    underline-thickness="102"
    underline-position="-612"
    unicode-range="U+000D-25FC"
  />
<missing-glyph horiz-adv-x="1163" 
d="M70 0v1434h1024v-1434h-1024zM172 195l348 522l-348 522v-1044zM233 102h697l-348 523zM233 1331l349 -522l348 522h-697zM643 717l348 -522v1044z" />
    <glyph glyph-name="ellipsis" unicode="&#x2e;&#x2e;&#x2e;" horiz-adv-x="1546" 
d="M143 106q0 56 41 96t97 40q58 0 96.5 -39.5t38.5 -96.5t-38.5 -95t-96.5 -38q-56 0 -97 38.5t-41 94.5zM639 106q0 57 38.5 96.5t94.5 39.5q58 0 97.5 -39.5t39.5 -96.5t-39 -95t-98 -38q-56 0 -94.5 38t-38.5 95zM1130 106q0 57 40 96.5t96 39.5q58 0 96.5 -39.5
t38.5 -96.5t-38.5 -95t-96.5 -38q-56 0 -96 38.5t-40 94.5z" />
    <glyph glyph-name="degree.alt" unicode="&#xb0;C" horiz-adv-x="2021" 
d="M119 1161q0 126 84.5 212.5t216.5 86.5q133 0 218 -86t85 -211q0 -127 -84.5 -213t-218.5 -86t-217.5 85.5t-83.5 211.5zM268 1161q0 -66 42 -109.5t110 -43.5t109.5 44t41.5 111t-41.5 111.5t-109.5 44.5t-110 -45.5t-42 -112.5zM887 436v561q0 141 69.5 248.5t176 161
t229.5 53.5q209 0 343 -131.5t134 -343.5h-217q0 118 -70.5 192t-189.5 74q-112 0 -185 -73.5t-73 -192.5v-536q0 -119 72.5 -193t185.5 -74q114 0 187 75t73 192h217q0 -211 -136.5 -343.5t-340.5 -132.5q-123 0 -229.5 53.5t-176 161t-69.5 248.5z" />
    <glyph glyph-name=".notdef" horiz-adv-x="1163" 
d="M70 0v1434h1024v-1434h-1024zM172 195l348 522l-348 522v-1044zM233 102h697l-348 523zM233 1331l349 -522l348 522h-697zM643 717l348 -522v1044z" />
    <glyph glyph-name=".null" horiz-adv-x="0" 
 />
    <glyph glyph-name="nonmarkingreturn" horiz-adv-x="682" 
 />
    <glyph glyph-name="CR" unicode="&#xd;" horiz-adv-x="0" 
 />
    <glyph glyph-name="space" unicode=" " horiz-adv-x="557" 
 />
    <glyph glyph-name="exclam" unicode="!" horiz-adv-x="632" 
d="M180 106q0 57 40 96.5t97 39.5t96.5 -39.5t39.5 -96.5t-39.5 -95t-96.5 -38t-97 38t-40 95zM205 879v555h223v-555l-47 -496h-129z" />
    <glyph glyph-name="quotedbl" unicode="&#x22;" horiz-adv-x="813" 
d="M152 1434h192l-16 -433h-160zM469 1434h193l-17 -433h-160z" />
    <glyph glyph-name="numbersign" unicode="#" horiz-adv-x="1189" 
d="M113 414v168h180l41 268h-160v168h184l64 416h180l-63 -416h202l64 416h180l-63 -416h153v-168h-178l-41 -268h158v-168h-183l-63 -414h-180l63 414h-202l-64 -414h-180l63 414h-155zM473 582h203l41 268h-203z" />
    <glyph glyph-name="dollar" unicode="$" horiz-adv-x="1218" 
d="M80 440h215q2 -95 64 -165t171 -91v463q-49 12 -85.5 22.5t-81.5 28.5t-76.5 38.5t-64 52t-52.5 69t-32.5 89.5t-12.5 114q0 154 108.5 264.5t296.5 130.5v113h148v-113q84 -10 157 -40t131.5 -81t93.5 -129.5t36 -175.5h-224q0 90 -50 149t-144 76v-421q57 -14 93 -23.5
t88.5 -29t86 -40t71.5 -53.5t60 -72.5t36.5 -95t14.5 -121.5q0 -171 -119.5 -288.5t-330.5 -135.5v-149h-148v151q-201 22 -325.5 148.5t-124.5 314.5zM344 1065q0 -77 47 -120.5t139 -72.5v383q-91 -17 -138.5 -68.5t-47.5 -121.5zM678 180q103 12 163 65.5t60 137.5
q0 95 -58 145t-165 80v-428z" />
    <glyph glyph-name="percent" unicode="%" horiz-adv-x="1673" 
d="M139 932v258q0 120 80 195t199 75t198.5 -75t79.5 -195v-258q0 -121 -79.5 -195.5t-198.5 -74.5t-199 74.5t-80 195.5zM299 934q0 -50 34.5 -85.5t84.5 -35.5q51 0 86 35.5t35 85.5v254q0 48 -35.5 83.5t-85.5 35.5t-84.5 -35.5t-34.5 -83.5v-254zM332 154l868 1230
l139 -100l-866 -1231zM975 244v258q0 120 80 195t200 75q119 0 199 -75t80 -195v-258q0 -121 -80 -196t-199 -75q-121 0 -200.5 75t-79.5 196zM1137 246q0 -51 33 -86t85 -35q50 0 84.5 35.5t34.5 85.5v254q0 48 -34.5 83t-84.5 35q-51 0 -84.5 -35t-33.5 -83v-254z" />
    <glyph glyph-name="ampersand" unicode="&#x26;" horiz-adv-x="1402" 
d="M100 389q0 120 64.5 215t202.5 172q-68 75 -108 152.5t-40 173.5q0 71 27.5 135.5t77 114t123.5 79t161 29.5q173 0 277 -101t106 -249q1 -127 -68.5 -212.5t-195.5 -149.5l-49 -25l301 -326q111 187 65 412h197q32 -148 -0.5 -296t-120.5 -267l230 -246h-281l-92 102
q-171 -129 -395 -129q-132 0 -241 49t-175 145t-66 222zM311 389q0 -94 78.5 -159.5t192.5 -65.5q145 0 262 84l-346 383l-13 -6q-174 -87 -174 -236zM426 1100q0 -62 29 -115t90 -121l86 43q89 43 121 86.5t32 112.5q0 70 -47.5 119t-128.5 49q-78 0 -130 -50t-52 -124z
" />
    <glyph glyph-name="quotesingle" unicode="'" horiz-adv-x="495" 
d="M152 1434h192l-16 -433h-160z" />
    <glyph glyph-name="parenleft" unicode="(" horiz-adv-x="964" 
d="M88 635q0 162 45 309.5t125.5 264t183 207.5t224.5 157l125 -137q-105 -58 -191 -135t-154.5 -176t-106.5 -224.5t-38 -265.5t38 -265.5t106.5 -224.5t154.5 -176t191 -135l-125 -137q-122 66 -224.5 157t-183 207.5t-125.5 264t-45 309.5z" />
    <glyph glyph-name="parenright" unicode=")" horiz-adv-x="964" 
d="M174 -166q105 58 191 135t154.5 176t106.5 224.5t38 265.5t-38 265.5t-106.5 224.5t-154.5 176t-191 135l125 137q122 -66 224.5 -157t183 -207.5t125.5 -264t45 -309.5t-45 -309.5t-125.5 -264t-183 -207.5t-224.5 -157z" />
    <glyph glyph-name="asterisk" unicode="*" horiz-adv-x="989" 
d="M141 1022v119l244 -23l6 15l-188 155l84 84l155 -190l15 8l-23 244h119l-21 -244l15 -8l155 190l84 -84l-190 -155l6 -15l246 23v-119l-246 20l-6 -14l190 -156l-84 -84l-157 189l-15 -6l23 -244h-119l23 244l-13 6l-157 -189l-84 84l190 156l-6 14z" />
    <glyph glyph-name="plus" unicode="+" horiz-adv-x="997" 
d="M10 551v174h398v418h184v-418h395v-174h-395v-420h-184v420h-398z" />
    <glyph glyph-name="comma" unicode="," horiz-adv-x="548" 
d="M152 -268l34 485h224l-103 -485h-155z" />
    <glyph glyph-name="hyphen" unicode="-" horiz-adv-x="800" 
d="M129 524v191h543v-191h-543z" />
    <glyph glyph-name="period" unicode="." horiz-adv-x="559" 
d="M143 106q0 56 41 96t97 40q58 0 96.5 -39.5t38.5 -96.5t-38.5 -95t-96.5 -38q-56 0 -97 38.5t-41 94.5z" />
    <glyph glyph-name="slash" unicode="/" horiz-adv-x="1021" 
d="M98 -221l623 1757h203l-623 -1757h-203z" />
    <glyph glyph-name="zero" unicode="0" 
d="M158 436v561q0 141 69.5 248.5t176 161t229.5 53.5q124 0 231 -53.5t176.5 -161t69.5 -248.5v-561q0 -141 -69.5 -248.5t-176.5 -161t-231 -53.5q-123 0 -229.5 53.5t-176 161t-69.5 248.5zM375 449q0 -117 72.5 -192t185.5 -75q114 0 187 75t73 192v536
q0 115 -73.5 190.5t-186.5 75.5q-111 0 -184.5 -75.5t-73.5 -190.5v-536z" />
    <glyph glyph-name="one" unicode="1" horiz-adv-x="933" 
d="M164 1055v170q197 0 277.5 49t80.5 160h205v-1434h-219v1055h-344z" />
    <glyph glyph-name="two" unicode="2" horiz-adv-x="1200" 
d="M150 1024q0 64 18 126.5t55.5 118.5t90 98.5t126.5 67.5t160 25q104 0 192 -34.5t146.5 -93t91.5 -134.5t33 -160q0 -130 -63 -229t-191 -178l-264 -162q-97 -63 -135.5 -119t-38.5 -127v-26h698v-197h-917v203q0 138 68.5 237.5t213.5 190.5l262 164q144 92 144 237
q0 98 -64.5 160.5t-179.5 62.5q-106 0 -174 -67t-68 -164h-204z" />
    <glyph glyph-name="three" unicode="3" horiz-adv-x="1243" 
d="M154 412h204q3 -98 73 -164t179 -66q120 0 193.5 71t73.5 189q0 111 -76.5 183.5t-194.5 72.5h-178v176l348 349v12h-592v199h867v-197l-357 -348v-12q173 -14 289.5 -135.5t116.5 -297.5q0 -126 -56.5 -231.5t-169.5 -171.5t-262 -66q-109 0 -198.5 39.5t-145 103.5
t-85 140t-29.5 154z" />
    <glyph glyph-name="four" unicode="4" horiz-adv-x="1267" 
d="M125 324v180l424 930h227l-403 -902v-12h377v314h219v-314h174v-196h-174v-324h-219v324h-625z" />
    <glyph glyph-name="five" unicode="5" horiz-adv-x="1232" 
d="M147 393h205q13 -99 84.5 -157t177.5 -58q115 0 192 79t77 198q0 118 -77.5 193t-203.5 75q-87 0 -143.5 -38t-81.5 -81h-205l51 830h793v-199h-602l-27 -401h12q105 84 246 84q131 0 237 -64t164 -169.5t58 -229.5q0 -204 -138.5 -343t-347.5 -139q-198 0 -329 118
t-142 302z" />
    <glyph glyph-name="six" unicode="6" horiz-adv-x="1275" 
d="M147 455q0 140 74 268l395 711h252l-315 -525l8 -8q51 19 109 19q90 0 173 -33t147 -91.5t102 -147t38 -193.5q0 -135 -66.5 -246t-179.5 -173.5t-247 -62.5q-205 0 -347.5 137t-142.5 345zM369 455q0 -119 74 -197t194 -78t195 79t75 196q0 115 -75.5 194.5t-194.5 79.5
t-193.5 -79.5t-74.5 -194.5z" />
    <glyph glyph-name="seven" unicode="7" horiz-adv-x="1140" 
d="M121 1235v199h905v-187l-500 -1247h-237l504 1223v12h-672z" />
    <glyph glyph-name="eight" unicode="8" horiz-adv-x="1275" 
d="M143 403q0 73 22.5 135.5t60 105t74 70.5t75.5 46v12q-69 40 -120.5 118t-51.5 185q0 171 125 278t311 107t311 -107t125 -278q0 -107 -51.5 -185t-122.5 -118v-12q40 -18 77 -46t73.5 -70.5t59 -105t22.5 -135.5q0 -194 -137 -312t-357 -118q-221 0 -358.5 118
t-137.5 312zM367 412q0 -103 73 -172.5t199 -69.5q125 0 197.5 70t72.5 172q0 114 -76.5 179.5t-193.5 65.5q-118 0 -195 -65.5t-77 -179.5zM418 1057q0 -87 62.5 -148t158.5 -61q95 0 157 61t62 148q0 89 -60 148t-159 59q-100 0 -160.5 -59t-60.5 -148z" />
    <glyph glyph-name="nine" unicode="9" horiz-adv-x="1275" 
d="M147 979q0 135 67 246t180 173t247 62q205 0 347 -136.5t142 -344.5q0 -136 -73 -268l-398 -711h-251l317 524l-8 8q-49 -18 -109 -18q-122 0 -226.5 55.5t-169.5 163t-65 246.5zM371 979q0 -115 75 -194.5t195 -79.5q118 0 193 79.5t75 194.5q0 118 -74.5 196t-193.5 78
q-121 0 -195.5 -78t-74.5 -196z" />
    <glyph glyph-name="colon" unicode=":" horiz-adv-x="559" 
d="M143 106q0 56 41 96t97 40q58 0 96.5 -39.5t38.5 -96.5t-38.5 -95t-96.5 -38q-56 0 -97 38.5t-41 94.5zM143 868q0 56 41 94.5t97 38.5q58 0 96.5 -38t38.5 -95t-38.5 -96t-96.5 -39q-56 0 -97 39.5t-41 95.5z" />
    <glyph glyph-name="semicolon" unicode=";" horiz-adv-x="561" 
d="M143 868q0 56 41 94.5t97 38.5q58 0 96.5 -38t38.5 -95t-38.5 -96t-96.5 -39q-56 0 -97 39.5t-41 95.5zM152 -268l34 485h224l-103 -485h-155z" />
    <glyph glyph-name="less" unicode="&#x3c;" horiz-adv-x="1122" 
d="M139 537v204l844 353v-191l-647 -256v-12l647 -262v-189z" />
    <glyph glyph-name="equal" unicode="=" horiz-adv-x="997" 
d="M10 360v175h977v-175h-977zM10 721v174h977v-174h-977z" />
    <glyph glyph-name="greater" unicode="&#x3e;" horiz-adv-x="1122" 
d="M139 184v189l647 262v12l-647 256v191l844 -353v-204z" />
    <glyph glyph-name="question" unicode="?" horiz-adv-x="1122" 
d="M131 1044q0 81 27.5 154.5t79 132.5t134.5 94t185 35q198 0 316 -110.5t118 -280.5q0 -61 -16.5 -114.5t-47 -95t-60.5 -70.5t-70 -60l-109 -88q-74 -59 -74 -145v-99h-202v109q0 83 33.5 144.5t103.5 121.5l117 96q55 45 80.5 89.5t25.5 107.5q0 90 -57.5 146.5
t-159.5 56.5q-103 0 -164 -64.5t-61 -159.5h-199zM379 106q0 57 40 96.5t97 39.5q58 0 96.5 -39.5t38.5 -96.5t-38.5 -95t-96.5 -38q-57 0 -97 38t-40 95z" />
    <glyph glyph-name="at" unicode="@" horiz-adv-x="1859" 
d="M94 539q0 177 63 333.5t173 269t267 177.5t337 65t336.5 -61.5t263.5 -165.5t168 -244.5t61 -296.5q0 -241 -90.5 -365t-249.5 -124q-92 0 -151 42t-84 112h-12q-32 -62 -102.5 -108t-176.5 -46q-163 0 -272 110.5t-109 290.5q0 178 106 293t265 113q89 0 149 -34.5
t90 -78.5h13v99h170v-506q0 -63 31.5 -99t93.5 -36q170 0 170 335q0 174 -85 314.5t-239 221.5t-348 81q-145 0 -269.5 -53t-211.5 -145t-136 -219.5t-49 -272.5q0 -201 85.5 -356t244 -240.5t365.5 -85.5h352v-156h-352q-246 0 -444 107t-310.5 298.5t-112.5 430.5z
M694 530q0 -111 64 -178t162 -67q97 0 161 65t64 182q0 108 -62.5 175.5t-164.5 66.5q-96 0 -160 -67t-64 -177z" />
    <glyph glyph-name="A" unicode="A" horiz-adv-x="1402" 
d="M37 0l530 1434h269l532 -1434h-233l-113 311h-645l-113 -311h-227zM446 510h506l-245 676h-15z" />
    <glyph glyph-name="B" unicode="B" horiz-adv-x="1255" 
d="M182 0v1434h498q202 0 319 -104t117 -267q0 -102 -45.5 -180t-128.5 -123v-12q39 -15 75 -41t71 -66t56 -99.5t21 -129.5q0 -126 -61.5 -221t-161.5 -143t-221 -48h-539zM397 188h277q118 0 190 60t72 178q0 78 -40 132t-100.5 76.5t-136.5 22.5h-262v-469zM397 829h265
q106 0 170.5 59t64.5 154q0 91 -64.5 147t-166.5 56h-269v-416z" />
    <glyph glyph-name="C" unicode="C" horiz-adv-x="1626" 
d="M94 717q0 156 56 293.5t154 236.5t236.5 156t297.5 57q257 0 440.5 -140t247.5 -370h-238q-47 141 -169 221t-281 80q-144 0 -262 -69.5t-185 -192t-67 -272.5q0 -231 147 -383t367 -152q159 0 280 79t170 220h242q-61 -230 -247.5 -369t-444.5 -139q-159 0 -298 56.5
t-236.5 155t-153.5 236.5t-56 296z" />
    <glyph glyph-name="D" unicode="D" horiz-adv-x="1458" 
d="M182 0v1434h455q224 0 389.5 -92t250.5 -252.5t85 -370.5q0 -335 -192 -527t-533 -192h-455zM403 193h230q228 0 366 136t138 390q0 246 -137.5 383t-366.5 137h-230v-1046z" />
    <glyph glyph-name="E" unicode="E" horiz-adv-x="1148" 
d="M182 0v1434h850v-195h-629v-416h539v-192h-539v-438h650v-193h-871z" />
    <glyph glyph-name="F" unicode="F" horiz-adv-x="1126" 
d="M182 0v1434h850v-195h-629v-436h580v-193h-580v-610h-221z" />
    <glyph glyph-name="G" unicode="G" horiz-adv-x="1662" 
d="M94 717q0 209 95 378.5t266.5 267t384.5 97.5q253 0 436.5 -135t249.5 -350h-244q-53 127 -167.5 201.5t-274.5 74.5q-229 0 -372.5 -151.5t-143.5 -382.5q0 -234 144 -385.5t374 -151.5q197 0 332 112t147 286h-516v186h762v-19q0 -177 -53 -321q-55 -151 -154 -249
t-232 -150t-288 -52q-159 0 -298 56.5t-237.5 155t-154.5 236.5t-56 296z" />
    <glyph glyph-name="H" unicode="H" horiz-adv-x="1503" 
d="M182 0v1434h221v-605h697v605h219v-1434h-219v625h-697v-625h-221z" />
    <glyph glyph-name="I" unicode="I" horiz-adv-x="585" 
d="M182 0v1434h221v-1434h-221z" />
    <glyph glyph-name="J" unicode="J" horiz-adv-x="1198" 
d="M74 410h215q3 -106 74 -170t188 -64q67 0 119 24t82.5 64.5t45.5 89.5t15 103v780h-520v197h741v-979q0 -100 -31 -186t-90 -153t-153 -105t-213 -38q-201 0 -335.5 116.5t-137.5 320.5z" />
    <glyph glyph-name="K" unicode="K" horiz-adv-x="1298" 
d="M182 0v1434h221v-662h13l549 662h272l-506 -592l526 -842h-264l-409 668l-181 -211v-457h-221z" />
    <glyph glyph-name="L" unicode="L" horiz-adv-x="1093" 
d="M182 0v1434h221v-1237h598v-197h-819z" />
    <glyph glyph-name="M" unicode="M" horiz-adv-x="1843" 
d="M182 0v1434h258l498 -1155h12l455 1155h256v-1434h-213v981h-12l-389 -981h-213l-426 991h-13v-991h-213z" />
    <glyph glyph-name="N" unicode="N" horiz-adv-x="1509" 
d="M182 0v1434h236l680 -1061h12v1061h215v-1434h-238l-675 1061h-13v-1061h-217z" />
    <glyph glyph-name="O" unicode="O" horiz-adv-x="1687" 
d="M94 717q0 125 36.5 239t104 205t159.5 158.5t207.5 104t242.5 36.5q212 0 383.5 -98t267.5 -268t96 -377q0 -156 -56.5 -294t-155.5 -236.5t-238.5 -156t-298.5 -57.5t-298 56.5t-237.5 155t-155.5 237t-57 295.5zM324 717q0 -231 147.5 -383t372.5 -152t372.5 152
t147.5 383q0 150 -66.5 272t-186 192t-267.5 70t-267.5 -70t-186 -192t-66.5 -272z" />
    <glyph glyph-name="P" unicode="P" horiz-adv-x="1243" 
d="M182 0v1434h529q202 0 330 -123.5t128 -323.5q0 -198 -130.5 -325t-327.5 -127h-308v-535h-221zM403 725h287q115 0 185.5 73.5t70.5 188.5q0 113 -70.5 184.5t-185.5 71.5h-287v-518z" />
    <glyph glyph-name="Q" unicode="Q" horiz-adv-x="1687" 
d="M94 717q0 125 36.5 239t104 205t159.5 158.5t207.5 104t242.5 36.5q212 0 383.5 -98t267.5 -268t96 -377q0 -148 -49 -277t-139 -227l172 -213h-244l-76 92q-183 -119 -413 -119q-159 0 -298 56.5t-237.5 155t-155.5 237t-57 295.5zM322 717q0 -232 147.5 -385.5
t374.5 -153.5q157 0 276 80l-303 373h246l199 -244q104 139 104 330q0 230 -148 383t-374 153t-374 -153t-148 -383z" />
    <glyph glyph-name="R" unicode="R" horiz-adv-x="1298" 
d="M182 0v1434h512q218 0 350 -122.5t132 -318.5q0 -148 -80.5 -259t-204.5 -156l326 -578h-250l-293 545h-271v-545h-221zM403 737h281q118 0 191 66t73 190q0 109 -71.5 179.5t-200.5 70.5h-273v-506z" />
    <glyph glyph-name="S" unicode="S" horiz-adv-x="1218" 
d="M80 440h215q2 -114 89 -189t232 -75q129 0 207 55.5t78 151.5q0 62 -26.5 106t-71.5 69.5t-103 43.5t-122.5 33t-129 32.5t-122.5 47t-103 72t-71.5 112.5t-26.5 162q0 169 129.5 284t349.5 115q94 0 179.5 -26t156 -76.5t113 -135t43.5 -192.5h-224q0 107 -70.5 169.5
t-199.5 62.5q-125 0 -191.5 -57t-66.5 -140q0 -55 27 -94.5t72 -62.5t104 -40t124 -32.5t130 -34t124 -49.5t104 -74.5t72 -114.5t27 -164q0 -186 -139.5 -306t-380.5 -120q-231 0 -379.5 130.5t-148.5 336.5z" />
    <glyph glyph-name="T" unicode="T" horiz-adv-x="1189" 
d="M59 1237v197h1071v-197h-425v-1237h-220v1237h-426z" />
    <glyph glyph-name="U" unicode="U" horiz-adv-x="1431" 
d="M164 524v910h221v-908q0 -163 85.5 -255.5t246.5 -92.5q160 0 246 93t86 257v906h219v-908q0 -250 -148.5 -401.5t-402.5 -151.5q-258 0 -405.5 150t-147.5 401z" />
    <glyph glyph-name="V" unicode="V" horiz-adv-x="1382" 
d="M37 1434h239l404 -1164h12l410 1164h246l-539 -1434h-244z" />
    <glyph glyph-name="W" unicode="W" horiz-adv-x="1947" 
d="M37 1434h237l265 -1129h14l285 1129h272l287 -1129h12l264 1129h240l-369 -1434h-272l-291 1128h-14l-291 -1128h-270z" />
    <glyph glyph-name="X" unicode="X" 
d="M20 0l469 729l-444 705h250l328 -529h12l330 529h252l-447 -705l467 -729h-256l-348 557h-12l-345 -557h-256z" />
    <glyph glyph-name="Y" unicode="Y" horiz-adv-x="1318" 
d="M37 1434h239l375 -658h15l370 658h248l-512 -881v-553h-221v553z" />
    <glyph glyph-name="Z" unicode="Z" horiz-adv-x="1271" 
d="M98 0v205l803 1022v14h-778v193h1046v-205l-804 -1022v-14h809v-193h-1076z" />
    <glyph glyph-name="bracketleft" unicode="[" horiz-adv-x="870" 
d="M174 -297v1860h465v-181h-254v-1499h254v-180h-465z" />
    <glyph glyph-name="backslash" unicode="\" horiz-adv-x="1021" 
d="M98 1536h203l623 -1757h-203z" />
    <glyph glyph-name="bracketright" unicode="]" horiz-adv-x="870" 
d="M213 -117h256v1499h-256v181h467v-1860h-467v180z" />
    <glyph glyph-name="asciicircum" unicode="^" horiz-adv-x="1202" 
d="M137 637l367 797h194l369 -797h-190l-271 600h-12l-266 -600h-191z" />
    <glyph glyph-name="underscore" unicode="_" horiz-adv-x="1359" 
d="M125 -59h1110v-177h-1110v177z" />
    <glyph glyph-name="grave" unicode="`" horiz-adv-x="538" 
d="M98 1530h228l114 -285h-157z" />
    <glyph glyph-name="a" unicode="a" horiz-adv-x="1323" 
d="M92 532q0 249 143 407.5t367 158.5q72 0 135 -20t105.5 -52t67.5 -58.5t42 -52.5h15v156h215v-1071h-211v152h-13q-127 -179 -346 -179q-231 0 -375.5 155t-144.5 404zM311 535q0 -166 91.5 -266.5t240.5 -100.5q150 0 240 105t90 262q0 169 -93.5 267.5t-238.5 98.5
q-146 0 -238 -102.5t-92 -263.5z" />
    <glyph glyph-name="b" unicode="b" horiz-adv-x="1347" 
d="M168 0v1536h215v-621h12q16 26 42.5 53t69 58.5t106 51.5t135.5 20q223 0 365 -158.5t142 -407.5t-144 -404t-376 -155q-217 0 -344 179h-14v-152h-209zM377 535q0 -157 89 -262t239 -105t240.5 100t90.5 267q0 162 -90.5 264t-236.5 102q-145 0 -238.5 -98.5
t-93.5 -267.5z" />
    <glyph glyph-name="c" unicode="c" horiz-adv-x="1259" 
d="M92 535q0 157 70 285.5t197.5 203t287.5 74.5q193 0 337.5 -110t180.5 -292h-221q-28 92 -108.5 148.5t-186.5 56.5q-150 0 -243 -104t-93 -262q0 -159 95 -263t245 -104q103 0 184 56t109 147h219q-35 -181 -179 -289.5t-337 -108.5q-122 0 -226.5 43.5t-176.5 119
t-113 179t-41 220.5z" />
    <glyph glyph-name="d" unicode="d" horiz-adv-x="1323" 
d="M92 532q0 249 143 407.5t367 158.5q72 0 135 -20t105.5 -52t67.5 -58.5t42 -52.5h15v621h215v-1536h-211v152h-13q-127 -179 -346 -179q-231 0 -375.5 155t-144.5 404zM311 535q0 -166 91.5 -266.5t240.5 -100.5q150 0 240 105t90 262q0 169 -93.5 267.5t-238.5 98.5
q-146 0 -238 -102.5t-92 -263.5z" />
    <glyph glyph-name="e" unicode="e" horiz-adv-x="1243" 
d="M92 532q0 167 70 296.5t191.5 199.5t273.5 70q122 0 222 -43t165.5 -118t101 -175t35.5 -215v-80h-844q6 -141 95 -227t235 -86q102 0 182.5 46t112.5 124h209q-42 -158 -178.5 -254.5t-331.5 -96.5q-239 0 -389 157.5t-150 401.5zM311 633h627q-10 132 -97 208.5
t-214 76.5q-124 0 -214 -80t-102 -205z" />
    <glyph glyph-name="f" unicode="f" horiz-adv-x="851" 
d="M59 895v176h195v107q0 165 105 261.5t276 96.5h121v-182h-109q-92 0 -137 -50.5t-45 -132.5v-100h299v-176h-297v-895h-215v895h-193z" />
    <glyph glyph-name="g" unicode="g" horiz-adv-x="1327" 
d="M92 537q0 249 143.5 405t364.5 156q73 0 136.5 -20t106 -51.5t68.5 -59t41 -52.5h15v156h215v-1067q0 -231 -141 -366.5t-394 -135.5q-207 0 -333 100.5t-146 254.5h199q19 -82 92.5 -128t187.5 -46q162 0 243 83.5t81 237.5v154h-15q-12 -18 -27 -36t-47 -46
t-67.5 -48.5t-90 -35.5t-114.5 -15q-227 0 -372.5 155.5t-145.5 404.5zM311 537q0 -166 91.5 -265.5t240.5 -99.5q150 0 240 104t90 261q0 169 -93.5 266.5t-238.5 97.5q-146 0 -238 -101.5t-92 -262.5z" />
    <glyph glyph-name="h" unicode="h" horiz-adv-x="1247" 
d="M168 0v1536h213v-608h14q37 72 120 121t196 49q179 0 287 -116.5t108 -293.5v-688h-215v647q0 110 -70.5 180t-173.5 70q-110 0 -187 -74.5t-77 -187.5v-635h-215z" />
    <glyph glyph-name="i" unicode="i" horiz-adv-x="524" 
d="M135 1376q0 59 40 97t101 38q63 0 103.5 -38t40.5 -97q0 -61 -40.5 -99t-103.5 -38q-62 0 -101.5 38t-39.5 99zM168 0v1071h215v-1071h-215z" />
    <glyph glyph-name="j" unicode="j" horiz-adv-x="653" 
d="M8 -279h76q86 0 135 50t49 133v1167h215v-1169q0 -172 -104.5 -272.5t-274.5 -100.5h-96v192zM233 1376q0 58 40 96.5t102 38.5q63 0 103 -38t40 -97q0 -61 -40 -99t-103 -38q-62 0 -102 38t-40 99z" />
    <glyph glyph-name="k" unicode="k" horiz-adv-x="1130" 
d="M168 0v1536h215v-922h12l406 457h268l-373 -405l400 -666h-244l-303 506l-166 -182v-324h-215z" />
    <glyph glyph-name="l" unicode="l" horiz-adv-x="618" 
d="M168 266v1270h215v-1257q0 -43 21 -66t61 -23h45v-190h-88q-121 0 -187.5 70t-66.5 196z" />
    <glyph glyph-name="m" unicode="m" horiz-adv-x="1896" 
d="M168 0v1071h209v-141h14q38 74 115 121t186 47q113 0 197 -48t131 -132h14q102 180 330 180q176 0 283.5 -110.5t107.5 -285.5v-702h-215v629q0 129 -59 198.5t-166 69.5q-105 0 -174.5 -73.5t-69.5 -198.5v-625h-215v653q0 111 -64 177.5t-167 66.5t-172.5 -74.5
t-69.5 -191.5v-631h-215z" />
    <glyph glyph-name="n" unicode="n" horiz-adv-x="1239" 
d="M168 0v1071h209v-143h14q35 72 118 121t196 49q179 0 286 -116t107 -294v-688h-215v647q0 111 -68.5 180.5t-171.5 69.5q-112 0 -186 -77.5t-74 -194.5v-625h-215z" />
    <glyph glyph-name="o" unicode="o" horiz-adv-x="1314" 
d="M92 535q0 159 72.5 288t202.5 202t292 73t291.5 -74t201 -202.5t71.5 -286.5t-72.5 -286.5t-202.5 -202t-291 -73.5q-246 0 -405.5 159.5t-159.5 402.5zM311 535q0 -160 97.5 -263.5t248.5 -103.5q152 0 249.5 104t97.5 263q0 160 -97.5 263t-249.5 103t-249 -103.5
t-97 -262.5z" />
    <glyph glyph-name="p" unicode="p" horiz-adv-x="1347" 
d="M168 -471v1542h209v-153h14q13 19 26.5 36t45.5 45.5t67.5 48.5t90 35t114.5 15q232 0 376 -155t144 -404t-142 -407.5t-365 -158.5q-73 0 -136.5 20t-106 51t-68.5 58.5t-42 53.5h-12v-627h-215zM377 537q0 -169 93.5 -269t238.5 -100t236 103.5t91 265.5
q0 167 -90.5 266.5t-240.5 99.5t-239 -104.5t-89 -261.5z" />
    <glyph glyph-name="q" unicode="q" horiz-adv-x="1327" 
d="M92 539q0 249 144.5 404t375.5 155q60 0 115 -15t90.5 -35.5t67.5 -48.5t46.5 -45.5t26.5 -35.5h13v153h211v-1542h-215v627h-15q-17 -26 -42 -52.5t-67.5 -58.5t-105.5 -52t-135 -20q-224 0 -367 158.5t-143 407.5zM311 537q0 -162 92 -265.5t238 -103.5
q145 0 238.5 100t93.5 269q0 157 -90 261.5t-240 104.5q-149 0 -240.5 -100t-91.5 -266z" />
    <glyph glyph-name="r" unicode="r" horiz-adv-x="849" 
d="M168 0v1071h207v-186h14q28 74 105 131t182 57h94v-209h-100q-134 0 -210.5 -92t-76.5 -244v-528h-215z" />
    <glyph glyph-name="s" unicode="s" horiz-adv-x="1085" 
d="M106 317h203q21 -167 234 -167q104 0 161.5 42.5t57.5 114.5q0 53 -34.5 85.5t-90 48t-122.5 26.5t-133.5 29t-122 48t-90 90.5t-34.5 149.5q0 137 112 225.5t294 88.5q165 0 276 -86t123 -236h-197q-9 70 -63 110t-148 40q-89 0 -142.5 -38.5t-53.5 -99.5
q0 -42 27.5 -70t72 -40t101.5 -23.5t116.5 -20.5t116.5 -31t101.5 -53.5t72 -91.5t27.5 -141q0 -154 -117.5 -249t-316.5 -95t-309.5 92.5t-121.5 251.5z" />
    <glyph glyph-name="t" unicode="t" horiz-adv-x="886" 
d="M80 895v174h141q28 0 46 19t18 51v235h202v-303h312v-176h-312v-549q0 -164 156 -164h145v-182h-178q-160 0 -249 87.5t-89 252.5v555h-192z" />
    <glyph glyph-name="u" unicode="u" horiz-adv-x="1228" 
d="M152 383v688h215v-649q0 -112 68 -181t171 -69q113 0 186.5 76.5t73.5 193.5v629h215v-1071h-209v143h-14q-35 -72 -117.5 -121t-195.5 -49q-179 0 -286 116t-107 294z" />
    <glyph glyph-name="v" unicode="v" horiz-adv-x="1150" 
d="M51 1071h228l288 -811h15l286 811h232l-408 -1071h-233z" />
    <glyph glyph-name="w" unicode="w" horiz-adv-x="1775" 
d="M57 1071h228l219 -817h14l256 817h227l254 -817h15l219 817h229l-317 -1071h-258l-250 795h-12l-252 -795h-256z" />
    <glyph glyph-name="x" unicode="x" horiz-adv-x="1120" 
d="M43 0l379 557l-350 514h243l240 -371h12l238 371h244l-351 -520l379 -551h-243l-267 397h-18l-262 -397h-244z" />
    <glyph glyph-name="y" unicode="y" horiz-adv-x="1177" 
d="M51 1071h234l297 -827h14l295 827h235l-491 -1284q-48 -129 -130.5 -193.5t-221.5 -64.5h-121v192h94q137 0 188 132l39 102z" />
    <glyph glyph-name="z" unicode="z" horiz-adv-x="1064" 
d="M113 0v186l557 691v14h-539v180h809v-180l-557 -694v-15h567v-182h-837z" />
    <glyph glyph-name="braceleft" unicode="{" horiz-adv-x="1024" 
d="M174 543v180h66q42 0 65 24.5t23 67.5v432q0 160 91 238t249 78h125v-181h-109q-77 0 -112 -36t-35 -115v-428q0 -146 -101 -164v-12q101 -18 101 -164v-428q0 -80 34.5 -116t112.5 -36h109v-180h-125q-158 0 -249 77.5t-91 237.5v433q0 43 -23 67.5t-65 24.5h-66z" />
    <glyph glyph-name="bar" unicode="|" horiz-adv-x="659" 
d="M225 -422v2026h207v-2026h-207z" />
    <glyph glyph-name="braceright" unicode="}" horiz-adv-x="1024" 
d="M231 -117h109q76 0 110.5 36t34.5 116v428q0 147 103 164v12q-103 17 -103 164v428q0 78 -34.5 114.5t-110.5 36.5h-109v181h125q158 0 249 -78t91 -238v-432q0 -43 22 -67.5t64 -24.5h66v-180h-66q-42 0 -64 -24.5t-22 -67.5v-433q0 -160 -91 -237.5t-249 -77.5h-125
v180z" />
    <glyph glyph-name="asciitilde" unicode="~" horiz-adv-x="1067" 
d="M70 469q0 138 69 223.5t197 85.5q52 0 109 -20.5t98 -45t89 -45t85 -20.5q59 0 90 36.5t33 92.5h157q0 -133 -68 -220t-196 -87q-52 0 -105.5 20.5t-92 45t-88.5 45t-95 20.5q-59 0 -90.5 -37t-34.5 -94h-157z" />
    <glyph glyph-name="uni00A0" unicode="&#xa0;" horiz-adv-x="557" 
 />
    <glyph glyph-name="exclamdown" unicode="&#xa1;" horiz-adv-x="632" 
d="M180 1014q0 57 39 95t96 38q59 0 98.5 -38t39.5 -95t-40 -96t-98 -39q-57 0 -96 39t-39 96zM205 242l47 495h129l47 -495v-555h-223v555z" />
    <glyph glyph-name="cent" unicode="&#xa2;" horiz-adv-x="1261" 
d="M92 711q0 222 134 377t349 180v168h168v-170q161 -27 275.5 -131.5t146.5 -262.5h-221q-28 92 -108.5 148.5t-186.5 56.5q-150 0 -243 -104t-93 -262q0 -159 95 -263t245 -104q103 0 184 55.5t109 145.5h221q-33 -157 -148 -260t-276 -127v-158h-168v154
q-216 25 -349.5 181t-133.5 376z" />
    <glyph glyph-name="sterling" unicode="&#xa3;" horiz-adv-x="1286" 
d="M133 0v203h133v415h-114v181h114v229q0 193 128.5 312.5t318.5 119.5q99 0 181 -33t134.5 -88t82 -122.5t32.5 -139.5h-217q-5 72 -63 124t-148 52q-103 0 -166.5 -63.5t-63.5 -171.5v-219h344v-181h-344v-415h656v-203h-1008z" />
    <glyph glyph-name="yen" unicode="&#xa5;" horiz-adv-x="1318" 
d="M37 1434h239l375 -658h15l370 658h248l-420 -721h242v-166h-334v-148h334v-163h-334v-236h-221v236h-332v163h332v148h-332v166h238z" />
    <glyph glyph-name="section" unicode="&#xa7;" horiz-adv-x="1097" 
d="M113 582q0 92 49.5 162t128.5 104v14q-141 120 -141 287q0 158 113.5 255t295.5 97q113 0 206.5 -42t152.5 -128.5t59 -204.5h-207q-2 71 -53 128t-158 57q-86 0 -139 -45.5t-53 -120.5q0 -111 145 -199l244 -141q111 -65 169 -141.5t58 -182.5q0 -93 -48.5 -161
t-129.5 -105v-14q143 -123 143 -289q0 -156 -114.5 -252t-296.5 -96q-113 0 -206.5 41.5t-152.5 128.5t-59 205h205q2 -33 13 -63.5t34.5 -59.5t66 -46.5t99.5 -17.5q85 0 138.5 46t55.5 120q0 63 -38 110t-109 87l-289 174q-87 52 -134.5 121.5t-47.5 171.5zM315 588
q0 -92 84 -144l228 -129q66 3 110.5 48.5t44.5 109.5q0 101 -133 176l-178 96q-67 -1 -111.5 -46.5t-44.5 -110.5z" />
    <glyph glyph-name="dieresis" unicode="&#xa8;" horiz-adv-x="782" 
d="M84 1382q0 52 36 88.5t89 36.5q56 0 90.5 -35.5t34.5 -89.5q0 -55 -34.5 -90t-90.5 -35q-53 0 -89 35.5t-36 89.5zM449 1382q0 55 34 90t90 35q53 0 90 -36.5t37 -88.5q0 -53 -37 -89t-90 -36q-56 0 -90 35t-34 90z" />
    <glyph glyph-name="copyright" unicode="&#xa9;" horiz-adv-x="1677" 
d="M94 713q0 154 57 292t154.5 238t235.5 158.5t293 58.5q160 0 300 -58t238.5 -158t154.5 -238t56 -293q0 -207 -94.5 -376.5t-265.5 -267.5t-385 -98q-211 0 -382 98t-266.5 267.5t-95.5 376.5zM248 713q0 -170 74.5 -307.5t210 -216t305.5 -78.5q172 0 307.5 78t210 216
t74.5 310q0 171 -74.5 308.5t-211 216.5t-310.5 79q-167 0 -301.5 -79.5t-209.5 -218t-75 -308.5zM453 713q0 168 110.5 281.5t278.5 113.5q137 0 233.5 -75.5t124.5 -201.5h-156q-21 60 -73 96t-127 36q-109 0 -171.5 -71t-62.5 -179q0 -111 64 -180.5t172 -69.5
q151 0 209 131h149q-30 -132 -127.5 -204.5t-232.5 -72.5q-171 0 -281 113.5t-110 282.5z" />
    <glyph glyph-name="ordfeminine" unicode="&#xaa;" horiz-adv-x="1077" 
d="M115 1034q0 188 107 307t276 119q53 0 100 -15t78 -38.5t50.5 -44t29.5 -39.5h14v117h170v-807h-170v115h-14q-8 -19 -25.5 -39.5t-46.5 -43.5t-76.5 -38t-103.5 -15q-171 0 -280 117.5t-109 304.5zM287 1034q0 -122 69 -195t176 -73q110 0 176 76.5t66 191.5
q0 127 -69.5 200t-174.5 73q-106 0 -174.5 -76t-68.5 -197z" />
    <glyph glyph-name="guillemotleft" unicode="&#xab;" horiz-adv-x="1085" 
d="M133 539v118l406 332v-209l-213 -176v-12l213 -176v-209zM547 539v118l405 332v-209l-213 -176v-12l213 -176v-209z" />
    <glyph glyph-name="uni00AD" unicode="&#xad;" horiz-adv-x="800" 
d="M129 524v191h543v-191h-543z" />
    <glyph glyph-name="registered" unicode="&#xae;" horiz-adv-x="1071" 
d="M98 1098q0 120 53 218t152.5 156t226.5 58q200 0 321.5 -123t121.5 -307t-120.5 -309t-317.5 -125q-195 0 -316 123t-121 309zM207 1098q0 -143 89 -236.5t239 -93.5q152 0 239.5 92t87.5 240q0 147 -89 237t-243 90q-148 0 -235.5 -92t-87.5 -237zM379 872v449h188
q71 0 113.5 -43.5t42.5 -103.5q0 -46 -20.5 -81.5t-49.5 -48.5l84 -172h-114l-64 150h-74v-150h-106zM485 1114h68q28 0 42.5 16.5t14.5 40.5t-15 41t-42 17h-68v-115z" />
    <glyph glyph-name="macron" unicode="&#xaf;" horiz-adv-x="716" 
d="M98 1288v168h523v-168h-523z" />
    <glyph glyph-name="degree" unicode="&#xb0;" horiz-adv-x="839" 
d="M119 1161q0 126 84.5 212.5t216.5 86.5q133 0 218 -86t85 -211q0 -127 -84.5 -213t-218.5 -86t-217.5 85.5t-83.5 211.5zM268 1161q0 -66 42 -109.5t110 -43.5t109.5 44t41.5 111t-41.5 111.5t-109.5 44.5t-110 -45.5t-42 -112.5z" />
    <glyph glyph-name="uni00B2" unicode="&#xb2;" horiz-adv-x="772" 
d="M113 1196q0 101 72.5 177.5t191.5 76.5q126 0 200 -72.5t74 -173.5q0 -147 -141 -231l-158 -94q-44 -27 -61 -51t-17 -62v-14h385v-138h-540v136q0 84 36.5 139.5t120.5 105.5l140 86q78 49 78 123q0 42 -32.5 73.5t-86.5 31.5q-57 0 -88 -35t-31 -78h-143z" />
    <glyph glyph-name="uni00B3" unicode="&#xb3;" horiz-adv-x="784" 
d="M113 852h143q6 -51 38.5 -81t86.5 -30q60 0 95.5 32t35.5 89q0 53 -36.5 86t-96.5 33h-109v119l187 188v8h-314v138h504v-131l-198 -197v-6q92 -6 156.5 -75t64.5 -163q0 -112 -80.5 -188t-208.5 -76q-121 0 -194.5 77t-73.5 177z" />
    <glyph glyph-name="acute" unicode="&#xb4;" horiz-adv-x="538" 
d="M98 1245l115 285h227l-184 -285h-158z" />
    <glyph glyph-name="paragraph" unicode="&#xb6;" horiz-adv-x="1179" 
d="M129 971q0 126 61 232.5t167 168.5t233 62h461v-1526h-166v1356h-123v-1356h-164v596q-130 1 -238.5 64.5t-169.5 170t-61 232.5z" />
    <glyph glyph-name="periodcentered" unicode="&#xb7;" horiz-adv-x="559" 
d="M143 643q0 57 40 96t96 39q58 0 97.5 -39t39.5 -96t-39.5 -96t-97.5 -39q-56 0 -96 39t-40 96z" />
    <glyph glyph-name="cedilla" unicode="&#xb8;" horiz-adv-x="540" 
d="M88 -266h121q3 -21 20 -33t39 -12q29 0 47.5 17.5t18.5 47.5q0 29 -19 46.5t-47 17.5q-39 0 -53 -31l-117 2l45 252h125l-37 -147h13q22 18 61 18q67 0 110.5 -46.5t43.5 -113.5q0 -74 -53 -123t-138 -49q-73 0 -126 42t-54 112z" />
    <glyph glyph-name="uni00B9" unicode="&#xb9;" horiz-adv-x="589" 
d="M113 1192v111q94 0 142 14t63.5 40t15.5 77h141v-820h-153v578h-209z" />
    <glyph glyph-name="ordmasculine" unicode="&#xba;" horiz-adv-x="1083" 
d="M115 1034q0 184 121 305t309 121q185 0 304.5 -120.5t119.5 -303.5q0 -182 -121 -303t-305 -121q-187 0 -307.5 120t-120.5 302zM287 1034q0 -116 72 -192t184 -76t183 76t71 194q0 116 -71 192.5t-183 76.5t-184 -77.5t-72 -193.5z" />
    <glyph glyph-name="guillemotright" unicode="&#xbb;" horiz-adv-x="1101" 
d="M133 207v209l213 176v12l-213 176v209l406 -332v-118zM547 207v209l213 176v12l-213 176v209l405 -332v-118z" />
    <glyph glyph-name="onequarter" unicode="&#xbc;" horiz-adv-x="1759" 
d="M113 1192v111q94 0 142 14t63.5 40t15.5 77h141v-820h-153v578h-209zM362 -84l799 1602h182l-798 -1602h-183zM1016 158v125l235 536h154l-225 -516v-8h211v201h153v-201h101v-137h-101v-158h-153v158h-375z" />
    <glyph glyph-name="onehalf" unicode="&#xbd;" horiz-adv-x="1802" 
d="M113 1192v111q94 0 142 14t63.5 40t15.5 77h141v-820h-153v578h-209zM362 -84l799 1602h182l-798 -1602h-183zM1143 582q0 100 71.5 176t190.5 76q127 0 200.5 -72t73.5 -172q0 -148 -139 -232l-160 -96q-44 -27 -60.5 -50t-16.5 -62v-15h385v-135h-539v133
q0 84 36 139.5t120 106.5l141 86q78 49 78 123q0 42 -32.5 73t-88.5 31q-57 0 -88 -34t-31 -76h-141z" />
    <glyph glyph-name="threequarters" unicode="&#xbe;" horiz-adv-x="1794" 
d="M113 852h143q6 -51 38.5 -81t86.5 -30q60 0 95.5 32t35.5 89q0 53 -36.5 86t-96.5 33h-109v119l187 188v8h-314v138h504v-131l-198 -197v-6q92 -6 156.5 -75t64.5 -163q0 -112 -80.5 -188t-208.5 -76q-121 0 -194.5 77t-73.5 177zM438 -84l799 1602h182l-798 -1602h-183z
M1053 158v125l235 536h154l-225 -516v-8h210v201h154v-201h100v-137h-100v-158h-154v158h-374z" />
    <glyph glyph-name="questiondown" unicode="&#xbf;" horiz-adv-x="1122" 
d="M131 51q0 61 16.5 114.5t47.5 95t60.5 70.5t70.5 60l106 88q76 58 76 146v98h203v-109q0 -83 -33.5 -144.5t-104.5 -121.5l-116 -96q-56 -45 -81.5 -89.5t-25.5 -107.5q0 -90 57.5 -146t159.5 -56q103 0 164.5 64t61.5 159h198q0 -81 -27.5 -154.5t-79 -132.5t-134.5 -94
t-185 -35q-198 0 -316 110.5t-118 280.5zM471 1014q0 57 38.5 95t96.5 38q57 0 97 -38t40 -95t-40 -96t-97 -39q-58 0 -96.5 39t-38.5 96z" />
    <glyph glyph-name="Agrave" unicode="&#xc0;" horiz-adv-x="1402" 
d="M37 0l530 1434h269l532 -1434h-233l-113 311h-645l-113 -311h-227zM446 510h506l-245 676h-15zM475 1896h227l115 -284h-158z" />
    <glyph glyph-name="Aacute" unicode="&#xc1;" horiz-adv-x="1402" 
d="M37 0l530 1434h269l532 -1434h-233l-113 311h-645l-113 -311h-227zM446 510h506l-245 676h-15zM610 1612l115 284h227l-184 -284h-158z" />
    <glyph glyph-name="Acircumflex" unicode="&#xc2;" horiz-adv-x="1402" 
d="M37 0l530 1434h269l532 -1434h-233l-113 311h-645l-113 -311h-227zM406 1612l200 280h205l201 -280h-172l-125 119h-15l-120 -119h-174zM446 510h506l-245 676h-15z" />
    <glyph glyph-name="Atilde" unicode="&#xc3;" horiz-adv-x="1402" 
d="M37 0l530 1434h269l532 -1434h-233l-113 311h-645l-113 -311h-227zM362 1616q0 125 59 192.5t152 67.5q47 0 95 -25.5t88 -51t69 -25.5q73 0 76 102h146q0 -124 -57.5 -193t-149.5 -69q-47 0 -93.5 25.5t-87.5 51t-73 25.5q-73 0 -76 -100h-148zM446 510h506l-245 676
h-15z" />
    <glyph glyph-name="Adieresis" unicode="&#xc4;" horiz-adv-x="1402" 
d="M37 0l530 1434h269l532 -1434h-233l-113 311h-645l-113 -311h-227zM397 1749q0 53 36.5 89t88.5 36q56 0 90.5 -35.5t34.5 -89.5q0 -55 -34.5 -90t-90.5 -35q-53 0 -89 35.5t-36 89.5zM446 510h506l-245 676h-15zM762 1749q0 55 34.5 90t90.5 35q53 0 90 -36.5t37 -88.5
q0 -53 -37 -89t-90 -36q-56 0 -90.5 35t-34.5 90z" />
    <glyph glyph-name="Aring" unicode="&#xc5;" horiz-adv-x="1402" 
d="M37 0l530 1434h269l532 -1434h-233l-113 311h-645l-113 -311h-227zM446 510h506l-245 676h-15zM512 1743q0 83 56 136.5t141 53.5q87 0 142.5 -53t55.5 -135q0 -83 -55.5 -137t-140.5 -54q-86 0 -142.5 53.5t-56.5 135.5zM631 1743q0 -36 22 -58t58 -22q35 0 56 22.5
t21 59.5q0 35 -21 56.5t-58 21.5q-35 0 -56.5 -21.5t-21.5 -58.5z" />
    <glyph glyph-name="AE" unicode="&#xc6;" horiz-adv-x="1861" 
d="M37 0l739 1434h969v-195h-629v-416h522v-192h-522v-438h649v-193h-870v311h-467l-160 -311h-231zM524 510h371v707h-14z" />
    <glyph glyph-name="Ccedilla" unicode="&#xc7;" horiz-adv-x="1626" 
d="M94 717q0 156 56 293.5t154 236.5t236.5 156t297.5 57q257 0 440.5 -140t247.5 -370h-238q-47 141 -169 221t-281 80q-144 0 -262 -69.5t-185 -192t-67 -272.5q0 -231 147 -383t367 -152q159 0 280 79t170 220h242q-61 -228 -244.5 -366.5t-437.5 -141.5l-21 -79h13
q22 18 61 18q67 0 110.5 -46.5t43.5 -113.5q0 -74 -53 -123t-138 -49q-73 0 -126 42t-54 112h121q3 -21 20 -33t39 -12q29 0 47.5 17.5t18.5 47.5q0 29 -19 46.5t-47 17.5q-39 0 -53 -31l-117 2l35 191q-282 37 -458.5 241.5t-176.5 495.5z" />
    <glyph glyph-name="Egrave" unicode="&#xc8;" horiz-adv-x="1148" 
d="M182 0v1434h850v-195h-629v-416h539v-192h-539v-438h650v-193h-871zM393 1896h228l114 -284h-157z" />
    <glyph glyph-name="Eacute" unicode="&#xc9;" horiz-adv-x="1148" 
d="M182 0v1434h850v-195h-629v-416h539v-192h-539v-438h650v-193h-871zM528 1612l115 284h227l-184 -284h-158z" />
    <glyph glyph-name="Ecircumflex" unicode="&#xca;" horiz-adv-x="1148" 
d="M182 0v1434h850v-195h-629v-416h539v-192h-539v-438h650v-193h-871zM324 1612l200 280h205l201 -280h-172l-125 119h-15l-120 -119h-174z" />
    <glyph glyph-name="Edieresis" unicode="&#xcb;" horiz-adv-x="1148" 
d="M182 0v1434h850v-195h-629v-416h539v-192h-539v-438h650v-193h-871zM315 1749q0 53 36.5 89t88.5 36q56 0 90.5 -35.5t34.5 -89.5q0 -55 -34.5 -90t-90.5 -35q-53 0 -89 35.5t-36 89.5zM680 1749q0 55 34.5 90t90.5 35q53 0 90 -36.5t37 -88.5q0 -53 -37 -89t-90 -36
q-56 0 -90.5 35t-34.5 90z" />
    <glyph glyph-name="Igrave" unicode="&#xcc;" horiz-adv-x="585" 
d="M63 1896h228l115 -284h-158zM182 0v1434h221v-1434h-221z" />
    <glyph glyph-name="Iacute" unicode="&#xcd;" horiz-adv-x="585" 
d="M182 0v1434h221v-1434h-221zM199 1612l114 284h228l-185 -284h-157z" />
    <glyph glyph-name="Icircumflex" unicode="&#xce;" horiz-adv-x="585" 
d="M-8 1612l201 280h204l201 -280h-172l-125 119h-14l-121 -119h-174zM182 0v1434h221v-1434h-221z" />
    <glyph glyph-name="Idieresis" unicode="&#xcf;" horiz-adv-x="585" 
d="M-16 1749q0 53 36 89t89 36q56 0 90 -35.5t34 -89.5q0 -55 -34 -90t-90 -35q-53 0 -89 35.5t-36 89.5zM182 0v1434h221v-1434h-221zM348 1749q0 55 34.5 90t90.5 35q53 0 90 -36.5t37 -88.5q0 -53 -37 -89t-90 -36q-56 0 -90.5 35t-34.5 90z" />
    <glyph glyph-name="Eth" unicode="&#xd0;" horiz-adv-x="1517" 
d="M152 633v176h120v625h433q224 0 387.5 -92t246 -252.5t82.5 -370.5q0 -336 -188 -527.5t-528 -191.5h-433v633h-120zM494 193h206q227 0 360.5 135.5t133.5 390.5q0 247 -133 383.5t-361 136.5h-206v-430h280v-176h-280v-440z" />
    <glyph glyph-name="Ntilde" unicode="&#xd1;" horiz-adv-x="1509" 
d="M182 0v1434h236l680 -1061h12v1061h215v-1434h-238l-675 1061h-13v-1061h-217zM434 1616q0 125 59 192.5t152 67.5q47 0 95 -25.5t88 -51t69 -25.5q73 0 76 102h145q0 -124 -57.5 -193t-149.5 -69q-47 0 -93.5 25.5t-87.5 51t-73 25.5q-72 0 -75 -100h-148z" />
    <glyph glyph-name="Ograve" unicode="&#xd2;" horiz-adv-x="1687" 
d="M94 717q0 125 36.5 239t104 205t159.5 158.5t207.5 104t242.5 36.5q212 0 383.5 -98t267.5 -268t96 -377q0 -156 -56.5 -294t-155.5 -236.5t-238.5 -156t-298.5 -57.5t-298 56.5t-237.5 155t-155.5 237t-57 295.5zM324 717q0 -231 147.5 -383t372.5 -152t372.5 152
t147.5 383q0 150 -66.5 272t-186 192t-267.5 70t-267.5 -70t-186 -192t-66.5 -272zM608 1896h228l114 -284h-157z" />
    <glyph glyph-name="Oacute" unicode="&#xd3;" horiz-adv-x="1687" 
d="M94 717q0 125 36.5 239t104 205t159.5 158.5t207.5 104t242.5 36.5q212 0 383.5 -98t267.5 -268t96 -377q0 -156 -56.5 -294t-155.5 -236.5t-238.5 -156t-298.5 -57.5t-298 56.5t-237.5 155t-155.5 237t-57 295.5zM324 717q0 -231 147.5 -383t372.5 -152t372.5 152
t147.5 383q0 150 -66.5 272t-186 192t-267.5 70t-267.5 -70t-186 -192t-66.5 -272zM743 1612l115 284h227l-184 -284h-158z" />
    <glyph glyph-name="Ocircumflex" unicode="&#xd4;" horiz-adv-x="1687" 
d="M94 717q0 125 36.5 239t104 205t159.5 158.5t207.5 104t242.5 36.5q212 0 383.5 -98t267.5 -268t96 -377q0 -156 -56.5 -294t-155.5 -236.5t-238.5 -156t-298.5 -57.5t-298 56.5t-237.5 155t-155.5 237t-57 295.5zM324 717q0 -231 147.5 -383t372.5 -152t372.5 152
t147.5 383q0 150 -66.5 272t-186 192t-267.5 70t-267.5 -70t-186 -192t-66.5 -272zM539 1612l200 280h205l201 -280h-172l-125 119h-14l-121 -119h-174z" />
    <glyph glyph-name="Otilde" unicode="&#xd5;" horiz-adv-x="1687" 
d="M94 717q0 125 36.5 239t104 205t159.5 158.5t207.5 104t242.5 36.5q212 0 383.5 -98t267.5 -268t96 -377q0 -156 -56.5 -294t-155.5 -236.5t-238.5 -156t-298.5 -57.5t-298 56.5t-237.5 155t-155.5 237t-57 295.5zM324 717q0 -231 147.5 -383t372.5 -152t372.5 152
t147.5 383q0 150 -66.5 272t-186 192t-267.5 70t-267.5 -70t-186 -192t-66.5 -272zM494 1616q0 125 59 192.5t152 67.5q47 0 94.5 -25.5t87.5 -51t69 -25.5q73 0 76 102h146q0 -124 -57.5 -193t-149.5 -69q-47 0 -93.5 25.5t-87.5 51t-73 25.5q-73 0 -76 -100h-147z" />
    <glyph glyph-name="Odieresis" unicode="&#xd6;" horiz-adv-x="1687" 
d="M94 717q0 125 36.5 239t104 205t159.5 158.5t207.5 104t242.5 36.5q212 0 383.5 -98t267.5 -268t96 -377q0 -156 -56.5 -294t-155.5 -236.5t-238.5 -156t-298.5 -57.5t-298 56.5t-237.5 155t-155.5 237t-57 295.5zM324 717q0 -231 147.5 -383t372.5 -152t372.5 152
t147.5 383q0 150 -66.5 272t-186 192t-267.5 70t-267.5 -70t-186 -192t-66.5 -272zM530 1749q0 53 36 89t89 36q56 0 90.5 -35.5t34.5 -89.5q0 -55 -34.5 -90t-90.5 -35q-53 0 -89 35.5t-36 89.5zM895 1749q0 55 34.5 90t90.5 35q53 0 90 -36.5t37 -88.5q0 -53 -37 -89
t-90 -36q-56 0 -90.5 35t-34.5 90z" />
    <glyph glyph-name="multiply" unicode="&#xd7;" horiz-adv-x="944" 
d="M10 268l338 363l-338 364l125 127l336 -360l336 360l125 -125l-340 -364l342 -367l-127 -123l-336 363l-336 -361z" />
    <glyph glyph-name="Oslash" unicode="&#xd8;" horiz-adv-x="1681" 
d="M94 717q0 157 57.5 295t156.5 236t238.5 155t297.5 57q188 0 348 -80l90 133h211l-156 -229q120 -103 187 -250t67 -317q0 -156 -56.5 -294t-155.5 -236.5t-238.5 -156t-298.5 -57.5q-183 0 -340 74l-101 -149h-213l166 243q-123 103 -191.5 251.5t-68.5 324.5zM324 717
q0 -239 155 -391l592 876q-107 49 -227 49q-148 0 -267.5 -70t-186 -192t-66.5 -272zM625 227q102 -45 219 -45q225 0 372.5 152t147.5 383q0 114 -39.5 213t-110.5 170z" />
    <glyph glyph-name="Ugrave" unicode="&#xd9;" horiz-adv-x="1431" 
d="M164 524v910h221v-908q0 -163 85.5 -255.5t246.5 -92.5q160 0 246 93t86 257v906h219v-908q0 -250 -148.5 -401.5t-402.5 -151.5q-258 0 -405.5 150t-147.5 401zM477 1896h228l114 -284h-157z" />
    <glyph glyph-name="Uacute" unicode="&#xda;" horiz-adv-x="1431" 
d="M164 524v910h221v-908q0 -163 85.5 -255.5t246.5 -92.5q160 0 246 93t86 257v906h219v-908q0 -250 -148.5 -401.5t-402.5 -151.5q-258 0 -405.5 150t-147.5 401zM612 1612l115 284h227l-184 -284h-158z" />
    <glyph glyph-name="Ucircumflex" unicode="&#xdb;" horiz-adv-x="1431" 
d="M164 524v910h221v-908q0 -163 85.5 -255.5t246.5 -92.5q160 0 246 93t86 257v906h219v-908q0 -250 -148.5 -401.5t-402.5 -151.5q-258 0 -405.5 150t-147.5 401zM408 1612l200 280h205l201 -280h-172l-125 119h-15l-120 -119h-174z" />
    <glyph glyph-name="Udieresis" unicode="&#xdc;" horiz-adv-x="1431" 
d="M164 524v910h221v-908q0 -163 85.5 -255.5t246.5 -92.5q160 0 246 93t86 257v906h219v-908q0 -250 -148.5 -401.5t-402.5 -151.5q-258 0 -405.5 150t-147.5 401zM399 1749q0 53 36.5 89t88.5 36q56 0 90.5 -35.5t34.5 -89.5q0 -55 -34.5 -90t-90.5 -35q-53 0 -89 35.5
t-36 89.5zM764 1749q0 55 34.5 90t90.5 35q53 0 90 -36.5t37 -88.5q0 -53 -37 -89t-90 -36q-56 0 -90.5 35t-34.5 90z" />
    <glyph glyph-name="Yacute" unicode="&#xdd;" horiz-adv-x="1318" 
d="M37 1434h239l375 -658h15l370 658h248l-512 -881v-553h-221v553zM563 1612l115 284h227l-184 -284h-158z" />
    <glyph glyph-name="Thorn" unicode="&#xde;" horiz-adv-x="1210" 
d="M182 0v1434h221v-256h277q202 0 330.5 -124t128.5 -323q0 -198 -131.5 -326.5t-327.5 -128.5h-277v-276h-221zM403 469h256q115 0 184.5 73t69.5 189q0 113 -69.5 183.5t-184.5 70.5h-256v-516z" />
    <glyph glyph-name="germandbls" unicode="&#xdf;" horiz-adv-x="1255" 
d="M168 0v1090q0 206 122.5 326t321.5 120q194 0 322.5 -114t126.5 -283q-1 -109 -52 -183t-128 -112v-13q123 -37 202.5 -139t79.5 -246q0 -223 -130.5 -348t-360.5 -125q-84 0 -170 27v199q84 -25 153 -25q126 0 205.5 74.5t79.5 200.5q0 83 -45 143t-111 86.5t-143 26.5
h-72v194h19q113 0 178 64.5t65 162.5q0 93 -59 154t-164 61q-109 0 -167 -65.5t-58 -183.5v-1092h-215z" />
    <glyph glyph-name="agrave" unicode="&#xe0;" horiz-adv-x="1323" 
d="M92 532q0 249 143 407.5t367 158.5q72 0 135 -20t105.5 -52t67.5 -58.5t42 -52.5h15v156h215v-1071h-211v152h-13q-127 -179 -346 -179q-231 0 -375.5 155t-144.5 404zM311 535q0 -166 91.5 -266.5t240.5 -100.5q150 0 240 105t90 262q0 169 -93.5 267.5t-238.5 98.5
q-146 0 -238 -102.5t-92 -263.5zM430 1530h227l115 -285h-158z" />
    <glyph glyph-name="aacute" unicode="&#xe1;" horiz-adv-x="1323" 
d="M92 532q0 249 143 407.5t367 158.5q72 0 135 -20t105.5 -52t67.5 -58.5t42 -52.5h15v156h215v-1071h-211v152h-13q-127 -179 -346 -179q-231 0 -375.5 155t-144.5 404zM311 535q0 -166 91.5 -266.5t240.5 -100.5q150 0 240 105t90 262q0 169 -93.5 267.5t-238.5 98.5
q-146 0 -238 -102.5t-92 -263.5zM565 1245l115 285h227l-184 -285h-158z" />
    <glyph glyph-name="acircumflex" unicode="&#xe2;" horiz-adv-x="1323" 
d="M92 532q0 249 143 407.5t367 158.5q72 0 135 -20t105.5 -52t67.5 -58.5t42 -52.5h15v156h215v-1071h-211v152h-13q-127 -179 -346 -179q-231 0 -375.5 155t-144.5 404zM311 535q0 -166 91.5 -266.5t240.5 -100.5q150 0 240 105t90 262q0 169 -93.5 267.5t-238.5 98.5
q-146 0 -238 -102.5t-92 -263.5zM358 1245l201 281h205l201 -281h-172l-125 119h-15l-121 -119h-174z" />
    <glyph glyph-name="atilde" unicode="&#xe3;" horiz-adv-x="1323" 
d="M92 532q0 249 143 407.5t367 158.5q72 0 135 -20t105.5 -52t67.5 -58.5t42 -52.5h15v156h215v-1071h-211v152h-13q-127 -179 -346 -179q-231 0 -375.5 155t-144.5 404zM311 535q0 -166 91.5 -266.5t240.5 -100.5q150 0 240 105t90 262q0 169 -93.5 267.5t-238.5 98.5
q-146 0 -238 -102.5t-92 -263.5zM315 1249q0 125 59 192.5t152 67.5q47 0 95 -25.5t88 -51t69 -25.5q73 0 76 102h145q0 -124 -57 -193t-149 -69q-37 0 -75 16t-63.5 35.5t-57.5 35.5t-58 16q-73 0 -76 -101h-148z" />
    <glyph glyph-name="adieresis" unicode="&#xe4;" horiz-adv-x="1323" 
d="M92 532q0 249 143 407.5t367 158.5q72 0 135 -20t105.5 -52t67.5 -58.5t42 -52.5h15v156h215v-1071h-211v152h-13q-127 -179 -346 -179q-231 0 -375.5 155t-144.5 404zM311 535q0 -166 91.5 -266.5t240.5 -100.5q150 0 240 105t90 262q0 169 -93.5 267.5t-238.5 98.5
q-146 0 -238 -102.5t-92 -263.5zM350 1382q0 52 36 88.5t89 36.5q56 0 90.5 -35.5t34.5 -89.5q0 -55 -34.5 -90t-90.5 -35q-53 0 -89 35.5t-36 89.5zM715 1382q0 55 34.5 90t90.5 35q53 0 90 -36.5t37 -88.5q0 -53 -37 -89t-90 -36q-56 0 -90.5 35t-34.5 90z" />
    <glyph glyph-name="aring" unicode="&#xe5;" horiz-adv-x="1323" 
d="M92 532q0 249 143 407.5t367 158.5q72 0 135 -20t105.5 -52t67.5 -58.5t42 -52.5h15v156h215v-1071h-211v152h-13q-127 -179 -346 -179q-231 0 -375.5 155t-144.5 404zM311 535q0 -166 91.5 -266.5t240.5 -100.5q150 0 240 105t90 262q0 169 -93.5 267.5t-238.5 98.5
q-146 0 -238 -102.5t-92 -263.5zM465 1376q0 83 56 137t141 54q87 0 142.5 -53.5t55.5 -135.5q0 -83 -55.5 -136.5t-140.5 -53.5q-86 0 -142.5 53t-56.5 135zM584 1376q0 -36 22 -58t58 -22q35 0 56 22.5t21 59.5q0 36 -21.5 57t-57.5 21q-35 0 -56.5 -21.5t-21.5 -58.5z
" />
    <glyph glyph-name="ae" unicode="&#xe6;" horiz-adv-x="1990" 
d="M92 313q0 146 105 232.5t290 87.5h351v65q0 96 -73 155.5t-198 59.5q-112 0 -174 -50.5t-69 -117.5h-197q11 154 129.5 253.5t306.5 99.5q137 0 240.5 -49.5t157.5 -141.5h14q68 92 170 141.5t227 49.5q165 0 285.5 -73.5t179.5 -196.5t59 -281v-74h-845
q3 -148 93.5 -235.5t241.5 -87.5q102 0 181 47.5t110 126.5h209q-42 -158 -177 -254.5t-329 -96.5q-143 0 -256.5 60t-177.5 164h-12q-54 -98 -161 -161t-257 -63q-192 0 -308 93t-116 247zM295 313q0 -71 63 -116t166 -45q148 0 231 83.5t83 196.5v39h-336
q-98 0 -152.5 -41.5t-54.5 -116.5zM1055 633h637q-7 135 -99 212t-223 77q-124 0 -215 -80.5t-100 -208.5z" />
    <glyph glyph-name="ccedilla" unicode="&#xe7;" horiz-adv-x="1259" 
d="M92 535q0 157 70 285.5t197.5 203t287.5 74.5q193 0 337.5 -110t180.5 -292h-221q-28 92 -108.5 148.5t-186.5 56.5q-150 0 -243 -104t-93 -262q0 -159 95 -263t245 -104q103 0 184 56t109 147h219q-33 -170 -164 -277t-309 -119l-20 -81h12q22 18 59 18
q67 0 110.5 -46.5t43.5 -113.5q0 -75 -52.5 -123.5t-137.5 -48.5q-73 0 -125.5 42t-53.5 112h119q3 -21 21 -33t41 -12q27 0 45 17.5t18 47.5q0 29 -18.5 46.5t-46.5 17.5q-15 0 -31 -9t-23 -22l-114 2l32 188q-215 26 -347 182t-132 376z" />
    <glyph glyph-name="egrave" unicode="&#xe8;" horiz-adv-x="1243" 
d="M92 532q0 167 70 296.5t191.5 199.5t273.5 70q122 0 222 -43t165.5 -118t101 -175t35.5 -215v-80h-844q6 -141 95 -227t235 -86q102 0 182.5 46t112.5 124h209q-42 -158 -178.5 -254.5t-331.5 -96.5q-239 0 -389 157.5t-150 401.5zM311 633h627q-10 132 -97 208.5
t-214 76.5q-124 0 -214 -80t-102 -205zM389 1530h227l115 -285h-158z" />
    <glyph glyph-name="eacute" unicode="&#xe9;" horiz-adv-x="1243" 
d="M92 532q0 167 70 296.5t191.5 199.5t273.5 70q122 0 222 -43t165.5 -118t101 -175t35.5 -215v-80h-844q6 -141 95 -227t235 -86q102 0 182.5 46t112.5 124h209q-42 -158 -178.5 -254.5t-331.5 -96.5q-239 0 -389 157.5t-150 401.5zM311 633h627q-10 132 -97 208.5
t-214 76.5q-124 0 -214 -80t-102 -205zM524 1245l115 285h227l-184 -285h-158z" />
    <glyph glyph-name="ecircumflex" unicode="&#xea;" horiz-adv-x="1243" 
d="M92 532q0 167 70 296.5t191.5 199.5t273.5 70q122 0 222 -43t165.5 -118t101 -175t35.5 -215v-80h-844q6 -141 95 -227t235 -86q102 0 182.5 46t112.5 124h209q-42 -158 -178.5 -254.5t-331.5 -96.5q-239 0 -389 157.5t-150 401.5zM311 633h627q-10 132 -97 208.5
t-214 76.5q-124 0 -214 -80t-102 -205zM319 1245l201 281h205l201 -281h-172l-125 119h-15l-120 -119h-175z" />
    <glyph glyph-name="edieresis" unicode="&#xeb;" horiz-adv-x="1243" 
d="M92 532q0 167 70 296.5t191.5 199.5t273.5 70q122 0 222 -43t165.5 -118t101 -175t35.5 -215v-80h-844q6 -141 95 -227t235 -86q102 0 182.5 46t112.5 124h209q-42 -158 -178.5 -254.5t-331.5 -96.5q-239 0 -389 157.5t-150 401.5zM309 1382q0 52 36.5 88.5t88.5 36.5
q56 0 90.5 -35.5t34.5 -89.5q0 -55 -34.5 -90t-90.5 -35q-53 0 -89 35.5t-36 89.5zM311 633h627q-10 132 -97 208.5t-214 76.5q-124 0 -214 -80t-102 -205zM674 1382q0 55 34.5 90t90.5 35q53 0 90 -36.5t37 -88.5q0 -53 -37 -89t-90 -36q-56 0 -90.5 35t-34.5 90z" />
    <glyph glyph-name="igrave" unicode="&#xec;" horiz-adv-x="524" 
d="M39 1530h227l115 -285h-158zM168 0v1071h215v-1071h-215z" />
    <glyph glyph-name="iacute" unicode="&#xed;" horiz-adv-x="524" 
d="M168 0v1071h215v-1071h-215zM174 1245l115 285h227l-184 -285h-158z" />
    <glyph glyph-name="icircumflex" unicode="&#xee;" horiz-adv-x="524" 
d="M-31 1245l201 281h205l200 -281h-172l-124 119h-15l-121 -119h-174zM168 0v1071h215v-1071h-215z" />
    <glyph glyph-name="idieresis" unicode="&#xef;" horiz-adv-x="524" 
d="M-39 1382q0 52 36.5 88.5t88.5 36.5q56 0 90.5 -35.5t34.5 -89.5q0 -55 -34.5 -90t-90.5 -35q-53 0 -89 35.5t-36 89.5zM168 0v1071h215v-1071h-215zM326 1382q0 55 34.5 90t90.5 35q53 0 90 -36.5t37 -88.5q0 -53 -37 -89t-90 -36q-56 0 -90.5 35t-34.5 90z" />
    <glyph glyph-name="eth" unicode="&#xf0;" horiz-adv-x="1263" 
d="M92 508q0 228 146 373t360 145q138 0 227 -70h13q-39 62 -103.5 129t-118.5 107l-329 -127v139l209 84q-112 78 -220 131l130 88q148 -64 276 -151l285 108v-141l-166 -63q370 -307 370 -715q0 -163 -61.5 -291t-186.5 -204.5t-296 -76.5q-158 0 -280.5 71t-188.5 192.5
t-66 271.5zM311 508q0 -145 88.5 -241.5t229.5 -96.5q153 0 238 101t85 257q0 134 -89 225t-226 91q-148 0 -237 -96t-89 -240z" />
    <glyph glyph-name="ntilde" unicode="&#xf1;" horiz-adv-x="1239" 
d="M168 0v1071h209v-143h14q35 72 118 121t196 49q179 0 286 -116t107 -294v-688h-215v647q0 111 -68.5 180.5t-171.5 69.5q-112 0 -186 -77.5t-74 -194.5v-625h-215zM313 1249q0 125 59 192.5t152 67.5q47 0 95 -25.5t88 -51t69 -25.5q73 0 76 102h145q0 -124 -57 -193
t-149 -69q-37 0 -75 16t-63.5 35.5t-57.5 35.5t-58 16q-73 0 -76 -101h-148z" />
    <glyph glyph-name="ograve" unicode="&#xf2;" horiz-adv-x="1314" 
d="M92 535q0 159 72.5 288t202.5 202t292 73t291.5 -74t201 -202.5t71.5 -286.5t-72.5 -286.5t-202.5 -202t-291 -73.5q-246 0 -405.5 159.5t-159.5 402.5zM311 535q0 -160 97.5 -263.5t248.5 -103.5q152 0 249.5 104t97.5 263q0 160 -97.5 263t-249.5 103t-249 -103.5
t-97 -262.5zM426 1530h227l115 -285h-158z" />
    <glyph glyph-name="oacute" unicode="&#xf3;" horiz-adv-x="1314" 
d="M92 535q0 159 72.5 288t202.5 202t292 73t291.5 -74t201 -202.5t71.5 -286.5t-72.5 -286.5t-202.5 -202t-291 -73.5q-246 0 -405.5 159.5t-159.5 402.5zM311 535q0 -160 97.5 -263.5t248.5 -103.5q152 0 249.5 104t97.5 263q0 160 -97.5 263t-249.5 103t-249 -103.5
t-97 -262.5zM561 1245l115 285h227l-184 -285h-158z" />
    <glyph glyph-name="ocircumflex" unicode="&#xf4;" horiz-adv-x="1314" 
d="M92 535q0 159 72.5 288t202.5 202t292 73t291.5 -74t201 -202.5t71.5 -286.5t-72.5 -286.5t-202.5 -202t-291 -73.5q-246 0 -405.5 159.5t-159.5 402.5zM311 535q0 -160 97.5 -263.5t248.5 -103.5q152 0 249.5 104t97.5 263q0 160 -97.5 263t-249.5 103t-249 -103.5
t-97 -262.5zM354 1245l201 281h205l201 -281h-173l-124 119h-15l-121 -119h-174z" />
    <glyph glyph-name="otilde" unicode="&#xf5;" horiz-adv-x="1314" 
d="M92 535q0 159 72.5 288t202.5 202t292 73t291.5 -74t201 -202.5t71.5 -286.5t-72.5 -286.5t-202.5 -202t-291 -73.5q-246 0 -405.5 159.5t-159.5 402.5zM311 535q0 -160 97.5 -263.5t248.5 -103.5q152 0 249.5 104t97.5 263q0 160 -97.5 263t-249.5 103t-249 -103.5
t-97 -262.5zM311 1249q0 125 59 192.5t152 67.5q47 0 95 -25.5t88 -51t69 -25.5q73 0 76 102h145q0 -124 -57.5 -193t-149.5 -69q-37 0 -75 16t-63.5 35.5t-57 35.5t-57.5 16q-73 0 -76 -101h-148z" />
    <glyph glyph-name="odieresis" unicode="&#xf6;" horiz-adv-x="1314" 
d="M92 535q0 159 72.5 288t202.5 202t292 73t291.5 -74t201 -202.5t71.5 -286.5t-72.5 -286.5t-202.5 -202t-291 -73.5q-246 0 -405.5 159.5t-159.5 402.5zM311 535q0 -160 97.5 -263.5t248.5 -103.5q152 0 249.5 104t97.5 263q0 160 -97.5 263t-249.5 103t-249 -103.5
t-97 -262.5zM346 1382q0 52 36 88.5t89 36.5q56 0 90.5 -35.5t34.5 -89.5q0 -55 -34.5 -90t-90.5 -35q-53 0 -89 35.5t-36 89.5zM711 1382q0 55 34.5 90t90.5 35q53 0 90 -36.5t37 -88.5q0 -53 -37 -89t-90 -36q-56 0 -90.5 35t-34.5 90z" />
    <glyph glyph-name="divide" unicode="&#xf7;" horiz-adv-x="997" 
d="M10 551v174h977v-174h-977zM383 279q0 48 34 82t83 34q47 0 80.5 -34.5t33.5 -81.5t-33.5 -81t-80.5 -34q-49 0 -83 33.5t-34 81.5zM383 999q0 48 34 82.5t83 34.5q47 0 80.5 -34.5t33.5 -82.5q0 -47 -33.5 -80.5t-80.5 -33.5q-49 0 -83 33.5t-34 80.5z" />
    <glyph glyph-name="oslash" unicode="&#xf8;" horiz-adv-x="1314" 
d="M92 535q0 159 72.5 288t202.5 202t292 73q128 0 242 -49l74 118h170l-121 -194q95 -77 147 -190.5t52 -247.5q0 -158 -72.5 -286.5t-202.5 -202t-291 -73.5q-125 0 -229 43l-78 -127h-168l123 197q-101 76 -157 192.5t-56 256.5zM311 535q0 -166 105 -271l379 610
q-65 27 -138 27q-152 0 -249 -103.5t-97 -262.5zM537 188q53 -20 120 -20q152 0 249.5 104t97.5 263q0 150 -93 258z" />
    <glyph glyph-name="ugrave" unicode="&#xf9;" horiz-adv-x="1228" 
d="M152 383v688h215v-649q0 -112 68 -181t171 -69q113 0 186.5 76.5t73.5 193.5v629h215v-1071h-209v143h-14q-35 -72 -117.5 -121t-195.5 -49q-179 0 -286 116t-107 294zM383 1530h227l115 -285h-158z" />
    <glyph glyph-name="uacute" unicode="&#xfa;" horiz-adv-x="1228" 
d="M152 383v688h215v-649q0 -112 68 -181t171 -69q113 0 186.5 76.5t73.5 193.5v629h215v-1071h-209v143h-14q-35 -72 -117.5 -121t-195.5 -49q-179 0 -286 116t-107 294zM518 1245l115 285h227l-184 -285h-158z" />
    <glyph glyph-name="ucircumflex" unicode="&#xfb;" horiz-adv-x="1228" 
d="M152 383v688h215v-649q0 -112 68 -181t171 -69q113 0 186.5 76.5t73.5 193.5v629h215v-1071h-209v143h-14q-35 -72 -117.5 -121t-195.5 -49q-179 0 -286 116t-107 294zM311 1245l201 281h205l201 -281h-173l-124 119h-15l-121 -119h-174z" />
    <glyph glyph-name="udieresis" unicode="&#xfc;" horiz-adv-x="1228" 
d="M152 383v688h215v-649q0 -112 68 -181t171 -69q113 0 186.5 76.5t73.5 193.5v629h215v-1071h-209v143h-14q-35 -72 -117.5 -121t-195.5 -49q-179 0 -286 116t-107 294zM303 1382q0 52 36.5 88.5t88.5 36.5q56 0 90.5 -35.5t34.5 -89.5q0 -55 -34.5 -90t-90.5 -35
q-53 0 -89 35.5t-36 89.5zM668 1382q0 55 34.5 90t90.5 35q53 0 90 -36.5t37 -88.5q0 -53 -37 -89t-90 -36q-56 0 -90.5 35t-34.5 90z" />
    <glyph glyph-name="yacute" unicode="&#xfd;" horiz-adv-x="1177" 
d="M51 1071h234l297 -827h14l295 827h235l-491 -1284q-48 -129 -130.5 -193.5t-221.5 -64.5h-121v192h94q137 0 188 132l39 102zM500 1245l114 285h228l-185 -285h-157z" />
    <glyph glyph-name="thorn" unicode="&#xfe;" horiz-adv-x="1349" 
d="M168 -465v2001h213l2 -618h12q15 25 37.5 49.5t63 57t104 53t137.5 20.5q231 0 375.5 -155t144.5 -404t-142.5 -407.5t-366.5 -158.5q-58 0 -111.5 14t-90.5 34t-69 47t-49.5 47.5t-30.5 40.5h-14v-621h-215zM377 537q0 -169 93.5 -269t238.5 -100q146 0 237.5 103.5
t91.5 265.5q0 166 -91 266t-240 100q-150 0 -240 -104.5t-90 -261.5z" />
    <glyph glyph-name="ydieresis" unicode="&#xff;" horiz-adv-x="1177" 
d="M51 1071h234l297 -827h14l295 827h235l-491 -1284q-48 -129 -130.5 -193.5t-221.5 -64.5h-121v192h94q137 0 188 132l39 102zM285 1382q0 52 36.5 88.5t88.5 36.5q56 0 90.5 -35.5t34.5 -89.5q0 -55 -34.5 -90t-90.5 -35q-53 0 -89 35.5t-36 89.5zM649 1382q0 55 34.5 90
t90.5 35q53 0 90 -36.5t37 -88.5q0 -53 -37 -89t-90 -36q-56 0 -90.5 35t-34.5 90z" />
    <glyph glyph-name="Amacron" unicode="&#x100;" horiz-adv-x="1402" 
d="M37 0l530 1434h269l532 -1434h-233l-113 311h-645l-113 -311h-227zM446 510h506l-245 676h-15zM453 1655v168h522v-168h-522z" />
    <glyph glyph-name="amacron" unicode="&#x101;" horiz-adv-x="1323" 
d="M92 532q0 249 143 407.5t367 158.5q72 0 135 -20t105.5 -52t67.5 -58.5t42 -52.5h15v156h215v-1071h-211v152h-13q-127 -179 -346 -179q-231 0 -375.5 155t-144.5 404zM311 535q0 -166 91.5 -266.5t240.5 -100.5q150 0 240 105t90 262q0 169 -93.5 267.5t-238.5 98.5
q-146 0 -238 -102.5t-92 -263.5zM408 1288v168h522v-168h-522z" />
    <glyph glyph-name="Abreve" unicode="&#x102;" horiz-adv-x="1402" 
d="M37 0l530 1434h269l532 -1434h-233l-113 311h-645l-113 -311h-227zM436 1882h150q0 -61 30 -98t93 -37q61 0 91.5 37t30.5 98h150q0 -124 -71 -199t-201 -75t-201.5 75.5t-71.5 198.5zM446 510h506l-245 676h-15z" />
    <glyph glyph-name="abreve" unicode="&#x103;" horiz-adv-x="1323" 
d="M92 532q0 249 143 407.5t367 158.5q72 0 135 -20t105.5 -52t67.5 -58.5t42 -52.5h15v156h215v-1071h-211v152h-13q-127 -179 -346 -179q-231 0 -375.5 155t-144.5 404zM311 535q0 -166 91.5 -266.5t240.5 -100.5q150 0 240 105t90 262q0 169 -93.5 267.5t-238.5 98.5
q-146 0 -238 -102.5t-92 -263.5zM389 1516h150q0 -61 30 -98.5t93 -37.5q61 0 91.5 37.5t30.5 98.5h150q0 -124 -71 -199.5t-201 -75.5t-201.5 75.5t-71.5 199.5z" />
    <glyph glyph-name="Aogonek" unicode="&#x104;" horiz-adv-x="1402" 
d="M37 0l530 1434h269l532 -1434l-96 -115q-37 -40 -37 -75q0 -28 19.5 -43t50.5 -15h63v-149h-123q-79 0 -134.5 43.5t-55.5 122.5q0 75 67 151l66 80h-53l-113 311h-645l-113 -311h-227zM446 510h506l-245 676h-15z" />
    <glyph glyph-name="aogonek" unicode="&#x105;" horiz-adv-x="1323" 
d="M92 532q0 249 143 407.5t367 158.5q72 0 135 -20t105.5 -52t67.5 -58.5t42 -52.5h15v156h215v-1071l-97 -115q-36 -39 -36 -75q0 -28 19 -43t50 -15h64v-149h-121q-80 0 -136.5 43.5t-56.5 122.5q0 74 68 151l65 80h-30v152h-13q-127 -179 -346 -179q-231 0 -375.5 155
t-144.5 404zM311 535q0 -166 91.5 -266.5t240.5 -100.5q150 0 240 105t90 262q0 169 -93.5 267.5t-238.5 98.5q-146 0 -238 -102.5t-92 -263.5z" />
    <glyph glyph-name="Cacute" unicode="&#x106;" horiz-adv-x="1626" 
d="M94 717q0 156 56 293.5t154 236.5t236.5 156t297.5 57q257 0 440.5 -140t247.5 -370h-238q-47 141 -169 221t-281 80q-144 0 -262 -69.5t-185 -192t-67 -272.5q0 -231 147 -383t367 -152q159 0 280 79t170 220h242q-61 -230 -247.5 -369t-444.5 -139q-159 0 -298 56.5
t-236.5 155t-153.5 236.5t-56 296zM735 1612l115 284h227l-184 -284h-158z" />
    <glyph glyph-name="cacute" unicode="&#x107;" horiz-adv-x="1259" 
d="M92 535q0 157 70 285.5t197.5 203t287.5 74.5q193 0 337.5 -110t180.5 -292h-221q-28 92 -108.5 148.5t-186.5 56.5q-150 0 -243 -104t-93 -262q0 -159 95 -263t245 -104q103 0 184 56t109 147h219q-35 -181 -179 -289.5t-337 -108.5q-122 0 -226.5 43.5t-176.5 119
t-113 179t-41 220.5zM549 1245l115 285h227l-184 -285h-158z" />
    <glyph glyph-name="Cdotaccent" unicode="&#x10a;" horiz-adv-x="1626" 
d="M94 717q0 156 56 293.5t154 236.5t236.5 156t297.5 57q257 0 440.5 -140t247.5 -370h-238q-47 141 -169 221t-281 80q-144 0 -262 -69.5t-185 -192t-67 -272.5q0 -231 147 -383t367 -152q159 0 280 79t170 220h242q-61 -230 -247.5 -369t-444.5 -139q-159 0 -298 56.5
t-236.5 155t-153.5 236.5t-56 296zM700 1743q0 58 38.5 96.5t99.5 38.5q62 0 101.5 -38.5t39.5 -96.5q0 -60 -39 -98.5t-102 -38.5q-61 0 -99.5 38.5t-38.5 98.5z" />
    <glyph glyph-name="cdotaccent" unicode="&#x10b;" horiz-adv-x="1259" 
d="M92 535q0 157 70 285.5t197.5 203t287.5 74.5q193 0 337.5 -110t180.5 -292h-221q-28 92 -108.5 148.5t-186.5 56.5q-150 0 -243 -104t-93 -262q0 -159 95 -263t245 -104q103 0 184 56t109 147h219q-35 -181 -179 -289.5t-337 -108.5q-122 0 -226.5 43.5t-176.5 119
t-113 179t-41 220.5zM514 1376q0 58 38 96.5t99 38.5q62 0 102 -38.5t40 -96.5q0 -60 -39.5 -98.5t-102.5 -38.5q-61 0 -99 38.5t-38 98.5z" />
    <glyph glyph-name="Ccaron" unicode="&#x10c;" horiz-adv-x="1626" 
d="M94 717q0 156 56 293.5t154 236.5t236.5 156t297.5 57q257 0 440.5 -140t247.5 -370h-238q-47 141 -169 221t-281 80q-144 0 -262 -69.5t-185 -192t-67 -272.5q0 -231 147 -383t367 -152q159 0 280 79t170 220h242q-61 -230 -247.5 -369t-444.5 -139q-159 0 -298 56.5
t-236.5 155t-153.5 236.5t-56 296zM530 1892h175l120 -120h15l125 120h172l-201 -280h-205z" />
    <glyph glyph-name="ccaron" unicode="&#x10d;" horiz-adv-x="1259" 
d="M92 535q0 157 70 285.5t197.5 203t287.5 74.5q193 0 337.5 -110t180.5 -292h-221q-28 92 -108.5 148.5t-186.5 56.5q-150 0 -243 -104t-93 -262q0 -159 95 -263t245 -104q103 0 184 56t109 147h219q-35 -181 -179 -289.5t-337 -108.5q-122 0 -226.5 43.5t-176.5 119
t-113 179t-41 220.5zM344 1526h174l121 -121h14l125 121h172l-200 -281h-205z" />
    <glyph glyph-name="Dcaron" unicode="&#x10e;" horiz-adv-x="1458" 
d="M182 0v1434h455q224 0 389.5 -92t250.5 -252.5t85 -370.5q0 -335 -192 -527t-533 -192h-455zM344 1894h174l121 -120h14l125 120h172l-200 -280h-205zM403 193h230q228 0 366 136t138 390q0 246 -137.5 383t-366.5 137h-230v-1046z" />
    <glyph glyph-name="dcaron" unicode="&#x10f;" horiz-adv-x="1511" 
d="M92 532q0 249 143 407.5t367 158.5q72 0 135 -20t105.5 -52t67.5 -58.5t42 -52.5h15v621h215v-1536h-211v152h-13q-127 -179 -346 -179q-231 0 -375.5 155t-144.5 404zM311 535q0 -166 91.5 -266.5t240.5 -100.5q150 0 240 105t90 262q0 169 -93.5 267.5t-238.5 98.5
q-146 0 -238 -102.5t-92 -263.5zM1315 1149v387h211l-49 -387h-162z" />
    <glyph glyph-name="Dcroat" unicode="&#x110;" horiz-adv-x="1517" 
d="M152 633v176h120v625h433q224 0 387.5 -92t246 -252.5t82.5 -370.5q0 -336 -188 -527.5t-528 -191.5h-433v633h-120zM494 193h206q227 0 360.5 135.5t133.5 390.5q0 247 -133 383.5t-361 136.5h-206v-430h280v-176h-280v-440z" />
    <glyph glyph-name="dcroat" unicode="&#x111;" horiz-adv-x="1310" 
d="M92 532q0 249 143 407.5t367 158.5q72 0 135 -20t105.5 -52t67.5 -58.5t42 -52.5h15v291h-318v162h318v168h215v-168h116v-162h-116v-1206h-211v152h-13q-127 -179 -346 -179q-231 0 -375.5 155t-144.5 404zM311 535q0 -166 91.5 -266.5t240.5 -100.5q150 0 240 105
t90 262q0 169 -93.5 267.5t-238.5 98.5q-146 0 -238 -102.5t-92 -263.5z" />
    <glyph glyph-name="Emacron" unicode="&#x112;" horiz-adv-x="1148" 
d="M182 0v1434h850v-195h-629v-416h539v-192h-539v-438h650v-193h-871zM371 1655v168h522v-168h-522z" />
    <glyph glyph-name="emacron" unicode="&#x113;" horiz-adv-x="1243" 
d="M92 532q0 167 70 296.5t191.5 199.5t273.5 70q122 0 222 -43t165.5 -118t101 -175t35.5 -215v-80h-844q6 -141 95 -227t235 -86q102 0 182.5 46t112.5 124h209q-42 -158 -178.5 -254.5t-331.5 -96.5q-239 0 -389 157.5t-150 401.5zM311 633h627q-10 132 -97 208.5
t-214 76.5q-124 0 -214 -80t-102 -205zM367 1288v168h522v-168h-522z" />
    <glyph glyph-name="Edotaccent" unicode="&#x116;" horiz-adv-x="1148" 
d="M182 0v1434h850v-195h-629v-416h539v-192h-539v-438h650v-193h-871zM494 1743q0 58 38 96.5t99 38.5q62 0 101.5 -38.5t39.5 -96.5q0 -60 -39 -98.5t-102 -38.5q-61 0 -99 38.5t-38 98.5z" />
    <glyph glyph-name="edotaccent" unicode="&#x117;" horiz-adv-x="1243" 
d="M92 532q0 167 70 296.5t191.5 199.5t273.5 70q122 0 222 -43t165.5 -118t101 -175t35.5 -215v-80h-844q6 -141 95 -227t235 -86q102 0 182.5 46t112.5 124h209q-42 -158 -178.5 -254.5t-331.5 -96.5q-239 0 -389 157.5t-150 401.5zM311 633h627q-10 132 -97 208.5
t-214 76.5q-124 0 -214 -80t-102 -205zM489 1376q0 58 38.5 96.5t99.5 38.5q62 0 101.5 -38.5t39.5 -96.5q0 -60 -39 -98.5t-102 -38.5q-61 0 -99.5 38.5t-38.5 98.5z" />
    <glyph glyph-name="Eogonek" unicode="&#x118;" horiz-adv-x="1148" 
d="M182 0v1434h850v-195h-629v-416h539v-192h-539v-438h650v-193h2l-97 -115q-36 -39 -36 -75q0 -28 19 -43t50 -15h64v-149h-123q-79 0 -135 43.5t-56 122.5q0 74 68 151l65 80h-692z" />
    <glyph glyph-name="eogonek" unicode="&#x119;" horiz-adv-x="1243" 
d="M92 532q0 167 70 296.5t191.5 199.5t273.5 70q122 0 222 -43t165.5 -118t101 -175t35.5 -215v-80h-844q6 -141 95 -227t235 -86q102 0 182.5 46t112.5 124h209q-36 -133 -140 -223.5t-256 -116.5l-81 -99q-37 -40 -37 -75q0 -28 19 -43t50 -15h64v-149h-123
q-79 0 -135 43.5t-56 122.5q0 74 68 151l47 57q-211 23 -340 177t-129 378zM311 633h627q-10 132 -97 208.5t-214 76.5q-124 0 -214 -80t-102 -205z" />
    <glyph glyph-name="Ecaron" unicode="&#x11a;" horiz-adv-x="1148" 
d="M182 0v1434h850v-195h-629v-416h539v-192h-539v-438h650v-193h-871zM324 1892h174l120 -120h15l125 120h172l-201 -280h-205z" />
    <glyph glyph-name="ecaron" unicode="&#x11b;" horiz-adv-x="1243" 
d="M92 532q0 167 70 296.5t191.5 199.5t273.5 70q122 0 222 -43t165.5 -118t101 -175t35.5 -215v-80h-844q6 -141 95 -227t235 -86q102 0 182.5 46t112.5 124h209q-42 -158 -178.5 -254.5t-331.5 -96.5q-239 0 -389 157.5t-150 401.5zM311 633h627q-10 132 -97 208.5
t-214 76.5q-124 0 -214 -80t-102 -205zM319 1526h175l120 -121h15l125 121h172l-201 -281h-205z" />
    <glyph glyph-name="Gbreve" unicode="&#x11e;" horiz-adv-x="1662" 
d="M94 717q0 209 95 378.5t266.5 267t384.5 97.5q253 0 436.5 -135t249.5 -350h-244q-53 127 -167.5 201.5t-274.5 74.5q-229 0 -372.5 -151.5t-143.5 -382.5q0 -234 144 -385.5t374 -151.5q197 0 332 112t147 286h-516v186h762q3 -188 -52.5 -339.5t-154.5 -249.5
t-232 -150t-288 -52q-159 0 -298 56.5t-237.5 155t-154.5 236.5t-56 296zM571 1882h150q0 -61 30 -98t93 -37q62 0 92.5 37t30.5 98h149q0 -124 -71 -199t-201 -75t-201.5 75.5t-71.5 198.5z" />
    <glyph glyph-name="gbreve" unicode="&#x11f;" horiz-adv-x="1327" 
d="M92 537q0 249 143.5 405t364.5 156q73 0 136.5 -20t106 -51.5t68.5 -59t41 -52.5h15v156h215v-1067q0 -231 -141 -366.5t-394 -135.5q-207 0 -333 100.5t-146 254.5h199q19 -82 92.5 -128t187.5 -46q162 0 243 83.5t81 237.5v154h-15q-12 -18 -27 -36t-47 -46
t-67.5 -48.5t-90 -35.5t-114.5 -15q-227 0 -372.5 155.5t-145.5 404.5zM311 537q0 -166 91.5 -265.5t240.5 -99.5q150 0 240 104t90 261q0 169 -93.5 266.5t-238.5 97.5q-146 0 -238 -101.5t-92 -262.5zM387 1516h150q0 -61 29.5 -98.5t92.5 -37.5q62 0 92.5 37.5t30.5 98.5
h150q0 -124 -71.5 -199.5t-201.5 -75.5t-201 75.5t-71 199.5z" />
    <glyph glyph-name="Gdotaccent" unicode="&#x120;" horiz-adv-x="1662" 
d="M94 717q0 209 95 378.5t266.5 267t384.5 97.5q253 0 436.5 -135t249.5 -350h-244q-53 127 -167.5 201.5t-274.5 74.5q-229 0 -372.5 -151.5t-143.5 -382.5q0 -234 144 -385.5t374 -151.5q197 0 332 112t147 286h-516v186h762q3 -188 -52.5 -339.5t-154.5 -249.5
t-232 -150t-288 -52q-159 0 -298 56.5t-237.5 155t-154.5 236.5t-56 296zM713 1743q0 58 38 96.5t99 38.5q62 0 101.5 -38.5t39.5 -96.5q0 -60 -39 -98.5t-102 -38.5q-61 0 -99 38.5t-38 98.5z" />
    <glyph glyph-name="gdotaccent" unicode="&#x121;" horiz-adv-x="1327" 
d="M92 537q0 249 143.5 405t364.5 156q73 0 136.5 -20t106 -51.5t68.5 -59t41 -52.5h15v156h215v-1067q0 -231 -141 -366.5t-394 -135.5q-207 0 -333 100.5t-146 254.5h199q19 -82 92.5 -128t187.5 -46q162 0 243 83.5t81 237.5v154h-15q-12 -18 -27 -36t-47 -46
t-67.5 -48.5t-90 -35.5t-114.5 -15q-227 0 -372.5 155.5t-145.5 404.5zM311 537q0 -166 91.5 -265.5t240.5 -99.5q150 0 240 104t90 261q0 169 -93.5 266.5t-238.5 97.5q-146 0 -238 -101.5t-92 -262.5zM526 1376q0 58 38.5 96.5t99.5 38.5q62 0 101.5 -38.5t39.5 -96.5
q0 -60 -39 -98.5t-102 -38.5q-61 0 -99.5 38.5t-38.5 98.5z" />
    <glyph glyph-name="uni0122" unicode="&#x122;" horiz-adv-x="1662" 
d="M94 717q0 209 95 378.5t266.5 267t384.5 97.5q253 0 436.5 -135t249.5 -350h-244q-53 127 -167.5 201.5t-274.5 74.5q-229 0 -372.5 -151.5t-143.5 -382.5q0 -234 144 -385.5t374 -151.5q197 0 332 112t147 286h-516v186h762q3 -188 -52.5 -339.5t-154.5 -249.5
t-232 -150t-288 -52q-159 0 -298 56.5t-237.5 155t-154.5 236.5t-56 296zM715 -469l33 350h194l-80 -350h-147z" />
    <glyph glyph-name="uni0123" unicode="&#x123;" horiz-adv-x="1327" 
d="M92 537q0 249 143.5 405t364.5 156q73 0 136.5 -20t106 -51.5t68.5 -59t41 -52.5h15v156h215v-1067q0 -231 -141 -366.5t-394 -135.5q-207 0 -333 100.5t-146 254.5h199q19 -82 92.5 -128t187.5 -46q162 0 243 83.5t81 237.5v154h-15q-12 -18 -27 -36t-47 -46
t-67.5 -48.5t-90 -35.5t-114.5 -15q-227 0 -372.5 155.5t-145.5 404.5zM311 537q0 -166 91.5 -265.5t240.5 -99.5q150 0 240 104t90 261q0 169 -93.5 266.5t-238.5 97.5q-146 0 -238 -101.5t-92 -262.5zM530 1247l78 350h148l-33 -350h-193z" />
    <glyph glyph-name="Hcircumflex" unicode="&#x124;" horiz-adv-x="1503" 
d="M182 0v1434h221v-605h697v605h219v-1434h-219v625h-697v-625h-221zM455 1612l200 280h205l201 -280h-172l-125 119h-14l-121 -119h-174z" />
    <glyph glyph-name="hcircumflex" unicode="&#x125;" horiz-adv-x="1247" 
d="M-27 1616l201 280h205l201 -280h-172l-125 119h-15l-121 -119h-174zM168 0v1536h213v-608h14q37 72 120 121t196 49q179 0 287 -116.5t108 -293.5v-688h-215v647q0 110 -70.5 180t-173.5 70q-110 0 -187 -74.5t-77 -187.5v-635h-215z" />
    <glyph glyph-name="Hbar" unicode="&#x126;" horiz-adv-x="1720" 
d="M182 1063v176h111v195h219v-195h696v195h222v-195h106v-176h-106v-1063h-222v625h-696v-625h-219v1063h-111zM512 829h696v234h-696v-234z" />
    <glyph glyph-name="hbar" unicode="&#x127;" horiz-adv-x="1247" 
d="M37 1206v162h131v168h213v-168h305v-162h-305v-278h14q37 72 120 121t196 49q179 0 287 -116.5t108 -293.5v-688h-215v647q0 110 -70.5 180t-173.5 70q-110 0 -187 -74.5t-77 -187.5v-635h-215v1206h-131z" />
    <glyph glyph-name="Imacron" unicode="&#x12a;" horiz-adv-x="585" 
d="M41 1655v168h522v-168h-522zM182 0v1434h221v-1434h-221z" />
    <glyph glyph-name="imacron" unicode="&#x12b;" horiz-adv-x="524" 
d="M16 1288v168h523v-168h-523zM168 0v1071h215v-1071h-215z" />
    <glyph glyph-name="Iogonek" unicode="&#x12e;" horiz-adv-x="585" 
d="M90 -231q0 74 68 151l65 80h-41v1434h221v-1434l-96 -115q-37 -43 -37 -75q0 -28 19.5 -43t50.5 -15h63v-149h-120q-80 0 -136.5 43.5t-56.5 122.5z" />
    <glyph glyph-name="iogonek" unicode="&#x12f;" horiz-adv-x="520" 
d="M66 -231q0 71 67 151l66 80h-35v1071h215v-1071l-96 -115q-37 -43 -37 -75q0 -28 20 -43t51 -15h62v-149h-121q-79 0 -135.5 43.5t-56.5 122.5zM135 1376q0 58 39 96.5t100 38.5q62 0 101 -38.5t39 -96.5q0 -60 -38.5 -98.5t-101.5 -38.5q-61 0 -100 38.5t-39 98.5z" />
    <glyph glyph-name="Idotaccent" unicode="&#x130;" horiz-adv-x="585" 
d="M164 1743q0 58 38 96.5t99 38.5q62 0 101.5 -38.5t39.5 -96.5q0 -60 -39 -98.5t-102 -38.5q-61 0 -99 38.5t-38 98.5zM182 0v1434h221v-1434h-221z" />
    <glyph glyph-name="dotlessi" unicode="&#x131;" horiz-adv-x="524" 
d="M168 0v1071h215v-1071h-215z" />
    <glyph glyph-name="Jcircumflex" unicode="&#x134;" horiz-adv-x="1198" 
d="M74 410h215q3 -106 74 -170t188 -64q67 0 119 24t82.5 64.5t45.5 89.5t15 103v780h-520v197h741v-979q0 -100 -31 -186t-90 -153t-153 -105t-213 -38q-201 0 -335.5 116.5t-137.5 320.5zM354 1612l201 280h205l201 -280h-173l-124 119h-15l-121 -119h-174z" />
    <glyph glyph-name="jcircumflex" unicode="&#x135;" horiz-adv-x="624" 
d="M8 -279h76q86 0 135 50t49 133v1167h215v-1169q0 -172 -104.5 -272.5t-274.5 -100.5h-96v192zM68 1245l200 281h205l201 -281h-172l-125 119h-15l-120 -119h-174z" />
    <glyph glyph-name="uni0136" unicode="&#x136;" horiz-adv-x="1298" 
d="M182 0v1434h221v-662h13l549 662h272l-506 -592l526 -842h-264l-409 668l-181 -211v-457h-221zM547 -469l33 350h194l-80 -350h-147z" />
    <glyph glyph-name="uni0137" unicode="&#x137;" horiz-adv-x="1130" 
d="M168 0v1536h215v-922h12l406 457h268l-373 -405l400 -666h-244l-303 506l-166 -182v-324h-215zM471 -469l33 350h194l-80 -350h-147z" />
    <glyph glyph-name="kgreenlandic" unicode="&#x138;" horiz-adv-x="1130" 
d="M168 0v1071h215v-457h12l412 457h264l-375 -405l400 -666h-244l-303 504l-166 -180v-324h-215z" />
    <glyph glyph-name="Lacute" unicode="&#x139;" horiz-adv-x="1093" 
d="M182 0v1434h221v-1237h598v-197h-819zM201 1612l114 284h228l-185 -284h-157z" />
    <glyph glyph-name="lacute" unicode="&#x13a;" horiz-adv-x="618" 
d="M168 266v1270h215v-1257q0 -43 21 -66t61 -23h45v-190h-88q-121 0 -187.5 70t-66.5 196zM178 1616l115 285h227l-184 -285h-158z" />
    <glyph glyph-name="uni013B" unicode="&#x13b;" horiz-adv-x="1093" 
d="M182 0v1434h221v-1237h598v-197h-819zM463 -469l33 350h194l-80 -350h-147z" />
    <glyph glyph-name="uni013C" unicode="&#x13c;" horiz-adv-x="618" 
d="M168 266v1270h215v-1257q0 -43 21 -66t61 -23h45v-190h-88q-121 0 -187.5 70t-66.5 196zM225 -469l33 350h195l-80 -350h-148z" />
    <glyph glyph-name="Lcaron" unicode="&#x13d;" horiz-adv-x="1091" 
d="M182 0v1434h221v-1237h598v-197h-819zM700 1047v387h211l-49 -387h-162z" />
    <glyph glyph-name="lcaron" unicode="&#x13e;" horiz-adv-x="733" 
d="M168 266v1270h215v-1257q0 -43 21 -66t61 -23h45v-190h-88q-121 0 -187.5 70t-66.5 196zM518 1149v387h211l-49 -387h-162z" />
    <glyph glyph-name="Ldot" unicode="&#x13f;" horiz-adv-x="1228" 
d="M182 0v1434h221v-1237h598v-197h-819zM616 786q0 57 40 96.5t96 39.5q58 0 97.5 -39.5t39.5 -96.5t-39.5 -96t-97.5 -39q-56 0 -96 39t-40 96z" />
    <glyph glyph-name="ldot" unicode="&#x140;" horiz-adv-x="872" 
d="M168 266v1270h215v-1257q0 -43 21 -66t61 -23h45v-190h-88q-121 0 -187.5 70t-66.5 196zM518 791q0 56 39 94.5t96 38.5t96 -38.5t39 -94.5q0 -58 -39 -97t-96 -39t-96 39t-39 97z" />
    <glyph glyph-name="Lslash" unicode="&#x141;" horiz-adv-x="1116" 
d="M63 432v201l146 76v725h219v-611l356 185v-201l-356 -184v-426h600v-197h-819v508z" />
    <glyph glyph-name="lslash" unicode="&#x142;" horiz-adv-x="770" 
d="M66 555v201l143 78v702h215v-588l197 107v-201l-197 -106v-469q0 -43 22 -66t62 -23h45v-190h-88q-121 0 -188.5 70t-67.5 196v367z" />
    <glyph glyph-name="Nacute" unicode="&#x143;" horiz-adv-x="1509" 
d="M182 0v1434h236l680 -1061h12v1061h215v-1434h-238l-675 1061h-13v-1061h-217zM682 1612l115 284h227l-184 -284h-158z" />
    <glyph glyph-name="nacute" unicode="&#x144;" horiz-adv-x="1239" 
d="M168 0v1071h209v-143h14q35 72 118 121t196 49q179 0 286 -116t107 -294v-688h-215v647q0 111 -68.5 180.5t-171.5 69.5q-112 0 -186 -77.5t-74 -194.5v-625h-215zM563 1245l115 285h227l-184 -285h-158z" />
    <glyph glyph-name="uni0145" unicode="&#x145;" horiz-adv-x="1509" 
d="M182 0v1434h236l680 -1061h12v1061h215v-1434h-238l-675 1061h-13v-1061h-217zM604 -469l33 350h194l-79 -350h-148z" />
    <glyph glyph-name="uni0146" unicode="&#x146;" horiz-adv-x="1239" 
d="M168 0v1071h209v-143h14q35 72 118 121t196 49q179 0 286 -116t107 -294v-688h-215v647q0 111 -68.5 180.5t-171.5 69.5q-112 0 -186 -77.5t-74 -194.5v-625h-215zM510 -469l33 350h194l-80 -350h-147z" />
    <glyph glyph-name="Ncaron" unicode="&#x147;" horiz-adv-x="1509" 
d="M182 0v1434h236l680 -1061h12v1061h215v-1434h-238l-675 1061h-13v-1061h-217zM477 1892h174l121 -120h14l125 120h172l-200 -280h-205z" />
    <glyph glyph-name="ncaron" unicode="&#x148;" horiz-adv-x="1239" 
d="M168 0v1071h209v-143h14q35 72 118 121t196 49q179 0 286 -116t107 -294v-688h-215v647q0 111 -68.5 180.5t-171.5 69.5q-112 0 -186 -77.5t-74 -194.5v-625h-215zM358 1526h174l121 -121h15l125 121h172l-201 -281h-205z" />
    <glyph glyph-name="Eng" unicode="&#x14a;" horiz-adv-x="1509" 
d="M182 0v1434h226l690 -1035h12v1035h215v-1514q0 -180 -117.5 -285.5t-292.5 -105.5l3 195q93 0 141.5 55.5t48.5 140.5v105l-696 1040h-13v-1065h-217z" />
    <glyph glyph-name="eng" unicode="&#x14b;" horiz-adv-x="1239" 
d="M168 0v1071h209v-143h14q35 72 118 121t196 49q179 0 286 -116t107 -294v-786q0 -172 -104.5 -272.5t-274.5 -100.5h-123v192h102q89 0 137 49.5t48 133.5v743q0 111 -68.5 180.5t-171.5 69.5q-112 0 -186 -77.5t-74 -194.5v-625h-215z" />
    <glyph glyph-name="Omacron" unicode="&#x14c;" horiz-adv-x="1687" 
d="M94 717q0 125 36.5 239t104 205t159.5 158.5t207.5 104t242.5 36.5q212 0 383.5 -98t267.5 -268t96 -377q0 -156 -56.5 -294t-155.5 -236.5t-238.5 -156t-298.5 -57.5t-298 56.5t-237.5 155t-155.5 237t-57 295.5zM324 717q0 -231 147.5 -383t372.5 -152t372.5 152
t147.5 383q0 150 -66.5 272t-186 192t-267.5 70t-267.5 -70t-186 -192t-66.5 -272zM586 1655v168h522v-168h-522z" />
    <glyph glyph-name="omacron" unicode="&#x14d;" horiz-adv-x="1314" 
d="M92 535q0 159 72.5 288t202.5 202t292 73t291.5 -74t201 -202.5t71.5 -286.5t-72.5 -286.5t-202.5 -202t-291 -73.5q-246 0 -405.5 159.5t-159.5 402.5zM311 535q0 -160 97.5 -263.5t248.5 -103.5q152 0 249.5 104t97.5 263q0 160 -97.5 263t-249.5 103t-249 -103.5
t-97 -262.5zM403 1288v168h523v-168h-523z" />
    <glyph glyph-name="Ohungarumlaut" unicode="&#x150;" horiz-adv-x="1687" 
d="M94 717q0 125 36.5 239t104 205t159.5 158.5t207.5 104t242.5 36.5q212 0 383.5 -98t267.5 -268t96 -377q0 -156 -56.5 -294t-155.5 -236.5t-238.5 -156t-298.5 -57.5t-298 56.5t-237.5 155t-155.5 237t-57 295.5zM324 717q0 -231 147.5 -383t372.5 -152t372.5 152
t147.5 383q0 150 -66.5 272t-186 192t-267.5 70t-267.5 -70t-186 -192t-66.5 -272zM586 1612l108 299h228l-181 -299h-155zM907 1612l109 299h225l-178 -299h-156z" />
    <glyph glyph-name="ohungarumlaut" unicode="&#x151;" horiz-adv-x="1314" 
d="M92 535q0 159 72.5 288t202.5 202t292 73t291.5 -74t201 -202.5t71.5 -286.5t-72.5 -286.5t-202.5 -202t-291 -73.5q-246 0 -405.5 159.5t-159.5 402.5zM311 535q0 -160 97.5 -263.5t248.5 -103.5q152 0 249.5 104t97.5 263q0 160 -97.5 263t-249.5 103t-249 -103.5
t-97 -262.5zM403 1245l109 299h227l-180 -299h-156zM725 1245l109 299h225l-178 -299h-156z" />
    <glyph glyph-name="OE" unicode="&#x152;" horiz-adv-x="2250" 
d="M94 717q0 125 36.5 239t104 205t159.5 158.5t207.5 104t242.5 36.5q101 0 203 -26h1087v-195h-764q85 -81 138.5 -188t66.5 -228h489v-192h-485q-24 -264 -211 -438h789v-193h-1110q-111 -27 -205 -27q-159 0 -298 56.5t-237.5 155t-155.5 237t-57 295.5zM324 717
q0 -231 147.5 -383t372.5 -152q220 0 366 152.5t146 382.5q0 228 -146.5 381t-365.5 153q-148 0 -267.5 -70t-186 -192t-66.5 -272z" />
    <glyph glyph-name="oe" unicode="&#x153;" horiz-adv-x="2160" 
d="M92 535q0 159 72.5 288t202.5 202t292 73q143 0 259.5 -57t191.5 -158q72 102 185 158.5t247 56.5q122 0 222 -43t165.5 -118t101 -175t35.5 -215v-80h-843q6 -141 94.5 -227t234.5 -86q103 0 183.5 46t111.5 124h209q-42 -158 -178.5 -254.5t-331.5 -96.5
q-139 0 -251.5 57t-184.5 158q-76 -102 -193.5 -158.5t-259.5 -56.5q-246 0 -405.5 159.5t-159.5 402.5zM311 535q0 -160 97.5 -263.5t248.5 -103.5q152 0 249.5 104t97.5 263q0 160 -97.5 263t-249.5 103t-249 -103.5t-97 -262.5zM1227 633h628q-10 132 -98 208.5
t-217 76.5q-123 0 -212 -80t-101 -205z" />
    <glyph glyph-name="Racute" unicode="&#x154;" horiz-adv-x="1298" 
d="M182 0v1434h512q218 0 350 -122.5t132 -318.5q0 -148 -80.5 -259t-204.5 -156l326 -578h-250l-293 545h-271v-545h-221zM403 737h281q118 0 191 66t73 190q0 109 -71.5 179.5t-200.5 70.5h-273v-506zM526 1612l115 284h227l-184 -284h-158z" />
    <glyph glyph-name="racute" unicode="&#x155;" horiz-adv-x="849" 
d="M168 0v1071h207v-186h14q28 74 105 131t182 57h94v-209h-100q-134 0 -210.5 -92t-76.5 -244v-528h-215zM395 1245l115 285h227l-184 -285h-158z" />
    <glyph glyph-name="uni0156" unicode="&#x156;" horiz-adv-x="1298" 
d="M182 0v1434h512q218 0 350 -122.5t132 -318.5q0 -148 -80.5 -259t-204.5 -156l326 -578h-250l-293 545h-271v-545h-221zM403 737h281q118 0 191 66t73 190q0 109 -71.5 179.5t-200.5 70.5h-273v-506zM537 -469l32 350h195l-80 -350h-147z" />
    <glyph glyph-name="uni0157" unicode="&#x157;" horiz-adv-x="849" 
d="M168 0v1071h207v-186h14q28 74 105 131t182 57h94v-209h-100q-134 0 -210.5 -92t-76.5 -244v-528h-215zM299 -469l33 350h194l-80 -350h-147z" />
    <glyph glyph-name="Rcaron" unicode="&#x158;" horiz-adv-x="1298" 
d="M182 0v1434h512q218 0 350 -122.5t132 -318.5q0 -148 -80.5 -259t-204.5 -156l326 -578h-250l-293 545h-271v-545h-221zM322 1892h174l120 -120h15l125 120h172l-201 -280h-205zM403 737h281q118 0 191 66t73 190q0 109 -71.5 179.5t-200.5 70.5h-273v-506z" />
    <glyph glyph-name="rcaron" unicode="&#x159;" horiz-adv-x="849" 
d="M168 0v1071h207v-186h14q28 74 105 131t182 57h94v-209h-100q-134 0 -210.5 -92t-76.5 -244v-528h-215zM190 1526h175l120 -121h15l125 121h172l-201 -281h-205z" />
    <glyph glyph-name="Sacute" unicode="&#x15a;" horiz-adv-x="1218" 
d="M80 440h215q2 -114 89 -189t232 -75q129 0 207 55.5t78 151.5q0 62 -26.5 106t-71.5 69.5t-103 43.5t-122.5 33t-129 32.5t-122.5 47t-103 72t-71.5 112.5t-26.5 162q0 169 129.5 284t349.5 115q94 0 179.5 -26t156 -76.5t113 -135t43.5 -192.5h-224q0 107 -70.5 169.5
t-199.5 62.5q-125 0 -191.5 -57t-66.5 -140q0 -55 27 -94.5t72 -62.5t104 -40t124 -32.5t130 -34t124 -49.5t104 -74.5t72 -114.5t27 -164q0 -186 -139.5 -306t-380.5 -120q-231 0 -379.5 130.5t-148.5 336.5zM506 1612l115 284h227l-184 -284h-158z" />
    <glyph glyph-name="sacute" unicode="&#x15b;" horiz-adv-x="1085" 
d="M106 317h203q21 -167 234 -167q104 0 161.5 42.5t57.5 114.5q0 53 -34.5 85.5t-90 48t-122.5 26.5t-133.5 29t-122 48t-90 90.5t-34.5 149.5q0 137 112 225.5t294 88.5q165 0 276 -86t123 -236h-197q-9 70 -63 110t-148 40q-89 0 -142.5 -38.5t-53.5 -99.5
q0 -42 27.5 -70t72 -40t101.5 -23.5t116.5 -20.5t116.5 -31t101.5 -53.5t72 -91.5t27.5 -141q0 -154 -117.5 -249t-316.5 -95t-309.5 92.5t-121.5 251.5zM438 1245l115 285h227l-184 -285h-158z" />
    <glyph glyph-name="Scedilla" unicode="&#x15e;" horiz-adv-x="1218" 
d="M80 440h215q2 -114 89 -189t232 -75q129 0 207 55.5t78 151.5q0 62 -26.5 106t-71.5 69.5t-103 43.5t-122.5 33t-129 32.5t-122.5 47t-103 72t-71.5 112.5t-26.5 162q0 169 129.5 284t349.5 115q94 0 179.5 -26t156 -76.5t113 -135t43.5 -192.5h-224q0 107 -70.5 169.5
t-199.5 62.5q-125 0 -191.5 -57t-66.5 -140q0 -55 27 -94.5t72 -62.5t104 -40t124 -32.5t130 -34t124 -49.5t104 -74.5t72 -114.5t27 -164q0 -180 -133.5 -300t-363.5 -126l-21 -79h13q22 18 61 18q67 0 110.5 -46.5t43.5 -113.5q0 -74 -53 -123t-138 -49q-73 0 -126 42
t-54 112h121q3 -21 20 -33t39 -12q29 0 47.5 17.5t18.5 47.5q0 28 -19.5 46t-46.5 18q-39 0 -53 -31l-117 2l35 191q-194 28 -313 152.5t-119 307.5z" />
    <glyph glyph-name="scedilla" unicode="&#x15f;" horiz-adv-x="1085" 
d="M106 317h203q21 -167 234 -167q104 0 161.5 42.5t57.5 114.5q0 53 -34.5 85.5t-90 48t-122.5 26.5t-133.5 29t-122 48t-90 90.5t-34.5 149.5q0 137 112 225.5t294 88.5q165 0 276 -86t123 -236h-197q-9 70 -63 110t-148 40q-89 0 -142.5 -38.5t-53.5 -99.5
q0 -42 27.5 -70t72 -40t101.5 -23.5t116.5 -20.5t116.5 -31t101.5 -53.5t72 -91.5t27.5 -141q0 -151 -112 -245.5t-304 -98.5l-20 -79h12q22 18 61 18q65 0 108.5 -46.5t43.5 -113.5q0 -75 -52.5 -123.5t-138.5 -48.5q-72 0 -124.5 42.5t-53.5 111.5h121q1 -21 18.5 -33
t40.5 -12q27 0 45.5 17.5t18.5 47.5q0 29 -19 46.5t-47 17.5q-15 0 -30 -9t-21 -22l-117 2l35 191q-153 23 -237 111t-93 226z" />
    <glyph glyph-name="Scaron" unicode="&#x160;" horiz-adv-x="1218" 
d="M80 440h215q2 -114 89 -189t232 -75q129 0 207 55.5t78 151.5q0 62 -26.5 106t-71.5 69.5t-103 43.5t-122.5 33t-129 32.5t-122.5 47t-103 72t-71.5 112.5t-26.5 162q0 169 129.5 284t349.5 115q94 0 179.5 -26t156 -76.5t113 -135t43.5 -192.5h-224q0 107 -70.5 169.5
t-199.5 62.5q-125 0 -191.5 -57t-66.5 -140q0 -55 27 -94.5t72 -62.5t104 -40t124 -32.5t130 -34t124 -49.5t104 -74.5t72 -114.5t27 -164q0 -186 -139.5 -306t-380.5 -120q-231 0 -379.5 130.5t-148.5 336.5zM303 1892h174l121 -120h14l125 120h172l-200 -280h-205z" />
    <glyph glyph-name="scaron" unicode="&#x161;" horiz-adv-x="1085" 
d="M106 317h203q21 -167 234 -167q104 0 161.5 42.5t57.5 114.5q0 53 -34.5 85.5t-90 48t-122.5 26.5t-133.5 29t-122 48t-90 90.5t-34.5 149.5q0 137 112 225.5t294 88.5q165 0 276 -86t123 -236h-197q-9 70 -63 110t-148 40q-89 0 -142.5 -38.5t-53.5 -99.5
q0 -42 27.5 -70t72 -40t101.5 -23.5t116.5 -20.5t116.5 -31t101.5 -53.5t72 -91.5t27.5 -141q0 -154 -117.5 -249t-316.5 -95t-309.5 92.5t-121.5 251.5zM233 1526h175l120 -121h15l125 121h172l-201 -281h-205z" />
    <glyph glyph-name="uni0162" unicode="&#x162;" horiz-adv-x="1189" 
d="M59 1237v197h1071v-197h-425v-1237h-62l-27 -106h13q22 18 61 18q65 0 108.5 -46.5t43.5 -113.5q0 -74 -53 -123t-138 -49q-72 0 -124.5 42.5t-53.5 111.5h119q3 -21 20.5 -33t40.5 -12q27 0 45.5 17.5t18.5 47.5q0 29 -19 46.5t-47 17.5q-15 0 -30.5 -9t-22.5 -22
l-115 2l37 211h-35v1237h-426z" />
    <glyph glyph-name="uni0163" unicode="&#x163;" horiz-adv-x="886" 
d="M80 895v174h141q28 0 46 19t18 51v235h202v-303h312v-176h-312v-549q0 -164 156 -164h145v-182h-176l-26 -106h12q22 18 61 18q67 0 110.5 -46.5t43.5 -113.5q0 -75 -52.5 -123.5t-137.5 -48.5q-74 0 -127 42t-54 112h121q3 -21 20.5 -33t39.5 -12q28 0 46.5 17.5
t18.5 47.5q0 29 -18.5 46.5t-46.5 17.5q-17 0 -32.5 -9t-21.5 -22l-116 2l41 225q-107 28 -164.5 111t-57.5 215v555h-192z" />
    <glyph glyph-name="Tcaron" unicode="&#x164;" horiz-adv-x="1189" 
d="M59 1237v197h1071v-197h-425v-1237h-220v1237h-426zM303 1892h174l121 -120h14l125 120h172l-200 -280h-205z" />
    <glyph glyph-name="tcaron" unicode="&#x165;" horiz-adv-x="886" 
d="M80 895v174h141q28 0 46 19t18 51v235h202v-303h312v-176h-312v-549q0 -164 156 -164h145v-182h-178q-160 0 -249 87.5t-89 252.5v555h-192zM698 1165v385h211l-49 -385h-162z" />
    <glyph glyph-name="Tbar" unicode="&#x166;" horiz-adv-x="1134" 
d="M59 1237v197h1071v-197h-425v-389h266v-174h-266v-674h-220v674h-321v174h321v389h-426z" />
    <glyph glyph-name="tbar" unicode="&#x167;" horiz-adv-x="886" 
d="M80 895v174h141q28 0 46 19t18 51v235h202v-303h312v-176h-312v-180h283v-162h-283v-207q0 -164 156 -164h145v-182h-178q-160 0 -249 87.5t-89 252.5v213h-184v162h184v180h-192z" />
    <glyph glyph-name="Umacron" unicode="&#x16a;" horiz-adv-x="1431" 
d="M164 524v910h221v-908q0 -163 85.5 -255.5t246.5 -92.5q160 0 246 93t86 257v906h219v-908q0 -250 -148.5 -401.5t-402.5 -151.5q-258 0 -405.5 150t-147.5 401zM455 1655v168h522v-168h-522z" />
    <glyph glyph-name="umacron" unicode="&#x16b;" horiz-adv-x="1228" 
d="M152 383v688h215v-649q0 -112 68 -181t171 -69q113 0 186.5 76.5t73.5 193.5v629h215v-1071h-209v143h-14q-35 -72 -117.5 -121t-195.5 -49q-179 0 -286 116t-107 294zM360 1288v168h523v-168h-523z" />
    <glyph glyph-name="Uring" unicode="&#x16e;" horiz-adv-x="1431" 
d="M164 524v910h221v-908q0 -163 85.5 -255.5t246.5 -92.5q160 0 246 93t86 257v906h219v-908q0 -250 -148.5 -401.5t-402.5 -151.5q-258 0 -405.5 150t-147.5 401zM514 1743q0 83 56 136.5t141 53.5q87 0 142.5 -53t55.5 -135q0 -83 -55.5 -137t-140.5 -54
q-86 0 -142.5 53.5t-56.5 135.5zM633 1743q0 -36 22 -58t58 -22q35 0 56.5 22.5t21.5 59.5q0 35 -21.5 56.5t-58.5 21.5q-35 0 -56.5 -21.5t-21.5 -58.5z" />
    <glyph glyph-name="uring" unicode="&#x16f;" horiz-adv-x="1228" 
d="M152 383v688h215v-649q0 -112 68 -181t171 -69q113 0 186.5 76.5t73.5 193.5v629h215v-1071h-209v143h-14q-35 -72 -117.5 -121t-195.5 -49q-179 0 -286 116t-107 294zM418 1376q0 83 55.5 137t140.5 54q87 0 143 -53.5t56 -135.5q0 -83 -56 -136.5t-141 -53.5
q-86 0 -142 53t-56 135zM537 1376q0 -36 21.5 -58t57.5 -22q35 0 56.5 22.5t21.5 59.5q0 35 -21.5 56.5t-58.5 21.5q-35 0 -56 -21.5t-21 -58.5z" />
    <glyph glyph-name="Uhungarumlaut" unicode="&#x170;" horiz-adv-x="1431" 
d="M164 524v910h221v-908q0 -163 85.5 -255.5t246.5 -92.5q160 0 246 93t86 257v906h219v-908q0 -250 -148.5 -401.5t-402.5 -151.5q-258 0 -405.5 150t-147.5 401zM457 1612l108 299h228l-181 -299h-155zM778 1612l109 299h225l-178 -299h-156z" />
    <glyph glyph-name="uhungarumlaut" unicode="&#x171;" horiz-adv-x="1228" 
d="M152 383v688h215v-649q0 -112 68 -181t171 -69q113 0 186.5 76.5t73.5 193.5v629h215v-1071h-209v143h-14q-35 -72 -117.5 -121t-195.5 -49q-179 0 -286 116t-107 294zM360 1245l109 299h227l-180 -299h-156zM682 1245l109 299h225l-178 -299h-156z" />
    <glyph glyph-name="Uogonek" unicode="&#x172;" horiz-adv-x="1431" 
d="M164 524v910h221v-908q0 -163 85.5 -255.5t246.5 -92.5q160 0 246 93t86 257v906h219v-908q0 -211 -107.5 -354t-298.5 -184l-86 -103q-37 -43 -37 -75q0 -28 20.5 -43t51.5 -15h61v-149h-120q-79 0 -136 43.5t-57 122.5q0 70 68 151l45 55q-239 13 -373.5 161.5
t-134.5 387.5z" />
    <glyph glyph-name="uogonek" unicode="&#x173;" horiz-adv-x="1228" 
d="M152 383v688h215v-649q0 -112 68 -181t171 -69q113 0 186.5 76.5t73.5 193.5v629h215v-1071l-96 -115q-37 -43 -37 -75q0 -28 20.5 -43t51.5 -15h61v-149h-120q-79 0 -136 43.5t-57 122.5q0 70 68 151l65 80h-29v143h-14q-35 -72 -117.5 -121t-195.5 -49q-179 0 -286 116
t-107 294z" />
    <glyph glyph-name="Wcircumflex" unicode="&#x174;" horiz-adv-x="1947" 
d="M37 1434h237l265 -1129h14l285 1129h272l287 -1129h12l264 1129h240l-369 -1434h-272l-291 1128h-14l-291 -1128h-270zM676 1612l201 280h204l201 -280h-172l-125 119h-14l-121 -119h-174z" />
    <glyph glyph-name="wcircumflex" unicode="&#x175;" horiz-adv-x="1775" 
d="M57 1071h228l219 -817h14l256 817h227l254 -817h15l219 817h229l-317 -1071h-258l-250 795h-12l-252 -795h-256zM588 1245l200 281h205l201 -281h-172l-125 119h-14l-121 -119h-174z" />
    <glyph glyph-name="Ycircumflex" unicode="&#x176;" horiz-adv-x="1318" 
d="M37 1434h239l375 -658h15l370 658h248l-512 -881v-553h-221v553zM356 1612l201 280h205l201 -280h-172l-125 119h-15l-121 -119h-174z" />
    <glyph glyph-name="ycircumflex" unicode="&#x177;" horiz-adv-x="1177" 
d="M51 1071h234l297 -827h14l295 827h235l-491 -1284q-48 -129 -130.5 -193.5t-221.5 -64.5h-121v192h94q137 0 188 132l39 102zM293 1245l201 281h204l201 -281h-172l-125 119h-14l-121 -119h-174z" />
    <glyph glyph-name="Ydieresis" unicode="&#x178;" horiz-adv-x="1318" 
d="M37 1434h239l375 -658h15l370 658h248l-512 -881v-553h-221v553zM348 1749q0 53 36 89t89 36q56 0 90.5 -35.5t34.5 -89.5q0 -55 -34.5 -90t-90.5 -35q-53 0 -89 35.5t-36 89.5zM713 1749q0 55 34.5 90t90.5 35q53 0 90 -36.5t37 -88.5q0 -53 -37 -89t-90 -36
q-56 0 -90.5 35t-34.5 90z" />
    <glyph glyph-name="Zacute" unicode="&#x179;" horiz-adv-x="1271" 
d="M98 0v205l803 1022v14h-778v193h1046v-205l-804 -1022v-14h809v-193h-1076zM530 1612l115 284h227l-184 -284h-158z" />
    <glyph glyph-name="zacute" unicode="&#x17a;" horiz-adv-x="1064" 
d="M113 0v186l557 691v14h-539v180h809v-180l-557 -694v-15h567v-182h-837zM430 1245l115 285h227l-184 -285h-158z" />
    <glyph glyph-name="Zdotaccent" unicode="&#x17b;" horiz-adv-x="1271" 
d="M98 0v205l803 1022v14h-778v193h1046v-205l-804 -1022v-14h809v-193h-1076zM496 1743q0 58 38 96.5t99 38.5q62 0 101.5 -38.5t39.5 -96.5q0 -60 -39 -98.5t-102 -38.5q-61 0 -99 38.5t-38 98.5z" />
    <glyph glyph-name="zdotaccent" unicode="&#x17c;" horiz-adv-x="1064" 
d="M113 0v186l557 691v14h-539v180h809v-180l-557 -694v-15h567v-182h-837zM395 1376q0 58 38 96.5t99 38.5q62 0 102 -38.5t40 -96.5q0 -60 -39.5 -98.5t-102.5 -38.5q-61 0 -99 38.5t-38 98.5z" />
    <glyph glyph-name="Zcaron" unicode="&#x17d;" horiz-adv-x="1271" 
d="M98 0v205l803 1022v14h-778v193h1046v-205l-804 -1022v-14h809v-193h-1076zM326 1892h174l121 -120h14l125 120h172l-201 -280h-205z" />
    <glyph glyph-name="zcaron" unicode="&#x17e;" horiz-adv-x="1064" 
d="M113 0v186l557 691v14h-539v180h809v-180l-557 -694v-15h567v-182h-837zM227 1526h174l121 -121h15l125 121h172l-201 -281h-205z" />
    <glyph glyph-name="florin" unicode="&#x192;" horiz-adv-x="1060" 
d="M131 739v174h258l57 312q28 155 132 233t251 78h136l-23 -184h-92q-166 0 -199 -170l-49 -269h270v-174h-305l-211 -1134h-209l209 1134h-225z" />
    <glyph glyph-name="uni0218" unicode="&#x218;" horiz-adv-x="1218" 
d="M80 440h215q2 -114 89 -189t232 -75q129 0 207 55.5t78 151.5q0 62 -26.5 106t-71.5 69.5t-103 43.5t-122.5 33t-129 32.5t-122.5 47t-103 72t-71.5 112.5t-26.5 162q0 169 129.5 284t349.5 115q94 0 179.5 -26t156 -76.5t113 -135t43.5 -192.5h-224q0 107 -70.5 169.5
t-199.5 62.5q-125 0 -191.5 -57t-66.5 -140q0 -55 27 -94.5t72 -62.5t104 -40t124 -32.5t130 -34t124 -49.5t104 -74.5t72 -114.5t27 -164q0 -186 -139.5 -306t-380.5 -120q-231 0 -379.5 130.5t-148.5 336.5zM492 -469l32 350h195l-80 -350h-147z" />
    <glyph glyph-name="uni0219" unicode="&#x219;" horiz-adv-x="1085" 
d="M106 317h203q21 -167 234 -167q104 0 161.5 42.5t57.5 114.5q0 53 -34.5 85.5t-90 48t-122.5 26.5t-133.5 29t-122 48t-90 90.5t-34.5 149.5q0 137 112 225.5t294 88.5q165 0 276 -86t123 -236h-197q-9 70 -63 110t-148 40q-89 0 -142.5 -38.5t-53.5 -99.5
q0 -42 27.5 -70t72 -40t101.5 -23.5t116.5 -20.5t116.5 -31t101.5 -53.5t72 -91.5t27.5 -141q0 -154 -117.5 -249t-316.5 -95t-309.5 92.5t-121.5 251.5zM416 -469l33 350h194l-80 -350h-147z" />
    <glyph glyph-name="uni021A" unicode="&#x21a;" horiz-adv-x="1189" 
d="M59 1237v197h1071v-197h-425v-1237h-220v1237h-426zM463 -469l33 350h194l-80 -350h-147z" />
    <glyph glyph-name="uni021B" unicode="&#x21b;" horiz-adv-x="886" 
d="M80 895v174h141q28 0 46 19t18 51v235h202v-303h312v-176h-312v-549q0 -164 156 -164h145v-182h-178q-160 0 -249 87.5t-89 252.5v555h-192zM432 -469l33 350h194l-79 -350h-148z" />
    <glyph glyph-name="uni0237" unicode="&#x237;" horiz-adv-x="624" 
d="M8 -279h76q86 0 135 50t49 133v1167h215v-1169q0 -172 -104.5 -272.5t-274.5 -100.5h-96v192z" />
    <glyph glyph-name="circumflex" unicode="&#x2c6;" horiz-adv-x="790" 
d="M92 1245l201 281h205l200 -281h-172l-125 119h-14l-121 -119h-174z" />
    <glyph glyph-name="caron" unicode="&#x2c7;" horiz-adv-x="790" 
d="M92 1526h174l121 -121h14l125 121h172l-200 -281h-205z" />
    <glyph glyph-name="breve" unicode="&#x2d8;" horiz-adv-x="741" 
d="M98 1516h150q0 -61 30 -98.5t93 -37.5q62 0 92.5 37.5t30.5 98.5h149q0 -124 -71 -199.5t-201 -75.5t-201.5 75.5t-71.5 199.5z" />
    <glyph glyph-name="dotaccent" unicode="&#x2d9;" horiz-adv-x="477" 
d="M100 1376q0 58 38.5 96.5t99.5 38.5q62 0 101.5 -38.5t39.5 -96.5q0 -60 -39 -98.5t-102 -38.5q-61 0 -99.5 38.5t-38.5 98.5z" />
    <glyph glyph-name="ring" unicode="&#x2da;" horiz-adv-x="583" 
d="M94 1376q0 83 56 137t141 54q87 0 142.5 -53.5t55.5 -135.5q0 -83 -55.5 -136.5t-140.5 -53.5q-86 0 -142.5 53t-56.5 135zM213 1376q0 -36 22 -58t58 -22q35 0 56.5 22.5t21.5 59.5q0 35 -21.5 56.5t-58.5 21.5q-35 0 -56.5 -21.5t-21.5 -58.5z" />
    <glyph glyph-name="ogonek" unicode="&#x2db;" horiz-adv-x="507" 
d="M98 -231q0 74 68 151l65 80h181l-97 -115q-36 -39 -36 -75q0 -28 19 -43t50 -15h64v-149h-123q-79 0 -135 43.5t-56 122.5z" />
    <glyph glyph-name="tilde" unicode="&#x2dc;" horiz-adv-x="872" 
d="M94 1249q0 125 59 192.5t152 67.5q47 0 95 -25.5t88 -51t69 -25.5q73 0 76 102h145q0 -124 -57.5 -193t-149.5 -69q-37 0 -75 16t-63.5 35.5t-57.5 35.5t-58 16q-72 0 -75 -101h-148z" />
    <glyph glyph-name="hungarumlaut" unicode="&#x2dd;" horiz-adv-x="849" 
d="M98 1245l109 299h227l-180 -299h-156zM420 1245l108 299h226l-179 -299h-155z" />
    <glyph glyph-name="uni0326" unicode="&#x326;" horiz-adv-x="0" 
d="M-319 -469l32 350h195l-80 -350h-147z" />
    <glyph glyph-name="Wgrave" unicode="&#x1e80;" horiz-adv-x="1947" 
d="M37 1434h237l265 -1129h14l285 1129h272l287 -1129h12l264 1129h240l-369 -1434h-272l-291 1128h-14l-291 -1128h-270zM745 1896h228l114 -284h-157z" />
    <glyph glyph-name="wgrave" unicode="&#x1e81;" horiz-adv-x="1775" 
d="M57 1071h228l219 -817h14l256 817h227l254 -817h15l219 817h229l-317 -1071h-258l-250 795h-12l-252 -795h-256zM657 1530h228l114 -285h-157z" />
    <glyph glyph-name="Wacute" unicode="&#x1e82;" horiz-adv-x="1947" 
d="M37 1434h237l265 -1129h14l285 1129h272l287 -1129h12l264 1129h240l-369 -1434h-272l-291 1128h-14l-291 -1128h-270zM881 1612l114 284h228l-185 -284h-157z" />
    <glyph glyph-name="wacute" unicode="&#x1e83;" horiz-adv-x="1775" 
d="M57 1071h228l219 -817h14l256 817h227l254 -817h15l219 817h229l-317 -1071h-258l-250 795h-12l-252 -795h-256zM793 1245l114 285h228l-185 -285h-157z" />
    <glyph glyph-name="Wdieresis" unicode="&#x1e84;" horiz-adv-x="1947" 
d="M37 1434h237l265 -1129h14l285 1129h272l287 -1129h12l264 1129h240l-369 -1434h-272l-291 1128h-14l-291 -1128h-270zM668 1749q0 53 36 89t89 36q56 0 90.5 -35.5t34.5 -89.5q0 -55 -34.5 -90t-90.5 -35q-53 0 -89 35.5t-36 89.5zM1032 1749q0 55 34.5 90t90.5 35
q53 0 90 -36.5t37 -88.5q0 -53 -37 -89t-90 -36q-56 0 -90.5 35t-34.5 90z" />
    <glyph glyph-name="wdieresis" unicode="&#x1e85;" horiz-adv-x="1775" 
d="M57 1071h228l219 -817h14l256 817h227l254 -817h15l219 817h229l-317 -1071h-258l-250 795h-12l-252 -795h-256zM580 1382q0 52 36 88.5t89 36.5q56 0 90 -35.5t34 -89.5q0 -55 -34 -90t-90 -35q-53 0 -89 35.5t-36 89.5zM944 1382q0 55 34.5 90t90.5 35q53 0 90 -36.5
t37 -88.5q0 -53 -37 -89t-90 -36q-56 0 -90.5 35t-34.5 90z" />
    <glyph glyph-name="uni1E9E" unicode="&#x1e9e;" horiz-adv-x="1406" 
d="M182 0v991q0 91 29.5 170t86 140.5t148 97t207.5 35.5h531v-215l-334 -349v-20l49 -2q177 -3 297.5 -120t120.5 -302q0 -110 -56.5 -207.5t-159 -158t-224.5 -60.5h-320v199h301q99 0 166.5 65.5t67.5 161.5q0 97 -68 164t-166 67h-258v217l322 345v20h-254
q-130 0 -197.5 -72.5t-67.5 -183.5v-983h-221z" />
    <glyph glyph-name="Ygrave" unicode="&#x1ef2;" horiz-adv-x="1318" 
d="M37 1434h239l375 -658h15l370 658h248l-512 -881v-553h-221v553zM428 1896h227l115 -284h-158z" />
    <glyph glyph-name="ygrave" unicode="&#x1ef3;" horiz-adv-x="1177" 
d="M51 1071h234l297 -827h14l295 827h235l-491 -1284q-48 -129 -130.5 -193.5t-221.5 -64.5h-121v192h94q137 0 188 132l39 102zM362 1530h228l115 -285h-158z" />
    <glyph glyph-name="uni2000" unicode="&#x2000;" horiz-adv-x="966" 
 />
    <glyph glyph-name="uni2001" unicode="&#x2001;" horiz-adv-x="1933" 
 />
    <glyph glyph-name="uni2002" unicode="&#x2002;" horiz-adv-x="966" 
 />
    <glyph glyph-name="uni2003" unicode="&#x2003;" horiz-adv-x="1933" 
 />
    <glyph glyph-name="uni2004" unicode="&#x2004;" horiz-adv-x="644" 
 />
    <glyph glyph-name="uni2005" unicode="&#x2005;" horiz-adv-x="483" 
 />
    <glyph glyph-name="uni2006" unicode="&#x2006;" horiz-adv-x="322" 
 />
    <glyph glyph-name="uni2007" unicode="&#x2007;" horiz-adv-x="322" 
 />
    <glyph glyph-name="uni2008" unicode="&#x2008;" horiz-adv-x="241" 
 />
    <glyph glyph-name="uni2009" unicode="&#x2009;" horiz-adv-x="386" 
 />
    <glyph glyph-name="uni200A" unicode="&#x200a;" horiz-adv-x="107" 
 />
    <glyph glyph-name="uni2010" unicode="&#x2010;" horiz-adv-x="800" 
d="M129 524v191h543v-191h-543z" />
    <glyph glyph-name="uni2011" unicode="&#x2011;" horiz-adv-x="800" 
d="M129 524v191h543v-191h-543z" />
    <glyph glyph-name="figuredash" unicode="&#x2012;" horiz-adv-x="800" 
d="M129 524v191h543v-191h-543z" />
    <glyph glyph-name="endash" unicode="&#x2013;" horiz-adv-x="1341" 
d="M129 528v183h1083v-183h-1083z" />
    <glyph glyph-name="emdash" unicode="&#x2014;" horiz-adv-x="1873" 
d="M129 528v183h1618v-183h-1618z" />
    <glyph glyph-name="quoteleft" unicode="&#x2018;" horiz-adv-x="524" 
d="M135 948l103 486h155l-35 -486h-223z" />
    <glyph glyph-name="quoteright" unicode="&#x2019;" horiz-adv-x="524" 
d="M131 948l37 486h221l-102 -486h-156z" />
    <glyph glyph-name="quotesinglbase" unicode="&#x201a;" horiz-adv-x="548" 
d="M127 -268l35 485h223l-102 -485h-156z" />
    <glyph glyph-name="quotedblleft" unicode="&#x201c;" horiz-adv-x="866" 
d="M135 948l103 486h151l-31 -486h-223zM475 948l105 486h155l-37 -486h-223z" />
    <glyph glyph-name="quotedblright" unicode="&#x201d;" horiz-adv-x="866" 
d="M131 948l37 486h221l-102 -486h-156zM477 948l31 486h223l-102 -486h-152z" />
    <glyph glyph-name="quotedblbase" unicode="&#x201e;" horiz-adv-x="897" 
d="M131 -268l37 485h221l-102 -485h-156zM477 -268l31 485h223l-102 -485h-152z" />
    <glyph glyph-name="dagger" unicode="&#x2020;" horiz-adv-x="907" 
d="M109 895v182h241v357h203v-357h246v-182h-246v-895h-203v895h-241z" />
    <glyph glyph-name="daggerdbl" unicode="&#x2021;" horiz-adv-x="907" 
d="M109 352v183h241v364h-241v182h241v353h201v-353h248v-182h-248v-364h248v-183h-248v-352h-201v352h-241z" />
    <glyph glyph-name="bullet" unicode="&#x2022;" horiz-adv-x="950" 
d="M123 635q0 148 100.5 250t251.5 102t251.5 -102t100.5 -250t-100.5 -250t-251.5 -102t-251.5 102t-100.5 250z" />
    <glyph glyph-name="uni202F" unicode="&#x202f;" horiz-adv-x="386" 
 />
    <glyph glyph-name="perthousand" unicode="&#x2030;" horiz-adv-x="2353" 
d="M139 932v258q0 120 80 195t199 75t198.5 -75t79.5 -195v-258q0 -121 -79.5 -195.5t-198.5 -74.5t-199 74.5t-80 195.5zM299 934q0 -50 34.5 -85.5t84.5 -35.5q51 0 86 35.5t35 85.5v254q0 48 -35.5 83.5t-85.5 35.5t-84.5 -35.5t-34.5 -83.5v-254zM332 154l868 1230
l139 -100l-866 -1231zM975 244v258q0 120 80 195t200 75q119 0 199 -75t80 -195v-258q0 -121 -80 -196t-199 -75q-121 0 -200.5 75t-79.5 196zM1137 246q0 -51 33 -86t85 -35q50 0 84.5 35.5t34.5 85.5v254q0 48 -34.5 83t-84.5 35q-51 0 -84.5 -35t-33.5 -83v-254z
M1657 244v258q0 120 79.5 195t198.5 75q120 0 200.5 -75t80.5 -195v-258q0 -121 -80 -196t-201 -75q-119 0 -198.5 75t-79.5 196zM1819 246q0 -50 33 -85.5t83 -35.5q52 0 86.5 35.5t34.5 85.5v254q0 48 -34.5 83t-86.5 35q-50 0 -83 -35t-33 -83v-254z" />
    <glyph glyph-name="guilsinglleft" unicode="&#x2039;" horiz-adv-x="661" 
d="M129 539v118l406 332v-209l-216 -176v-12l216 -176v-209z" />
    <glyph glyph-name="guilsinglright" unicode="&#x203a;" horiz-adv-x="661" 
d="M129 207v209l213 176v12l-213 176v209l406 -332v-118z" />
    <glyph glyph-name="fraction" unicode="&#x2044;" horiz-adv-x="1009" 
d="M10 -84l799 1602h190l-798 -1602h-191z" />
    <glyph glyph-name="uni205F" unicode="&#x205f;" horiz-adv-x="483" 
 />
    <glyph glyph-name="Euro" unicode="&#x20ac;" horiz-adv-x="1284" 
d="M41 498v141h106v149h-106v142h106v67q0 106 40.5 195t108 147t152.5 89.5t177 31.5q212 0 343.5 -130.5t131.5 -344.5h-217q0 118 -69.5 192t-188.5 74q-114 0 -187 -73.5t-73 -192.5v-55h356v-142h-356v-149h356v-141h-356v-49q0 -119 72.5 -193t187.5 -74
q113 0 185.5 75t72.5 192h217q0 -211 -135.5 -343.5t-339.5 -132.5q-92 0 -177 31.5t-152.5 89.5t-108 147t-40.5 195v62h-106z" />
    <glyph glyph-name="uni2116" unicode="&#x2116;" horiz-adv-x="2400" 
d="M182 0v1434h232l684 -1043h12v1043h215v-1434h-229l-684 1055h-13v-1055h-217zM1516 1094q0 152 104 259t264 107t264.5 -107t104.5 -259q0 -153 -104 -258t-265 -105q-160 0 -264 105t-104 258zM1544 434v189h678v-189h-678zM1690 1094q0 -82 53 -138.5t141 -56.5
q87 0 141 56.5t54 138.5t-54 140t-141 58q-88 0 -141 -57.5t-53 -140.5z" />
    <glyph glyph-name="trademark" unicode="&#x2122;" horiz-adv-x="1703" 
d="M115 1292v142h534v-142h-188v-596h-158v596h-188zM766 696v738h160l245 -521h13l243 521h160v-738h-151v437h-6l-203 -437h-99l-204 437h-6v-437h-152z" />
    <glyph glyph-name="arrowleft" unicode="&#x2190;" horiz-adv-x="1667" 
d="M84 635v158l608 608l144 -144l-422 -419v-13h1151v-221h-1151v-12l422 -422l-144 -143z" />
    <glyph glyph-name="arrowup" unicode="&#x2191;" horiz-adv-x="1556" 
d="M92 872l608 609h158l606 -609l-143 -143l-420 422h-12v-1151h-223v1151h-13l-417 -422z" />
    <glyph glyph-name="arrowright" unicode="&#x2192;" horiz-adv-x="1667" 
d="M102 604v221h1151v13l-422 419l144 144l608 -608v-158l-608 -608l-144 143l422 422v12h-1151z" />
    <glyph glyph-name="arrowdown" unicode="&#x2193;" horiz-adv-x="1556" 
d="M92 561l144 144l417 -422h13v1151h223v-1151h12l420 422l143 -144l-606 -608h-158z" />
    <glyph glyph-name="uni2196" unicode="&#x2196;" horiz-adv-x="1351" 
d="M80 477v858l110 111h861v-201l-594 2l-8 -10l813 -813l-158 -158l-813 813l-10 -8l2 -594h-203z" />
    <glyph glyph-name="uni2197" unicode="&#x2197;" horiz-adv-x="1351" 
d="M92 424l813 813l-8 10l-594 -2v201h858l113 -111v-858h-203v594l-8 8l-813 -813z" />
    <glyph glyph-name="uni2198" unicode="&#x2198;" horiz-adv-x="1351" 
d="M84 995l158 158l813 -813l8 8v596h201v-860l-113 -113l-858 2v203l596 -2l8 8z" />
    <glyph glyph-name="uni2199" unicode="&#x2199;" horiz-adv-x="1351" 
d="M88 84v860h203l-2 -596l8 -8l815 813l158 -158l-815 -813l10 -8l594 2v-203l-858 -2z" />
    <glyph glyph-name="minus" unicode="&#x2212;" horiz-adv-x="997" 
d="M10 551v174h977v-174h-977z" />
    <glyph glyph-name="uni25FC" unicode="&#x25fc;" horiz-adv-x="1075" 
d="M0 0v1075h1075v-1075h-1075z" />
    <glyph glyph-name="i.loclTRK" horiz-adv-x="524" 
d="M139 1376q0 58 38 96.5t99 38.5q62 0 101 -38.5t39 -96.5q0 -60 -38.5 -98.5t-101.5 -38.5q-61 0 -99 38.5t-38 98.5zM168 0v1071h215v-1071h-215z" />
    <glyph glyph-name="zero.tf" 
d="M156 436v561q0 141 69.5 248.5t176 161t229.5 53.5q124 0 231 -53.5t176.5 -161t69.5 -248.5v-561q0 -141 -69.5 -248.5t-176.5 -161t-231 -53.5q-123 0 -229.5 53.5t-176 161t-69.5 248.5zM373 449q0 -117 72.5 -192t185.5 -75q114 0 187 75t73 192v536
q0 115 -73.5 190.5t-186.5 75.5q-111 0 -184.5 -75.5t-73.5 -190.5v-536z" />
    <glyph glyph-name="one.tf" 
d="M362 1055v170q197 0 278 49t81 160h205v-1434h-219v1055h-345z" />
    <glyph glyph-name="two.tf" 
d="M172 1024q0 81 29.5 157.5t84.5 139.5t143 101t194 38q104 0 192 -34.5t146.5 -93t91 -134.5t32.5 -160q0 -130 -63 -229t-191 -178l-264 -162q-98 -63 -136 -118.5t-38 -127.5v-26h699v-197h-918v203q0 138 68.5 237.5t214.5 190.5l262 164q143 91 143 237
q0 98 -65 160.5t-179 62.5q-105 0 -173 -67t-68 -164h-205z" />
    <glyph glyph-name="three.tf" 
d="M162 412h205q3 -99 72 -164.5t177 -65.5q120 0 193.5 71t73.5 189q0 111 -76 183.5t-195 72.5h-178v176l348 349v12h-592v199h867v-197l-355 -348v-12q171 -14 287.5 -135.5t116.5 -297.5q0 -126 -56.5 -231.5t-169.5 -171.5t-262 -66q-109 0 -198.5 39.5t-144 103.5
t-84 140t-29.5 154z" />
    <glyph glyph-name="four.tf" 
d="M125 324v180l424 930h227l-403 -902v-12h377v314h219v-314h172v-196h-172v-324h-219v324h-625z" />
    <glyph glyph-name="five.tf" 
d="M154 393h204q15 -99 86.5 -157t176.5 -58q116 0 193 78.5t77 198.5q0 118 -77.5 193t-205.5 75q-47 0 -87 -12.5t-67 -33t-43 -38t-28 -35.5h-203l51 830h791v-199h-600l-27 -401h13q105 84 243 84q131 0 238 -64t165 -169.5t58 -229.5q0 -204 -138 -343t-347 -139
q-199 0 -330.5 118t-142.5 302z" />
    <glyph glyph-name="six.tf" 
d="M141 455q0 134 74 268l397 711h252l-317 -525l8 -8q51 19 109 19q122 0 226 -55.5t169 -163t65 -246.5q0 -135 -66.5 -246t-179.5 -173.5t-247 -62.5q-205 0 -347.5 137t-142.5 345zM362 455q0 -118 75 -196.5t194 -78.5q120 0 195 79t75 196q0 115 -75.5 194.5
t-194.5 79.5q-118 0 -193.5 -79.5t-75.5 -194.5z" />
    <glyph glyph-name="seven.tf" 
d="M180 1235v199h905v-187l-499 -1247h-238l504 1223v12h-672z" />
    <glyph glyph-name="eight.tf" 
d="M139 403q0 59 15.5 111.5t39 90.5t55 70t61 51.5t59.5 33.5v12q-69 40 -120.5 118t-51.5 185q0 171 125 278t311 107t311 -107t125 -278q0 -107 -51.5 -185t-120.5 -118v-12q39 -18 75.5 -46t73.5 -70.5t59.5 -105t22.5 -135.5q0 -194 -137 -312t-358 -118t-357.5 118
t-136.5 312zM362 412q0 -102 73 -172t198 -70q126 0 199 69.5t73 172.5q0 113 -77.5 179t-194.5 66t-194 -66t-77 -179zM414 1057q0 -87 61.5 -148t157.5 -61t158.5 61t62.5 148q0 88 -61 147.5t-160 59.5t-159 -59t-60 -148z" />
    <glyph glyph-name="nine.tf" 
d="M141 979q0 135 67 246t180 173t247 62q205 0 347 -136.5t142 -344.5q0 -136 -73 -268l-396 -711h-252l316 524l-8 8q-49 -18 -109 -18q-122 0 -226.5 55.5t-169.5 163t-65 246.5zM365 979q0 -115 75.5 -194.5t194.5 -79.5q118 0 193 79.5t75 194.5q0 118 -74.5 196
t-193.5 78q-120 0 -195 -78.5t-75 -195.5z" />
    <glyph glyph-name="caron.Slovak" horiz-adv-x="415" 
d="M102 1047v387h211l-49 -387h-162z" />
    <glyph glyph-name="NULL" horiz-adv-x="0" 
 />
    </font>
</defs>
</svg>
