<?xml version="1.0" standalone="no"?>
<!DOCTYPE svg PUBLIC "-//W3C//DTD SVG 1.1//EN" "http://www.w3.org/Graphics/SVG/1.1/DTD/svg11.dtd" >
<svg xmlns="http://www.w3.org/2000/svg" xmlns:xlink="http://www.w3.org/1999/xlink" version="1.1">
<metadata>
Created by FontForge 20170924 at Tue Sep 16 09:31:49 2014
 By www-data
Copyright (c) 2014 Monotype GmbH. All rights reserved.
</metadata>
<defs>
<font id="AvenirLTPro-Medium" horiz-adv-x="556" >
  <font-face 
    font-family="Avenir LT Pro"
    font-weight="550"
    font-stretch="normal"
    units-per-em="1000"
    panose-1="2 11 6 3 2 2 3 2 2 4"
    ascent="756"
    descent="-244"
    x-height="474"
    cap-height="708"
    bbox="-166 -282 1036 940"
    underline-thickness="50"
    underline-position="-100"
    stemh="84"
    stemv="78"
    unicode-range="U+000D-FB02"
  />
<missing-glyph horiz-adv-x="512" 
d="M0 718h512v-718h-512v718zM50 50h412v617h-412v-617zM259 609c73 0 124 -53 124 -131c0 -51 -17 -79 -65 -121c-23 -21 -37 -38 -41 -50c-5 -12 -6 -36 -6 -73h-46l-2 19c0 72 15 97 64 143c27 25 45 47 45 78c0 48 -37 85 -76 85c-45 0 -74 -33 -82 -95l-50 8
c8 90 57 137 135 137zM222 117v67h56v-67h-56z" />
    <glyph glyph-name="napostrophe" unicode="&#x22;n" 
d="M316 486c106 0 172 -70 172 -177v-309h-90v283c0 73 -40 119 -108 119c-83 0 -132 -59 -132 -154v-248h-90v474h90v-73h2c25 53 87 85 156 85zM73 708h93l-78 -190h-79z" />
    <glyph glyph-name="IJ" unicode="IJ" horiz-adv-x="715" 
d="M91 708h96v-708h-96v708zM545 708h96v-510c0 -149 -101 -216 -207 -216c-104 0 -173 56 -192 155l94 21c11 -53 45 -86 98 -86c74 0 111 49 111 156v480z" />
    <glyph glyph-name="fi" unicode="fi" 
d="M265 768c19 0 42 -1 67 -7l-10 -80c-16 7 -33 9 -51 9c-54 0 -77 -26 -77 -102v-114h107v-78h-108v-396h-90v396h-102v78h102v110c0 126 49 184 162 184zM435 710c36 0 66 -30 66 -66c0 -37 -31 -66 -66 -66c-37 0 -66 29 -66 66s31 66 66 66zM390 474h90v-474h-90v474z
" />
    <glyph glyph-name="fl" unicode="fl" 
d="M265 768c19 0 42 -1 67 -7l-10 -80c-16 7 -33 9 -51 9c-54 0 -77 -26 -77 -102v-114h107v-78h-108v-396h-90v396h-102v78h102v110c0 126 49 184 162 184zM391 756h90v-756h-90v756z" />
    <glyph glyph-name="ij" unicode="ij" horiz-adv-x="481" 
d="M120 710c36 0 66 -30 66 -66c0 -37 -31 -66 -66 -66c-37 0 -66 29 -66 66s31 66 66 66zM75 474h90v-474h-90v474zM361 710c36 0 66 -30 66 -66c0 -37 -31 -66 -66 -66c-37 0 -66 29 -66 66s31 66 66 66zM316 474h90v-547c0 -117 -51 -167 -145 -167c-20 0 -39 2 -58 9
l10 83c16 -5 26 -8 37 -8c50 0 66 34 66 88v542z" />
    <glyph glyph-name=".notdef" horiz-adv-x="512" 
d="M0 718h512v-718h-512v718zM50 50h412v617h-412v-617zM259 609c73 0 124 -53 124 -131c0 -51 -17 -79 -65 -121c-23 -21 -37 -38 -41 -50c-5 -12 -6 -36 -6 -73h-46l-2 19c0 72 15 97 64 143c27 25 45 47 45 78c0 48 -37 85 -76 85c-45 0 -74 -33 -82 -95l-50 8
c8 90 57 137 135 137zM222 117v67h56v-67h-56z" />
    <glyph glyph-name=".null" horiz-adv-x="0" 
 />
    <glyph glyph-name=".null" horiz-adv-x="0" 
 />
    <glyph glyph-name="CR" unicode="&#xd;" horiz-adv-x="278" 
 />
    <glyph glyph-name="space" unicode=" " horiz-adv-x="278" 
 />
    <glyph glyph-name="exclam" unicode="!" horiz-adv-x="278" 
d="M89 708h96v-504h-96v504zM139 126c36 0 66 -30 66 -66s-30 -66 -66 -66s-66 30 -66 66c0 37 31 66 66 66z" />
    <glyph glyph-name="quotedbl" unicode="&#x22;" horiz-adv-x="519" 
d="M146 708h78v-246h-78v246zM295 708h78v-246h-78v246z" />
    <glyph glyph-name="numbersign" unicode="#" 
d="M190 708h79l-28 -204h116l28 204h79l-28 -204h95v-78h-106l-20 -144h95v-78h-106l-28 -204h-79l28 204h-116l-28 -204h-79l28 204h-95v78h106l20 144h-95v78h106zM230 426l-20 -144h116l20 144h-116z" />
    <glyph glyph-name="dollar" unicode="$" 
d="M246 720v72h54v-72c80 0 151 -28 198 -77l-72 -70c-29 38 -75 62 -126 63v-238c117 -32 216 -70 216 -204c0 -112 -87 -196 -216 -206v-72h-54v72c-100 0 -172 33 -220 96l77 69c29 -49 83 -78 143 -81v246c-142 36 -204 102 -204 205c0 105 84 185 204 197zM138 523
c0 -51 35 -88 108 -109v222c-71 -12 -108 -57 -108 -113zM300 304v-232c76 10 120 58 120 118c0 53 -32 87 -120 114z" />
    <glyph glyph-name="percent" unicode="%" horiz-adv-x="852" 
d="M620 740l60 -31l-445 -740l-60 31zM213 726c98 0 178 -78 178 -177c0 -96 -79 -177 -177 -177c-94 0 -177 76 -177 177c0 98 80 177 176 177zM115 549c0 -54 44 -99 99 -99s99 44 99 99c0 54 -44 99 -100 99c-53 0 -98 -44 -98 -99zM638 336c96 0 177 -78 177 -177
c0 -97 -79 -177 -177 -177s-177 80 -177 177c0 96 79 177 177 177zM539 159c0 -55 45 -99 99 -99s99 44 99 99s-45 99 -99 99c-52 0 -99 -43 -99 -99z" />
    <glyph glyph-name="ampersand" unicode="&#x26;" horiz-adv-x="722" 
d="M314 720c106 0 183 -59 183 -160c0 -71 -47 -130 -147 -182l140 -146l89 145h109l-137 -212l161 -165h-129l-87 94c-63 -77 -127 -112 -217 -112c-157 0 -232 100 -232 205c0 81 48 148 161 203c-61 64 -83 110 -83 164c0 100 80 166 189 166zM221 553
c0 -33 20 -70 70 -118c87 46 110 83 110 125c0 46 -35 76 -87 76s-93 -32 -93 -83zM149 190c0 -69 64 -124 133 -124c52 0 103 25 157 90l-171 178c-54 -32 -119 -68 -119 -144z" />
    <glyph glyph-name="quotesingle" unicode="'" horiz-adv-x="278" 
d="M100 708h78v-246h-78v246z" />
    <glyph glyph-name="parenleft" unicode="(" horiz-adv-x="278" 
d="M194 732l60 -38c-95 -149 -128 -259 -128 -405c0 -147 42 -288 128 -405l-60 -40c-93 127 -146 281 -146 444c0 153 53 315 146 444z" />
    <glyph glyph-name="parenright" unicode=")" horiz-adv-x="278" 
d="M24 692l60 40c93 -127 146 -282 146 -443c0 -154 -51 -313 -146 -445l-60 38c93 146 128 254 128 406c0 148 -43 287 -128 404z" />
    <glyph glyph-name="asterisk" unicode="*" horiz-adv-x="464" 
d="M197 708h72v-147l139 47l21 -67l-139 -45l88 -119l-55 -41l-91 122l-89 -120l-55 41l89 117l-142 48l21 65l141 -48v147z" />
    <glyph glyph-name="plus" unicode="+" horiz-adv-x="666" 
d="M294 570h78v-228h228v-78h-228v-228h-78v228h-228v78h228v228z" />
    <glyph glyph-name="comma" unicode="," horiz-adv-x="278" 
d="M117 114h97l-84 -246h-82z" />
    <glyph glyph-name="hyphen" unicode="-" horiz-adv-x="316" 
d="M35 284h246v-84h-246v84z" />
    <glyph glyph-name="period" unicode="." horiz-adv-x="278" 
d="M139 126c37 0 66 -31 66 -66c0 -38 -32 -66 -66 -66c-35 0 -66 29 -66 66s31 66 66 66z" />
    <glyph glyph-name="slash" unicode="/" horiz-adv-x="389" 
d="M0 -18l320 770l69 -26l-319 -770z" />
    <glyph glyph-name="zero" unicode="0" 
d="M278 720c159 0 244 -139 244 -366c0 -225 -85 -366 -244 -366c-162 0 -244 148 -244 366c0 225 83 366 244 366zM130 354c0 -182 52 -282 148 -282c95 0 148 99 148 282c0 184 -51 282 -149 282c-93 0 -147 -92 -147 -282z" />
    <glyph glyph-name="one" unicode="1" 
d="M281 708h85v-708h-96v598l-130 -120l-56 67z" />
    <glyph glyph-name="two" unicode="2" 
d="M287 726c133 0 223 -76 223 -196c0 -71 -28 -130 -121 -219l-235 -227h356v-84h-464v102l276 274c48 47 86 94 86 153c0 66 -52 113 -122 113s-117 -41 -129 -109l-104 9c18 118 106 184 234 184z" />
    <glyph glyph-name="three" unicode="3" 
d="M275 726c116 0 217 -61 217 -192c0 -75 -50 -139 -121 -161v-2c87 -16 139 -88 139 -178c0 -136 -111 -205 -236 -205c-117 0 -197 54 -228 154l101 31c26 -76 63 -101 129 -101c78 0 138 54 138 128c0 87 -55 132 -199 132v84c119 0 181 24 181 111
c0 73 -48 115 -119 115c-52 0 -96 -33 -118 -82l-98 33c35 84 113 133 214 133z" />
    <glyph glyph-name="four" unicode="4" 
d="M316 708h116v-468h100v-84h-100v-156h-96v156h-302v98zM336 594h-2l-216 -354h218v354z" />
    <glyph glyph-name="five" unicode="5" 
d="M91 708h380v-90h-287l-3 -177c17 8 68 15 95 15c121 0 220 -83 220 -234c0 -139 -109 -234 -249 -234c-97 0 -181 52 -213 143l97 33c25 -65 68 -92 131 -92c77 0 138 56 138 145c0 98 -66 155 -171 155c-36 0 -98 -14 -146 -37z" />
    <glyph glyph-name="six" unicode="6" 
d="M285 708h113l-178 -274h4c23 11 49 16 78 16c97 0 219 -65 219 -224c0 -146 -99 -238 -243 -238c-137 0 -243 94 -243 228c0 83 23 132 70 208zM131 219c0 -87 60 -147 147 -147c86 0 147 59 147 147c0 74 -47 147 -148 147c-83 0 -146 -57 -146 -147z" />
    <glyph glyph-name="seven" unicode="7" 
d="M42 708h445v-82l-282 -626h-108l287 624h-342v84z" />
    <glyph glyph-name="eight" unicode="8" 
d="M278 720c114 0 207 -70 207 -177c0 -81 -42 -143 -111 -164v-3c83 -24 135 -89 135 -173c0 -129 -96 -215 -231 -215s-231 86 -231 215c0 82 50 149 135 173v3c-69 20 -111 83 -111 164c0 104 92 177 207 177zM167 530c0 -62 47 -112 111 -112c68 0 111 48 111 112
c0 67 -46 112 -112 112c-60 0 -110 -46 -110 -112zM143 203c0 -79 59 -131 135 -131c77 0 135 52 135 131c0 83 -58 131 -136 131c-70 0 -134 -51 -134 -131z" />
    <glyph glyph-name="nine" unicode="9" 
d="M278 720c140 0 243 -96 243 -228c0 -32 -4 -62 -13 -92c-8 -29 -27 -67 -57 -115l-180 -285h-113l178 274h-4c-23 -11 -49 -16 -78 -16c-101 0 -219 68 -219 224c0 148 101 238 243 238zM131 489c0 -90 62 -147 147 -147c88 0 147 60 147 147c0 73 -46 147 -148 147
c-83 0 -146 -56 -146 -147z" />
    <glyph glyph-name="colon" unicode=":" horiz-adv-x="278" 
d="M139 480c36 0 66 -30 66 -66c0 -37 -31 -66 -66 -66c-36 0 -66 29 -66 66s31 66 66 66zM139 126c36 0 66 -30 66 -66c0 -37 -31 -66 -66 -66c-36 0 -66 29 -66 66s31 66 66 66z" />
    <glyph glyph-name="semicolon" unicode=";" horiz-adv-x="278" 
d="M139 479c36 0 66 -30 66 -66c0 -37 -31 -66 -66 -66c-36 0 -66 29 -66 66s31 66 66 66zM117 114h97l-84 -246h-82z" />
    <glyph glyph-name="less" unicode="&#x3c;" horiz-adv-x="666" 
d="M600 564v-79l-452 -182l452 -182v-78l-534 219v82z" />
    <glyph glyph-name="equal" unicode="=" horiz-adv-x="666" 
d="M66 420h534v-78h-534v78zM66 263h534v-78h-534v78z" />
    <glyph glyph-name="greater" unicode="&#x3e;" horiz-adv-x="666" 
d="M66 485v78l534 -219v-82l-534 -220v79l452 182z" />
    <glyph glyph-name="question" unicode="?" horiz-adv-x="500" 
d="M268 726c118 0 200 -73 200 -185c0 -50 -15 -93 -40 -118l-68 -69c-28 -28 -40 -42 -47 -58c-4 -12 -7 -25 -7 -62v-36h-96v65c0 29 4 51 13 68c6 13 16 26 37 46l40 38c59 57 72 83 72 121c0 61 -47 106 -106 106c-61 0 -107 -43 -116 -112l-102 10
c17 116 103 186 220 186zM257 126c35 0 66 -30 66 -66s-30 -66 -66 -66s-66 30 -66 66s31 66 66 66z" />
    <glyph glyph-name="at" unicode="@" horiz-adv-x="800" 
d="M415 726c182 0 341 -124 341 -304c0 -74 -28 -148 -77 -200c-52 -55 -112 -82 -158 -82c-35 0 -62 23 -63 64h-4c-38 -41 -82 -64 -124 -64c-80 0 -137 64 -137 157c0 122 83 266 224 266c50 0 90 -25 107 -76h2l16 57h73l-84 -276c-4 -14 -5 -20 -5 -26
c0 -16 10 -24 29 -24c26 0 57 19 83 59c27 41 40 87 40 137c0 147 -110 246 -262 246c-167 0 -294 -131 -294 -308c0 -167 120 -304 299 -304c97 0 185 37 233 101h79c-61 -106 -190 -167 -314 -167c-203 0 -375 157 -375 374c0 203 164 370 371 370zM277 298
c0 -49 20 -80 71 -80c79 0 137 100 137 179c0 51 -24 88 -65 88c-84 0 -143 -81 -143 -187z" />
    <glyph glyph-name="A" unicode="A" horiz-adv-x="704" 
d="M313 708h87l303 -708h-112l-71 175h-337l-70 -175h-112zM351 584l-134 -325h268l-132 325h-2z" />
    <glyph glyph-name="B" unicode="B" horiz-adv-x="630" 
d="M91 708h250c110 0 211 -53 211 -177c0 -74 -42 -129 -122 -156v-2h1c111 -12 152 -109 152 -176c0 -122 -105 -197 -245 -197h-247v708zM187 414h134c80 0 129 38 129 106c0 64 -44 104 -109 104h-154v-210zM187 84h145c82 0 149 38 149 120c0 80 -56 126 -151 126h-143
v-246z" />
    <glyph glyph-name="C" unicode="C" horiz-adv-x="704" 
d="M416 726c100 0 193 -39 248 -110l-80 -61c-42 53 -105 81 -171 81c-158 0 -264 -127 -264 -288c0 -152 103 -276 264 -276c82 0 142 35 185 95l81 -61c-55 -74 -154 -124 -268 -124c-228 0 -364 192 -364 367c0 214 146 377 369 377z" />
    <glyph glyph-name="D" unicode="D" horiz-adv-x="741" 
d="M75 708h252c255 0 367 -180 367 -354c0 -203 -159 -354 -382 -354h-237v708zM171 90h126c134 0 295 73 295 264c0 135 -85 264 -272 264h-149v-528z" />
    <glyph glyph-name="E" unicode="E" horiz-adv-x="611" 
d="M91 708h457v-90h-361v-211h336v-90h-336v-227h379v-90h-475v708z" />
    <glyph glyph-name="F" unicode="F" horiz-adv-x="574" 
d="M91 708h445v-90h-349v-222h325v-90h-325v-306h-96v708z" />
    <glyph glyph-name="G" unicode="G" horiz-adv-x="778" 
d="M417 726c117 0 203 -29 263 -92l-68 -73c-58 56 -126 75 -196 75c-156 0 -267 -120 -267 -282c0 -155 113 -282 275 -282c67 0 130 12 174 37v197h-157v90h253v-349c-67 -41 -177 -65 -268 -65c-228 0 -379 159 -379 372c0 209 153 372 370 372z" />
    <glyph glyph-name="H" unicode="H" horiz-adv-x="741" 
d="M91 708h96v-294h367v294h96v-708h-96v324h-367v-324h-96v708z" />
    <glyph glyph-name="I" unicode="I" horiz-adv-x="278" 
d="M91 708h96v-708h-96v708z" />
    <glyph glyph-name="J" unicode="J" horiz-adv-x="482" 
d="M312 708h96v-510c0 -149 -101 -216 -207 -216c-104 0 -173 56 -192 155l94 21c11 -53 45 -86 98 -86c74 0 111 49 111 156v480z" />
    <glyph glyph-name="K" unicode="K" horiz-adv-x="648" 
d="M91 708h96v-306h8l313 306h134l-342 -327l365 -381h-140l-330 354h-8v-354h-96v708z" />
    <glyph glyph-name="L" unicode="L" horiz-adv-x="519" 
d="M91 708h96v-618h325v-90h-421v708z" />
    <glyph glyph-name="M" unicode="M" horiz-adv-x="906" 
d="M84 708h143l225 -536h4l223 536h143v-708h-96v582h-2l-239 -582h-64l-239 582h-2v-582h-96v708z" />
    <glyph glyph-name="N" unicode="N" horiz-adv-x="796" 
d="M91 708h126l390 -582h2v582h96v-708h-122l-394 582h-2v-582h-96v708z" />
    <glyph glyph-name="O" unicode="O" horiz-adv-x="832" 
d="M416 726c205 0 369 -151 369 -372c0 -208 -152 -372 -369 -372c-207 0 -369 155 -369 372c0 213 157 372 369 372zM149 354c0 -154 104 -282 267 -282c155 0 267 121 267 282c0 156 -105 282 -268 282c-154 0 -266 -121 -266 -282z" />
    <glyph glyph-name="P" unicode="P" horiz-adv-x="593" 
d="M91 708h254c136 0 222 -71 222 -198c0 -128 -88 -198 -222 -198h-158v-312h-96v708zM187 396h130c99 0 148 36 148 114c0 77 -50 114 -148 114h-130v-228z" />
    <glyph glyph-name="Q" unicode="Q" horiz-adv-x="832" 
d="M413 726c195 0 361 -148 361 -354c0 -136 -68 -243 -162 -286v-2h210v-84h-412c-199 0 -363 155 -363 362c0 203 156 364 366 364zM149 370c0 -151 102 -280 261 -280c152 0 262 119 262 278c0 151 -110 268 -263 268c-142 0 -260 -115 -260 -266z" />
    <glyph glyph-name="R" unicode="R" horiz-adv-x="611" 
d="M91 708h254c123 0 222 -60 222 -198c0 -78 -55 -172 -173 -187h-1l201 -323h-120l-180 312h-107v-312h-96v708zM187 396h130c99 0 148 36 148 114c0 77 -50 114 -148 114h-130v-228z" />
    <glyph glyph-name="S" unicode="S" 
d="M294 726c101 0 163 -30 204 -81l-78 -71c-24 37 -70 62 -127 62c-109 0 -137 -68 -137 -109c0 -60 41 -92 106 -112l89 -29c99 -32 154 -85 154 -185c0 -131 -103 -219 -246 -219c-100 0 -180 36 -226 98l79 68c31 -48 88 -76 150 -76c71 0 141 45 141 118
c0 49 -29 80 -115 107l-63 21c-97 31 -171 82 -171 209c0 94 80 199 240 199z" />
    <glyph glyph-name="T" unicode="T" horiz-adv-x="574" 
d="M11 708h552v-90h-228v-618h-96v618h-228v90z" />
    <glyph glyph-name="U" unicode="U" horiz-adv-x="704" 
d="M78 708h96v-437c0 -78 40 -199 178 -199c132 0 178 113 178 199v437h96v-453c0 -137 -100 -273 -274 -273c-167 0 -274 127 -274 273v453z" />
    <glyph glyph-name="V" unicode="V" horiz-adv-x="630" 
d="M-6 708h111l208 -576h2l216 576h105l-279 -708h-90z" />
    <glyph glyph-name="W" unicode="W" horiz-adv-x="962" 
d="M482 578h-2l-171 -578h-101l-207 708h100l156 -566h2l167 566h110l167 -566h2l156 566h100l-206 -708h-101z" />
    <glyph glyph-name="X" unicode="X" horiz-adv-x="648" 
d="M17 708h123l184 -272l182 272h120l-236 -335l260 -373h-126l-203 307l-204 -307h-119l257 372z" />
    <glyph glyph-name="Y" unicode="Y" horiz-adv-x="612" 
d="M-10 708h123l193 -311l199 311h117l-268 -406v-302h-96v302z" />
    <glyph glyph-name="Z" unicode="Z" horiz-adv-x="593" 
d="M44 708h511v-90l-401 -528h407v-90h-529v89l403 529h-391v90z" />
    <glyph glyph-name="bracketleft" unicode="[" horiz-adv-x="278" 
d="M72 732h174v-66h-90v-756h90v-66h-174v888z" />
    <glyph glyph-name="backslash" unicode="\" horiz-adv-x="389" 
d="M0 726l69 26l320 -770l-70 -26z" />
    <glyph glyph-name="bracketright" unicode="]" horiz-adv-x="278" 
d="M32 732h174v-888h-174v66h90v756h-90v66z" />
    <glyph glyph-name="asciicircum" unicode="^" horiz-adv-x="666" 
d="M293 708h80l213 -432h-83l-170 353l-170 -353h-83z" />
    <glyph glyph-name="underscore" unicode="_" horiz-adv-x="500" 
d="M0 -75h500v-50h-500v50z" />
    <glyph glyph-name="grave" unicode="`" horiz-adv-x="240" 
d="M-46 708h128l104 -144h-83z" />
    <glyph glyph-name="a" unicode="a" horiz-adv-x="519" 
d="M258 486c143 0 198 -81 198 -155v-254c0 -14 1 -52 4 -77h-80c-2 24 -3 44 -3 72h-2c-41 -61 -94 -84 -166 -84c-95 0 -164 54 -164 142c0 95 74 164 260 164h67v17c0 64 -47 103 -114 103c-51 0 -82 -12 -134 -54l-54 56c50 46 120 70 188 70zM135 137
c0 -49 33 -77 102 -77c81 0 135 50 135 142v26h-51c-146 0 -186 -45 -186 -91z" />
    <glyph glyph-name="b" unicode="b" horiz-adv-x="611" 
d="M68 756h90v-350h2c32 50 99 80 165 80c141 0 241 -102 241 -249c0 -140 -94 -249 -240 -249c-65 0 -131 29 -166 80h-2v-68h-90v756zM158 237c0 -98 62 -165 156 -165s156 68 156 165c0 100 -64 165 -157 165c-91 0 -155 -65 -155 -165z" />
    <glyph glyph-name="c" unicode="c" horiz-adv-x="482" 
d="M293 485c69 0 135 -24 182 -75l-68 -62c-33 35 -68 53 -118 53c-90 0 -148 -70 -148 -168c0 -92 63 -161 153 -161c51 0 84 18 115 53l64 -64c-47 -53 -111 -73 -180 -73c-146 0 -248 101 -248 247c0 148 103 250 248 250z" />
    <glyph glyph-name="d" unicode="d" horiz-adv-x="611" 
d="M453 756h90v-756h-90v68h-2c-35 -51 -99 -80 -165 -80c-140 0 -241 102 -241 249s101 249 241 249c65 0 131 -29 165 -80h2v350zM141 237c0 -99 63 -165 156 -165c94 0 156 67 156 165c0 100 -64 165 -157 165c-92 0 -155 -66 -155 -165z" />
    <glyph glyph-name="e" unicode="e" 
d="M285 486c140 0 231 -93 231 -257v-25h-380c0 -82 77 -138 160 -138c55 0 95 28 130 71l68 -52c-51 -65 -119 -97 -210 -97c-141 0 -244 98 -244 249c0 140 101 249 245 249zM136 276h284c-3 89 -53 138 -137 138c-95 0 -147 -81 -147 -138z" />
    <glyph glyph-name="f" unicode="f" horiz-adv-x="333" 
d="M265 768c19 0 42 -1 67 -7l-10 -80c-16 7 -33 9 -51 9c-54 0 -77 -26 -77 -102v-114h107v-78h-108v-396h-90v396h-102v78h102v110c0 126 49 184 162 184z" />
    <glyph glyph-name="g" unicode="g" horiz-adv-x="611" 
d="M286 486c67 0 130 -30 165 -80h2v68h90v-474c0 -127 -93 -240 -259 -240c-90 0 -166 23 -232 85l61 76c47 -50 99 -77 170 -77c112 0 170 62 170 162v72h-3c-32 -55 -96 -84 -164 -84c-133 0 -241 98 -241 241c0 152 102 251 241 251zM141 237c0 -94 59 -159 156 -159
c95 0 156 62 156 159c0 100 -64 165 -157 165c-92 0 -155 -68 -155 -165z" />
    <glyph glyph-name="h" unicode="h" 
d="M68 756h90v-355h2c25 53 87 85 156 85c105 0 172 -69 172 -177v-309h-90v283c0 73 -40 119 -108 119c-83 0 -132 -59 -132 -154v-248h-90v756z" />
    <glyph glyph-name="i" unicode="i" horiz-adv-x="240" 
d="M120 710c36 0 66 -30 66 -66c0 -37 -31 -66 -66 -66c-37 0 -66 29 -66 66s31 66 66 66zM75 474h90v-474h-90v474z" />
    <glyph glyph-name="j" unicode="j" horiz-adv-x="240" 
d="M120 710c36 0 66 -30 66 -66c0 -37 -31 -66 -66 -66c-37 0 -66 29 -66 66s31 66 66 66zM75 474h90v-547c0 -117 -51 -167 -145 -167c-20 0 -39 2 -58 9l10 83c16 -5 26 -8 37 -8c50 0 66 34 66 88v542z" />
    <glyph glyph-name="k" unicode="k" horiz-adv-x="519" 
d="M68 756h90v-488l205 206h125l-222 -216l240 -258h-128l-220 246v-246h-90v756z" />
    <glyph glyph-name="l" unicode="l" horiz-adv-x="240" 
d="M75 756h90v-756h-90v756z" />
    <glyph glyph-name="m" unicode="m" horiz-adv-x="852" 
d="M306 486c70 0 117 -29 148 -88c30 55 88 88 150 88c120 0 180 -71 180 -206v-280h-90v269c0 93 -33 133 -102 133c-81 0 -121 -53 -121 -139v-263h-90v255c0 112 -33 147 -100 147c-74 0 -123 -62 -123 -152v-250h-90v474h84v-74h2c19 44 82 86 152 86z" />
    <glyph glyph-name="n" unicode="n" 
d="M316 486c106 0 172 -70 172 -177v-309h-90v283c0 73 -40 119 -108 119c-83 0 -132 -59 -132 -154v-248h-90v474h90v-73h2c25 53 87 85 156 85z" />
    <glyph glyph-name="o" unicode="o" horiz-adv-x="594" 
d="M297 486c134 0 252 -104 252 -249c0 -138 -111 -249 -252 -249c-137 0 -252 108 -252 249c0 138 111 249 252 249zM141 237c0 -99 63 -165 156 -165c94 0 156 67 156 165c0 100 -64 165 -157 165c-92 0 -155 -68 -155 -165z" />
    <glyph glyph-name="p" unicode="p" horiz-adv-x="611" 
d="M326 486c138 0 240 -100 240 -249c0 -146 -99 -249 -241 -249c-69 0 -134 32 -165 80h-2v-350h-90v756h90v-68h2c36 51 98 80 166 80zM158 237c0 -98 62 -165 156 -165s156 65 156 165s-64 165 -157 165c-91 0 -155 -65 -155 -165z" />
    <glyph glyph-name="q" unicode="q" horiz-adv-x="611" 
d="M286 486c67 0 131 -30 165 -80h2v68h90v-702h-90v296h-2c-33 -49 -97 -80 -165 -80c-142 0 -241 103 -241 249c0 141 96 249 241 249zM141 237c0 -99 63 -165 156 -165c95 0 156 68 156 165c0 87 -52 165 -157 165c-92 0 -155 -66 -155 -165z" />
    <glyph glyph-name="r" unicode="r" horiz-adv-x="370" 
d="M302 486c15 0 30 -2 40 -6l-4 -97c-15 4 -29 7 -45 7c-89 0 -135 -52 -135 -148v-242h-90v474h90v-73h2c24 51 83 85 142 85z" />
    <glyph glyph-name="s" unicode="s" horiz-adv-x="444" 
d="M228 486c72 0 132 -28 162 -78l-70 -53c-22 26 -52 47 -97 47s-79 -22 -79 -53c0 -39 38 -57 93 -68c113 -22 166 -58 166 -144c0 -104 -94 -149 -193 -149c-87 0 -141 27 -182 84l68 56c41 -42 76 -56 115 -56c50 0 96 21 96 60c0 36 -33 55 -90 68
c-111 23 -169 54 -169 140c0 98 90 146 180 146z" />
    <glyph glyph-name="t" unicode="t" horiz-adv-x="370" 
d="M103 607h90v-133h129v-78h-129v-228c0 -61 12 -96 68 -96c20 0 46 3 64 14v-82c-17 -10 -56 -16 -82 -16c-139 0 -140 90 -140 155v253h-104v78h104v133z" />
    <glyph glyph-name="u" unicode="u" 
d="M68 474h90v-284c0 -74 41 -118 108 -118c84 0 132 60 132 154v248h90v-474h-90v73h-2c-25 -53 -86 -85 -156 -85c-105 0 -172 70 -172 177v309z" />
    <glyph glyph-name="v" unicode="v" horiz-adv-x="500" 
d="M11 474h104l142 -363l136 363h96l-186 -474h-99z" />
    <glyph glyph-name="w" unicode="w" horiz-adv-x="759" 
d="M11 474h101l107 -354h2l113 354h95l120 -354h2l102 354h95l-153 -474h-91l-125 354h-2l-113 -354h-97z" />
    <glyph glyph-name="x" unicode="x" horiz-adv-x="519" 
d="M30 474h116l115 -168l113 168h109l-162 -221l192 -253h-116l-140 199l-140 -199h-111l192 253z" />
    <glyph glyph-name="y" unicode="y" horiz-adv-x="500" 
d="M11 474h104l141 -370h2l134 370h97l-224 -574c-33 -86 -65 -140 -163 -140c-28 0 -55 3 -80 13l11 81c18 -6 36 -10 54 -10c56 0 74 29 93 79l28 74z" />
    <glyph glyph-name="z" unicode="z" horiz-adv-x="463" 
d="M44 474h370v-80l-271 -316h285v-78h-393v81l269 315h-260v78z" />
    <glyph glyph-name="braceleft" unicode="{" horiz-adv-x="333" 
d="M227 732h77v-72h-46c-32 0 -50 -35 -50 -83v-163c0 -56 -30 -108 -84 -125v-3c48 -9 84 -57 84 -127v-150c0 -25 2 -93 50 -93h46v-72h-74c-62 0 -106 61 -106 149v132c0 69 -34 123 -84 123v78c54 0 84 62 84 119v154c0 95 64 133 103 133z" />
    <glyph glyph-name="bar" unicode="|" horiz-adv-x="222" 
d="M72 750h78v-1000h-78v1000z" />
    <glyph glyph-name="braceright" unicode="}" horiz-adv-x="333" 
d="M29 732h74c61 0 106 -60 106 -149v-142c0 -60 32 -112 84 -113v-78c-52 -1 -84 -54 -84 -114v-158c0 -96 -63 -134 -103 -134h-77v72h46c32 0 50 35 50 84v159c0 60 30 111 84 128v3c-49 10 -84 56 -84 127v147c0 66 -17 96 -53 96h-43v72z" />
    <glyph glyph-name="asciitilde" unicode="~" horiz-adv-x="666" 
d="M229 378c37 0 68 -14 107 -33c39 -20 74 -40 105 -40c32 0 61 18 89 73l40 -62c-33 -56 -73 -88 -128 -88c-23 0 -48 3 -116 36c-63 31 -87 36 -106 36c-31 0 -58 -19 -84 -72l-40 62c37 62 78 88 133 88z" />
    <glyph glyph-name="uni00A0" unicode="&#xa0;" horiz-adv-x="278" 
 />
    <glyph glyph-name="Agrave" unicode="&#xc0;" horiz-adv-x="704" 
d="M313 708h87l303 -708h-112l-71 175h-337l-70 -175h-112zM351 584l-134 -325h268l-132 325h-2zM186 892h128l104 -144h-83z" />
    <glyph glyph-name="Aacute" unicode="&#xc1;" horiz-adv-x="704" 
d="M313 708h87l303 -708h-112l-71 175h-337l-70 -175h-112zM351 584l-134 -325h268l-132 325h-2zM390 892h128l-149 -144h-83z" />
    <glyph glyph-name="Acircumflex" unicode="&#xc2;" horiz-adv-x="704" 
d="M313 708h87l303 -708h-112l-71 175h-337l-70 -175h-112zM351 584l-134 -325h268l-132 325h-2zM299 892h106l112 -144h-91l-74 96l-74 -96h-91z" />
    <glyph glyph-name="Atilde" unicode="&#xc3;" horiz-adv-x="704" 
d="M313 708h87l303 -708h-112l-71 175h-337l-70 -175h-112zM351 584l-134 -325h268l-132 325h-2zM472 868h48c-11 -66 -45 -104 -94 -104c-29 0 -55 11 -81 21s-44 19 -66 19c-23 0 -39 -18 -47 -44h-48c11 64 50 104 101 104c27 0 51 -10 74 -19c22 -9 41 -21 64 -21
c27 0 42 20 49 44z" />
    <glyph glyph-name="Adieresis" unicode="&#xc4;" horiz-adv-x="704" 
d="M313 708h87l303 -708h-112l-71 175h-337l-70 -175h-112zM351 584l-134 -325h268l-132 325h-2zM250 898c33 0 62 -25 62 -57c0 -35 -25 -63 -62 -63s-62 28 -62 63c0 30 28 57 62 57zM454 898c34 0 62 -27 62 -57c0 -36 -26 -63 -62 -63c-35 0 -62 27 -62 63
c0 30 27 57 62 57z" />
    <glyph glyph-name="Amacron" unicode="&#x100;" horiz-adv-x="704" 
d="M313 708h87l303 -708h-112l-71 175h-337l-70 -175h-112zM351 584l-134 -325h268l-132 325h-2zM209 854h288v-66h-288v66z" />
    <glyph glyph-name="Abreve" unicode="&#x102;" horiz-adv-x="704" 
d="M313 708h87l303 -708h-112l-71 175h-337l-70 -175h-112zM351 584l-134 -325h268l-132 325h-2zM196 896h55c8 -47 49 -72 103 -72s95 25 103 72h53c-6 -90 -67 -138 -157 -138s-149 48 -157 138z" />
    <glyph glyph-name="Aring" unicode="&#xc5;" horiz-adv-x="704" 
d="M313 708h87l303 -708h-112l-71 175h-337l-70 -175h-112zM351 584l-134 -325h268l-132 325h-2zM352 924c55 0 102 -42 102 -98s-45 -99 -102 -99c-53 0 -102 43 -102 98s47 99 102 99zM292 825c0 -33 30 -56 60 -56s60 24 60 56s-26 57 -60 57c-33 0 -60 -24 -60 -57z" />
    <glyph glyph-name="Aogonek" unicode="&#x104;" horiz-adv-x="704" 
d="M313 708h87l303 -708h-56c-45 -48 -67 -86 -67 -117c0 -24 18 -44 49 -44c17 0 33 8 47 19l22 -44c-27 -23 -60 -35 -91 -35c-61 0 -99 42 -99 86c0 39 26 86 83 135l-71 175h-337l-70 -175h-112zM351 584l-134 -325h268l-132 325h-2z" />
    <glyph glyph-name="AE" unicode="&#xc6;" horiz-adv-x="963" 
d="M450 708h456v-90h-295v-211h277v-90h-277v-227h307v-90h-403v172h-304l-101 -172h-118zM515 618h-19l-233 -356h252v356z" />
    <glyph glyph-name="Cacute" unicode="&#x106;" horiz-adv-x="704" 
d="M416 726c100 0 193 -39 248 -110l-80 -61c-42 53 -105 81 -171 81c-158 0 -264 -127 -264 -288c0 -152 103 -276 264 -276c82 0 142 35 185 95l81 -61c-55 -74 -154 -124 -268 -124c-228 0 -364 192 -364 367c0 214 146 377 369 377zM461 904h128l-149 -144h-83z" />
    <glyph glyph-name="Ccircumflex" unicode="&#x108;" horiz-adv-x="704" 
d="M416 726c100 0 193 -39 248 -110l-80 -61c-42 53 -105 81 -171 81c-158 0 -264 -127 -264 -288c0 -152 103 -276 264 -276c82 0 142 35 185 95l81 -61c-55 -74 -154 -124 -268 -124c-228 0 -364 192 -364 367c0 214 146 377 369 377zM358 904h106l112 -144h-91l-74 96
l-74 -96h-91z" />
    <glyph glyph-name="Ccaron" unicode="&#x10c;" horiz-adv-x="704" 
d="M416 726c100 0 193 -39 248 -110l-80 -61c-42 53 -105 81 -171 81c-158 0 -264 -127 -264 -288c0 -152 103 -276 264 -276c82 0 142 35 185 95l81 -61c-55 -74 -154 -124 -268 -124c-228 0 -364 192 -364 367c0 214 146 377 369 377zM236 904h87l78 -96l74 96h91
l-112 -144h-106z" />
    <glyph glyph-name="Cdotaccent" unicode="&#x10a;" horiz-adv-x="704" 
d="M416 726c100 0 193 -39 248 -110l-80 -61c-42 53 -105 81 -171 81c-158 0 -264 -127 -264 -288c0 -152 103 -276 264 -276c82 0 142 35 185 95l81 -61c-55 -74 -154 -124 -268 -124c-228 0 -364 192 -364 367c0 214 146 377 369 377zM409 897c34 0 62 -27 62 -57
c0 -36 -26 -63 -62 -63s-62 27 -62 63c0 31 28 57 62 57z" />
    <glyph glyph-name="Ccedilla" unicode="&#xc7;" horiz-adv-x="704" 
d="M416 726c100 0 193 -39 248 -110l-80 -61c-42 53 -105 81 -171 81c-158 0 -264 -127 -264 -288c0 -152 103 -276 264 -276c82 0 142 35 185 95l81 -61c-55 -74 -154 -124 -268 -124h-14l-31 -43h27c65 0 94 -34 94 -72c0 -60 -51 -95 -126 -95c-34 0 -70 7 -104 23l19 40
c27 -10 53 -15 78 -15c37 0 61 15 61 42c0 29 -19 41 -45 41c-16 0 -37 -4 -49 -8l-21 18l52 74c-192 29 -305 202 -305 362c0 214 146 377 369 377z" />
    <glyph glyph-name="Dcaron" unicode="&#x10e;" horiz-adv-x="741" 
d="M75 708h252c255 0 367 -180 367 -354c0 -203 -159 -354 -382 -354h-237v708zM171 90h126c134 0 295 73 295 264c0 135 -85 264 -272 264h-149v-528zM179 904h87l78 -96l74 96h91l-112 -144h-106z" />
    <glyph glyph-name="Dcroat" unicode="&#x110;" horiz-adv-x="741" 
d="M75 708h252c255 0 367 -180 367 -354c0 -203 -159 -354 -382 -354h-237v336h-72v66h72v306zM171 90h126c134 0 295 73 295 264c0 135 -85 264 -272 264h-149v-216h234v-66h-234v-246z" />
    <glyph glyph-name="Eth" unicode="&#xd0;" horiz-adv-x="741" 
d="M75 708h252c255 0 367 -180 367 -354c0 -203 -159 -354 -382 -354h-237v336h-72v66h72v306zM171 90h126c134 0 295 73 295 264c0 135 -85 264 -272 264h-149v-216h234v-66h-234v-246z" />
    <glyph glyph-name="Egrave" unicode="&#xc8;" horiz-adv-x="611" 
d="M91 708h457v-90h-361v-211h336v-90h-336v-227h379v-90h-475v708zM140 892h128l104 -144h-83z" />
    <glyph glyph-name="Eacute" unicode="&#xc9;" horiz-adv-x="611" 
d="M91 708h457v-90h-361v-211h336v-90h-336v-227h379v-90h-475v708zM344 892h128l-149 -144h-83z" />
    <glyph glyph-name="Ecircumflex" unicode="&#xca;" horiz-adv-x="611" 
d="M91 708h457v-90h-361v-211h336v-90h-336v-227h379v-90h-475v708zM253 892h106l112 -144h-91l-74 96l-74 -96h-91z" />
    <glyph glyph-name="Ecaron" unicode="&#x11a;" horiz-adv-x="611" 
d="M91 708h457v-90h-361v-211h336v-90h-336v-227h379v-90h-475v708zM158 904h87l78 -96l74 96h91l-112 -144h-106z" />
    <glyph glyph-name="Edieresis" unicode="&#xcb;" horiz-adv-x="611" 
d="M91 708h457v-90h-361v-211h336v-90h-336v-227h379v-90h-475v708zM204 898c33 0 62 -25 62 -57c0 -35 -25 -63 -62 -63s-62 28 -62 63c0 30 28 57 62 57zM408 898c34 0 62 -27 62 -57c0 -36 -26 -63 -62 -63c-35 0 -62 27 -62 63c0 30 27 57 62 57z" />
    <glyph glyph-name="Emacron" unicode="&#x112;" horiz-adv-x="611" 
d="M91 708h457v-90h-361v-211h336v-90h-336v-227h379v-90h-475v708zM176 854h288v-66h-288v66z" />
    <glyph glyph-name="Ebreve" unicode="&#x114;" horiz-adv-x="611" 
d="M91 708h457v-90h-361v-211h336v-90h-336v-227h379v-90h-475v708zM165 896h55c8 -47 49 -72 103 -72s95 25 103 72h53c-6 -90 -67 -138 -157 -138s-149 48 -157 138z" />
    <glyph glyph-name="Edotaccent" unicode="&#x116;" horiz-adv-x="611" 
d="M91 708h457v-90h-361v-211h336v-90h-336v-227h379v-90h-475v708zM330 897c34 0 62 -27 62 -57c0 -36 -26 -63 -62 -63s-62 27 -62 63c0 31 28 57 62 57z" />
    <glyph glyph-name="Eogonek" unicode="&#x118;" horiz-adv-x="611" 
d="M91 708h457v-90h-361v-211h336v-90h-336v-227h379v-90h-19c-45 -48 -67 -88 -67 -117c0 -24 18 -44 49 -44c17 0 35 8 47 19l22 -44c-28 -24 -60 -35 -91 -35c-60 0 -99 39 -99 86c0 39 28 89 83 135h-400v708z" />
    <glyph glyph-name="Gcircumflex" unicode="&#x11c;" horiz-adv-x="778" 
d="M417 726c117 0 203 -29 263 -92l-68 -73c-58 56 -126 75 -196 75c-156 0 -267 -120 -267 -282c0 -155 113 -282 275 -282c67 0 130 12 174 37v197h-157v90h253v-349c-67 -41 -177 -65 -268 -65c-228 0 -379 159 -379 372c0 209 153 372 370 372zM356 904h106l112 -144
h-91l-74 96l-74 -96h-91z" />
    <glyph glyph-name="Gbreve" unicode="&#x11e;" horiz-adv-x="778" 
d="M417 726c117 0 203 -29 263 -92l-68 -73c-58 56 -126 75 -196 75c-156 0 -267 -120 -267 -282c0 -155 113 -282 275 -282c67 0 130 12 174 37v197h-157v90h253v-349c-67 -41 -177 -65 -268 -65c-228 0 -379 159 -379 372c0 209 153 372 370 372zM253 896h55
c8 -47 49 -72 103 -72s95 25 103 72h53c-6 -90 -67 -138 -157 -138s-149 48 -157 138z" />
    <glyph glyph-name="Gdotaccent" unicode="&#x120;" horiz-adv-x="778" 
d="M417 726c117 0 203 -29 263 -92l-68 -73c-58 56 -126 75 -196 75c-156 0 -267 -120 -267 -282c0 -155 113 -282 275 -282c67 0 130 12 174 37v197h-157v90h253v-349c-67 -41 -177 -65 -268 -65c-228 0 -379 159 -379 372c0 209 153 372 370 372zM423 897
c34 0 62 -27 62 -57c0 -36 -26 -63 -62 -63s-62 27 -62 63c0 31 28 57 62 57z" />
    <glyph glyph-name="Gcommaaccent" unicode="&#x122;" horiz-adv-x="778" 
d="M417 726c117 0 203 -29 263 -92l-68 -73c-58 56 -126 75 -196 75c-156 0 -267 -120 -267 -282c0 -155 113 -282 275 -282c67 0 130 12 174 37v197h-157v90h253v-349c-67 -41 -177 -65 -268 -65c-228 0 -379 159 -379 372c0 209 153 372 370 372zM396 -45h93l-78 -190h-79
z" />
    <glyph glyph-name="Hcircumflex" unicode="&#x124;" horiz-adv-x="741" 
d="M91 708h96v-294h367v294h96v-708h-96v324h-367v-324h-96v708zM309 904h106l112 -144h-91l-74 96l-74 -96h-91z" />
    <glyph glyph-name="Hbar" unicode="&#x126;" horiz-adv-x="741" 
d="M91 708h96v-126h367v126h96v-708h-96v324h-367v-324h-96v708zM187 414h367v90h-367v-90z" />
    <glyph glyph-name="Igrave" unicode="&#xcc;" horiz-adv-x="278" 
d="M91 708h96v-708h-96v708zM-27 892h128l104 -144h-83z" />
    <glyph glyph-name="Iacute" unicode="&#xcd;" horiz-adv-x="278" 
d="M91 708h96v-708h-96v708zM177 892h128l-149 -144h-83z" />
    <glyph glyph-name="Icircumflex" unicode="&#xce;" horiz-adv-x="278" 
d="M91 708h96v-708h-96v708zM86 892h106l112 -144h-91l-74 96l-74 -96h-91z" />
    <glyph glyph-name="Itilde" unicode="&#x128;" horiz-adv-x="278" 
d="M91 708h96v-708h-96v708zM253 878h48c-11 -66 -45 -104 -94 -104c-29 0 -55 11 -81 21s-44 19 -66 19c-23 0 -39 -18 -47 -44h-48c11 64 50 104 101 104c27 0 51 -10 74 -19c22 -9 41 -21 64 -21c27 0 42 20 49 44z" />
    <glyph glyph-name="Idieresis" unicode="&#xcf;" horiz-adv-x="278" 
d="M91 708h96v-708h-96v708zM37 898c33 0 62 -25 62 -57c0 -35 -25 -63 -62 -63s-62 28 -62 63c0 30 28 57 62 57zM241 898c34 0 62 -27 62 -57c0 -36 -26 -63 -62 -63c-35 0 -62 27 -62 63c0 30 27 57 62 57z" />
    <glyph glyph-name="Imacron" unicode="&#x12a;" horiz-adv-x="278" 
d="M91 708h96v-708h-96v708zM-4 854h288v-66h-288v66z" />
    <glyph glyph-name="Idotaccent" unicode="&#x130;" horiz-adv-x="278" 
d="M91 708h96v-708h-96v708zM139 897c34 0 62 -27 62 -57c0 -36 -26 -63 -62 -63s-62 27 -62 63c0 31 28 57 62 57z" />
    <glyph glyph-name="Iogonek" unicode="&#x12e;" horiz-adv-x="278" 
d="M91 708h96v-708h-29c-46 -49 -67 -88 -67 -117c0 -21 16 -44 49 -44c17 0 34 8 47 19l22 -44c-28 -24 -60 -35 -91 -35c-60 0 -99 39 -99 86c0 41 30 90 83 135h-11v708z" />
    <glyph glyph-name="Jcircumflex" unicode="&#x134;" horiz-adv-x="482" 
d="M312 708h96v-510c0 -149 -101 -216 -207 -216c-104 0 -173 56 -192 155l94 21c11 -53 45 -86 98 -86c74 0 111 49 111 156v480zM305 904h106l112 -144h-91l-74 96l-74 -96h-91z" />
    <glyph glyph-name="Kcommaaccent" unicode="&#x136;" horiz-adv-x="648" 
d="M91 708h96v-306h8l313 306h134l-342 -327l365 -381h-140l-330 354h-8v-354h-96v708zM292 -45h93l-78 -190h-79z" />
    <glyph glyph-name="Lacute" unicode="&#x139;" horiz-adv-x="519" 
d="M91 708h96v-618h325v-90h-421v708zM208 904h128l-149 -144h-83z" />
    <glyph glyph-name="Lcaron" unicode="&#x13d;" horiz-adv-x="519" 
d="M91 708h96v-618h325v-90h-421v708zM304 708h93l-78 -190h-79z" />
    <glyph glyph-name="Lcommaaccent" unicode="&#x13b;" horiz-adv-x="519" 
d="M91 708h96v-618h325v-90h-421v708zM271 -45h93l-78 -190h-79z" />
    <glyph glyph-name="Lslash" unicode="&#x141;" horiz-adv-x="519" 
d="M91 708h96v-328l216 188v-89l-216 -187v-202h325v-90h-421v209l-72 -63v89l72 62v411z" />
    <glyph glyph-name="Ldot" unicode="&#x13f;" horiz-adv-x="519" 
d="M91 708h96v-618h325v-90h-421v708zM393 463c32 0 62 -25 62 -57c0 -35 -26 -63 -62 -63s-62 27 -62 63c0 30 28 57 62 57z" />
    <glyph glyph-name="Nacute" unicode="&#x143;" horiz-adv-x="796" 
d="M91 708h126l390 -582h2v582h96v-708h-122l-394 582h-2v-582h-96v708zM440 904h128l-149 -144h-83z" />
    <glyph glyph-name="Ncaron" unicode="&#x147;" horiz-adv-x="796" 
d="M91 708h126l390 -582h2v582h96v-708h-122l-394 582h-2v-582h-96v708zM226 904h87l78 -96l74 96h91l-112 -144h-106z" />
    <glyph glyph-name="Ntilde" unicode="&#xd1;" horiz-adv-x="796" 
d="M91 708h126l390 -582h2v582h96v-708h-122l-394 582h-2v-582h-96v708zM518 868h48c-11 -66 -45 -104 -94 -104c-29 0 -55 11 -81 21s-44 19 -66 19c-23 0 -39 -18 -47 -44h-48c11 64 50 104 101 104c27 0 51 -10 74 -19c22 -9 41 -21 64 -21c27 0 42 20 49 44z" />
    <glyph glyph-name="Ncommaaccent" unicode="&#x145;" horiz-adv-x="796" 
d="M91 708h126l390 -582h2v582h96v-708h-122l-394 582h-2v-582h-96v708zM362 -45h93l-78 -190h-79z" />
    <glyph glyph-name="Ograve" unicode="&#xd2;" horiz-adv-x="832" 
d="M416 726c205 0 369 -151 369 -372c0 -208 -152 -372 -369 -372c-207 0 -369 155 -369 372c0 213 157 372 369 372zM149 354c0 -154 104 -282 267 -282c155 0 267 121 267 282c0 156 -105 282 -268 282c-154 0 -266 -121 -266 -282zM250 892h128l104 -144h-83z" />
    <glyph glyph-name="Oacute" unicode="&#xd3;" horiz-adv-x="832" 
d="M416 726c205 0 369 -151 369 -372c0 -208 -152 -372 -369 -372c-207 0 -369 155 -369 372c0 213 157 372 369 372zM149 354c0 -154 104 -282 267 -282c155 0 267 121 267 282c0 156 -105 282 -268 282c-154 0 -266 -121 -266 -282zM454 892h128l-149 -144h-83z" />
    <glyph glyph-name="Ocircumflex" unicode="&#xd4;" horiz-adv-x="832" 
d="M416 726c205 0 369 -151 369 -372c0 -208 -152 -372 -369 -372c-207 0 -369 155 -369 372c0 213 157 372 369 372zM149 354c0 -154 104 -282 267 -282c155 0 267 121 267 282c0 156 -105 282 -268 282c-154 0 -266 -121 -266 -282zM363 892h106l112 -144h-91l-74 96
l-74 -96h-91z" />
    <glyph glyph-name="Otilde" unicode="&#xd5;" horiz-adv-x="832" 
d="M416 726c205 0 369 -151 369 -372c0 -208 -152 -372 -369 -372c-207 0 -369 155 -369 372c0 213 157 372 369 372zM149 354c0 -154 104 -282 267 -282c155 0 267 121 267 282c0 156 -105 282 -268 282c-154 0 -266 -121 -266 -282zM536 868h48c-11 -66 -45 -104 -94 -104
c-29 0 -55 11 -81 21s-44 19 -66 19c-23 0 -39 -18 -47 -44h-48c11 64 50 104 101 104c27 0 51 -10 74 -19c22 -9 41 -21 64 -21c27 0 42 20 49 44z" />
    <glyph glyph-name="Odieresis" unicode="&#xd6;" horiz-adv-x="832" 
d="M416 726c205 0 369 -151 369 -372c0 -208 -152 -372 -369 -372c-207 0 -369 155 -369 372c0 213 157 372 369 372zM149 354c0 -154 104 -282 267 -282c155 0 267 121 267 282c0 156 -105 282 -268 282c-154 0 -266 -121 -266 -282zM314 898c33 0 62 -25 62 -57
c0 -35 -25 -63 -62 -63s-62 28 -62 63c0 30 28 57 62 57zM518 898c34 0 62 -27 62 -57c0 -36 -26 -63 -62 -63c-35 0 -62 27 -62 63c0 30 27 57 62 57z" />
    <glyph glyph-name="Omacron" unicode="&#x14c;" horiz-adv-x="832" 
d="M416 726c205 0 369 -151 369 -372c0 -208 -152 -372 -369 -372c-207 0 -369 155 -369 372c0 213 157 372 369 372zM149 354c0 -154 104 -282 267 -282c155 0 267 121 267 282c0 156 -105 282 -268 282c-154 0 -266 -121 -266 -282zM274 854h288v-66h-288v66z" />
    <glyph glyph-name="Obreve" unicode="&#x14e;" horiz-adv-x="832" 
d="M416 726c205 0 369 -151 369 -372c0 -208 -152 -372 -369 -372c-207 0 -369 155 -369 372c0 213 157 372 369 372zM149 354c0 -154 104 -282 267 -282c155 0 267 121 267 282c0 156 -105 282 -268 282c-154 0 -266 -121 -266 -282zM259 896h55c8 -47 49 -72 103 -72
s95 25 103 72h53c-6 -90 -67 -138 -157 -138s-149 48 -157 138z" />
    <glyph glyph-name="Ohungarumlaut" unicode="&#x150;" horiz-adv-x="832" 
d="M416 726c205 0 369 -151 369 -372c0 -208 -152 -372 -369 -372c-207 0 -369 155 -369 372c0 213 157 372 369 372zM149 354c0 -154 104 -282 267 -282c155 0 267 121 267 282c0 156 -105 282 -268 282c-154 0 -266 -121 -266 -282zM369 904h127l-149 -144h-82zM538 904
h127l-149 -144h-82z" />
    <glyph glyph-name="Oslash" unicode="&#xd8;" horiz-adv-x="832" 
d="M646 650l83 90l42 -38l-83 -90c61 -65 97 -155 97 -258c0 -210 -153 -372 -369 -372c-92 0 -171 29 -234 79l-84 -91l-43 38l85 93c-59 66 -93 153 -93 253c0 209 152 372 369 372c88 0 167 -27 230 -76zM149 354c0 -69 21 -132 58 -181l374 407c-44 35 -99 56 -166 56
c-154 0 -266 -120 -266 -282zM621 540l-375 -409c46 -37 103 -59 170 -59c155 0 267 119 267 282c0 71 -21 136 -62 186z" />
    <glyph glyph-name="OE" unicode="&#x152;" horiz-adv-x="981" 
d="M461 708h450v-90h-294v-211h276v-90h-276v-227h306v-90h-462c-235 0 -403 133 -403 354c0 236 181 354 403 354zM160 354c0 -163 120 -264 295 -264h66v528h-65c-166 0 -296 -100 -296 -264z" />
    <glyph glyph-name="Racute" unicode="&#x154;" horiz-adv-x="611" 
d="M91 708h254c123 0 222 -60 222 -198c0 -78 -55 -172 -173 -187h-1l201 -323h-120l-180 312h-107v-312h-96v708zM187 396h130c99 0 148 36 148 114c0 77 -50 114 -148 114h-130v-228zM342 904h128l-149 -144h-83z" />
    <glyph glyph-name="Rcaron" unicode="&#x158;" horiz-adv-x="611" 
d="M91 708h254c123 0 222 -60 222 -198c0 -78 -55 -172 -173 -187h-1l201 -323h-120l-180 312h-107v-312h-96v708zM187 396h130c99 0 148 36 148 114c0 77 -50 114 -148 114h-130v-228zM129 904h87l78 -96l74 96h91l-112 -144h-106z" />
    <glyph glyph-name="Rcommaaccent" unicode="&#x156;" horiz-adv-x="611" 
d="M91 708h254c123 0 222 -60 222 -198c0 -78 -55 -172 -173 -187h-1l201 -323h-120l-180 312h-107v-312h-96v708zM187 396h130c99 0 148 36 148 114c0 77 -50 114 -148 114h-130v-228zM280 -45h93l-78 -190h-79z" />
    <glyph glyph-name="Sacute" unicode="&#x15a;" 
d="M294 726c101 0 163 -30 204 -81l-78 -71c-24 37 -70 62 -127 62c-109 0 -137 -68 -137 -109c0 -60 41 -92 106 -112l89 -29c99 -32 154 -85 154 -185c0 -131 -103 -219 -246 -219c-100 0 -180 36 -226 98l79 68c31 -48 88 -76 150 -76c71 0 141 45 141 118
c0 49 -29 80 -115 107l-63 21c-97 31 -171 82 -171 209c0 94 80 199 240 199zM330 904h128l-149 -144h-83z" />
    <glyph glyph-name="Scircumflex" unicode="&#x15c;" 
d="M294 726c101 0 163 -30 204 -81l-78 -71c-24 37 -70 62 -127 62c-109 0 -137 -68 -137 -109c0 -60 41 -92 106 -112l89 -29c99 -32 154 -85 154 -185c0 -131 -103 -219 -246 -219c-100 0 -180 36 -226 98l79 68c31 -48 88 -76 150 -76c71 0 141 45 141 118
c0 49 -29 80 -115 107l-63 21c-97 31 -171 82 -171 209c0 94 80 199 240 199zM236 904h106l112 -144h-91l-74 96l-74 -96h-91z" />
    <glyph glyph-name="Scaron" unicode="&#x160;" 
d="M294 726c101 0 163 -30 204 -81l-78 -71c-24 37 -70 62 -127 62c-109 0 -137 -68 -137 -109c0 -60 41 -92 106 -112l89 -29c99 -32 154 -85 154 -185c0 -131 -103 -219 -246 -219c-100 0 -180 36 -226 98l79 68c31 -48 88 -76 150 -76c71 0 141 45 141 118
c0 49 -29 80 -115 107l-63 21c-97 31 -171 82 -171 209c0 94 80 199 240 199zM113 892h87l78 -96l74 96h91l-112 -144h-106z" />
    <glyph glyph-name="Scedilla" unicode="&#x15e;" 
d="M294 726c101 0 163 -30 204 -81l-78 -71c-24 37 -70 62 -127 62c-109 0 -137 -68 -137 -109c0 -60 42 -92 107 -112l89 -29c99 -32 153 -85 153 -185c0 -121 -87 -204 -212 -217l-32 -45h27c62 0 94 -31 94 -72c0 -60 -51 -95 -126 -95c-35 0 -70 7 -104 23l19 40
c27 -10 52 -15 77 -15c37 0 62 15 62 42c0 29 -19 41 -46 41c-16 0 -36 -4 -48 -8l-21 18l48 69c-97 6 -170 41 -210 98l79 68c31 -48 88 -76 150 -76c71 0 141 45 141 118c0 49 -29 80 -115 107l-63 21c-37 12 -64 25 -84 38c-55 35 -87 89 -87 171c0 94 80 199 240 199z
" />
    <glyph glyph-name="Scommaaccent" unicode="&#x218;" 
d="M294 726c101 0 163 -30 204 -81l-78 -71c-24 37 -70 62 -127 62c-109 0 -137 -68 -137 -109c0 -60 41 -92 106 -112l89 -29c99 -32 154 -85 154 -185c0 -131 -103 -219 -246 -219c-100 0 -180 36 -226 98l79 68c31 -48 88 -76 150 -76c71 0 141 45 141 118
c0 49 -29 80 -115 107l-63 21c-97 31 -171 82 -171 209c0 94 80 199 240 199zM259 -45h93l-78 -190h-79z" />
    <glyph glyph-name="Tcaron" unicode="&#x164;" horiz-adv-x="574" 
d="M11 708h552v-90h-228v-618h-96v618h-228v90zM122 904h87l78 -96l74 96h91l-112 -144h-106z" />
    <glyph glyph-name="Tcommaaccent" unicode="&#x162;" horiz-adv-x="574" 
d="M11 708h552v-90h-228v-618h-96v618h-228v90zM260 -45h93l-78 -190h-79z" />
    <glyph glyph-name="uni021A" unicode="&#x21a;" horiz-adv-x="574" 
d="M11 708h552v-90h-228v-618h-96v618h-228v90zM260 -45h93l-78 -190h-79z" />
    <glyph glyph-name="Tbar" unicode="&#x166;" horiz-adv-x="574" 
d="M11 708h552v-90h-228v-137h207v-72h-207v-409h-96v409h-201v72h201v137h-228v90z" />
    <glyph glyph-name="Thorn" unicode="&#xde;" horiz-adv-x="593" 
d="M91 708h96v-145h158c136 0 222 -70 222 -198c0 -125 -83 -198 -222 -198h-158v-167h-96v708zM187 251h130c97 0 148 36 148 114s-51 114 -148 114h-130v-228z" />
    <glyph glyph-name="Ugrave" unicode="&#xd9;" horiz-adv-x="704" 
d="M78 708h96v-437c0 -78 40 -199 178 -199c132 0 178 113 178 199v437h96v-453c0 -137 -100 -273 -274 -273c-167 0 -274 127 -274 273v453zM186 892h128l104 -144h-83z" />
    <glyph glyph-name="Uacute" unicode="&#xda;" horiz-adv-x="704" 
d="M78 708h96v-437c0 -78 40 -199 178 -199c132 0 178 113 178 199v437h96v-453c0 -137 -100 -273 -274 -273c-167 0 -274 127 -274 273v453zM390 892h128l-149 -144h-83z" />
    <glyph glyph-name="Ucircumflex" unicode="&#xdb;" horiz-adv-x="704" 
d="M78 708h96v-437c0 -78 40 -199 178 -199c132 0 178 113 178 199v437h96v-453c0 -137 -100 -273 -274 -273c-167 0 -274 127 -274 273v453zM299 892h106l112 -144h-91l-74 96l-74 -96h-91z" />
    <glyph glyph-name="Utilde" unicode="&#x168;" horiz-adv-x="704" 
d="M78 708h96v-437c0 -78 40 -199 178 -199c132 0 178 113 178 199v437h96v-453c0 -137 -100 -273 -274 -273c-167 0 -274 127 -274 273v453zM472 878h48c-11 -66 -45 -104 -94 -104c-29 0 -55 11 -81 21s-44 19 -66 19c-23 0 -39 -18 -47 -44h-48c11 64 50 104 101 104
c27 0 51 -10 74 -19c22 -9 41 -21 64 -21c27 0 42 20 49 44z" />
    <glyph glyph-name="Udieresis" unicode="&#xdc;" horiz-adv-x="704" 
d="M78 708h96v-437c0 -78 40 -199 178 -199c132 0 178 113 178 199v437h96v-453c0 -137 -100 -273 -274 -273c-167 0 -274 127 -274 273v453zM250 898c33 0 62 -25 62 -57c0 -35 -25 -63 -62 -63s-62 28 -62 63c0 30 28 57 62 57zM454 898c34 0 62 -27 62 -57
c0 -36 -26 -63 -62 -63c-35 0 -62 27 -62 63c0 30 27 57 62 57z" />
    <glyph glyph-name="Umacron" unicode="&#x16a;" horiz-adv-x="704" 
d="M78 708h96v-437c0 -78 40 -199 178 -199c132 0 178 113 178 199v437h96v-453c0 -137 -100 -273 -274 -273c-167 0 -274 127 -274 273v453zM201 854h288v-66h-288v66z" />
    <glyph glyph-name="Ubreve" unicode="&#x16c;" horiz-adv-x="704" 
d="M78 708h96v-437c0 -78 40 -199 178 -199c132 0 178 113 178 199v437h96v-453c0 -137 -100 -273 -274 -273c-167 0 -274 127 -274 273v453zM188 896h55c8 -47 49 -72 103 -72s95 25 103 72h53c-6 -90 -67 -138 -157 -138s-149 48 -157 138z" />
    <glyph glyph-name="Uring" unicode="&#x16e;" horiz-adv-x="704" 
d="M78 708h96v-437c0 -78 40 -199 178 -199c132 0 178 113 178 199v437h96v-453c0 -137 -100 -273 -274 -273c-167 0 -274 127 -274 273v453zM347 934c55 0 102 -42 102 -98s-45 -99 -102 -99c-53 0 -102 43 -102 98s47 99 102 99zM287 835c0 -33 30 -56 60 -56s60 24 60 56
s-26 57 -60 57c-33 0 -60 -24 -60 -57z" />
    <glyph glyph-name="Uhungarumlaut" unicode="&#x170;" horiz-adv-x="704" 
d="M78 708h96v-437c0 -78 40 -199 178 -199c132 0 178 113 178 199v437h96v-453c0 -137 -100 -273 -274 -273c-167 0 -274 127 -274 273v453zM303 904h127l-149 -144h-82zM472 904h127l-149 -144h-82z" />
    <glyph glyph-name="Uogonek" unicode="&#x172;" horiz-adv-x="704" 
d="M78 708h96v-437c0 -78 40 -199 178 -199c132 0 178 113 178 199v437h96v-453c0 -125 -84 -250 -230 -270c-29 -30 -54 -72 -54 -102c0 -21 16 -44 49 -44c17 0 34 8 47 19l22 -44c-28 -24 -60 -35 -91 -35c-60 0 -99 39 -99 86c0 35 21 76 64 118
c-156 8 -256 132 -256 272v453z" />
    <glyph glyph-name="Wcircumflex" unicode="&#x174;" horiz-adv-x="962" 
d="M482 578h-2l-171 -578h-101l-207 708h100l156 -566h2l167 566h110l167 -566h2l156 566h100l-206 -708h-101zM429 904h106l112 -144h-91l-74 96l-74 -96h-91z" />
    <glyph glyph-name="Yacute" unicode="&#xdd;" horiz-adv-x="612" 
d="M-10 708h123l193 -311l199 311h117l-268 -406v-302h-96v302zM344 892h128l-149 -144h-83z" />
    <glyph glyph-name="Ycircumflex" unicode="&#x176;" horiz-adv-x="612" 
d="M-10 708h123l193 -311l199 311h117l-268 -406v-302h-96v302zM254 904h106l112 -144h-91l-74 96l-74 -96h-91z" />
    <glyph glyph-name="Ydieresis" unicode="&#x178;" horiz-adv-x="612" 
d="M-10 708h123l193 -311l199 311h117l-268 -406v-302h-96v302zM204 898c33 0 62 -25 62 -57c0 -35 -25 -63 -62 -63s-62 28 -62 63c0 30 28 57 62 57zM408 898c34 0 62 -27 62 -57c0 -36 -26 -63 -62 -63c-35 0 -62 27 -62 63c0 30 27 57 62 57z" />
    <glyph glyph-name="Zacute" unicode="&#x179;" horiz-adv-x="593" 
d="M44 708h511v-90l-401 -528h407v-90h-529v89l403 529h-391v90zM314 904h128l-149 -144h-83z" />
    <glyph glyph-name="Zcaron" unicode="&#x17d;" horiz-adv-x="593" 
d="M44 708h511v-90l-401 -528h407v-90h-529v89l403 529h-391v90zM132 892h87l78 -96l74 96h91l-112 -144h-106z" />
    <glyph glyph-name="Zdotaccent" unicode="&#x17b;" horiz-adv-x="593" 
d="M44 708h511v-90l-401 -528h407v-90h-529v89l403 529h-391v90zM288 897c34 0 62 -27 62 -57c0 -36 -26 -63 -62 -63s-62 27 -62 63c0 31 28 57 62 57z" />
    <glyph glyph-name="agrave" unicode="&#xe0;" horiz-adv-x="519" 
d="M258 486c143 0 198 -81 198 -155v-254c0 -14 1 -52 4 -77h-80c-2 24 -3 44 -3 72h-2c-41 -61 -94 -84 -166 -84c-95 0 -164 54 -164 142c0 95 74 164 260 164h67v17c0 64 -47 103 -114 103c-51 0 -82 -12 -134 -54l-54 56c50 46 120 70 188 70zM135 137
c0 -49 33 -77 102 -77c81 0 135 50 135 142v26h-51c-146 0 -186 -45 -186 -91zM94 708h128l104 -144h-83z" />
    <glyph glyph-name="aacute" unicode="&#xe1;" horiz-adv-x="519" 
d="M258 486c143 0 198 -81 198 -155v-254c0 -14 1 -52 4 -77h-80c-2 24 -3 44 -3 72h-2c-41 -61 -94 -84 -166 -84c-95 0 -164 54 -164 142c0 95 74 164 260 164h67v17c0 64 -47 103 -114 103c-51 0 -82 -12 -134 -54l-54 56c50 46 120 70 188 70zM135 137
c0 -49 33 -77 102 -77c81 0 135 50 135 142v26h-51c-146 0 -186 -45 -186 -91zM298 708h128l-149 -144h-83z" />
    <glyph glyph-name="acircumflex" unicode="&#xe2;" horiz-adv-x="519" 
d="M258 486c143 0 198 -81 198 -155v-254c0 -14 1 -52 4 -77h-80c-2 24 -3 44 -3 72h-2c-41 -61 -94 -84 -166 -84c-95 0 -164 54 -164 142c0 95 74 164 260 164h67v17c0 64 -47 103 -114 103c-51 0 -82 -12 -134 -54l-54 56c50 46 120 70 188 70zM135 137
c0 -49 33 -77 102 -77c81 0 135 50 135 142v26h-51c-146 0 -186 -45 -186 -91zM207 708h106l112 -144h-91l-74 96l-74 -96h-91z" />
    <glyph glyph-name="atilde" unicode="&#xe3;" horiz-adv-x="519" 
d="M258 486c143 0 198 -81 198 -155v-254c0 -14 1 -52 4 -77h-80c-2 24 -3 44 -3 72h-2c-41 -61 -94 -84 -166 -84c-95 0 -164 54 -164 142c0 95 74 164 260 164h67v17c0 64 -47 103 -114 103c-51 0 -82 -12 -134 -54l-54 56c50 46 120 70 188 70zM135 137
c0 -49 33 -77 102 -77c81 0 135 50 135 142v26h-51c-146 0 -186 -45 -186 -91zM380 684h48c-11 -66 -45 -104 -94 -104c-29 0 -55 11 -81 21s-44 19 -66 19c-23 0 -39 -18 -47 -44h-48c12 64 50 104 101 104c27 0 51 -10 74 -19c22 -9 41 -21 64 -21c27 0 42 20 49 44z" />
    <glyph glyph-name="adieresis" unicode="&#xe4;" horiz-adv-x="519" 
d="M258 486c143 0 198 -81 198 -155v-254c0 -14 1 -52 4 -77h-80c-2 24 -3 44 -3 72h-2c-41 -61 -94 -84 -166 -84c-95 0 -164 54 -164 142c0 95 74 164 260 164h67v17c0 64 -47 103 -114 103c-51 0 -82 -12 -134 -54l-54 56c50 46 120 70 188 70zM135 137
c0 -49 33 -77 102 -77c81 0 135 50 135 142v26h-51c-146 0 -186 -45 -186 -91zM158 714c32 0 62 -26 62 -57c0 -36 -25 -63 -62 -63s-62 27 -62 63c0 30 28 57 62 57zM362 714c32 0 62 -26 62 -57c0 -35 -26 -63 -62 -63s-62 27 -62 63c0 30 28 57 62 57z" />
    <glyph glyph-name="amacron" unicode="&#x101;" horiz-adv-x="519" 
d="M258 486c143 0 198 -81 198 -155v-254c0 -14 1 -52 4 -77h-80c-2 24 -3 44 -3 72h-2c-41 -61 -94 -84 -166 -84c-95 0 -164 54 -164 142c0 95 74 164 260 164h67v17c0 64 -47 103 -114 103c-51 0 -82 -12 -134 -54l-54 56c50 46 120 70 188 70zM135 137
c0 -49 33 -77 102 -77c81 0 135 50 135 142v26h-51c-146 0 -186 -45 -186 -91zM107 666h288v-66h-288v66z" />
    <glyph glyph-name="abreve" unicode="&#x103;" horiz-adv-x="519" 
d="M258 486c143 0 198 -81 198 -155v-254c0 -14 1 -52 4 -77h-80c-2 24 -3 44 -3 72h-2c-41 -61 -94 -84 -166 -84c-95 0 -164 54 -164 142c0 95 74 164 260 164h67v17c0 64 -47 103 -114 103c-51 0 -82 -12 -134 -54l-54 56c50 46 120 70 188 70zM135 137
c0 -49 33 -77 102 -77c81 0 135 50 135 142v26h-51c-146 0 -186 -45 -186 -91zM93 702h55c8 -46 46 -72 103 -72c55 0 95 25 103 72h53c-6 -88 -65 -138 -157 -138s-150 50 -157 138z" />
    <glyph glyph-name="aring" unicode="&#xe5;" horiz-adv-x="519" 
d="M258 486c143 0 198 -81 198 -155v-254c0 -14 1 -52 4 -77h-80c-2 24 -3 44 -3 72h-2c-41 -61 -94 -84 -166 -84c-95 0 -164 54 -164 142c0 95 74 164 260 164h67v17c0 64 -47 103 -114 103c-51 0 -82 -12 -134 -54l-54 56c50 46 120 70 188 70zM135 137
c0 -49 33 -77 102 -77c81 0 135 50 135 142v26h-51c-146 0 -186 -45 -186 -91zM260 750c57 0 102 -44 102 -98c0 -56 -47 -99 -102 -99s-102 45 -102 98c0 54 47 99 102 99zM200 651c0 -30 28 -56 60 -56c33 0 60 26 60 56c0 32 -26 57 -60 57c-33 0 -60 -24 -60 -57z" />
    <glyph glyph-name="aogonek" unicode="&#x105;" horiz-adv-x="519" 
d="M258 486c143 0 198 -81 198 -155v-254c0 -14 1 -52 4 -77h-21c-42 -43 -67 -86 -67 -117c0 -24 18 -44 49 -44c17 0 33 8 47 19l22 -44c-28 -24 -60 -35 -91 -35c-61 0 -99 39 -99 86c0 42 34 95 83 135h-3c-2 24 -3 44 -3 72h-2c-41 -61 -94 -84 -166 -84
c-95 0 -164 54 -164 142c0 95 74 164 260 164h67v17c0 64 -47 103 -114 103c-51 0 -82 -12 -134 -54l-54 56c50 46 120 70 188 70zM135 137c0 -49 33 -77 102 -77c81 0 135 50 135 142v26h-51c-146 0 -186 -45 -186 -91z" />
    <glyph glyph-name="ae" unicode="&#xe6;" horiz-adv-x="852" 
d="M256 486c78 0 139 -28 170 -76c46 53 101 76 166 76c158 0 221 -123 221 -248v-34h-353c1 -84 61 -144 143 -144c57 0 99 32 123 75l73 -55c-59 -69 -116 -98 -198 -98c-86 0 -148 34 -185 97c-45 -60 -106 -97 -194 -97c-114 0 -183 65 -183 153c0 94 76 141 193 141
h144v12c0 81 -49 126 -119 126c-49 0 -87 -15 -134 -54l-56 57c51 44 120 69 189 69zM460 276h257c-4 88 -47 132 -127 132c-74 0 -129 -50 -130 -132zM135 135c0 -46 46 -81 99 -81c78 0 142 52 142 137v13h-146c-59 0 -95 -19 -95 -69z" />
    <glyph glyph-name="cacute" unicode="&#x107;" horiz-adv-x="482" 
d="M293 485c69 0 135 -24 182 -75l-68 -62c-33 35 -68 53 -118 53c-90 0 -148 -70 -148 -168c0 -92 63 -161 153 -161c51 0 84 18 115 53l64 -64c-47 -53 -111 -73 -180 -73c-146 0 -248 101 -248 247c0 148 103 250 248 250zM301 708h128l-149 -144h-83z" />
    <glyph glyph-name="ccircumflex" unicode="&#x109;" horiz-adv-x="482" 
d="M293 485c69 0 135 -24 182 -75l-68 -62c-33 35 -68 53 -118 53c-90 0 -148 -70 -148 -168c0 -92 63 -161 153 -161c51 0 84 18 115 53l64 -64c-47 -53 -111 -73 -180 -73c-146 0 -248 101 -248 247c0 148 103 250 248 250zM227 708h106l112 -144h-91l-74 96l-74 -96h-91z
" />
    <glyph glyph-name="ccaron" unicode="&#x10d;" horiz-adv-x="482" 
d="M293 485c69 0 135 -24 182 -75l-68 -62c-33 35 -68 53 -118 53c-90 0 -148 -70 -148 -168c0 -92 63 -161 153 -161c51 0 84 18 115 53l64 -64c-47 -53 -111 -73 -180 -73c-146 0 -248 101 -248 247c0 148 103 250 248 250zM122 708h87l78 -96l74 96h91l-112 -144h-106z
" />
    <glyph glyph-name="cdotaccent" unicode="&#x10b;" horiz-adv-x="482" 
d="M293 485c69 0 135 -24 182 -75l-68 -62c-33 35 -68 53 -118 53c-90 0 -148 -70 -148 -168c0 -92 63 -161 153 -161c51 0 84 18 115 53l64 -64c-47 -53 -111 -73 -180 -73c-146 0 -248 101 -248 247c0 148 103 250 248 250zM285 714c32 0 62 -25 62 -57
c0 -35 -26 -63 -62 -63s-62 27 -62 63c0 30 28 57 62 57z" />
    <glyph glyph-name="ccedilla" unicode="&#xe7;" horiz-adv-x="482" 
d="M293 485c69 0 135 -24 182 -75l-68 -62c-33 35 -68 53 -118 53c-90 0 -148 -70 -148 -168c0 -92 64 -161 153 -161c51 0 84 18 115 53l64 -64c-45 -50 -104 -70 -172 -72l-36 -50h25c66 0 96 -32 96 -72c0 -62 -54 -95 -125 -95c-35 0 -72 7 -105 23l19 40
c26 -10 53 -15 77 -15c38 0 62 15 62 42c0 29 -19 41 -45 41c-17 0 -39 -5 -49 -8l-21 18l54 79c-128 17 -208 113 -208 243c0 147 102 250 248 250z" />
    <glyph glyph-name="dcaron" unicode="&#x10f;" horiz-adv-x="611" 
d="M453 756h90v-756h-90v68h-2c-35 -51 -99 -80 -165 -80c-140 0 -241 102 -241 249s101 249 241 249c65 0 131 -29 165 -80h2v350zM141 237c0 -99 63 -165 156 -165c94 0 156 67 156 165c0 100 -64 165 -157 165c-92 0 -155 -66 -155 -165zM679 708h93l-78 -190h-79z" />
    <glyph glyph-name="dcroat" unicode="&#x111;" horiz-adv-x="611" 
d="M453 756h90v-134h50v-62h-50v-560h-90v68h-2c-34 -49 -99 -80 -165 -80c-139 0 -241 101 -241 249c0 147 101 249 241 249c65 0 131 -29 165 -80h2v154h-179v62h179v134zM141 237c0 -99 63 -165 156 -165c94 0 156 68 156 165c0 100 -64 165 -157 165
c-92 0 -155 -68 -155 -165z" />
    <glyph glyph-name="eth" unicode="&#xf0;" horiz-adv-x="594" 
d="M147 736l79 46l89 -78l108 52l52 -44l-112 -55c131 -140 186 -258 186 -388c0 -174 -97 -281 -252 -281c-146 0 -252 116 -252 249c0 137 110 249 251 249c53 0 99 -18 126 -50l2 2c-37 65 -86 123 -144 180l-107 -52l-47 46l106 53zM141 237c0 -99 63 -165 156 -165
c94 0 156 65 156 165s-64 165 -157 165c-92 0 -155 -68 -155 -165z" />
    <glyph glyph-name="egrave" unicode="&#xe8;" 
d="M285 486c140 0 231 -93 231 -257v-25h-380c0 -82 77 -138 160 -138c55 0 95 28 130 71l68 -52c-51 -65 -119 -97 -210 -97c-141 0 -244 98 -244 249c0 140 101 249 245 249zM136 276h284c-3 89 -53 138 -137 138c-95 0 -147 -81 -147 -138zM112 708h128l104 -144h-83z
" />
    <glyph glyph-name="eacute" unicode="&#xe9;" 
d="M285 486c140 0 231 -93 231 -257v-25h-380c0 -82 77 -138 160 -138c55 0 95 28 130 71l68 -52c-51 -65 -119 -97 -210 -97c-141 0 -244 98 -244 249c0 140 101 249 245 249zM136 276h284c-3 89 -53 138 -137 138c-95 0 -147 -81 -147 -138zM316 708h128l-149 -144h-83z
" />
    <glyph glyph-name="ecircumflex" unicode="&#xea;" 
d="M285 486c140 0 231 -93 231 -257v-25h-380c0 -82 77 -138 160 -138c55 0 95 28 130 71l68 -52c-51 -65 -119 -97 -210 -97c-141 0 -244 98 -244 249c0 140 101 249 245 249zM136 276h284c-3 89 -53 138 -137 138c-95 0 -147 -81 -147 -138zM225 708h106l112 -144h-91
l-74 96l-74 -96h-91z" />
    <glyph glyph-name="ecaron" unicode="&#x11b;" 
d="M285 486c140 0 231 -93 231 -257v-25h-380c0 -82 77 -138 160 -138c55 0 95 28 130 71l68 -52c-51 -65 -119 -97 -210 -97c-141 0 -244 98 -244 249c0 140 101 249 245 249zM136 276h284c-3 89 -53 138 -137 138c-95 0 -147 -81 -147 -138zM122 708h87l78 -96l74 96h91
l-112 -144h-106z" />
    <glyph glyph-name="edieresis" unicode="&#xeb;" 
d="M285 486c140 0 231 -93 231 -257v-25h-380c0 -82 77 -138 160 -138c55 0 95 28 130 71l68 -52c-51 -65 -119 -97 -210 -97c-141 0 -244 98 -244 249c0 140 101 249 245 249zM136 276h284c-3 89 -53 138 -137 138c-95 0 -147 -81 -147 -138zM176 714c32 0 62 -26 62 -57
c0 -36 -25 -63 -62 -63s-62 27 -62 63c0 30 28 57 62 57zM380 714c32 0 62 -26 62 -57c0 -35 -26 -63 -62 -63s-62 27 -62 63c0 30 28 57 62 57z" />
    <glyph glyph-name="emacron" unicode="&#x113;" 
d="M285 486c140 0 231 -93 231 -257v-25h-380c0 -82 77 -138 160 -138c55 0 95 28 130 71l68 -52c-51 -65 -119 -97 -210 -97c-141 0 -244 98 -244 249c0 140 101 249 245 249zM136 276h284c-3 89 -53 138 -137 138c-95 0 -147 -81 -147 -138zM137 666h288v-66h-288v66z" />
    <glyph glyph-name="ebreve" unicode="&#x115;" 
d="M285 486c140 0 231 -93 231 -257v-25h-380c0 -82 77 -138 160 -138c55 0 95 28 130 71l68 -52c-51 -65 -119 -97 -210 -97c-141 0 -244 98 -244 249c0 140 101 249 245 249zM136 276h284c-3 89 -53 138 -137 138c-95 0 -147 -81 -147 -138zM130 702h55
c8 -46 46 -72 103 -72c55 0 95 25 103 72h53c-6 -88 -65 -138 -157 -138s-150 50 -157 138z" />
    <glyph glyph-name="edotaccent" unicode="&#x117;" 
d="M285 486c140 0 231 -93 231 -257v-25h-380c0 -82 77 -138 160 -138c55 0 95 28 130 71l68 -52c-51 -65 -119 -97 -210 -97c-141 0 -244 98 -244 249c0 140 101 249 245 249zM136 276h284c-3 89 -53 138 -137 138c-95 0 -147 -81 -147 -138zM289 714c32 0 62 -25 62 -57
c0 -35 -26 -63 -62 -63s-62 27 -62 63c0 30 28 57 62 57z" />
    <glyph glyph-name="eogonek" unicode="&#x119;" 
d="M285 486c158 0 231 -117 231 -249v-33h-380c0 -82 77 -138 160 -138c56 0 95 28 130 71l68 -52c-38 -50 -90 -81 -155 -92c-11 -14 -60 -64 -60 -110c0 -21 16 -44 49 -44c17 0 34 8 47 19l22 -44c-28 -24 -60 -35 -91 -35c-60 0 -99 39 -99 86c0 35 22 77 69 123
c-147 5 -236 111 -236 249c0 147 110 249 245 249zM136 276h284c-3 89 -54 138 -137 138c-77 0 -144 -60 -147 -138z" />
    <glyph glyph-name="gcircumflex" unicode="&#x11d;" horiz-adv-x="611" 
d="M286 486c67 0 130 -30 165 -80h2v68h90v-474c0 -127 -93 -240 -259 -240c-90 0 -166 23 -232 85l61 76c47 -50 99 -77 170 -77c112 0 170 62 170 162v72h-3c-32 -55 -96 -84 -164 -84c-133 0 -241 98 -241 241c0 152 102 251 241 251zM141 237c0 -94 59 -159 156 -159
c95 0 156 62 156 159c0 100 -64 165 -157 165c-92 0 -155 -68 -155 -165zM249 708h106l112 -144h-91l-74 96l-74 -96h-91z" />
    <glyph glyph-name="gbreve" unicode="&#x11f;" horiz-adv-x="611" 
d="M286 486c67 0 130 -30 165 -80h2v68h90v-474c0 -127 -93 -240 -259 -240c-90 0 -166 23 -232 85l61 76c47 -50 99 -77 170 -77c112 0 170 62 170 162v72h-3c-32 -55 -96 -84 -164 -84c-133 0 -241 98 -241 241c0 152 102 251 241 251zM141 237c0 -94 59 -159 156 -159
c95 0 156 62 156 159c0 100 -64 165 -157 165c-92 0 -155 -68 -155 -165zM149 702h55c8 -46 46 -72 103 -72c55 0 95 25 103 72h53c-6 -88 -65 -138 -157 -138s-150 50 -157 138z" />
    <glyph glyph-name="gdotaccent" unicode="&#x121;" horiz-adv-x="611" 
d="M286 486c67 0 130 -30 165 -80h2v68h90v-474c0 -127 -93 -240 -259 -240c-90 0 -166 23 -232 85l61 76c47 -50 99 -77 170 -77c112 0 170 62 170 162v72h-3c-32 -55 -96 -84 -164 -84c-133 0 -241 98 -241 241c0 152 102 251 241 251zM141 237c0 -94 59 -159 156 -159
c95 0 156 62 156 159c0 100 -64 165 -157 165c-92 0 -155 -68 -155 -165zM307 714c32 0 62 -25 62 -57c0 -35 -26 -63 -62 -63s-62 27 -62 63c0 30 28 57 62 57z" />
    <glyph glyph-name="gcommaaccent" unicode="&#x123;" horiz-adv-x="611" 
d="M286 486c67 0 130 -30 165 -80h2v68h90v-474c0 -127 -93 -240 -259 -240c-90 0 -166 23 -232 85l61 76c47 -50 99 -77 170 -77c112 0 170 62 170 162v72h-3c-32 -55 -96 -84 -164 -84c-133 0 -241 98 -241 241c0 152 102 251 241 251zM141 237c0 -94 59 -159 156 -159
c95 0 156 62 156 159c0 100 -64 165 -157 165c-92 0 -155 -68 -155 -165zM314 754h79l-64 -190h-93z" />
    <glyph glyph-name="hcircumflex" unicode="&#x125;" 
d="M68 756h90v-355h2c25 53 87 85 156 85c105 0 172 -69 172 -177v-309h-90v283c0 73 -40 119 -108 119c-83 0 -132 -59 -132 -154v-248h-90v756zM220 940h106l112 -144h-91l-74 96l-74 -96h-91z" />
    <glyph glyph-name="hbar" unicode="&#x127;" 
d="M68 756h90v-134h183v-62h-183v-159h2c26 55 87 85 156 85c107 0 172 -70 172 -177v-309h-90v283c0 58 -28 119 -108 119c-86 0 -132 -62 -132 -154v-248h-90v560h-46v62h46v134z" />
    <glyph glyph-name="dotlessi" unicode="&#x131;" horiz-adv-x="240" 
d="M75 474h90v-474h-90v474z" />
    <glyph glyph-name="igrave" unicode="&#xec;" horiz-adv-x="240" 
d="M75 474h90v-474h-90v474zM-46 708h128l104 -144h-83z" />
    <glyph glyph-name="iacute" unicode="&#xed;" horiz-adv-x="240" 
d="M75 474h90v-474h-90v474zM158 708h128l-149 -144h-83z" />
    <glyph glyph-name="icircumflex" unicode="&#xee;" horiz-adv-x="240" 
d="M75 474h90v-474h-90v474zM67 708h106l112 -144h-91l-74 96l-74 -96h-91z" />
    <glyph glyph-name="itilde" unicode="&#x129;" horiz-adv-x="240" 
d="M75 474h90v-474h-90v474zM242 684h48c-11 -66 -45 -104 -94 -104c-29 0 -55 11 -81 21s-44 19 -66 19c-23 0 -39 -18 -47 -44h-48c12 64 50 104 101 104c27 0 51 -10 74 -19c22 -9 41 -21 64 -21c27 0 42 20 49 44z" />
    <glyph glyph-name="idieresis" unicode="&#xef;" horiz-adv-x="240" 
d="M75 474h90v-474h-90v474zM18 714c32 0 62 -26 62 -57c0 -36 -25 -63 -62 -63s-62 27 -62 63c0 30 28 57 62 57zM222 714c32 0 62 -26 62 -57c0 -35 -26 -63 -62 -63s-62 27 -62 63c0 30 28 57 62 57z" />
    <glyph glyph-name="imacron" unicode="&#x12b;" horiz-adv-x="240" 
d="M75 474h90v-474h-90v474zM-23 666h288v-66h-288v66z" />
    <glyph glyph-name="iogonek" unicode="&#x12f;" horiz-adv-x="240" 
d="M120 710c36 0 66 -30 66 -66c0 -37 -31 -66 -66 -66c-37 0 -66 29 -66 66s31 66 66 66zM75 474h90v-474h-20c-43 -46 -67 -88 -67 -117c0 -24 18 -44 49 -44c17 0 33 8 47 19l22 -44c-28 -24 -60 -35 -91 -35c-59 0 -99 38 -99 86c0 37 26 86 83 135h-14v474z" />
    <glyph glyph-name="dotlessj" unicode="&#x237;" horiz-adv-x="240" 
d="M75 474h90v-546c0 -117 -51 -168 -145 -168c-20 0 -39 2 -58 9l10 83c16 -5 26 -8 37 -8c50 0 66 34 66 88v542z" />
    <glyph glyph-name="jcircumflex" unicode="&#x135;" horiz-adv-x="240" 
d="M75 474h90v-546c0 -117 -51 -168 -145 -168c-20 0 -39 2 -58 9l10 83c16 -5 26 -8 37 -8c50 0 66 34 66 88v542zM68 708h106l112 -144h-91l-74 96l-74 -96h-91z" />
    <glyph glyph-name="kcommaaccent" unicode="&#x137;" horiz-adv-x="519" 
d="M68 756h90v-488l205 206h125l-222 -216l240 -258h-128l-220 246v-246h-90v756zM226 -45h93l-78 -190h-79z" />
    <glyph glyph-name="lacute" unicode="&#x13a;" horiz-adv-x="240" 
d="M75 756h90v-756h-90v756zM179 936h128l-149 -144h-83z" />
    <glyph glyph-name="lcaron" unicode="&#x13e;" horiz-adv-x="240" 
d="M75 756h90v-756h-90v756zM284 708h93l-78 -190h-79z" />
    <glyph glyph-name="lcommaaccent" unicode="&#x13c;" horiz-adv-x="240" 
d="M75 756h90v-756h-90v756zM107 -45h93l-78 -190h-79z" />
    <glyph glyph-name="lslash" unicode="&#x142;" horiz-adv-x="240" 
d="M75 756h90v-278l78 77v-90l-78 -77v-388h-90v298l-78 -78v90l78 78v368z" />
    <glyph glyph-name="ldot" unicode="&#x140;" horiz-adv-x="300" 
d="M75 756h90v-756h-90v756zM266 466c32 0 62 -25 62 -57c0 -35 -26 -63 -62 -63s-62 27 -62 63c0 30 28 57 62 57z" />
    <glyph glyph-name="nacute" unicode="&#x144;" 
d="M316 486c106 0 172 -70 172 -177v-309h-90v283c0 73 -40 119 -108 119c-83 0 -132 -59 -132 -154v-248h-90v474h90v-73h2c25 53 87 85 156 85zM336 708h128l-149 -144h-83z" />
    <glyph glyph-name="ncaron" unicode="&#x148;" 
d="M316 486c106 0 172 -70 172 -177v-309h-90v283c0 73 -40 119 -108 119c-83 0 -132 -59 -132 -154v-248h-90v474h90v-73h2c25 53 87 85 156 85zM118 708h87l78 -96l74 96h91l-112 -144h-106z" />
    <glyph glyph-name="ntilde" unicode="&#xf1;" 
d="M316 486c106 0 172 -70 172 -177v-309h-90v283c0 73 -40 119 -108 119c-83 0 -132 -59 -132 -154v-248h-90v474h90v-73h2c25 53 87 85 156 85zM398 684h48c-11 -66 -45 -104 -94 -104c-29 0 -55 11 -81 21s-44 19 -66 19c-23 0 -39 -18 -47 -44h-48c12 64 50 104 101 104
c27 0 51 -10 74 -19c22 -9 41 -21 64 -21c27 0 42 20 49 44z" />
    <glyph glyph-name="ncommaaccent" unicode="&#x146;" 
d="M316 486c106 0 172 -70 172 -177v-309h-90v283c0 73 -40 119 -108 119c-83 0 -132 -59 -132 -154v-248h-90v474h90v-73h2c25 53 87 85 156 85zM246 -45h93l-78 -190h-79z" />
    <glyph glyph-name="ograve" unicode="&#xf2;" horiz-adv-x="594" 
d="M297 486c134 0 252 -104 252 -249c0 -138 -111 -249 -252 -249c-137 0 -252 108 -252 249c0 138 111 249 252 249zM141 237c0 -99 63 -165 156 -165c94 0 156 67 156 165c0 100 -64 165 -157 165c-92 0 -155 -68 -155 -165zM131 708h128l104 -144h-83z" />
    <glyph glyph-name="oacute" unicode="&#xf3;" horiz-adv-x="594" 
d="M297 486c134 0 252 -104 252 -249c0 -138 -111 -249 -252 -249c-137 0 -252 108 -252 249c0 138 111 249 252 249zM141 237c0 -99 63 -165 156 -165c94 0 156 67 156 165c0 100 -64 165 -157 165c-92 0 -155 -68 -155 -165zM336 708h128l-149 -144h-83z" />
    <glyph glyph-name="ocircumflex" unicode="&#xf4;" horiz-adv-x="594" 
d="M297 486c134 0 252 -104 252 -249c0 -138 -111 -249 -252 -249c-137 0 -252 108 -252 249c0 138 111 249 252 249zM141 237c0 -99 63 -165 156 -165c94 0 156 67 156 165c0 100 -64 165 -157 165c-92 0 -155 -68 -155 -165zM244 708h106l112 -144h-91l-74 96l-74 -96h-91
z" />
    <glyph glyph-name="otilde" unicode="&#xf5;" horiz-adv-x="594" 
d="M297 486c134 0 252 -104 252 -249c0 -138 -111 -249 -252 -249c-137 0 -252 108 -252 249c0 138 111 249 252 249zM141 237c0 -99 63 -165 156 -165c94 0 156 67 156 165c0 100 -64 165 -157 165c-92 0 -155 -68 -155 -165zM417 684h48c-11 -66 -45 -104 -94 -104
c-29 0 -55 11 -81 21s-44 19 -66 19c-23 0 -39 -18 -47 -44h-48c12 64 50 104 101 104c27 0 51 -10 74 -19c22 -9 41 -21 64 -21c27 0 42 20 49 44z" />
    <glyph glyph-name="odieresis" unicode="&#xf6;" horiz-adv-x="594" 
d="M297 486c134 0 252 -104 252 -249c0 -138 -111 -249 -252 -249c-137 0 -252 108 -252 249c0 138 111 249 252 249zM141 237c0 -99 63 -165 156 -165c94 0 156 67 156 165c0 100 -64 165 -157 165c-92 0 -155 -68 -155 -165zM195 714c32 0 62 -26 62 -57
c0 -36 -25 -63 -62 -63s-62 27 -62 63c0 30 28 57 62 57zM399 714c32 0 62 -26 62 -57c0 -35 -26 -63 -62 -63s-62 27 -62 63c0 30 28 57 62 57z" />
    <glyph glyph-name="omacron" unicode="&#x14d;" horiz-adv-x="594" 
d="M297 486c134 0 252 -104 252 -249c0 -138 -111 -249 -252 -249c-137 0 -252 108 -252 249c0 138 111 249 252 249zM141 237c0 -99 63 -165 156 -165c94 0 156 67 156 165c0 100 -64 165 -157 165c-92 0 -155 -68 -155 -165zM154 666h288v-66h-288v66z" />
    <glyph glyph-name="obreve" unicode="&#x14f;" horiz-adv-x="594" 
d="M297 486c134 0 252 -104 252 -249c0 -138 -111 -249 -252 -249c-137 0 -252 108 -252 249c0 138 111 249 252 249zM141 237c0 -99 63 -165 156 -165c94 0 156 67 156 165c0 100 -64 165 -157 165c-92 0 -155 -68 -155 -165zM142 702h55c8 -46 46 -72 103 -72
c55 0 95 25 103 72h53c-6 -88 -65 -138 -157 -138s-150 50 -157 138z" />
    <glyph glyph-name="ohungarumlaut" unicode="&#x151;" horiz-adv-x="594" 
d="M297 486c134 0 252 -104 252 -249c0 -138 -111 -249 -252 -249c-137 0 -252 108 -252 249c0 138 111 249 252 249zM141 237c0 -99 63 -165 156 -165c94 0 156 67 156 165c0 100 -64 165 -157 165c-92 0 -155 -68 -155 -165zM242 708h127l-149 -144h-82zM411 708h127
l-149 -144h-82z" />
    <glyph glyph-name="oslash" unicode="&#xf8;" horiz-adv-x="594" 
d="M459 428l75 75l36 -36l-75 -76c34 -42 54 -96 54 -154c0 -138 -111 -249 -252 -249c-56 0 -108 18 -150 49l-69 -69l-37 36l67 68c-39 42 -63 100 -63 165c0 139 112 249 252 249c63 0 120 -22 162 -58zM141 237c0 -41 10 -74 30 -102l228 232c-26 22 -60 35 -103 35
c-92 0 -155 -68 -155 -165zM431 326l-223 -227c24 -18 54 -27 89 -27c94 0 156 67 156 165c0 33 -7 64 -22 89z" />
    <glyph glyph-name="oe" unicode="&#x153;" horiz-adv-x="926" 
d="M285 486c83 0 144 -28 192 -91c47 61 109 91 187 91c144 0 223 -105 223 -240v-42h-359c1 -85 55 -138 143 -138c57 0 96 26 123 69l74 -49c-47 -66 -113 -98 -199 -98c-84 0 -157 33 -194 92c-47 -66 -109 -92 -195 -92c-147 0 -241 101 -241 249c0 142 100 249 246 249
zM528 276h263c-3 82 -56 138 -130 138c-71 0 -130 -62 -133 -138zM135 237c0 -100 57 -171 145 -171c102 0 158 62 158 171c0 101 -56 171 -151 171c-91 0 -152 -65 -152 -171z" />
    <glyph glyph-name="racute" unicode="&#x155;" horiz-adv-x="370" 
d="M302 486c15 0 30 -2 40 -6l-4 -97c-15 4 -29 7 -45 7c-89 0 -135 -52 -135 -148v-242h-90v474h90v-73h2c24 51 83 85 142 85zM222 708h128l-149 -144h-83z" />
    <glyph glyph-name="rcommaaccent" unicode="&#x157;" horiz-adv-x="370" 
d="M302 486c15 0 30 -2 40 -6l-4 -97c-15 4 -29 7 -45 7c-89 0 -135 -52 -135 -148v-242h-90v474h90v-73h2c24 51 83 85 142 85zM69 -45h93l-78 -190h-79z" />
    <glyph glyph-name="rcaron" unicode="&#x159;" horiz-adv-x="370" 
d="M302 486c15 0 30 -2 40 -6l-4 -97c-15 4 -29 7 -45 7c-89 0 -135 -52 -135 -148v-242h-90v474h90v-73h2c24 51 83 85 142 85zM-3 708h87l78 -96l74 96h91l-112 -144h-106z" />
    <glyph glyph-name="sacute" unicode="&#x15b;" horiz-adv-x="444" 
d="M228 486c72 0 132 -28 162 -78l-70 -53c-22 26 -52 47 -97 47s-79 -22 -79 -53c0 -39 38 -57 93 -68c113 -22 166 -58 166 -144c0 -104 -94 -149 -193 -149c-87 0 -141 27 -182 84l68 56c41 -42 76 -56 115 -56c50 0 96 21 96 60c0 36 -33 55 -90 68
c-111 23 -169 54 -169 140c0 98 90 146 180 146zM268 708h128l-149 -144h-83z" />
    <glyph glyph-name="scircumflex" unicode="&#x15d;" horiz-adv-x="444" 
d="M228 486c72 0 132 -28 162 -78l-70 -53c-22 26 -52 47 -97 47s-79 -22 -79 -53c0 -39 38 -57 93 -68c113 -22 166 -58 166 -144c0 -104 -94 -149 -193 -149c-87 0 -141 27 -182 84l68 56c41 -42 76 -56 115 -56c50 0 96 21 96 60c0 36 -33 55 -90 68
c-111 23 -169 54 -169 140c0 98 90 146 180 146zM174 708h106l112 -144h-91l-74 96l-74 -96h-91z" />
    <glyph glyph-name="scaron" unicode="&#x161;" horiz-adv-x="444" 
d="M228 486c72 0 132 -28 162 -78l-70 -53c-22 26 -52 47 -97 47s-79 -22 -79 -53c0 -39 38 -57 93 -68c113 -22 166 -58 166 -144c0 -104 -94 -149 -193 -149c-87 0 -141 27 -182 84l68 56c41 -42 76 -56 115 -56c50 0 96 21 96 60c0 36 -33 55 -90 68
c-111 23 -169 54 -169 140c0 98 90 146 180 146zM57 708h87l78 -96l74 96h91l-112 -144h-106z" />
    <glyph glyph-name="scedilla" unicode="&#x15f;" horiz-adv-x="444" 
d="M228 486c72 0 132 -28 162 -78l-70 -53c-22 26 -52 47 -97 47s-79 -22 -79 -53c0 -39 38 -57 93 -68c113 -22 166 -58 166 -144c0 -75 -50 -134 -156 -147l-37 -51h22c68 0 99 -31 99 -72c0 -62 -54 -95 -125 -95c-36 0 -71 7 -105 23l19 40c26 -10 52 -15 78 -15
c37 0 61 16 61 42c0 29 -19 41 -45 41c-16 0 -37 -4 -49 -8l-21 18l52 75c-95 7 -133 36 -168 84l68 56c41 -42 76 -56 115 -56c50 0 96 21 96 60c0 36 -33 55 -90 68c-111 23 -169 54 -169 140c0 98 90 146 180 146z" />
    <glyph glyph-name="scommaaccent" unicode="&#x219;" horiz-adv-x="444" 
d="M228 486c72 0 132 -28 162 -78l-70 -53c-22 26 -52 47 -97 47s-79 -22 -79 -53c0 -39 38 -57 93 -68c113 -22 166 -58 166 -144c0 -104 -94 -149 -193 -149c-87 0 -141 27 -182 84l68 56c41 -42 76 -56 115 -56c50 0 96 21 96 60c0 36 -33 55 -90 68
c-111 23 -169 54 -169 140c0 98 90 146 180 146zM194 -45h93l-78 -190h-79z" />
    <glyph glyph-name="germandbls" unicode="&#xdf;" horiz-adv-x="611" 
d="M292 768c119 0 204 -70 204 -181c0 -82 -42 -134 -111 -155v-2c103 -17 170 -97 170 -210c0 -140 -99 -232 -242 -232c-24 0 -47 3 -71 9v81c21 -4 37 -6 53 -6c100 0 164 58 164 156c0 96 -63 155 -178 155h-10v84h14c77 0 115 47 115 109c0 69 -44 108 -112 108
c-88 0 -130 -56 -130 -160v-524h-90v515c0 174 71 253 224 253z" />
    <glyph glyph-name="tcaron" unicode="&#x165;" horiz-adv-x="370" 
d="M103 607h90v-133h129v-78h-129v-228c0 -61 12 -96 68 -96c20 0 46 3 64 14v-82c-17 -10 -56 -16 -82 -16c-139 0 -140 90 -140 155v253h-104v78h104v133zM307 708h93l-78 -190h-79z" />
    <glyph glyph-name="tcommaaccent" unicode="&#x163;" horiz-adv-x="370" 
d="M103 607h90v-133h129v-78h-129v-228c0 -61 12 -96 68 -96c20 0 46 3 64 14v-82c-17 -10 -56 -16 -82 -16c-139 0 -140 90 -140 155v253h-104v78h104v133zM153 -45h93l-78 -190h-79z" />
    <glyph glyph-name="uni021B" unicode="&#x21b;" horiz-adv-x="370" 
d="M103 607h90v-133h129v-78h-129v-228c0 -61 12 -96 68 -96c20 0 46 3 64 14v-82c-17 -10 -56 -16 -82 -16c-139 0 -140 90 -140 155v253h-104v78h104v133zM153 -45h93l-78 -190h-79z" />
    <glyph glyph-name="tbar" unicode="&#x167;" horiz-adv-x="370" 
d="M103 607h90v-133h129v-78h-129v-85h111v-63h-111v-73c0 -60 7 -103 68 -103c21 0 45 3 64 14v-82c-17 -10 -60 -16 -82 -16c-132 0 -140 78 -140 154v106h-78v63h78v85h-104v78h104v133z" />
    <glyph glyph-name="thorn" unicode="&#xfe;" horiz-adv-x="611" 
d="M68 756h90v-350h2c33 51 100 80 165 80c141 0 241 -102 241 -249c0 -140 -94 -249 -240 -249c-66 0 -130 29 -166 80h-2v-296h-90v984zM158 237c0 -98 62 -165 156 -165s156 67 156 165c0 100 -64 165 -157 165c-91 0 -155 -65 -155 -165z" />
    <glyph glyph-name="ugrave" unicode="&#xf9;" 
d="M68 474h90v-284c0 -74 41 -118 108 -118c84 0 132 60 132 154v248h90v-474h-90v73h-2c-25 -53 -86 -85 -156 -85c-105 0 -172 70 -172 177v309zM112 708h128l104 -144h-83z" />
    <glyph glyph-name="uacute" unicode="&#xfa;" 
d="M68 474h90v-284c0 -74 41 -118 108 -118c84 0 132 60 132 154v248h90v-474h-90v73h-2c-25 -53 -86 -85 -156 -85c-105 0 -172 70 -172 177v309zM316 708h128l-149 -144h-83z" />
    <glyph glyph-name="ucircumflex" unicode="&#xfb;" 
d="M68 474h90v-284c0 -74 41 -118 108 -118c84 0 132 60 132 154v248h90v-474h-90v73h-2c-25 -53 -86 -85 -156 -85c-105 0 -172 70 -172 177v309zM225 708h106l112 -144h-91l-74 96l-74 -96h-91z" />
    <glyph glyph-name="utilde" unicode="&#x169;" 
d="M68 474h90v-284c0 -74 41 -118 108 -118c84 0 132 60 132 154v248h90v-474h-90v73h-2c-25 -53 -86 -85 -156 -85c-105 0 -172 70 -172 177v309zM401 684h48c-11 -66 -45 -104 -94 -104c-29 0 -55 11 -81 21s-44 19 -66 19c-23 0 -39 -18 -47 -44h-48
c12 64 50 104 101 104c27 0 51 -10 74 -19c22 -9 41 -21 64 -21c27 0 42 20 49 44z" />
    <glyph glyph-name="udieresis" unicode="&#xfc;" 
d="M68 474h90v-284c0 -74 41 -118 108 -118c84 0 132 60 132 154v248h90v-474h-90v73h-2c-25 -53 -86 -85 -156 -85c-105 0 -172 70 -172 177v309zM176 714c32 0 62 -26 62 -57c0 -36 -25 -63 -62 -63s-62 27 -62 63c0 30 28 57 62 57zM380 714c32 0 62 -26 62 -57
c0 -35 -26 -63 -62 -63s-62 27 -62 63c0 30 28 57 62 57z" />
    <glyph glyph-name="umacron" unicode="&#x16b;" 
d="M68 474h90v-284c0 -74 41 -118 108 -118c84 0 132 60 132 154v248h90v-474h-90v73h-2c-25 -53 -86 -85 -156 -85c-105 0 -172 70 -172 177v309zM133 666h288v-66h-288v66z" />
    <glyph glyph-name="ubreve" unicode="&#x16d;" 
d="M68 474h90v-284c0 -74 41 -118 108 -118c84 0 132 60 132 154v248h90v-474h-90v73h-2c-25 -53 -86 -85 -156 -85c-105 0 -172 70 -172 177v309zM123 702h55c8 -46 46 -72 103 -72c55 0 95 25 103 72h53c-6 -88 -65 -138 -157 -138s-150 50 -157 138z" />
    <glyph glyph-name="uring" unicode="&#x16f;" 
d="M68 474h90v-284c0 -74 41 -118 108 -118c84 0 132 60 132 154v248h90v-474h-90v73h-2c-25 -53 -86 -85 -156 -85c-105 0 -172 70 -172 177v309zM275 750c57 0 102 -44 102 -98c0 -56 -47 -99 -102 -99s-102 45 -102 98c0 54 47 99 102 99zM215 651c0 -30 28 -56 60 -56
c33 0 60 26 60 56c0 32 -26 57 -60 57c-33 0 -60 -24 -60 -57z" />
    <glyph glyph-name="uhungarumlaut" unicode="&#x171;" 
d="M68 474h90v-284c0 -74 41 -118 108 -118c84 0 132 60 132 154v248h90v-474h-90v73h-2c-25 -53 -86 -85 -156 -85c-105 0 -172 70 -172 177v309zM224 708h127l-149 -144h-82zM393 708h127l-149 -144h-82z" />
    <glyph glyph-name="uogonek" unicode="&#x173;" 
d="M68 474h90v-284c0 -73 41 -118 108 -118c84 0 132 60 132 154v248h90v-474h-23c-48 -51 -67 -90 -67 -116c0 -28 19 -45 49 -45c15 0 35 8 47 19l22 -44c-28 -24 -60 -35 -91 -35c-73 0 -99 51 -99 86c0 41 30 90 83 135h-11v73h-2c-25 -54 -85 -85 -156 -85
c-105 0 -172 70 -172 177v309z" />
    <glyph glyph-name="wcircumflex" unicode="&#x175;" horiz-adv-x="759" 
d="M11 474h101l107 -354h2l113 354h95l120 -354h2l102 354h95l-153 -474h-91l-125 354h-2l-113 -354h-97zM339 708h106l112 -144h-91l-74 96l-74 -96h-91z" />
    <glyph glyph-name="yacute" unicode="&#xfd;" horiz-adv-x="500" 
d="M11 474h104l141 -370h2l134 370h97l-224 -574c-33 -86 -65 -140 -163 -140c-28 0 -55 3 -80 13l11 81c18 -6 36 -10 54 -10c56 0 74 29 93 79l28 74zM288 708h128l-149 -144h-83z" />
    <glyph glyph-name="ycircumflex" unicode="&#x177;" horiz-adv-x="500" 
d="M11 474h104l141 -370h2l134 370h97l-224 -574c-33 -86 -65 -140 -163 -140c-28 0 -55 3 -80 13l11 81c18 -6 36 -10 54 -10c56 0 74 29 93 79l28 74zM215 708h106l112 -144h-91l-74 96l-74 -96h-91z" />
    <glyph glyph-name="ydieresis" unicode="&#xff;" horiz-adv-x="500" 
d="M11 474h104l141 -370h2l134 370h97l-224 -574c-33 -86 -65 -140 -163 -140c-28 0 -55 3 -80 13l11 81c18 -6 36 -10 54 -10c56 0 74 29 93 79l28 74zM148 714c32 0 62 -26 62 -57c0 -36 -25 -63 -62 -63s-62 27 -62 63c0 30 28 57 62 57zM352 714c32 0 62 -26 62 -57
c0 -35 -26 -63 -62 -63s-62 27 -62 63c0 30 28 57 62 57z" />
    <glyph glyph-name="zacute" unicode="&#x17a;" horiz-adv-x="463" 
d="M44 474h370v-80l-271 -316h285v-78h-393v81l269 315h-260v78zM263 708h128l-149 -144h-83z" />
    <glyph glyph-name="zcaron" unicode="&#x17e;" horiz-adv-x="463" 
d="M44 474h370v-80l-271 -316h285v-78h-393v81l269 315h-260v78zM67 708h87l78 -96l74 96h91l-112 -144h-106z" />
    <glyph glyph-name="zdotaccent" unicode="&#x17c;" horiz-adv-x="463" 
d="M44 474h370v-80l-271 -316h285v-78h-393v81l269 315h-260v78zM238 714c32 0 62 -25 62 -57c0 -35 -26 -63 -62 -63s-62 27 -62 63c0 30 28 57 62 57z" />
    <glyph glyph-name="grave.cap" horiz-adv-x="240" 
d="M-46 904h128l104 -144h-83z" />
    <glyph glyph-name="acute" unicode="&#xb4;" horiz-adv-x="240" 
d="M158 708h128l-149 -144h-83z" />
    <glyph glyph-name="acute.cap" horiz-adv-x="240" 
d="M158 904h128l-149 -144h-83z" />
    <glyph glyph-name="circumflex" unicode="&#x2c6;" horiz-adv-x="240" 
d="M67 708h106l112 -144h-91l-74 96l-74 -96h-91z" />
    <glyph glyph-name="circumflex.cap" horiz-adv-x="240" 
d="M67 904h106l112 -144h-91l-74 96l-74 -96h-91z" />
    <glyph glyph-name="caron" unicode="&#x2c7;" horiz-adv-x="240" 
d="M-45 708h87l78 -96l74 96h91l-112 -144h-106z" />
    <glyph glyph-name="caron.cap" horiz-adv-x="240" 
d="M-45 904h87l78 -96l74 96h91l-112 -144h-106z" />
    <glyph glyph-name="caron.alt" horiz-adv-x="250" 
d="M135 708h93l-78 -190h-79z" />
    <glyph glyph-name="tilde" unicode="&#x2dc;" horiz-adv-x="240" 
d="M240 684h48c-11 -66 -45 -104 -94 -104c-29 0 -55 11 -81 21s-44 19 -66 19c-23 0 -39 -18 -47 -44h-48c12 64 50 104 101 104c27 0 51 -10 74 -19c22 -9 41 -21 64 -21c27 0 42 20 49 44z" />
    <glyph glyph-name="tilde.cap" horiz-adv-x="240" 
d="M240 878h48c-11 -66 -45 -104 -94 -104c-29 0 -55 11 -81 21s-44 19 -66 19c-23 0 -39 -18 -47 -44h-48c11 64 50 104 101 104c27 0 51 -10 74 -19c22 -9 41 -21 64 -21c27 0 42 20 49 44z" />
    <glyph glyph-name="dieresis" unicode="&#xa8;" horiz-adv-x="240" 
d="M18 714c32 0 62 -26 62 -57c0 -36 -25 -63 -62 -63s-62 27 -62 63c0 30 28 57 62 57zM222 714c32 0 62 -26 62 -57c0 -35 -26 -63 -62 -63s-62 27 -62 63c0 30 28 57 62 57z" />
    <glyph glyph-name="dieresis.cap" horiz-adv-x="240" 
d="M18 898c33 0 62 -25 62 -57c0 -35 -25 -63 -62 -63s-62 28 -62 63c0 30 28 57 62 57zM222 898c34 0 62 -27 62 -57c0 -36 -26 -63 -62 -63c-35 0 -62 27 -62 63c0 30 27 57 62 57z" />
    <glyph glyph-name="macron" unicode="&#xaf;" horiz-adv-x="240" 
d="M-24 666h288v-66h-288v66z" />
    <glyph glyph-name="macron.cap" horiz-adv-x="240" 
d="M-24 854h288v-66h-288v66z" />
    <glyph glyph-name="uni02C9" unicode="&#x2c9;" horiz-adv-x="240" 
d="M-24 666h288v-66h-288v66z" />
    <glyph glyph-name="breve" unicode="&#x2d8;" horiz-adv-x="240" 
d="M-37 702h55c8 -46 46 -72 103 -72c55 0 95 25 103 72h53c-6 -88 -65 -138 -157 -138s-150 50 -157 138z" />
    <glyph glyph-name="breve.cap" horiz-adv-x="240" 
d="M-37 896h55c8 -47 49 -72 103 -72s95 25 103 72h53c-6 -90 -67 -138 -157 -138s-149 48 -157 138z" />
    <glyph glyph-name="ring" unicode="&#x2da;" horiz-adv-x="240" 
d="M120 750c57 0 102 -44 102 -98c0 -56 -47 -99 -102 -99s-102 45 -102 98c0 54 47 99 102 99zM60 651c0 -30 28 -56 60 -56c33 0 60 26 60 56c0 32 -26 57 -60 57c-33 0 -60 -24 -60 -57z" />
    <glyph glyph-name="ring.cap" horiz-adv-x="240" 
d="M120 934c55 0 102 -42 102 -98s-45 -99 -102 -99c-53 0 -102 43 -102 98s47 99 102 99zM60 835c0 -33 30 -56 60 -56s60 24 60 56s-26 57 -60 57c-33 0 -60 -24 -60 -57z" />
    <glyph glyph-name="hungarumlaut" unicode="&#x2dd;" horiz-adv-x="240" 
d="M54 708h127l-149 -144h-82zM223 708h127l-149 -144h-82z" />
    <glyph glyph-name="hungarumlaut.cap" horiz-adv-x="240" 
d="M54 904h127l-149 -144h-82zM223 904h127l-149 -144h-82z" />
    <glyph glyph-name="dotaccent" unicode="&#x2d9;" horiz-adv-x="240" 
d="M120 714c32 0 62 -25 62 -57c0 -35 -26 -63 -62 -63s-62 27 -62 63c0 30 28 57 62 57z" />
    <glyph glyph-name="dotaccent.cap" horiz-adv-x="240" 
d="M120 897c34 0 62 -27 62 -57c0 -36 -26 -63 -62 -63s-62 27 -62 63c0 31 28 57 62 57z" />
    <glyph glyph-name="cedilla" unicode="&#xb8;" horiz-adv-x="240" 
d="M48 -87l61 87h49l-44 -61h25c68 0 96 -33 96 -72c0 -62 -54 -95 -126 -95c-34 0 -70 7 -104 23l19 40c27 -10 53 -15 78 -15c37 0 61 15 61 42c0 29 -18 41 -45 41c-16 0 -37 -4 -49 -8z" />
    <glyph glyph-name="ogonek" unicode="&#x2db;" horiz-adv-x="240" 
d="M118 7h54c-49 -51 -75 -92 -75 -123c0 -25 18 -45 49 -45c17 0 33 8 47 19l22 -44c-28 -24 -60 -35 -91 -35c-61 0 -99 39 -99 86c0 44 36 99 93 142z" />
    <glyph glyph-name="commaaccent" horiz-adv-x="250" 
d="M109 -45h93l-78 -190h-79z" />
    <glyph glyph-name="commaaccent.alt" horiz-adv-x="250" 
d="M148 754h79l-64 -190h-93z" />
    <glyph glyph-name="ellipsis" unicode="&#x2026;" horiz-adv-x="1000" 
d="M167 126c36 0 66 -30 66 -66c0 -35 -29 -66 -66 -66s-66 29 -66 66s31 66 66 66zM500 126c36 0 66 -30 66 -66c0 -35 -29 -66 -66 -66s-66 29 -66 66s31 66 66 66zM833 126c36 0 66 -30 66 -66c0 -35 -29 -66 -66 -66s-66 29 -66 66s31 66 66 66z" />
    <glyph glyph-name="uni00AD" unicode="&#xad;" horiz-adv-x="316" 
d="M35 284h246v-84h-246v84z" />
    <glyph glyph-name="exclamdown" unicode="&#xa1;" horiz-adv-x="278" 
d="M139 492c34 0 66 -28 66 -66c0 -37 -31 -66 -66 -66s-66 29 -66 66c0 36 31 66 66 66zM93 282h96v-504h-96v504z" />
    <glyph glyph-name="questiondown" unicode="&#xbf;" horiz-adv-x="500" 
d="M243 492c34 0 66 -28 66 -66c0 -37 -31 -66 -66 -66s-66 31 -66 66s31 66 66 66zM194 288h96v-65c0 -41 -10 -72 -30 -93s-44 -45 -72 -71c-39 -37 -60 -70 -60 -109c0 -60 47 -106 106 -106c61 0 107 42 116 112l102 -10c-17 -116 -103 -186 -220 -186s-200 71 -200 185
c0 48 13 91 43 121l65 66c28 28 45 49 48 62s6 23 6 56v38z" />
    <glyph glyph-name="quoteleft" unicode="&#x2018;" horiz-adv-x="278" 
d="M140 708h82l-69 -246h-97z" />
    <glyph glyph-name="quoteright" unicode="&#x2019;" horiz-adv-x="278" 
d="M125 708h97l-84 -246h-82z" />
    <glyph glyph-name="quotedblleft" unicode="&#x201c;" horiz-adv-x="519" 
d="M172 708h82l-69 -246h-97zM349 708h82l-69 -246h-97z" />
    <glyph glyph-name="quotedblright" unicode="&#x201d;" horiz-adv-x="519" 
d="M157 708h97l-84 -246h-82zM334 708h97l-84 -246h-82z" />
    <glyph glyph-name="quotesinglbase" unicode="&#x201a;" horiz-adv-x="278" 
d="M125 114h97l-84 -246h-82z" />
    <glyph glyph-name="quotedblbase" unicode="&#x201e;" horiz-adv-x="519" 
d="M157 114h97l-84 -246h-82zM334 114h97l-84 -246h-82z" />
    <glyph glyph-name="guilsinglleft" unicode="&#x2039;" horiz-adv-x="315" 
d="M199 459l62 -41l-117 -175l118 -175l-62 -41l-146 216z" />
    <glyph glyph-name="guilsinglright" unicode="&#x203a;" horiz-adv-x="315" 
d="M53 418l62 41l146 -216l-145 -216l-62 41l117 175z" />
    <glyph glyph-name="guillemotleft" unicode="&#xab;" horiz-adv-x="500" 
d="M192 459l62 -41l-117 -175l118 -175l-62 -41l-146 216zM390 459l62 -41l-117 -175l118 -175l-62 -41l-146 216z" />
    <glyph glyph-name="guillemotright" unicode="&#xbb;" horiz-adv-x="500" 
d="M47 418l62 41l146 -216l-145 -216l-62 41l117 175zM245 418l62 41l146 -216l-145 -216l-62 41l117 175z" />
    <glyph glyph-name="endash" unicode="&#x2013;" horiz-adv-x="500" 
d="M0 282h500v-78h-500v78z" />
    <glyph glyph-name="emdash" unicode="&#x2014;" horiz-adv-x="1000" 
d="M0 282h1000v-78h-1000v78z" />
    <glyph glyph-name="bullet" unicode="&#x2022;" horiz-adv-x="500" 
d="M250 531c96 0 177 -77 177 -177c0 -99 -81 -177 -177 -177s-177 78 -177 177c0 98 79 177 177 177z" />
    <glyph glyph-name="periodcentered" unicode="&#xb7;" horiz-adv-x="278" 
d="M139 369c34 0 66 -28 66 -66c0 -37 -31 -66 -66 -66c-36 0 -66 30 -66 66c0 35 29 66 66 66z" />
    <glyph glyph-name="uni2219" unicode="&#x2219;" horiz-adv-x="278" 
d="M139 369c34 0 66 -28 66 -66c0 -37 -31 -66 -66 -66c-36 0 -66 30 -66 66c0 35 29 66 66 66z" />
    <glyph glyph-name="dagger" unicode="&#x2020;" 
d="M233 708h90v-203h198v-78h-198v-553h-90v553h-198v78h198v203z" />
    <glyph glyph-name="daggerdbl" unicode="&#x2021;" 
d="M233 708h90v-180h192v-78h-192v-306h192v-78h-192v-192h-90v192h-192v78h192v306h-192v78h192v180z" />
    <glyph glyph-name="section" unicode="&#xa7;" 
d="M300 726c85 0 155 -39 183 -100l-84 -46c-18 45 -61 62 -102 62c-57 0 -98 -29 -98 -78c0 -42 32 -69 114 -104c78 -33 125 -63 147 -90c23 -27 34 -54 34 -91c0 -58 -32 -104 -83 -131c41 -28 65 -68 65 -121c0 -105 -93 -171 -210 -171c-96 0 -170 42 -204 121l86 41
c18 -50 61 -78 125 -78c60 0 101 32 101 86c0 37 -35 64 -112 99c-77 34 -122 60 -148 86c-23 25 -35 52 -35 82c0 69 31 119 98 151c-49 27 -80 65 -80 118c0 101 95 164 203 164zM169 321c0 -29 12 -60 62 -85l113 -54c38 24 60 57 60 88c0 34 -21 62 -75 88l-86 42
c-53 -20 -74 -45 -74 -79z" />
    <glyph glyph-name="paragraph" unicode="&#xb6;" horiz-adv-x="600" 
d="M277 708h251v-834h-78v768h-112v-768h-78v444c-124 1 -209 82 -209 185c0 130 88 205 226 205z" />
    <glyph glyph-name="brokenbar" unicode="&#xa6;" horiz-adv-x="222" 
d="M72 675h78v-350h-78v350zM72 175h78v-350h-78v350z" />
    <glyph glyph-name="copyright" unicode="&#xa9;" horiz-adv-x="800" 
d="M400 726c197 0 372 -159 372 -372c0 -201 -163 -372 -372 -372c-198 0 -372 162 -372 372c0 202 164 372 372 372zM94 354c0 -165 134 -306 306 -306c163 0 306 131 306 306c0 169 -137 306 -307 306c-162 0 -305 -133 -305 -306zM400 585c101 0 173 -54 189 -153h-77
c-13 50 -47 81 -111 81c-92 0 -142 -56 -142 -154c0 -93 59 -158 144 -158c63 0 97 32 109 85h77c-23 -99 -93 -157 -187 -157c-133 0 -221 88 -221 228c0 143 84 228 219 228z" />
    <glyph glyph-name="registered" unicode="&#xae;" horiz-adv-x="800" 
d="M257 569h168c94 0 146 -44 146 -128c0 -68 -37 -108 -101 -117l110 -180h-82l-106 174h-57v-174h-78v425zM335 503v-119h67c60 0 91 15 91 60c0 36 -18 59 -92 59h-66zM400 726c197 0 372 -159 372 -372c0 -201 -163 -372 -372 -372c-198 0 -372 162 -372 372
c0 202 164 372 372 372zM94 354c0 -165 134 -306 306 -306c163 0 306 131 306 306c0 169 -137 306 -307 306c-162 0 -305 -133 -305 -306z" />
    <glyph glyph-name="trademark" unicode="&#x2122;" horiz-adv-x="1000" 
d="M34 708h326v-66h-124v-346h-78v346h-124v66zM439 708h119l111 -316h3l111 316h119v-412h-78v344h-2l-120 -344h-63l-120 344h-2v-344h-78v412z" />
    <glyph glyph-name="currency" unicode="&#xa4;" 
d="M278 612c53 0 104 -16 151 -49l49 48l57 -56l-49 -49c33 -45 49 -98 49 -151s-16 -106 -49 -151l49 -49l-57 -57l-49 49c-45 -33 -96 -49 -151 -49c-53 0 -106 17 -151 49l-49 -49l-57 57l49 49c-32 45 -49 98 -49 151c0 54 17 107 49 151l-49 49l57 56l49 -48
c47 33 99 49 151 49zM99 355c0 -99 79 -179 179 -179c94 0 179 75 179 179c0 99 -81 179 -180 179c-96 0 -178 -79 -178 -179z" />
    <glyph glyph-name="Euro" unicode="&#x20ac;" 
d="M377 720c57 0 112 -15 148 -36l-21 -74c-32 21 -76 33 -130 33c-89 0 -154 -53 -183 -160h276l-17 -67h-271c-4 -25 -4 -55 -4 -73c0 -40 0 -44 1 -48h242l-17 -65h-219c17 -112 67 -168 167 -168c56 0 96 24 125 59l49 -49c-41 -53 -110 -84 -178 -84
c-142 0 -225 82 -250 242h-72l19 65h46c-1 4 -1 9 -1 13v61c0 9 1 26 3 47h-66l21 67h57c35 152 137 237 275 237z" />
    <glyph glyph-name="cent" unicode="&#xa2;" 
d="M288 486v66h54v-66c70 -4 132 -33 167 -76l-65 -59c-30 35 -67 56 -102 57v-342c42 1 77 19 107 52l58 -58c-39 -44 -97 -67 -165 -72v-66h-54v66c-130 11 -216 116 -216 249c0 132 80 229 216 249zM162 239c0 -86 49 -158 126 -173v342c-78 -12 -126 -81 -126 -169z" />
    <glyph glyph-name="sterling" unicode="&#xa3;" 
d="M394 720c63 0 124 -17 169 -62l-61 -70c-30 29 -65 48 -99 48c-83 0 -133 -60 -133 -156v-80h162v-72h-162v-244h246v-84h-444v84h102v244h-96v72h96v98c0 129 84 222 220 222z" />
    <glyph glyph-name="florin" unicode="&#x192;" 
d="M415 720c43 0 86 -8 116 -24l-40 -75c-16 10 -31 15 -57 15c-45 0 -75 -36 -86 -104l-19 -107h120v-72h-134l-72 -364c-17 -89 -81 -133 -158 -133c-39 0 -68 11 -97 25l38 71c21 -8 38 -12 54 -12c51 0 67 39 77 88l63 325h-108v72h122l27 141c18 95 80 154 154 154z
" />
    <glyph glyph-name="yen" unicode="&#xa5;" 
d="M-5 708h100l179 -316l185 316h102l-186 -309h116v-66h-154l-17 -28v-53h171v-66h-171v-186h-84v186h-171v66h171v53l-17 28h-154v66h114z" />
    <glyph glyph-name="ordfeminine" unicode="&#xaa;" horiz-adv-x="337" 
d="M174 720c94 0 134 -31 134 -96v-199h-66v44l-2 1c-19 -39 -54 -51 -99 -51c-60 0 -107 32 -107 86c0 82 82 103 191 103h17v9c0 30 -29 49 -68 49c-33 0 -65 -11 -89 -33l-35 45c32 28 77 42 124 42zM100 509c0 -25 23 -36 60 -36c53 0 82 25 82 69v18h-12
c-80 0 -130 -11 -130 -51z" />
    <glyph glyph-name="ordmasculine" unicode="&#xba;" horiz-adv-x="386" 
d="M193 720c99 0 164 -60 164 -151s-65 -150 -164 -150s-164 59 -164 150c0 92 66 151 164 151zM101 569c0 -55 33 -90 92 -90s92 35 92 90s-33 91 -93 91c-57 0 -91 -36 -91 -91z" />
    <glyph glyph-name="onesuperior" unicode="&#xb9;" horiz-adv-x="361" 
d="M155 720h71v-431h-72v359l-85 -72l-42 46z" />
    <glyph glyph-name="twosuperior" unicode="&#xb2;" horiz-adv-x="361" 
d="M185 720c89 0 149 -44 149 -120c0 -57 -35 -93 -79 -131l-133 -114h213v-66h-309v76l177 158c37 33 47 53 47 75c0 33 -28 56 -65 56c-39 0 -64 -23 -68 -59l-84 6c7 75 65 119 152 119z" />
    <glyph glyph-name="threesuperior" unicode="&#xb3;" horiz-adv-x="361" 
d="M179 720c87 0 147 -43 147 -112c0 -47 -31 -86 -78 -96v-2c55 -7 89 -48 89 -103c0 -74 -66 -124 -155 -124c-85 0 -141 37 -158 99l83 20c11 -33 32 -53 75 -53c41 0 77 26 77 64c0 44 -34 64 -97 64h-22v66h25c60 0 83 20 83 57c0 32 -26 54 -65 54
c-33 0 -58 -16 -69 -45l-83 20c18 57 73 91 148 91z" />
    <glyph glyph-name="fraction" unicode="&#x2044;" horiz-adv-x="167" 
d="M273 740l60 -32l-439 -740l-60 32z" />
    <glyph glyph-name="uni2215" unicode="&#x2215;" horiz-adv-x="167" 
d="M273 740l60 -32l-439 -740l-60 32z" />
    <glyph glyph-name="onequarter" unicode="&#xbc;" horiz-adv-x="834" 
d="M591 740l60 -32l-439 -740l-60 32zM161 720h71v-431h-72v359l-85 -72l-42 46zM660 431h79v-271h62v-66h-62v-94h-66v94h-196v58zM667 347h-2l-116 -187h118v187z" />
    <glyph glyph-name="onehalf" unicode="&#xbd;" horiz-adv-x="834" 
d="M159 720h71v-431h-72v359l-85 -72l-42 46zM579 740l60 -32l-439 -740l-60 32zM653 431c89 0 149 -44 149 -120c0 -57 -35 -93 -79 -131l-133 -114h213v-66h-309v76l177 158c37 33 47 53 47 75c0 33 -28 56 -65 56c-39 0 -64 -23 -68 -59l-84 6c7 75 65 119 152 119z" />
    <glyph glyph-name="threequarters" unicode="&#xbe;" horiz-adv-x="834" 
d="M631 740l60 -32l-439 -740l-60 32zM178 720c87 0 147 -43 147 -112c0 -47 -31 -86 -78 -96v-2c55 -7 89 -48 89 -103c0 -74 -65 -124 -155 -124c-85 0 -141 37 -158 99l83 20c11 -33 34 -53 75 -53s77 26 77 64c0 43 -33 64 -97 64h-22v66h15c58 0 93 10 93 57
c0 32 -26 54 -65 54c-33 0 -58 -16 -69 -45l-83 20c18 57 73 91 148 91zM680 431h79v-271h62v-66h-62v-94h-66v94h-196v58zM693 347h-2l-116 -187h118v187z" />
    <glyph glyph-name="perthousand" unicode="&#x2030;" horiz-adv-x="1056" 
d="M93 0l445 740l60 -30l-443 -741zM182 720c89 0 163 -71 163 -162c0 -88 -72 -163 -163 -163c-90 0 -162 73 -162 163c0 91 74 162 162 162zM92 558c0 -50 40 -91 90 -91s91 41 91 91c0 48 -38 90 -91 90c-49 0 -90 -40 -90 -90zM507 307c89 0 163 -71 163 -162
c0 -90 -72 -163 -163 -163c-90 0 -162 73 -162 163c0 91 73 162 162 162zM417 145c0 -50 40 -91 90 -91s91 41 91 91c0 51 -42 90 -92 90c-48 0 -89 -40 -89 -90zM873 307c89 0 163 -71 163 -162c0 -88 -72 -163 -163 -163c-90 0 -162 73 -162 163c0 91 74 162 162 162z
M783 145c0 -49 40 -91 90 -91s91 41 91 91c0 51 -42 90 -91 90s-90 -40 -90 -90z" />
    <glyph glyph-name="minus" unicode="&#x2212;" horiz-adv-x="666" 
d="M66 342h534v-78h-534v78z" />
    <glyph glyph-name="plusminus" unicode="&#xb1;" horiz-adv-x="666" 
d="M294 556h78v-163h228v-78h-228v-150h-78v150h-228v78h228v163zM66 129h534v-78h-534v78z" />
    <glyph glyph-name="multiply" unicode="&#xd7;" horiz-adv-x="666" 
d="M66 515l55 55l212 -212l213 212l54 -55l-212 -212l212 -212l-56 -55l-211 212l-211 -212l-54 56l210 211z" />
    <glyph glyph-name="divide" unicode="&#xf7;" horiz-adv-x="666" 
d="M333 536c35 0 66 -30 66 -66c0 -37 -31 -66 -66 -66c-36 0 -66 30 -66 66s30 66 66 66zM66 341h534v-78h-534v78zM333 200c38 0 66 -32 66 -66c0 -36 -30 -66 -66 -66s-66 31 -66 66c0 36 30 66 66 66z" />
    <glyph glyph-name="notequal" unicode="&#x2260;" horiz-adv-x="666" 
d="M401 548l74 -37l-59 -112h136v-84h-179l-64 -123h243v-84h-286l-77 -149l-73 38l58 111h-134v84h177l63 123h-240v84h284z" />
    <glyph glyph-name="approxequal" unicode="&#x2248;" horiz-adv-x="666" 
d="M541 240h58c-11 -99 -60 -155 -137 -155c-39 0 -83 15 -133 33c-49 18 -101 38 -132 38c-36 0 -63 -29 -71 -74h-59c11 95 60 156 136 156c38 0 67 -9 132 -33c65 -25 105 -37 136 -37c37 0 62 25 70 72zM541 440h58c-11 -100 -60 -155 -137 -155c-42 0 -83 15 -133 33
s-101 38 -132 38c-36 0 -63 -30 -71 -74h-59c11 95 60 156 136 156c38 0 67 -9 133 -34c65 -25 104 -36 135 -36c37 0 62 25 70 72z" />
    <glyph glyph-name="lessequal" unicode="&#x2264;" horiz-adv-x="666" 
d="M589 578v-89l-397 -137l397 -134v-88l-512 179v86zM77 92h512v-84h-512v84z" />
    <glyph glyph-name="greaterequal" unicode="&#x2265;" horiz-adv-x="666" 
d="M77 578l512 -183v-86l-512 -179v88l397 134l-397 137v89zM77 92h512v-84h-512v84z" />
    <glyph glyph-name="logicalnot" unicode="&#xac;" horiz-adv-x="666" 
d="M66 420h534v-279h-78v201h-456v78z" />
    <glyph glyph-name="Delta" unicode="&#x2206;" horiz-adv-x="678" 
d="M287 712h95l285 -712h-656zM333 613l-199 -530h406z" />
    <glyph glyph-name="uni0394" unicode="&#x394;" horiz-adv-x="678" 
d="M287 712h95l285 -712h-656zM333 613l-199 -530h406z" />
    <glyph glyph-name="Omega" unicode="&#x2126;" horiz-adv-x="752" 
d="M370 721c172 0 323 -121 323 -309c0 -130 -68 -238 -190 -273v-62h190v-77h-264v185c107 20 171 107 171 221c0 130 -96 232 -229 232c-128 0 -231 -96 -231 -233c0 -115 61 -197 169 -220v-185h-263v77h190v62c-121 34 -190 145 -190 271c0 179 146 311 324 311z" />
    <glyph glyph-name="uni03A9" unicode="&#x3a9;" horiz-adv-x="752" 
d="M370 721c172 0 323 -121 323 -309c0 -130 -68 -238 -190 -273v-62h190v-77h-264v185c107 20 171 107 171 221c0 130 -96 232 -229 232c-128 0 -231 -96 -231 -233c0 -115 61 -197 169 -220v-185h-263v77h190v62c-121 34 -190 145 -190 271c0 179 146 311 324 311z" />
    <glyph glyph-name="mu" unicode="&#xb5;" 
d="M68 474h90v-284c0 -74 41 -118 108 -118c84 0 132 60 132 154v248h90v-474h-90v73h-2c-25 -53 -86 -85 -156 -85c-30 0 -56 6 -82 18v-234h-90v702z" />
    <glyph glyph-name="uni03BC" unicode="&#x3bc;" 
d="M68 474h90v-284c0 -74 41 -118 108 -118c84 0 132 60 132 154v248h90v-474h-90v73h-2c-25 -53 -86 -85 -156 -85c-30 0 -56 6 -82 18v-234h-90v702z" />
    <glyph glyph-name="pi" unicode="&#x3c0;" horiz-adv-x="578" 
d="M31 474h511v-81h-78v-273c0 -39 11 -53 38 -53c14 0 27 3 43 10v-65c-25 -12 -46 -19 -74 -19c-64 0 -93 30 -93 120v280h-191v-393h-86v393h-70v81z" />
    <glyph glyph-name="degree" unicode="&#xb0;" horiz-adv-x="400" 
d="M200 720c83 0 149 -68 149 -149c0 -80 -65 -149 -149 -149c-81 0 -149 68 -149 149s68 149 149 149zM117 571c0 -46 37 -83 83 -83c48 0 83 39 83 83c0 45 -36 83 -83 83c-46 0 -83 -37 -83 -83z" />
    <glyph glyph-name="afii61289" unicode="&#x2113;" horiz-adv-x="500" 
d="M89 154h-2l-33 48l92 85v257c0 101 59 177 145 177c74 0 122 -54 122 -135c0 -100 -60 -201 -177 -314v-141c0 -48 26 -78 70 -78c28 0 56 12 88 38h2l32 -47c-42 -39 -90 -58 -143 -58c-88 0 -138 53 -138 132v93zM236 559v-209c68 78 103 158 103 230
c0 47 -21 80 -49 80c-32 0 -54 -43 -54 -101z" />
    <glyph glyph-name="estimated" unicode="&#x212e;" horiz-adv-x="976" 
d="M900 341h-667c-4 0 -6 -1 -6 -6v-190c0 -10 2 -23 8 -30c54 -69 142 -108 251 -108c117 0 197 50 269 118h72c-81 -98 -168 -144 -338 -144c-263 0 -414 168 -414 362c0 195 156 380 412 380c317 0 413 -206 413 -382zM749 368v194c0 11 -5 20 -12 28
c-69 86 -181 107 -254 107c-81 0 -174 -31 -246 -105c-6 -7 -10 -17 -10 -29v-195c0 -5 2 -6 6 -6h510c3 0 6 1 6 6z" />
    <glyph glyph-name="infinity" unicode="&#x221e;" horiz-adv-x="778" 
d="M594 434c93 0 160 -70 160 -171c0 -102 -66 -174 -161 -174c-63 0 -114 27 -185 107c-84 -90 -124 -106 -183 -106c-98 0 -164 72 -164 172c0 99 66 171 160 171c63 0 113 -27 187 -114c67 82 122 115 186 115zM456 259c77 -73 111 -84 146 -84c47 0 79 33 79 85
s-32 89 -82 89c-37 0 -77 -22 -143 -90zM136 260c0 -51 31 -85 82 -85c39 0 88 29 143 84c-61 61 -107 89 -148 89c-46 0 -77 -40 -77 -88z" />
    <glyph glyph-name="partialdiff" unicode="&#x2202;" horiz-adv-x="523" 
d="M224 721c191 0 257 -181 257 -362c0 -236 -82 -371 -238 -371c-120 0 -208 95 -208 225c0 128 84 216 203 216c60 0 114 -27 156 -70l1 40c0 123 -46 252 -167 252c-46 0 -80 -18 -116 -47l-47 55c49 39 95 62 159 62zM118 209c0 -86 49 -155 127 -155
c83 0 139 85 146 217c-31 56 -80 90 -143 90c-77 0 -130 -61 -130 -152z" />
    <glyph glyph-name="integral" unicode="&#x222b;" horiz-adv-x="574" 
d="M354 786c43 0 88 -25 88 -63c0 -25 -19 -42 -44 -42c-27 0 -37 17 -49 45c-3 6 -8 10 -14 10c-18 0 -26 -23 -26 -87c0 -30 2 -71 2 -81v-577c0 -137 -44 -204 -131 -204c-49 0 -84 23 -84 60c0 23 19 41 42 41c46 0 40 -54 61 -54c16 0 25 25 25 90c0 38 -1 73 -1 75
v508l-1 66c0 83 11 136 34 167c24 32 55 46 98 46z" />
    <glyph glyph-name="radical" unicode="&#x221a;" horiz-adv-x="515" 
d="M436 786h90l-211 -1000h-86l-158 328l-48 -23l-33 70l124 58l144 -302z" />
    <glyph glyph-name="summation" unicode="&#x2211;" horiz-adv-x="626" 
d="M38 786h551v-83h-432l292 -412l-311 -423h463v-82h-576v72l316 433l-303 422v73z" />
    <glyph glyph-name="product" unicode="&#x220f;" horiz-adv-x="726" 
d="M66 786h594v-1000h-90v917h-413v-917h-91v1000z" />
    <glyph glyph-name="lozenge" unicode="&#x25ca;" horiz-adv-x="593" 
d="M255 747h82l174 -391l-174 -391h-82l-173 391zM296 661l-127 -305l127 -305l128 305z" />
    <glyph glyph-name="uniF8FF" unicode="&#xf8ff;" horiz-adv-x="512" 
d="M0 718h512v-718h-512v718zM50 50h412v617h-412v-617zM259 609c73 0 124 -53 124 -131c0 -51 -17 -79 -65 -121c-23 -21 -37 -38 -41 -50c-5 -12 -6 -36 -6 -73h-46l-2 19c0 71 14 96 64 143c27 26 45 46 45 78c0 48 -37 85 -76 85c-45 0 -74 -33 -82 -95l-50 8
c8 90 57 137 135 137zM222 117v67h56v-67h-56z" />
    <glyph glyph-name="uni20B9" unicode="&#x20b9;" 
d="M79 708h453v-66h-162c28 -23 45 -54 49 -95h113v-66h-113c-13 -98 -88 -160 -218 -162l229 -319h-116c-75 109 -159 219 -234 329v56h60c102 0 169 32 183 96h-244c0 22 1 44 1 66h244c-13 69 -80 95 -164 95h-81v66z" />
    <glyph glyph-name="uni20BA" unicode="&#x20ba;" 
d="M209 708v-135l191 82v-71l-191 -82v-91l191 81v-71l-191 -81v-263c6 -1 11 -1 24 -1c142 0 214 114 214 293h95c0 -240 -108 -377 -316 -377c-44 0 -90 4 -112 8v299l-91 -39v71l91 39v91l-91 -38v71l91 38v176h95z" />
    <glyph glyph-name="uni1E9E" unicode="&#x1e9e;" horiz-adv-x="685" 
d="M567 716v-87c-100 1 -179 -34 -179 -112c0 -62 66 -93 122 -133c84 -60 137 -112 137 -208c0 -117 -93 -194 -211 -194c-74 0 -150 20 -208 90l78 66c34 -47 83 -66 132 -66c63 0 105 37 106 100c1 66 -40 94 -109 141c-83 57 -150 103 -150 192c0 71 48 111 95 135
c0 0 -16 1 -23 1c-109 0 -185 -30 -186 -146v-495h-97v494c0 167 101 232 282 232c79 0 133 -3 211 -10z" />
    <glyph glyph-name="uni20BC" unicode="&#x20bc;" 
d="M326 500v-400h-96v400c-85 -20 -108 -113 -108 -427v-73h-96v85c0 344 29 473 204 505v118h96v-118c175 -32 204 -161 204 -505v-85h-96v73c0 314 -23 407 -108 427z" />
    <glyph glyph-name="uni20BD" unicode="&#x20bd;" 
d="M187 396h100c99 0 148 36 148 114c0 77 -50 114 -148 114h-100v-228zM25 312v84h66v312h208c146 0 232 -71 232 -198c0 -128 -88 -198 -232 -198h-112v-66h194v-84h-194v-162h-96v162h-66v84h66v66h-66z" />
    </font>
</defs>
</svg>
